  0
SECTION
  2
HEADER
  9
$ACADVER
  1
AC1032
  9
$ACADMAINTVER
 90
      378
  9
$DWGCODEPAGE
  3
ANSI_1252
  9
$LASTSAVEDBY
  1
rpayt
  9
$REQUIREDVERSIONS
160
                 0
  9
$INSBASE
 10
0.0
 20
0.0
 30
0.0
  9
$EXTMIN
 10
0.0
 20
-4.980250772085867
 30
0.0
  9
$EXTMAX
 10
656.9101676994627
 20
6.269999999999999
 30
0.0
  9
$LIMMIN
 10
0.0
 20
0.0
  9
$LIMMAX
 10
12.0
 20
9.0
  9
$ORTHOMODE
 70
     0
  9
$REGENMODE
 70
     1
  9
$FILLMODE
 70
     1
  9
$QTEXTMODE
 70
     0
  9
$MIRRTEXT
 70
     0
  9
$LTSCALE
 40
1.0
  9
$ATTMODE
 70
     1
  9
$TEXTSIZE
 40
0.2
  9
$TRACEWID
 40
0.05
  9
$TEXTSTYLE
  7
Standard
  9
$CLAYER
  8
0
  9
$CELTYPE
  6
Continuous
  9
$CECOLOR
 62
   256
  9
$CELTSCALE
 40
1.0
  9
$DISPSILH
 70
     0
  9
$DIMSCALE
 40
1.0
  9
$DIMASZ
 40
0.18
  9
$DIMEXO
 40
0.0625
  9
$DIMDLI
 40
0.38
  9
$DIMRND
 40
0.0
  9
$DIMDLE
 40
0.0
  9
$DIMEXE
 40
0.18
  9
$DIMTP
 40
0.0
  9
$DIMTM
 40
0.0
  9
$DIMTXT
 40
0.18
  9
$DIMCEN
 40
0.09
  9
$DIMTSZ
 40
0.0
  9
$DIMTOL
 70
     0
  9
$DIMLIM
 70
     0
  9
$DIMTIH
 70
     1
  9
$DIMTOH
 70
     1
  9
$DIMSE1
 70
     0
  9
$DIMSE2
 70
     0
  9
$DIMTAD
 70
     0
  9
$DIMZIN
 70
     0
  9
$DIMBLK
  1

  9
$DIMASO
 70
     1
  9
$DIMSHO
 70
     1
  9
$DIMPOST
  1

  9
$DIMAPOST
  1

  9
$DIMALT
 70
     0
  9
$DIMALTD
 70
     2
  9
$DIMALTF
 40
25.4
  9
$DIMLFAC
 40
1.0
  9
$DIMTOFL
 70
     0
  9
$DIMTVP
 40
0.0
  9
$DIMTIX
 70
     0
  9
$DIMSOXD
 70
     0
  9
$DIMSAH
 70
     0
  9
$DIMBLK1
  1

  9
$DIMBLK2
  1

  9
$DIMSTYLE
  2
Standard
  9
$DIMCLRD
 70
     0
  9
$DIMCLRE
 70
     0
  9
$DIMCLRT
 70
     0
  9
$DIMTFAC
 40
1.0
  9
$DIMGAP
 40
0.09
  9
$DIMJUST
 70
     0
  9
$DIMSD1
 70
     0
  9
$DIMSD2
 70
     0
  9
$DIMTOLJ
 70
     1
  9
$DIMTZIN
 70
     0
  9
$DIMALTZ
 70
     0
  9
$DIMALTTZ
 70
     0
  9
$DIMUPT
 70
     0
  9
$DIMDEC
 70
     4
  9
$DIMTDEC
 70
     4
  9
$DIMALTU
 70
     2
  9
$DIMALTTD
 70
     2
  9
$DIMTXSTY
  7
Standard
  9
$DIMAUNIT
 70
     0
  9
$DIMADEC
 70
     0
  9
$DIMALTRND
 40
0.0
  9
$DIMAZIN
 70
     0
  9
$DIMDSEP
 70
    46
  9
$DIMATFIT
 70
     3
  9
$DIMFRAC
 70
     0
  9
$DIMLDRBLK
  1

  9
$DIMLUNIT
 70
     2
  9
$DIMLWD
 70
    -2
  9
$DIMLWE
 70
    -2
  9
$DIMTMOVE
 70
     0
  9
$DIMFXL
 40
1.0
  9
$DIMFXLON
 70
     0
  9
$DIMJOGANG
 40
0.7853981633974483
  9
$DIMTFILL
 70
     0
  9
$DIMTFILLCLR
 70
     0
  9
$DIMARCSYM
 70
     0
  9
$DIMLTYPE
  6

  9
$DIMLTEX1
  6

  9
$DIMLTEX2
  6

  9
$DIMTXTDIRECTION
 70
     0
  9
$LUNITS
 70
     4
  9
$LUPREC
 70
     4
  9
$SKETCHINC
 40
0.1
  9
$FILLETRAD
 40
0.0
  9
$AUNITS
 70
     0
  9
$AUPREC
 70
     0
  9
$MENU
  1
.
  9
$ELEVATION
 40
0.0
  9
$PELEVATION
 40
0.0
  9
$THICKNESS
 40
0.0
  9
$LIMCHECK
 70
     0
  9
$CHAMFERA
 40
0.0
  9
$CHAMFERB
 40
0.0
  9
$CHAMFERC
 40
0.0
  9
$CHAMFERD
 40
0.0
  9
$SKPOLY
 70
     0
  9
$TDCREATE
 40
2461060.424837963
  9
$TDUCREATE
 40
2461060.674837963
  9
$TDUPDATE
 40
2461060.427083333
  9
$TDUUPDATE
 40
2461060.677083334
  9
$TDINDWG
 40
0.0022453704
  9
$TDUSRTIMER
 40
0.0022453704
  9
$USRTIMER
 70
     1
  9
$ANGBASE
 50
0.0
  9
$ANGDIR
 70
     0
  9
$PDMODE
 70
     0
  9
$PDSIZE
 40
0.0
  9
$PLINEWID
 40
0.0
  9
$SPLFRAME
 70
     0
  9
$SPLINETYPE
 70
     6
  9
$SPLINESEGS
 70
     8
  9
$HANDSEED
  5
F4C
  9
$SURFTAB1
 70
     6
  9
$SURFTAB2
 70
     6
  9
$SURFTYPE
 70
     6
  9
$SURFU
 70
     6
  9
$SURFV
 70
     6
  9
$UCSBASE
  2

  9
$UCSNAME
  2

  9
$UCSORG
 10
0.0
 20
0.0
 30
0.0
  9
$UCSXDIR
 10
1.0
 20
0.0
 30
0.0
  9
$UCSYDIR
 10
0.0
 20
1.0
 30
0.0
  9
$UCSORTHOREF
  2

  9
$UCSORTHOVIEW
 70
     0
  9
$UCSORGTOP
 10
0.0
 20
0.0
 30
0.0
  9
$UCSORGBOTTOM
 10
0.0
 20
0.0
 30
0.0
  9
$UCSORGLEFT
 10
0.0
 20
0.0
 30
0.0
  9
$UCSORGRIGHT
 10
0.0
 20
0.0
 30
0.0
  9
$UCSORGFRONT
 10
0.0
 20
0.0
 30
0.0
  9
$UCSORGBACK
 10
0.0
 20
0.0
 30
0.0
  9
$PUCSBASE
  2

  9
$PUCSNAME
  2

  9
$PUCSORG
 10
0.0
 20
0.0
 30
0.0
  9
$PUCSXDIR
 10
1.0
 20
0.0
 30
0.0
  9
$PUCSYDIR
 10
0.0
 20
1.0
 30
0.0
  9
$PUCSORTHOREF
  2

  9
$PUCSORTHOVIEW
 70
     0
  9
$PUCSORGTOP
 10
0.0
 20
0.0
 30
0.0
  9
$PUCSORGBOTTOM
 10
0.0
 20
0.0
 30
0.0
  9
$PUCSORGLEFT
 10
0.0
 20
0.0
 30
0.0
  9
$PUCSORGRIGHT
 10
0.0
 20
0.0
 30
0.0
  9
$PUCSORGFRONT
 10
0.0
 20
0.0
 30
0.0
  9
$PUCSORGBACK
 10
0.0
 20
0.0
 30
0.0
  9
$USERI1
 70
     0
  9
$USERI2
 70
     0
  9
$USERI3
 70
     0
  9
$USERI4
 70
     0
  9
$USERI5
 70
     0
  9
$USERR1
 40
0.0
  9
$USERR2
 40
0.0
  9
$USERR3
 40
0.0
  9
$USERR4
 40
0.0
  9
$USERR5
 40
0.0
  9
$WORLDVIEW
 70
     1
  9
$SHADEDGE
 70
     3
  9
$SHADEDIF
 70
    70
  9
$TILEMODE
 70
     1
  9
$MAXACTVP
 70
    64
  9
$PINSBASE
 10
0.0
 20
0.0
 30
0.0
  9
$PLIMCHECK
 70
     0
  9
$PEXTMIN
 10
1.000000000000000E+20
 20
1.000000000000000E+20
 30
1.000000000000000E+20
  9
$PEXTMAX
 10
-1.000000000000000E+20
 20
-1.000000000000000E+20
 30
-1.000000000000000E+20
  9
$PLIMMIN
 10
0.0
 20
0.0
  9
$PLIMMAX
 10
12.0
 20
9.0
  9
$UNITMODE
 70
     0
  9
$VISRETAIN
 70
     1
  9
$PLINEGEN
 70
     0
  9
$PSLTSCALE
 70
     1
  9
$TREEDEPTH
 70
  3020
  9
$CMLSTYLE
  2
Standard
  9
$CMLJUST
 70
     0
  9
$CMLSCALE
 40
1.0
  9
$PROXYGRAPHICS
 70
     1
  9
$MEASUREMENT
 70
     0
  9
$CELWEIGHT
370
    -1
  9
$ENDCAPS
280
     0
  9
$JOINSTYLE
280
     0
  9
$LWDISPLAY
290
     0
  9
$INSUNITS
 70
     1
  9
$HYPERLINKBASE
  1

  9
$STYLESHEET
  1

  9
$XEDIT
290
     1
  9
$CEPSNTYPE
380
     0
  9
$PSTYLEMODE
290
     1
  9
$FINGERPRINTGUID
  2
{121AE3EF-E147-D649-A603-02393BE8AD8E}
  9
$VERSIONGUID
  2
{46A6350D-17ED-C245-B91F-5D8856AB517E}
  9
$EXTNAMES
290
     1
  9
$PSVPSCALE
 40
0.0
  9
$OLESTARTUP
290
     0
  9
$SORTENTS
280
   127
  9
$INDEXCTL
280
     0
  9
$HIDETEXT
280
     0
  9
$XCLIPFRAME
280
     2
  9
$HALOGAP
280
     0
  9
$OBSCOLOR
 70
   257
  9
$OBSLTYPE
280
     0
  9
$INTERSECTIONDISPLAY
280
     0
  9
$INTERSECTIONCOLOR
 70
   257
  9
$DIMASSOC
280
     1
  9
$PROJECTNAME
  1

  9
$CAMERADISPLAY
290
     0
  9
$LENSLENGTH
 40
50.0
  9
$CAMERAHEIGHT
 40
0.0
  9
$STEPSPERSEC
 40
2.0
  9
$STEPSIZE
 40
6.0
  9
$3DDWFPREC
 40
2.0
  9
$PSOLWIDTH
 40
0.25
  9
$PSOLHEIGHT
 40
4.0
  9
$LOFTANG1
 40
1.570796326794896
  9
$LOFTANG2
 40
1.570796326794896
  9
$LOFTMAG1
 40
0.0
  9
$LOFTMAG2
 40
0.0
  9
$LOFTPARAM
 70
     7
  9
$LOFTNORMALS
280
     1
  9
$LATITUDE
 40
37.795
  9
$LONGITUDE
 40
-122.394
  9
$NORTHDIRECTION
 40
0.0
  9
$TIMEZONE
 70
 -8000
  9
$LIGHTGLYPHDISPLAY
280
     1
  9
$TILEMODELIGHTSYNCH
280
     1
  9
$CMATERIAL
347
11
  9
$SOLIDHIST
280
     0
  9
$SHOWHIST
280
     1
  9
$DWFFRAME
280
     2
  9
$DGNFRAME
280
     0
  9
$REALWORLDSCALE
290
     1
  9
$INTERFERECOLOR
 62
     1
  9
$INTERFEREOBJVS
345
33
  9
$INTERFEREVPVS
346
30
  9
$CSHADOW
280
     0
  9
$SHADOWPLANELOCATION
 40
0.0
  0
ENDSEC
  0
SECTION
  2
CLASSES
  0
CLASS
  1
ACDBDICTIONARYWDFLT
  2
AcDbDictionaryWithDefault
  3
ObjectDBX Classes
 90
        0
 91
        1
280
     0
281
     0
  0
CLASS
  1
MATERIAL
  2
AcDbMaterial
  3
ObjectDBX Classes
 90
     1153
 91
        3
280
     0
281
     0
  0
CLASS
  1
VISUALSTYLE
  2
AcDbVisualStyle
  3
ObjectDBX Classes
 90
     4095
 91
       24
280
     0
281
     0
  0
CLASS
  1
SCALE
  2
AcDbScale
  3
ObjectDBX Classes
 90
     1153
 91
       17
280
     0
281
     0
  0
CLASS
  1
TABLESTYLE
  2
AcDbTableStyle
  3
ObjectDBX Classes
 90
     4095
 91
        1
280
     0
281
     0
  0
CLASS
  1
MLEADERSTYLE
  2
AcDbMLeaderStyle
  3
ACDB_MLEADERSTYLE_CLASS
 90
     4095
 91
        1
280
     0
281
     0
  0
CLASS
  1
ACDBSECTIONVIEWSTYLE
  2
AcDbSectionViewStyle
  3
ObjectDBX Classes
 90
     1025
 91
        1
280
     0
281
     0
  0
CLASS
  1
ACDBDETAILVIEWSTYLE
  2
AcDbDetailViewStyle
  3
ObjectDBX Classes
 90
     1025
 91
        1
280
     0
281
     0
  0
CLASS
  1
ACDBASSOCPERSSUBENTMANAGER
  2
AcDbAssocPersSubentManager
  3
ObjectDBX Classes
 90
     1024
 91
        1
280
     0
281
     0
  0
CLASS
  1
SORTENTSTABLE
  2
AcDbSortentsTable
  3
ObjectDBX Classes
 90
        0
 91
        1
280
     0
281
     0
  0
CLASS
  1
DICTIONARYVAR
  2
AcDbDictionaryVar
  3
ObjectDBX Classes
 90
        0
 91
        9
280
     0
281
     0
  0
CLASS
  1
CELLSTYLEMAP
  2
AcDbCellStyleMap
  3
ObjectDBX Classes
 90
     1152
 91
        2
280
     0
281
     0
  0
ENDSEC
  0
SECTION
  2
TABLES
  0
TABLE
  2
VPORT
  5
8
330
0
100
AcDbSymbolTable
 70
     1
  0
VPORT
  5
76
330
8
100
AcDbSymbolTableRecord
100
AcDbViewportTableRecord
  2
*Active
 70
     0
 10
0.0
 20
0.0
 11
1.0
 21
1.0
 12
328.4550838497314
 22
0.6448746139570663
 13
0.0
 23
0.0
 14
1.0
 24
1.0
 15
0.0
 25
0.0
 16
0.0
 26
0.0
 36
1.0
 17
0.0
 27
0.0
 37
0.0
 40
313.2232303874995
 41
2.10054945054945
 42
50.0
 43
0.0
 44
0.0
 50
0.0
 51
0.0
 71
     0
 72
   100
 73
     1
 74
     1
 75
     0
 76
     0
 77
     0
 78
     0
281
     0
 65
     1
110
0.0
120
0.0
130
0.0
111
1.0
121
0.0
131
0.0
112
0.0
122
1.0
132
0.0
 79
     0
146
0.0
348
2F
 60
     3
 61
     5
292
     1
282
     1
141
0.0
142
0.0
 63
   250
421
  3355443
1001
ACAD_NAV_VCDISPLAY
1070
     3
  0
ENDTAB
  0
TABLE
  2
LTYPE
  5
5
330
0
100
AcDbSymbolTable
 70
     1
  0
LTYPE
  5
5A
330
5
100
AcDbSymbolTableRecord
100
AcDbLinetypeTableRecord
  2
ByBlock
 70
     0
  3

 72
    65
 73
     0
 40
0.0
  0
LTYPE
  5
5B
330
5
100
AcDbSymbolTableRecord
100
AcDbLinetypeTableRecord
  2
ByLayer
 70
     0
  3

 72
    65
 73
     0
 40
0.0
  0
LTYPE
  5
5C
330
5
100
AcDbSymbolTableRecord
100
AcDbLinetypeTableRecord
  2
Continuous
 70
     0
  3
Solid line
 72
    65
 73
     0
 40
0.0
  0
ENDTAB
  0
TABLE
  2
LAYER
  5
2
102
{ACAD_XDICTIONARY
360
F43
102
}
330
0
100
AcDbSymbolTable
 70
     3
  0
LAYER
  5
54
102
{ACAD_XDICTIONARY
360
F2F
102
}
330
2
100
AcDbSymbolTableRecord
100
AcDbLayerTableRecord
  2
0
 70
     0
 62
     7
  6
Continuous
370
    -3
390
F
347
21
348
0
  0
LAYER
  5
73
102
{ACAD_XDICTIONARY
360
F31
102
}
330
2
100
AcDbSymbolTableRecord
100
AcDbLayerTableRecord
  2
AISC_STEEL
 70
     0
 62
     7
  6
Continuous
370
    -3
390
F
347
21
348
0
  0
ENDTAB
  0
TABLE
  2
STYLE
  5
3
330
0
100
AcDbSymbolTable
 70
     2
  0
STYLE
  5
55
330
3
100
AcDbSymbolTableRecord
100
AcDbTextStyleTableRecord
  2
Standard
 70
     0
 40
0.0
 41
1.0
 50
0.0
 71
     0
 42
0.2
  3
txt
  4

  0
ENDTAB
  0
TABLE
  2
VIEW
  5
6
330
0
100
AcDbSymbolTable
 70
     1
  0
ENDTAB
  0
TABLE
  2
UCS
  5
7
330
0
100
AcDbSymbolTable
 70
     0
  0
ENDTAB
  0
TABLE
  2
APPID
  5
9
330
0
100
AcDbSymbolTable
 70
     3
  0
APPID
  5
56
330
9
100
AcDbSymbolTableRecord
100
AcDbRegAppTableRecord
  2
ACAD
 70
     0
  0
APPID
  5
5D
330
9
100
AcDbSymbolTableRecord
100
AcDbRegAppTableRecord
  2
AcadAnnotative
 70
     0
  0
APPID
  5
311
330
9
100
AcDbSymbolTableRecord
100
AcDbRegAppTableRecord
  2
ACAD_NAV_VCDISPLAY
 70
     0
  0
ENDTAB
  0
TABLE
  2
DIMSTYLE
  5
A
330
0
100
AcDbSymbolTable
 70
     2
100
AcDbDimStyleTable
 71
     0
  0
DIMSTYLE
105
57
330
A
100
AcDbSymbolTableRecord
100
AcDbDimStyleTableRecord
  2
Standard
 70
     0
340
55
  0
ENDTAB
  0
TABLE
  2
BLOCK_RECORD
  5
1
330
0
100
AcDbSymbolTable
 70
     1
  0
BLOCK_RECORD
  5
6F
102
{ACAD_XDICTIONARY
360
A6C
102
}
330
1
100
AcDbSymbolTableRecord
100
AcDbBlockTableRecord
  2
*Model_Space
340
72
 70
     0
280
     1
281
     0
  0
BLOCK_RECORD
  5
6B
330
1
100
AcDbSymbolTableRecord
100
AcDbBlockTableRecord
  2
*Paper_Space
340
6E
 70
     0
280
     1
281
     0
  0
ENDTAB
  0
ENDSEC
  0
SECTION
  2
BLOCKS
  0
BLOCK
  5
70
330
6F
100
AcDbEntity
  8
0
100
AcDbBlockBegin
  2
*Model_Space
 70
     0
 10
0.0
 20
0.0
 30
0.0
  3
*Model_Space
  1

  0
ENDBLK
  5
71
330
6F
100
AcDbEntity
  8
0
100
AcDbBlockEnd
  0
BLOCK
  5
6C
330
6B
100
AcDbEntity
 67
     1
  8
0
100
AcDbBlockBegin
  2
*Paper_Space
 70
     0
 10
0.0
 20
0.0
 30
0.0
  3
*Paper_Space
  1

  0
ENDBLK
  5
6D
330
6B
100
AcDbEntity
 67
     1
  8
0
100
AcDbBlockEnd
  0
ENDSEC
  0
SECTION
  2
ENTITIES
  0
LINE
  5
CE0
330
6F
100
AcDbEntity
  8
0
 62
     3
370
     0
100
AcDbLine
 10
1.614724191627601
 20
-3.498313582153031
 30
0.0
 11
2.624159668828269
 21
-3.498313582153031
 31
0.0
  0
LINE
  5
CE1
330
6F
100
AcDbEntity
  8
0
 62
     3
370
     0
100
AcDbLine
 10
2.108703254938518
 20
-3.498313582153031
 30
0.0
 11
2.108703254938518
 21
-4.980250772085867
 31
0.0
  0
LINE
  5
CEB
330
6F
100
AcDbEntity
  8
0
 62
     3
370
     0
100
AcDbLine
 10
4.621553272650771
 20
-4.980250772085867
 30
0.0
 11
4.621553272650771
 21
-4.743999915719768
 31
0.0
  0
LINE
  5
CFD
330
6F
100
AcDbEntity
  8
0
 62
     3
370
     0
100
AcDbLine
 10
8.122361416984858
 20
-4.980250772085867
 30
0.0
 11
9.110319543606692
 21
-3.498313582153031
 31
0.0
  0
LINE
  5
CFE
330
6F
100
AcDbEntity
  8
0
 62
     3
370
     0
100
AcDbLine
 10
8.122361416984858
 20
-3.498313582153031
 30
0.0
 11
9.110319543606692
 21
-4.980250772085867
 31
0.0
  0
LINE
  5
D08
330
6F
100
AcDbEntity
  8
0
 62
     3
370
     0
100
AcDbLine
 10
11.10771314742919
 20
-4.980250772085867
 30
0.0
 11
11.10771314742919
 21
-4.743999915719768
 31
0.0
  0
LINE
  5
D16
330
6F
100
AcDbEntity
  8
0
 62
     3
370
     0
100
AcDbLine
 10
51.59251898834781
 20
-3.498313582153031
 30
0.0
 11
52.60195446554849
 21
-3.498313582153031
 31
0.0
  0
LINE
  5
D17
330
6F
100
AcDbEntity
  8
0
 62
     3
370
     0
100
AcDbLine
 10
52.10797540223757
 20
-3.498313582153031
 30
0.0
 11
52.10797540223757
 21
-4.980250772085867
 31
0.0
  0
LINE
  5
D21
330
6F
100
AcDbEntity
  8
0
 62
     3
370
     0
100
AcDbLine
 10
54.59934806937098
 20
-4.980250772085867
 30
0.0
 11
54.59934806937098
 21
-4.743999915719768
 31
0.0
  0
LINE
  5
D33
330
6F
100
AcDbEntity
  8
0
 62
     3
370
     0
100
AcDbLine
 10
58.10015621370507
 20
-4.980250772085867
 30
0.0
 11
59.08811434032691
 21
-3.498313582153031
 31
0.0
  0
LINE
  5
D34
330
6F
100
AcDbEntity
  8
0
 62
     3
370
     0
100
AcDbLine
 10
58.10015621370507
 20
-3.498313582153031
 30
0.0
 11
59.08811434032691
 21
-4.980250772085867
 31
0.0
  0
LINE
  5
D3D
330
6F
100
AcDbEntity
  8
0
 62
     3
370
     0
100
AcDbLine
 10
61.10698529472824
 20
-4.980250772085867
 30
0.0
 11
61.10698529472824
 21
-4.743999915719768
 31
0.0
  0
LINE
  5
D41
330
6F
100
AcDbEntity
  8
0
 62
     3
370
     0
100
AcDbLine
 10
61.83721521440521
 20
-4.228543501830074
 30
0.0
 11
62.35267162829496
 21
-4.228543501830074
 31
0.0
  0
LINE
  5
D51
330
6F
100
AcDbEntity
  8
0
 62
     3
370
     0
100
AcDbLine
 10
101.5917911356468
 20
-3.498313582153031
 30
0.0
 11
102.5797492622687
 21
-3.498313582153031
 31
0.0
  0
LINE
  5
D52
330
6F
100
AcDbEntity
  8
0
 62
     3
370
     0
100
AcDbLine
 10
102.0857701989578
 20
-3.498313582153031
 30
0.0
 11
102.0857701989578
 21
-4.980250772085867
 31
0.0
  0
LINE
  5
D5C
330
6F
100
AcDbEntity
  8
0
 62
     3
370
     0
100
AcDbLine
 10
104.5771428660912
 20
-4.980250772085867
 30
0.0
 11
105.5865783432919
 21
-3.498313582153031
 31
0.0
  0
LINE
  5
D5D
330
6F
100
AcDbEntity
  8
0
 62
     3
370
     0
100
AcDbLine
 10
104.5771428660912
 20
-3.498313582153031
 30
0.0
 11
105.5865783432919
 21
-4.980250772085867
 31
0.0
  0
LINE
  5
D66
330
6F
100
AcDbEntity
  8
0
 62
     3
370
     0
100
AcDbLine
 10
107.5839719471143
 20
-4.980250772085867
 30
0.0
 11
107.5839719471143
 21
-4.743999915719768
 31
0.0
  0
LINE
  5
D74
330
6F
100
AcDbEntity
  8
0
 62
     3
370
     0
100
AcDbLine
 10
151.5695859323671
 20
-3.498313582153031
 30
0.0
 11
152.5575440589889
 21
-3.498313582153031
 31
0.0
  0
LINE
  5
D75
330
6F
100
AcDbEntity
  8
0
 62
     3
370
     0
100
AcDbLine
 10
152.063564995678
 20
-3.498313582153031
 30
0.0
 11
152.063564995678
 21
-4.980250772085867
 31
0.0
  0
LINE
  5
D7F
330
6F
100
AcDbEntity
  8
0
 62
     3
370
     0
100
AcDbLine
 10
154.5764150133902
 20
-4.980250772085867
 30
0.0
 11
155.5643731400121
 21
-3.498313582153031
 31
0.0
  0
LINE
  5
D80
330
6F
100
AcDbEntity
  8
0
 62
     3
370
     0
100
AcDbLine
 10
154.5764150133902
 20
-3.498313582153031
 30
0.0
 11
155.5643731400121
 21
-4.980250772085867
 31
0.0
  0
LINE
  5
D89
330
6F
100
AcDbEntity
  8
0
 62
     3
370
     0
100
AcDbLine
 10
157.5617667438346
 20
-4.980250772085867
 30
0.0
 11
157.5617667438346
 21
-4.743999915719768
 31
0.0
  0
LINE
  5
D91
330
6F
100
AcDbEntity
  8
0
 62
     3
370
     0
100
AcDbLine
 10
201.5473807290874
 20
-3.498313582153031
 30
0.0
 11
202.556816206288
 21
-3.498313582153031
 31
0.0
  0
LINE
  5
D92
330
6F
100
AcDbEntity
  8
0
 62
     3
370
     0
100
AcDbLine
 10
202.0413597923983
 20
-3.498313582153031
 30
0.0
 11
202.0413597923983
 21
-4.980250772085867
 31
0.0
  0
LINE
  5
D9C
330
6F
100
AcDbEntity
  8
0
 62
     3
370
     0
100
AcDbLine
 10
204.5542098101105
 20
-4.980250772085867
 30
0.0
 11
205.5421679367324
 21
-3.498313582153031
 31
0.0
  0
LINE
  5
D9D
330
6F
100
AcDbEntity
  8
0
 62
     3
370
     0
100
AcDbLine
 10
204.5542098101105
 20
-3.498313582153031
 30
0.0
 11
205.5421679367324
 21
-4.980250772085867
 31
0.0
  0
LINE
  5
DAA
330
6F
100
AcDbEntity
  8
0
 62
     3
370
     0
100
AcDbLine
 10
251.5251755258077
 20
-3.498313582153031
 30
0.0
 11
252.5346110030083
 21
-3.498313582153031
 31
0.0
  0
LINE
  5
DAB
330
6F
100
AcDbEntity
  8
0
 62
     3
370
     0
100
AcDbLine
 10
252.0406319396973
 20
-3.498313582153031
 30
0.0
 11
252.0406319396973
 21
-4.980250772085867
 31
0.0
  0
LINE
  5
DB4
330
6F
100
AcDbEntity
  8
0
 62
     3
370
     0
100
AcDbLine
 10
254.5320046068308
 20
-4.980250772085867
 30
0.0
 11
255.5414400840314
 21
-3.498313582153031
 31
0.0
  0
LINE
  5
DB5
330
6F
100
AcDbEntity
  8
0
 62
     3
370
     0
100
AcDbLine
 10
254.5320046068308
 20
-3.498313582153031
 30
0.0
 11
255.5414400840314
 21
-4.980250772085867
 31
0.0
  0
LINE
  5
DB9
330
6F
100
AcDbEntity
  8
0
 62
     3
370
     0
100
AcDbLine
 10
257.5388336878539
 20
-4.980250772085867
 30
0.0
 11
257.5388336878539
 21
-4.743999915719768
 31
0.0
  0
LINE
  5
DC6
330
6F
100
AcDbEntity
  8
0
 62
     3
370
     0
100
AcDbLine
 10
301.5244476731067
 20
-3.498313582153031
 30
0.0
 11
302.5124057997286
 21
-3.498313582153031
 31
0.0
  0
LINE
  5
DC7
330
6F
100
AcDbEntity
  8
0
 62
     3
370
     0
100
AcDbLine
 10
302.0184267364176
 20
-3.498313582153031
 30
0.0
 11
302.0184267364176
 21
-4.980250772085867
 31
0.0
  0
LINE
  5
DD0
330
6F
100
AcDbEntity
  8
0
 62
     3
370
     0
100
AcDbLine
 10
304.5097994035511
 20
-4.980250772085867
 30
0.0
 11
305.5192348807517
 21
-3.498313582153031
 31
0.0
  0
LINE
  5
DD1
330
6F
100
AcDbEntity
  8
0
 62
     3
370
     0
100
AcDbLine
 10
304.5097994035511
 20
-3.498313582153031
 30
0.0
 11
305.5192348807517
 21
-4.980250772085867
 31
0.0
  0
LINE
  5
DD9
330
6F
100
AcDbEntity
  8
0
 62
     3
370
     0
100
AcDbLine
 10
351.5022424698269
 20
-3.498313582153031
 30
0.0
 11
352.5116779470276
 21
-3.498313582153031
 31
0.0
  0
LINE
  5
DDA
330
6F
100
AcDbEntity
  8
0
 62
     3
370
     0
100
AcDbLine
 10
351.9962215331379
 20
-3.498313582153031
 30
0.0
 11
351.9962215331379
 21
-4.980250772085867
 31
0.0
  0
LINE
  5
DE3
330
6F
100
AcDbEntity
  8
0
 62
     3
370
     0
100
AcDbLine
 10
354.5090715508501
 20
-4.980250772085867
 30
0.0
 11
355.497029677472
 21
-3.498313582153031
 31
0.0
  0
LINE
  5
DE4
330
6F
100
AcDbEntity
  8
0
 62
     3
370
     0
100
AcDbLine
 10
354.5090715508501
 20
-3.498313582153031
 30
0.0
 11
355.497029677472
 21
-4.980250772085867
 31
0.0
  0
LINE
  5
DF0
330
6F
100
AcDbEntity
  8
0
 62
     3
370
     0
100
AcDbLine
 10
357.4944232812945
 20
-4.980250772085867
 30
0.0
 11
357.4944232812945
 21
-4.743999915719768
 31
0.0
  0
LINE
  5
DFF
330
6F
100
AcDbEntity
  8
0
 62
     3
370
     0
100
AcDbLine
 10
401.4800372665472
 20
-3.498313582153031
 30
0.0
 11
402.4894727437478
 21
-3.498313582153031
 31
0.0
  0
LINE
  5
E00
330
6F
100
AcDbEntity
  8
0
 62
     3
370
     0
100
AcDbLine
 10
401.9954936804368
 20
-3.498313582153031
 30
0.0
 11
401.9954936804368
 21
-4.980250772085867
 31
0.0
  0
LINE
  5
E04
330
6F
100
AcDbEntity
  8
0
 62
     3
370
     0
100
AcDbLine
 10
404.4868663475703
 20
-4.980250772085867
 30
0.0
 11
405.4963018247709
 21
-3.498313582153031
 31
0.0
  0
LINE
  5
E05
330
6F
100
AcDbEntity
  8
0
 62
     3
370
     0
100
AcDbLine
 10
404.4868663475703
 20
-3.498313582153031
 30
0.0
 11
405.4963018247709
 21
-4.980250772085867
 31
0.0
  0
LINE
  5
E11
330
6F
100
AcDbEntity
  8
0
 62
     3
370
     0
100
AcDbLine
 10
407.4936954285934
 20
-4.980250772085867
 30
0.0
 11
407.4936954285934
 21
-4.743999915719768
 31
0.0
  0
LINE
  5
E27
330
6F
100
AcDbEntity
  8
0
 62
     3
370
     0
100
AcDbLine
 10
451.4793094138462
 20
-3.498313582153031
 30
0.0
 11
452.4672675404681
 21
-3.498313582153031
 31
0.0
  0
LINE
  5
E28
330
6F
100
AcDbEntity
  8
0
 62
     3
370
     0
100
AcDbLine
 10
451.9732884771571
 20
-3.498313582153031
 30
0.0
 11
451.9732884771571
 21
-4.980250772085867
 31
0.0
  0
LINE
  5
E2C
330
6F
100
AcDbEntity
  8
0
 62
     3
370
     0
100
AcDbLine
 10
454.4646611442906
 20
-4.980250772085867
 30
0.0
 11
455.4740966214913
 21
-3.498313582153031
 31
0.0
  0
LINE
  5
E2D
330
6F
100
AcDbEntity
  8
0
 62
     3
370
     0
100
AcDbLine
 10
454.4646611442906
 20
-3.498313582153031
 30
0.0
 11
455.4740966214913
 21
-4.980250772085867
 31
0.0
  0
LINE
  5
E39
330
6F
100
AcDbEntity
  8
0
 62
     3
370
     0
100
AcDbLine
 10
457.4714902253138
 20
-4.980250772085867
 30
0.0
 11
457.4714902253138
 21
-4.743999915719768
 31
0.0
  0
LINE
  5
E3C
330
6F
100
AcDbEntity
  8
0
 62
     3
370
     0
100
AcDbLine
 10
457.9654692886247
 20
-4.980250772085867
 30
0.0
 11
458.4594483519356
 21
-4.980250772085867
 31
0.0
  0
LINE
  5
E41
330
6F
100
AcDbEntity
  8
0
 62
     3
370
     0
100
AcDbLine
 10
501.4571042105664
 20
-3.498313582153031
 30
0.0
 11
502.4450623371883
 21
-3.498313582153031
 31
0.0
  0
LINE
  5
E42
330
6F
100
AcDbEntity
  8
0
 62
     3
370
     0
100
AcDbLine
 10
501.9510832738774
 20
-3.498313582153031
 30
0.0
 11
501.9510832738774
 21
-4.980250772085867
 31
0.0
  0
LINE
  5
E4E
330
6F
100
AcDbEntity
  8
0
 62
     3
370
     0
100
AcDbLine
 10
504.4639332915896
 20
-4.980250772085867
 30
0.0
 11
505.4518914182115
 21
-3.498313582153031
 31
0.0
  0
LINE
  5
E4F
330
6F
100
AcDbEntity
  8
0
 62
     3
370
     0
100
AcDbLine
 10
504.4639332915896
 20
-3.498313582153031
 30
0.0
 11
505.4518914182115
 21
-4.980250772085867
 31
0.0
  0
LINE
  5
E59
330
6F
100
AcDbEntity
  8
0
 62
     3
370
     0
100
AcDbLine
 10
507.449285022034
 20
-4.980250772085867
 30
0.0
 11
507.449285022034
 21
-4.743999915719768
 31
0.0
  0
LINE
  5
E67
330
6F
100
AcDbEntity
  8
0
 62
     3
370
     0
100
AcDbLine
 10
551.4348990072868
 20
-3.498313582153031
 30
0.0
 11
552.4443344844874
 21
-3.498313582153031
 31
0.0
  0
LINE
  5
E68
330
6F
100
AcDbEntity
  8
0
 62
     3
370
     0
100
AcDbLine
 10
551.9288780705977
 20
-3.498313582153031
 30
0.0
 11
551.9288780705977
 21
-4.980250772085867
 31
0.0
  0
LINE
  5
E74
330
6F
100
AcDbEntity
  8
0
 62
     3
370
     0
100
AcDbLine
 10
554.4417280883099
 20
-4.980250772085867
 30
0.0
 11
555.4296862149318
 21
-3.498313582153031
 31
0.0
  0
LINE
  5
E75
330
6F
100
AcDbEntity
  8
0
 62
     3
370
     0
100
AcDbLine
 10
554.4417280883099
 20
-3.498313582153031
 30
0.0
 11
555.4296862149318
 21
-4.980250772085867
 31
0.0
  0
LINE
  5
E78
330
6F
100
AcDbEntity
  8
0
 62
     3
370
     0
100
AcDbLine
 10
555.9451426288214
 20
-4.980250772085867
 30
0.0
 11
556.4391216921324
 21
-4.980250772085867
 31
0.0
  0
LINE
  5
E79
330
6F
100
AcDbEntity
  8
0
 62
     3
370
     0
100
AcDbLine
 10
556.9331007554434
 20
-4.980250772085867
 30
0.0
 11
556.9331007554434
 21
-4.743999915719768
 31
0.0
  0
LINE
  5
E7D
330
6F
100
AcDbEntity
  8
0
 62
     3
370
     0
100
AcDbLine
 10
557.6848080256992
 20
-4.228543501830074
 30
0.0
 11
558.1787870890101
 21
-4.228543501830074
 31
0.0
  0
LINE
  5
E95
330
6F
100
AcDbEntity
  8
0
 62
     3
370
     0
100
AcDbLine
 10
601.412693804007
 20
-3.498313582153031
 30
0.0
 11
602.4221292812077
 21
-3.498313582153031
 31
0.0
  0
LINE
  5
E96
330
6F
100
AcDbEntity
  8
0
 62
     3
370
     0
100
AcDbLine
 10
601.9281502178967
 20
-3.498313582153031
 30
0.0
 11
601.9281502178967
 21
-4.980250772085867
 31
0.0
  0
LINE
  5
EA0
330
6F
100
AcDbEntity
  8
0
 62
     3
370
     0
100
AcDbLine
 10
604.4195228850302
 20
-4.980250772085867
 30
0.0
 11
604.4195228850302
 21
-4.743999915719768
 31
0.0
  0
LINE
  5
EA9
330
6F
100
AcDbEntity
  8
0
 62
     3
370
     0
100
AcDbLine
 10
606.4169164888527
 20
-4.980250772085867
 30
0.0
 11
607.4263519660533
 21
-3.498313582153031
 31
0.0
  0
LINE
  5
EAA
330
6F
100
AcDbEntity
  8
0
 62
     3
370
     0
100
AcDbLine
 10
606.4169164888527
 20
-3.498313582153031
 30
0.0
 11
607.4263519660533
 21
-4.980250772085867
 31
0.0
  0
LINE
  5
EB4
330
6F
100
AcDbEntity
  8
0
 62
     3
370
     0
100
AcDbLine
 10
609.4237455698759
 20
-4.980250772085867
 30
0.0
 11
609.4237455698759
 21
-4.743999915719768
 31
0.0
  0
LINE
  5
EC4
330
6F
100
AcDbEntity
  8
0
 62
     3
370
     0
100
AcDbLine
 10
651.4119659513061
 20
-3.498313582153031
 30
0.0
 11
652.3999240779279
 21
-3.498313582153031
 31
0.0
  0
LINE
  5
EC5
330
6F
100
AcDbEntity
  8
0
 62
     3
370
     0
100
AcDbLine
 10
651.905945014617
 20
-3.498313582153031
 30
0.0
 11
651.905945014617
 21
-4.980250772085867
 31
0.0
  0
LINE
  5
ECF
330
6F
100
AcDbEntity
  8
0
 62
     3
370
     0
100
AcDbLine
 10
654.3973176817504
 20
-4.980250772085867
 30
0.0
 11
655.406753158951
 21
-3.498313582153031
 31
0.0
  0
LINE
  5
ED0
330
6F
100
AcDbEntity
  8
0
 62
     3
370
     0
100
AcDbLine
 10
654.3973176817504
 20
-3.498313582153031
 30
0.0
 11
655.406753158951
 21
-4.980250772085867
 31
0.0
  0
LWPOLYLINE
  5
EDC
330
6F
100
AcDbEntity
  8
0
 62
     3
370
     0
100
AcDbPolyline
 90
        7
 70
     0
 43
0.0
 10
656.4161886361517
 20
-4.228543501830074
 10
656.6524394925178
 20
-4.228543501830074
 10
656.9101676994627
 20
-4.486271708774921
 10
656.9101676994627
 20
-4.743999915719768
 10
656.6524394925178
 20
-4.980250772085867
 10
656.1584604292069
 20
-4.980250772085867
 10
655.900732222262
 20
-4.743999915719768
  0
LWPOLYLINE
  5
EDD
330
6F
100
AcDbEntity
  8
0
 62
     3
370
     0
100
AcDbPolyline
 90
        6
 70
     0
 43
0.0
 10
655.900732222262
 20
-3.734564438519129
 10
656.1584604292069
 20
-3.498313582153031
 10
656.6524394925178
 20
-3.498313582153031
 10
656.9101676994627
 20
-3.734564438519129
 10
656.9101676994627
 20
-3.992292645463976
 10
656.6524394925178
 20
-4.228543501830074
  0
LWPOLYLINE
  5
EDE
330
6F
100
AcDbEntity
  8
0
 62
     3
370
     0
100
AcDbPolyline
 90
       10
 70
     0
 43
0.0
 10
652.9153804918177
 20
-3.734564438519129
 10
653.1516313481837
 20
-3.498313582153031
 10
653.6670877620735
 20
-3.498313582153031
 10
653.9033386184395
 20
-3.734564438519129
 10
653.9033386184395
 20
-3.992292645463976
 10
653.6670877620735
 20
-4.228543501830074
 10
653.1516313481837
 20
-4.228543501830074
 10
652.9153804918177
 20
-4.486271708774921
 10
652.9153804918177
 20
-4.980250772085867
 10
653.9033386184395
 20
-4.980250772085867
  0
LWPOLYLINE
  5
EDF
330
6F
100
AcDbEntity
  8
0
 62
     3
370
     0
100
AcDbPolyline
 90
        5
 70
     0
 43
0.0
 10
649.9085514107945
 20
-4.980250772085867
 10
649.9085514107945
 20
-3.498313582153031
 10
650.4025304741055
 20
-4.486271708774921
 10
650.9179868879952
 20
-3.498313582153031
 10
650.9179868879952
 20
-4.980250772085867
  0
LWPOLYLINE
  5
EE0
330
6F
100
AcDbEntity
  8
0
 62
     3
370
     0
100
AcDbPolyline
 90
        9
 70
     0
 43
0.0
 10
611.4211391736984
 20
-4.743999915719768
 10
611.6788673806431
 20
-4.980250772085867
 10
612.1728464439541
 20
-4.980250772085867
 10
612.4090973003202
 20
-4.743999915719768
 10
612.4090973003202
 20
-4.228543501830074
 10
612.1728464439541
 20
-3.992292645463976
 10
611.4211391736984
 20
-3.992292645463976
 10
611.4211391736984
 20
-3.498313582153031
 10
612.4090973003202
 20
-3.498313582153031
  0
LWPOLYLINE
  5
EE1
330
6F
100
AcDbEntity
  8
0
 62
     3
370
     0
100
AcDbPolyline
 90
        4
 70
     0
 43
0.0
 10
610.9271601103873
 20
-4.486271708774921
 10
609.9177246331868
 20
-4.486271708774921
 10
610.6694319034426
 20
-3.498313582153031
 10
610.6694319034426
 20
-4.980250772085867
  0
LWPOLYLINE
  5
EE2
330
6F
100
AcDbEntity
  8
0
 62
     3
370
     0
100
AcDbPolyline
 90
       10
 70
     0
 43
0.0
 10
608.1780592363091
 20
-4.980250772085867
 10
608.4143100926752
 20
-4.980250772085867
 10
608.9297665065648
 20
-4.486271708774921
 10
608.9297665065648
 20
-3.734564438519129
 10
608.6720382996201
 20
-3.498313582153031
 10
608.1780592363091
 20
-3.498313582153031
 10
607.9203310293642
 20
-3.734564438519129
 10
607.9203310293642
 20
-3.992292645463976
 10
608.1780592363091
 20
-4.228543501830074
 10
608.9297665065648
 20
-4.228543501830074
  0
LWPOLYLINE
  5
EE3
330
6F
100
AcDbEntity
  8
0
 62
     3
370
     0
100
AcDbPolyline
 90
        9
 70
     0
 43
0.0
 10
604.9135019483411
 20
-4.743999915719768
 10
605.171230155286
 20
-4.980250772085867
 10
605.6652092185969
 20
-4.980250772085867
 10
605.9229374255417
 20
-4.743999915719768
 10
605.9229374255417
 20
-4.228543501830074
 10
605.6652092185969
 20
-3.992292645463976
 10
604.9135019483411
 20
-3.992292645463976
 10
604.9135019483411
 20
-3.498313582153031
 10
605.9229374255417
 20
-3.498313582153031
  0
LWPOLYLINE
  5
EE4
330
6F
100
AcDbEntity
  8
0
 62
     3
370
     0
100
AcDbPolyline
 90
       10
 70
     0
 43
0.0
 10
602.9161083445186
 20
-3.734564438519129
 10
603.1738365514635
 20
-3.498313582153031
 10
603.6678156147744
 20
-3.498313582153031
 10
603.9255438217193
 20
-3.734564438519129
 10
603.9255438217193
 20
-3.992292645463976
 10
603.6678156147744
 20
-4.228543501830074
 10
603.1738365514635
 20
-4.228543501830074
 10
602.9161083445186
 20
-4.486271708774921
 10
602.9161083445186
 20
-4.980250772085867
 10
603.9255438217193
 20
-4.980250772085867
  0
LWPOLYLINE
  5
EE5
330
6F
100
AcDbEntity
  8
0
 62
     3
370
     0
100
AcDbPolyline
 90
        5
 70
     0
 43
0.0
 10
599.9307566140742
 20
-4.980250772085867
 10
599.9307566140742
 20
-3.498313582153031
 10
600.4247356773852
 20
-4.486271708774921
 10
600.9187147406962
 20
-3.498313582153031
 10
600.9187147406962
 20
-4.980250772085867
  0
LWPOLYLINE
  5
EE6
330
6F
100
AcDbEntity
  8
0
 62
     3
370
     0
100
AcDbPolyline
 90
        9
 70
     0
 43
0.0
 10
558.9304943592659
 20
-4.743999915719768
 10
559.1882225662106
 20
-4.980250772085867
 10
559.6822016295217
 20
-4.980250772085867
 10
559.9399298364665
 20
-4.743999915719768
 10
559.9399298364665
 20
-4.228543501830074
 10
559.6822016295217
 20
-3.992292645463976
 10
558.9304943592659
 20
-3.992292645463976
 10
558.9304943592659
 20
-3.498313582153031
 10
559.9399298364665
 20
-3.498313582153031
  0
LWPOLYLINE
  5
EE7
330
6F
100
AcDbEntity
  8
0
 62
     3
370
     0
100
AcDbPolyline
 90
       14
 70
     1
 43
0.0
 10
558.1787870890101
 20
-4.228543501830074
 10
558.4365152959549
 20
-4.486271708774921
 10
558.4365152959549
 20
-4.743999915719768
 10
558.1787870890101
 20
-4.980250772085867
 10
557.6848080256992
 20
-4.980250772085867
 10
557.4270798187543
 20
-4.743999915719768
 10
557.4270798187543
 20
-4.486271708774921
 10
557.6848080256992
 20
-4.228543501830074
 10
557.4270798187543
 20
-3.992292645463976
 10
557.4270798187543
 20
-3.734564438519129
 10
557.6848080256992
 20
-3.498313582153031
 10
558.1787870890101
 20
-3.498313582153031
 10
558.4365152959549
 20
-3.734564438519129
 10
558.4365152959549
 20
-3.992292645463976
  0
LWPOLYLINE
  5
EE8
330
6F
100
AcDbEntity
  8
0
 62
     3
370
     0
100
AcDbPolyline
 90
        3
 70
     0
 43
0.0
 10
555.9451426288214
 20
-3.734564438519129
 10
556.1813934851876
 20
-3.498313582153031
 10
556.1813934851876
 20
-4.980250772085867
  0
LWPOLYLINE
  5
EE9
330
6F
100
AcDbEntity
  8
0
 62
     3
370
     0
100
AcDbPolyline
 90
        7
 70
     0
 43
0.0
 10
553.4322926111093
 20
-4.228543501830074
 10
553.6900208180541
 20
-4.228543501830074
 10
553.9477490249989
 20
-4.486271708774921
 10
553.9477490249989
 20
-4.743999915719768
 10
553.6900208180541
 20
-4.980250772085867
 10
553.1960417547431
 20
-4.980250772085867
 10
552.9383135477983
 20
-4.743999915719768
  0
LWPOLYLINE
  5
EEA
330
6F
100
AcDbEntity
  8
0
 62
     3
370
     0
100
AcDbPolyline
 90
        6
 70
     0
 43
0.0
 10
552.9383135477983
 20
-3.734564438519129
 10
553.1960417547431
 20
-3.498313582153031
 10
553.6900208180541
 20
-3.498313582153031
 10
553.9477490249989
 20
-3.734564438519129
 10
553.9477490249989
 20
-3.992292645463976
 10
553.6900208180541
 20
-4.228543501830074
  0
LWPOLYLINE
  5
EEB
330
6F
100
AcDbEntity
  8
0
 62
     3
370
     0
100
AcDbPolyline
 90
        5
 70
     0
 43
0.0
 10
549.9314844667752
 20
-4.980250772085867
 10
549.9314844667752
 20
-3.498313582153031
 10
550.4469408806649
 20
-4.486271708774921
 10
550.9409199439757
 20
-3.498313582153031
 10
550.9409199439757
 20
-4.980250772085867
  0
LWPOLYLINE
  5
EEC
330
6F
100
AcDbEntity
  8
0
 62
     3
370
     0
100
AcDbPolyline
 90
       10
 70
     0
 43
0.0
 10
507.943264085345
 20
-3.734564438519129
 10
508.2009922922898
 20
-3.498313582153031
 10
508.6949713556007
 20
-3.498313582153031
 10
508.9526995625456
 20
-3.734564438519129
 10
508.9526995625456
 20
-3.992292645463976
 10
508.6949713556007
 20
-4.228543501830074
 10
508.2009922922898
 20
-4.228543501830074
 10
507.943264085345
 20
-4.486271708774921
 10
507.943264085345
 20
-4.980250772085867
 10
508.9526995625456
 20
-4.980250772085867
  0
LWPOLYLINE
  5
EED
330
6F
100
AcDbEntity
  8
0
 62
     3
370
     0
100
AcDbPolyline
 90
       10
 70
     0
 43
0.0
 10
505.9458704815225
 20
-3.734564438519129
 10
506.2035986884673
 20
-3.498313582153031
 10
506.6975777517782
 20
-3.498313582153031
 10
506.9553059587231
 20
-3.734564438519129
 10
506.9553059587231
 20
-3.992292645463976
 10
506.6975777517782
 20
-4.228543501830074
 10
506.2035986884673
 20
-4.228543501830074
 10
505.9458704815225
 20
-4.486271708774921
 10
505.9458704815225
 20
-4.980250772085867
 10
506.9553059587231
 20
-4.980250772085867
  0
LWPOLYLINE
  5
EEE
330
6F
100
AcDbEntity
  8
0
 62
     3
370
     0
100
AcDbPolyline
 90
        7
 70
     0
 43
0.0
 10
503.454497814389
 20
-4.228543501830074
 10
503.7122260213338
 20
-4.228543501830074
 10
503.9484768777
 20
-4.486271708774921
 10
503.9484768777
 20
-4.743999915719768
 10
503.7122260213338
 20
-4.980250772085867
 10
503.1967696074442
 20
-4.980250772085867
 10
502.9605187510781
 20
-4.743999915719768
  0
LWPOLYLINE
  5
EEF
330
6F
100
AcDbEntity
  8
0
 62
     3
370
     0
100
AcDbPolyline
 90
        6
 70
     0
 43
0.0
 10
502.9605187510781
 20
-3.734564438519129
 10
503.1967696074442
 20
-3.498313582153031
 10
503.7122260213338
 20
-3.498313582153031
 10
503.9484768777
 20
-3.734564438519129
 10
503.9484768777
 20
-3.992292645463976
 10
503.7122260213338
 20
-4.228543501830074
  0
LWPOLYLINE
  5
EF0
330
6F
100
AcDbEntity
  8
0
 62
     3
370
     0
100
AcDbPolyline
 90
        5
 70
     0
 43
0.0
 10
499.9536896700549
 20
-4.980250772085867
 10
499.9536896700549
 20
-3.498313582153031
 10
500.4476687333658
 20
-4.486271708774921
 10
500.9631251472556
 20
-3.498313582153031
 10
500.9631251472556
 20
-4.980250772085867
  0
LWPOLYLINE
  5
EF1
330
6F
100
AcDbEntity
  8
0
 62
     3
370
     0
100
AcDbPolyline
 90
        3
 70
     0
 43
0.0
 10
457.9654692886247
 20
-3.734564438519129
 10
458.2231974955695
 20
-3.498313582153031
 10
458.2231974955695
 20
-4.980250772085867
  0
LWPOLYLINE
  5
EF2
330
6F
100
AcDbEntity
  8
0
 62
     3
370
     0
100
AcDbPolyline
 90
        7
 70
     0
 43
0.0
 10
456.4620547481131
 20
-4.228543501830074
 10
456.719782955058
 20
-4.228543501830074
 10
456.9775111620028
 20
-4.486271708774921
 10
456.9775111620028
 20
-4.743999915719768
 10
456.719782955058
 20
-4.980250772085867
 10
456.225803891747
 20
-4.980250772085867
 10
455.9680756848022
 20
-4.743999915719768
  0
LWPOLYLINE
  5
EF3
330
6F
100
AcDbEntity
  8
0
 62
     3
370
     0
100
AcDbPolyline
 90
        6
 70
     0
 43
0.0
 10
455.9680756848022
 20
-3.734564438519129
 10
456.225803891747
 20
-3.498313582153031
 10
456.719782955058
 20
-3.498313582153031
 10
456.9775111620028
 20
-3.734564438519129
 10
456.9775111620028
 20
-3.992292645463976
 10
456.719782955058
 20
-4.228543501830074
  0
LWPOLYLINE
  5
EF4
330
6F
100
AcDbEntity
  8
0
 62
     3
370
     0
100
AcDbPolyline
 90
        4
 70
     0
 43
0.0
 10
453.9706820809796
 20
-4.486271708774921
 10
452.961246603779
 20
-4.486271708774921
 10
453.7129538740348
 20
-3.498313582153031
 10
453.7129538740348
 20
-4.980250772085867
  0
LWPOLYLINE
  5
EF5
330
6F
100
AcDbEntity
  8
0
 62
     3
370
     0
100
AcDbPolyline
 90
        5
 70
     0
 43
0.0
 10
449.9758948733346
 20
-4.980250772085867
 10
449.9758948733346
 20
-3.498313582153031
 10
450.4698739366456
 20
-4.486271708774921
 10
450.9638529999565
 20
-3.498313582153031
 10
450.9638529999565
 20
-4.980250772085867
  0
LWPOLYLINE
  5
EF6
330
6F
100
AcDbEntity
  8
0
 62
     3
370
     0
100
AcDbPolyline
 90
        9
 70
     0
 43
0.0
 10
409.491089032416
 20
-4.743999915719768
 10
409.727339888782
 20
-4.980250772085867
 10
410.2427963026717
 20
-4.980250772085867
 10
410.4790471590379
 20
-4.743999915719768
 10
410.4790471590379
 20
-4.228543501830074
 10
410.2427963026717
 20
-3.992292645463976
 10
409.491089032416
 20
-3.992292645463976
 10
409.491089032416
 20
-3.498313582153031
 10
410.4790471590379
 20
-3.498313582153031
  0
LWPOLYLINE
  5
EF7
330
6F
100
AcDbEntity
  8
0
 62
     3
370
     0
100
AcDbPolyline
 90
       10
 70
     0
 43
0.0
 10
407.9876744919044
 20
-3.734564438519129
 10
408.2454026988492
 20
-3.498313582153031
 10
408.7393817621602
 20
-3.498313582153031
 10
408.9756326185263
 20
-3.734564438519129
 10
408.9756326185263
 20
-3.992292645463976
 10
408.7393817621602
 20
-4.228543501830074
 10
408.2454026988492
 20
-4.228543501830074
 10
407.9876744919044
 20
-4.486271708774921
 10
407.9876744919044
 20
-4.980250772085867
 10
408.9756326185263
 20
-4.980250772085867
  0
LWPOLYLINE
  5
EF8
330
6F
100
AcDbEntity
  8
0
 62
     3
370
     0
100
AcDbPolyline
 90
        7
 70
     0
 43
0.0
 10
406.4842599513928
 20
-4.228543501830074
 10
406.7419881583377
 20
-4.228543501830074
 10
406.9782390147038
 20
-4.486271708774921
 10
406.9782390147038
 20
-4.743999915719768
 10
406.7419881583377
 20
-4.980250772085867
 10
406.226531744448
 20
-4.980250772085867
 10
405.9902808880819
 20
-4.743999915719768
  0
LWPOLYLINE
  5
EF9
330
6F
100
AcDbEntity
  8
0
 62
     3
370
     0
100
AcDbPolyline
 90
        6
 70
     0
 43
0.0
 10
405.9902808880819
 20
-3.734564438519129
 10
406.226531744448
 20
-3.498313582153031
 10
406.7419881583377
 20
-3.498313582153031
 10
406.9782390147038
 20
-3.734564438519129
 10
406.9782390147038
 20
-3.992292645463976
 10
406.7419881583377
 20
-4.228543501830074
  0
LWPOLYLINE
  5
EFA
330
6F
100
AcDbEntity
  8
0
 62
     3
370
     0
100
AcDbPolyline
 90
        4
 70
     0
 43
0.0
 10
403.9928872842594
 20
-4.486271708774921
 10
402.9834518070588
 20
-4.486271708774921
 10
403.7351590773146
 20
-3.498313582153031
 10
403.7351590773146
 20
-4.980250772085867
  0
LWPOLYLINE
  5
EFB
330
6F
100
AcDbEntity
  8
0
 62
     3
370
     0
100
AcDbPolyline
 90
        5
 70
     0
 43
0.0
 10
399.9981000766144
 20
-4.980250772085867
 10
399.9981000766144
 20
-3.498313582153031
 10
400.4920791399253
 20
-4.486271708774921
 10
400.9860582032362
 20
-3.498313582153031
 10
400.9860582032362
 20
-4.980250772085867
  0
LWPOLYLINE
  5
EFC
330
6F
100
AcDbEntity
  8
0
 62
     3
370
     0
100
AcDbPolyline
 90
        9
 70
     0
 43
0.0
 10
359.491816885117
 20
-4.743999915719768
 10
359.7495450920618
 20
-4.980250772085867
 10
360.2435241553728
 20
-4.980250772085867
 10
360.5012523623177
 20
-4.743999915719768
 10
360.5012523623177
 20
-4.228543501830074
 10
360.2435241553728
 20
-3.992292645463976
 10
359.491816885117
 20
-3.992292645463976
 10
359.491816885117
 20
-3.498313582153031
 10
360.5012523623177
 20
-3.498313582153031
  0
LWPOLYLINE
  5
EFD
330
6F
100
AcDbEntity
  8
0
 62
     3
370
     0
100
AcDbPolyline
 90
        3
 70
     0
 43
0.0
 10
358.0098796951842
 20
-3.498313582153031
 10
358.9978378218061
 20
-3.498313582153031
 10
358.2461305515503
 20
-4.980250772085867
  0
LWPOLYLINE
  5
EFE
330
6F
100
AcDbEntity
  8
0
 62
     3
370
     0
100
AcDbPolyline
 90
        7
 70
     0
 43
0.0
 10
356.5064651546726
 20
-4.228543501830074
 10
356.7427160110387
 20
-4.228543501830074
 10
357.0004442179836
 20
-4.486271708774921
 10
357.0004442179836
 20
-4.743999915719768
 10
356.7427160110387
 20
-4.980250772085867
 10
356.2487369477278
 20
-4.980250772085867
 10
356.0124860913617
 20
-4.743999915719768
  0
LWPOLYLINE
  5
EFF
330
6F
100
AcDbEntity
  8
0
 62
     3
370
     0
100
AcDbPolyline
 90
        6
 70
     0
 43
0.0
 10
356.0124860913617
 20
-3.734564438519129
 10
356.2487369477278
 20
-3.498313582153031
 10
356.7427160110387
 20
-3.498313582153031
 10
357.0004442179836
 20
-3.734564438519129
 10
357.0004442179836
 20
-3.992292645463976
 10
356.7427160110387
 20
-4.228543501830074
  0
LWPOLYLINE
  5
F00
330
6F
100
AcDbEntity
  8
0
 62
     3
370
     0
100
AcDbPolyline
 90
        9
 70
     0
 43
0.0
 10
353.0056570103385
 20
-4.743999915719768
 10
353.2633852172834
 20
-4.980250772085867
 10
353.7573642805943
 20
-4.980250772085867
 10
353.9936151369604
 20
-4.743999915719768
 10
353.9936151369604
 20
-4.228543501830074
 10
353.7573642805943
 20
-3.992292645463976
 10
353.0056570103385
 20
-3.992292645463976
 10
353.0056570103385
 20
-3.498313582153031
 10
353.9936151369604
 20
-3.498313582153031
  0
LWPOLYLINE
  5
F01
330
6F
100
AcDbEntity
  8
0
 62
     3
370
     0
100
AcDbPolyline
 90
        5
 70
     0
 43
0.0
 10
349.9988279293154
 20
-4.980250772085867
 10
349.9988279293154
 20
-3.498313582153031
 10
350.5142843432051
 20
-4.486271708774921
 10
351.008263406516
 20
-3.498313582153031
 10
351.008263406516
 20
-4.980250772085867
  0
LWPOLYLINE
  5
F02
330
6F
100
AcDbEntity
  8
0
 62
     3
370
     0
100
AcDbPolyline
 90
        4
 70
     0
 43
0.0
 10
307.0226494212633
 20
-4.486271708774921
 10
306.0132139440627
 20
-4.486271708774921
 10
306.7649212143185
 20
-3.498313582153031
 10
306.7649212143185
 20
-4.980250772085867
  0
LWPOLYLINE
  5
F03
330
6F
100
AcDbEntity
  8
0
 62
     3
370
     0
100
AcDbPolyline
 90
        9
 70
     0
 43
0.0
 10
303.0278622136183
 20
-4.743999915719768
 10
303.2641130699844
 20
-4.980250772085867
 10
303.7580921332953
 20
-4.980250772085867
 10
304.0158203402402
 20
-4.743999915719768
 10
304.0158203402402
 20
-4.228543501830074
 10
303.7580921332953
 20
-3.992292645463976
 10
303.0278622136183
 20
-3.992292645463976
 10
303.0278622136183
 20
-3.498313582153031
 10
304.0158203402402
 20
-3.498313582153031
  0
LWPOLYLINE
  5
F04
330
6F
100
AcDbEntity
  8
0
 62
     3
370
     0
100
AcDbPolyline
 90
        5
 70
     0
 43
0.0
 10
300.0210331325951
 20
-4.980250772085867
 10
300.0210331325951
 20
-3.498313582153031
 10
300.5150121959061
 20
-4.486271708774921
 10
301.008991259217
 20
-3.498313582153031
 10
301.008991259217
 20
-4.980250772085867
  0
LWPOLYLINE
  5
F05
330
6F
100
AcDbEntity
  8
0
 62
     3
370
     0
100
AcDbPolyline
 90
        9
 70
     0
 43
0.0
 10
258.0328127511649
 20
-4.743999915719768
 10
258.2905409581097
 20
-4.980250772085867
 10
258.7845200214207
 20
-4.980250772085867
 10
259.0422482283655
 20
-4.743999915719768
 10
259.0422482283655
 20
-4.228543501830074
 10
258.7845200214207
 20
-3.992292645463976
 10
258.0328127511649
 20
-3.992292645463976
 10
258.0328127511649
 20
-3.498313582153031
 10
259.0422482283655
 20
-3.498313582153031
  0
LWPOLYLINE
  5
F06
330
6F
100
AcDbEntity
  8
0
 62
     3
370
     0
100
AcDbPolyline
 90
        4
 70
     0
 43
0.0
 10
257.0233772739643
 20
-4.486271708774921
 10
256.0354191473424
 20
-4.486271708774921
 10
256.7871264175982
 20
-3.498313582153031
 10
256.7871264175982
 20
-4.980250772085867
  0
LWPOLYLINE
  5
F07
330
6F
100
AcDbEntity
  8
0
 62
     3
370
     0
100
AcDbPolyline
 90
        9
 70
     0
 43
0.0
 10
253.0285900663192
 20
-4.743999915719768
 10
253.2863182732641
 20
-4.980250772085867
 10
253.780297336575
 20
-4.980250772085867
 10
254.0380255435199
 20
-4.743999915719768
 10
254.0380255435199
 20
-4.228543501830074
 10
253.780297336575
 20
-3.992292645463976
 10
253.0285900663192
 20
-3.992292645463976
 10
253.0285900663192
 20
-3.498313582153031
 10
254.0380255435199
 20
-3.498313582153031
  0
LWPOLYLINE
  5
F08
330
6F
100
AcDbEntity
  8
0
 62
     3
370
     0
100
AcDbPolyline
 90
        5
 70
     0
 43
0.0
 10
250.0432383358748
 20
-4.980250772085867
 10
250.0432383358748
 20
-3.498313582153031
 10
250.5372173991858
 20
-4.486271708774921
 10
251.0311964624967
 20
-3.498313582153031
 10
251.0311964624967
 20
-4.980250772085867
  0
LWPOLYLINE
  5
F09
330
6F
100
AcDbEntity
  8
0
 62
     3
370
     0
100
AcDbPolyline
 90
        9
 70
     0
 43
0.0
 10
206.0576243506221
 20
-4.743999915719768
 10
206.2938752069882
 20
-4.980250772085867
 10
206.8093316208779
 20
-4.980250772085867
 10
207.045582477244
 20
-4.743999915719768
 10
207.045582477244
 20
-4.228543501830074
 10
206.8093316208779
 20
-3.992292645463976
 10
206.0576243506221
 20
-3.992292645463976
 10
206.0576243506221
 20
-3.498313582153031
 10
207.045582477244
 20
-3.498313582153031
  0
LWPOLYLINE
  5
F0A
330
6F
100
AcDbEntity
  8
0
 62
     3
370
     0
100
AcDbPolyline
 90
       10
 70
     0
 43
0.0
 10
203.050795269599
 20
-4.228543501830074
 10
203.8025025398547
 20
-4.228543501830074
 10
204.0602307467996
 20
-4.486271708774921
 10
204.0602307467996
 20
-4.743999915719768
 10
203.8025025398547
 20
-4.980250772085867
 10
203.3085234765438
 20
-4.980250772085867
 10
203.050795269599
 20
-4.743999915719768
 10
203.050795269599
 20
-3.992292645463976
 10
203.5447743329099
 20
-3.498313582153031
 10
203.8025025398547
 20
-3.498313582153031
  0
LWPOLYLINE
  5
F0B
330
6F
100
AcDbEntity
  8
0
 62
     3
370
     0
100
AcDbPolyline
 90
        5
 70
     0
 43
0.0
 10
200.0439661885758
 20
-4.980250772085867
 10
200.0439661885758
 20
-3.498313582153031
 10
200.5594226024655
 20
-4.486271708774921
 10
201.0534016657764
 20
-3.498313582153031
 10
201.0534016657764
 20
-4.980250772085867
  0
LWPOLYLINE
  5
F0C
330
6F
100
AcDbEntity
  8
0
 62
     3
370
     0
100
AcDbPolyline
 90
        4
 70
     0
 43
0.0
 10
159.0651812843462
 20
-4.486271708774921
 10
158.0557458071456
 20
-4.486271708774921
 10
158.8074530774013
 20
-3.498313582153031
 10
158.8074530774013
 20
-4.980250772085867
  0
LWPOLYLINE
  5
F0D
330
6F
100
AcDbEntity
  8
0
 62
     3
370
     0
100
AcDbPolyline
 90
        9
 70
     0
 43
0.0
 10
156.058352203323
 20
-4.743999915719768
 10
156.3160804102679
 20
-4.980250772085867
 10
156.8100594735788
 20
-4.980250772085867
 10
157.0677876805237
 20
-4.743999915719768
 10
157.0677876805237
 20
-4.228543501830074
 10
156.8100594735788
 20
-3.992292645463976
 10
156.058352203323
 20
-3.992292645463976
 10
156.058352203323
 20
-3.498313582153031
 10
157.0677876805237
 20
-3.498313582153031
  0
LWPOLYLINE
  5
F0E
330
6F
100
AcDbEntity
  8
0
 62
     3
370
     0
100
AcDbPolyline
 90
       10
 70
     0
 43
0.0
 10
153.0730004728787
 20
-4.228543501830074
 10
153.8247077431345
 20
-4.228543501830074
 10
154.0609585995006
 20
-4.486271708774921
 10
154.0609585995006
 20
-4.743999915719768
 10
153.8247077431345
 20
-4.980250772085867
 10
153.3092513292448
 20
-4.980250772085867
 10
153.0730004728787
 20
-4.743999915719768
 10
153.0730004728787
 20
-3.992292645463976
 10
153.5669795361896
 20
-3.498313582153031
 10
153.8247077431345
 20
-3.498313582153031
  0
LWPOLYLINE
  5
F0F
330
6F
100
AcDbEntity
  8
0
 62
     3
370
     0
100
AcDbPolyline
 90
        5
 70
     0
 43
0.0
 10
150.0661713918555
 20
-4.980250772085867
 10
150.0661713918555
 20
-3.498313582153031
 10
150.5601504551665
 20
-4.486271708774921
 10
151.0756068690561
 20
-3.498313582153031
 10
151.0756068690561
 20
-4.980250772085867
  0
LWPOLYLINE
  5
F10
330
6F
100
AcDbEntity
  8
0
 62
     3
370
     0
100
AcDbPolyline
 90
       10
 70
     0
 43
0.0
 10
108.3356792173701
 20
-4.980250772085867
 10
108.5719300737362
 20
-4.980250772085867
 10
109.0873864876259
 20
-4.486271708774921
 10
109.0873864876259
 20
-3.734564438519129
 10
108.8296582806811
 20
-3.498313582153031
 10
108.3356792173701
 20
-3.498313582153031
 10
108.0779510104253
 20
-3.734564438519129
 10
108.0779510104253
 20
-3.992292645463976
 10
108.3356792173701
 20
-4.228543501830074
 10
109.0873864876259
 20
-4.228543501830074
  0
LWPOLYLINE
  5
F11
330
6F
100
AcDbEntity
  8
0
 62
     3
370
     0
100
AcDbPolyline
 90
        9
 70
     0
 43
0.0
 10
106.0805574066028
 20
-4.743999915719768
 10
106.3382856135477
 20
-4.980250772085867
 10
106.8322646768586
 20
-4.980250772085867
 10
107.0899928838034
 20
-4.743999915719768
 10
107.0899928838034
 20
-4.228543501830074
 10
106.8322646768586
 20
-3.992292645463976
 10
106.0805574066028
 20
-3.992292645463976
 10
106.0805574066028
 20
-3.498313582153031
 10
107.0899928838034
 20
-3.498313582153031
  0
LWPOLYLINE
  5
F12
330
6F
100
AcDbEntity
  8
0
 62
     3
370
     0
100
AcDbPolyline
 90
       10
 70
     0
 43
0.0
 10
103.0737283255796
 20
-4.228543501830074
 10
103.8254355958354
 20
-4.228543501830074
 10
104.0831638027803
 20
-4.486271708774921
 10
104.0831638027803
 20
-4.743999915719768
 10
103.8254355958354
 20
-4.980250772085867
 10
103.3314565325245
 20
-4.980250772085867
 10
103.0737283255796
 20
-4.743999915719768
 10
103.0737283255796
 20
-3.992292645463976
 10
103.5891847394694
 20
-3.498313582153031
 10
103.8254355958354
 20
-3.498313582153031
  0
LWPOLYLINE
  5
F13
330
6F
100
AcDbEntity
  8
0
 62
     3
370
     0
100
AcDbPolyline
 90
        5
 70
     0
 43
0.0
 10
100.0883765951353
 20
-4.980250772085867
 10
100.0883765951353
 20
-3.498313582153031
 10
100.5823556584462
 20
-4.486271708774921
 10
101.0763347217571
 20
-3.498313582153031
 10
101.0763347217571
 20
-4.980250772085867
  0
LWPOLYLINE
  5
F14
330
6F
100
AcDbEntity
  8
0
 62
     3
370
     0
100
AcDbPolyline
 90
       14
 70
     1
 43
0.0
 10
62.35267162829496
 20
-4.228543501830074
 10
62.588922484661
 20
-4.486271708774921
 10
62.588922484661
 20
-4.743999915719768
 10
62.35267162829496
 20
-4.980250772085867
 10
61.83721521440521
 20
-4.980250772085867
 10
61.60096435803916
 20
-4.743999915719768
 10
61.60096435803916
 20
-4.486271708774921
 10
61.83721521440521
 20
-4.228543501830074
 10
61.60096435803916
 20
-3.992292645463976
 10
61.60096435803916
 20
-3.734564438519129
 10
61.83721521440521
 20
-3.498313582153031
 10
62.35267162829496
 20
-3.498313582153031
 10
62.588922484661
 20
-3.734564438519129
 10
62.588922484661
 20
-3.992292645463976
  0
LWPOLYLINE
  5
F15
330
6F
100
AcDbEntity
  8
0
 62
     3
370
     0
100
AcDbPolyline
 90
        9
 70
     0
 43
0.0
 10
59.60357075421666
 20
-4.743999915719768
 10
59.8398216105827
 20
-4.980250772085867
 10
60.35527802447245
 20
-4.980250772085867
 10
60.5915288808385
 20
-4.743999915719768
 10
60.5915288808385
 20
-4.228543501830074
 10
60.35527802447245
 20
-3.992292645463976
 10
59.60357075421666
 20
-3.992292645463976
 10
59.60357075421666
 20
-3.498313582153031
 10
60.5915288808385
 20
-3.498313582153031
  0
LWPOLYLINE
  5
F16
330
6F
100
AcDbEntity
  8
0
 62
     3
370
     0
100
AcDbPolyline
 90
        9
 70
     0
 43
0.0
 10
56.59674167319349
 20
-4.743999915719768
 10
56.85446988013836
 20
-4.980250772085867
 10
57.34844894344928
 20
-4.980250772085867
 10
57.60617715039415
 20
-4.743999915719768
 10
57.60617715039415
 20
-4.228543501830074
 10
57.34844894344928
 20
-3.992292645463976
 10
56.59674167319349
 20
-3.992292645463976
 10
56.59674167319349
 20
-3.498313582153031
 10
57.60617715039415
 20
-3.498313582153031
  0
LWPOLYLINE
  5
F17
330
6F
100
AcDbEntity
  8
0
 62
     3
370
     0
100
AcDbPolyline
 90
       10
 70
     0
 43
0.0
 10
55.0933271326819
 20
-3.734564438519129
 10
55.35105533962678
 20
-3.498313582153031
 10
55.8450344029377
 20
-3.498313582153031
 10
56.10276260988257
 20
-3.734564438519129
 10
56.10276260988257
 20
-3.992292645463976
 10
55.8450344029377
 20
-4.228543501830074
 10
55.35105533962678
 20
-4.228543501830074
 10
55.0933271326819
 20
-4.486271708774921
 10
55.0933271326819
 20
-4.980250772085867
 10
56.10276260988257
 20
-4.980250772085867
  0
LWPOLYLINE
  5
F18
330
6F
100
AcDbEntity
  8
0
 62
     3
370
     0
100
AcDbPolyline
 90
       10
 70
     0
 43
0.0
 10
53.0959335288594
 20
-4.228543501830074
 10
53.84764079911519
 20
-4.228543501830074
 10
54.10536900606008
 20
-4.486271708774921
 10
54.10536900606008
 20
-4.743999915719768
 10
53.84764079911519
 20
-4.980250772085867
 10
53.35366173580428
 20
-4.980250772085867
 10
53.0959335288594
 20
-4.743999915719768
 10
53.0959335288594
 20
-3.992292645463976
 10
53.58991259217032
 20
-3.498313582153031
 10
53.84764079911519
 20
-3.498313582153031
  0
LWPOLYLINE
  5
F19
330
6F
100
AcDbEntity
  8
0
 62
     3
370
     0
100
AcDbPolyline
 90
        5
 70
     0
 43
0.0
 10
50.11058179841507
 20
-4.980250772085867
 10
50.11058179841507
 20
-3.498313582153031
 10
50.60456086172599
 20
-4.486271708774921
 10
51.0985399250369
 20
-3.498313582153031
 10
51.0985399250369
 20
-4.980250772085867
  0
LWPOLYLINE
  5
F1A
330
6F
100
AcDbEntity
  8
0
 62
     3
370
     0
100
AcDbPolyline
 90
       10
 70
     0
 43
0.0
 10
11.60169221074011
 20
-3.734564438519129
 10
11.85942041768498
 20
-3.498313582153031
 10
12.3533994809959
 20
-3.498313582153031
 10
12.61112768794078
 20
-3.734564438519129
 10
12.61112768794078
 20
-3.992292645463976
 10
12.3533994809959
 20
-4.228543501830074
 10
11.85942041768498
 20
-4.228543501830074
 10
11.60169221074011
 20
-4.486271708774921
 10
11.60169221074011
 20
-4.980250772085867
 10
12.61112768794078
 20
-4.980250772085867
  0
LWPOLYLINE
  5
F1B
330
6F
100
AcDbEntity
  8
0
 62
     3
370
     0
100
AcDbPolyline
 90
       10
 70
     0
 43
0.0
 10
9.604298606917609
 20
-4.228543501830074
 10
10.3560058771734
 20
-4.228543501830074
 10
10.61373408411828
 20
-4.486271708774921
 10
10.61373408411828
 20
-4.743999915719768
 10
10.3560058771734
 20
-4.980250772085867
 10
9.862026813862485
 20
-4.980250772085867
 10
9.604298606917609
 20
-4.743999915719768
 10
9.604298606917609
 20
-3.992292645463976
 10
10.11975502080736
 20
-3.498313582153031
 10
10.3560058771734
 20
-3.498313582153031
  0
LWPOLYLINE
  5
F1C
330
6F
100
AcDbEntity
  8
0
 62
     3
370
     0
100
AcDbPolyline
 90
        9
 70
     0
 43
0.0
 10
6.618946876473273
 20
-4.743999915719768
 10
6.855197732839314
 20
-4.980250772085867
 10
7.370654146729066
 20
-4.980250772085867
 10
7.606905003095107
 20
-4.743999915719768
 10
7.606905003095107
 20
-4.228543501830074
 10
7.370654146729066
 20
-3.992292645463976
 10
6.618946876473273
 20
-3.992292645463976
 10
6.618946876473273
 20
-3.498313582153031
 10
7.606905003095107
 20
-3.498313582153031
  0
LWPOLYLINE
  5
F1D
330
6F
100
AcDbEntity
  8
0
 62
     3
370
     0
100
AcDbPolyline
 90
       10
 70
     0
 43
0.0
 10
5.115532335961688
 20
-3.734564438519129
 10
5.373260542906564
 20
-3.498313582153031
 10
5.867239606217481
 20
-3.498313582153031
 10
6.103490462583522
 20
-3.734564438519129
 10
6.103490462583522
 20
-3.992292645463976
 10
5.867239606217481
 20
-4.228543501830074
 10
5.373260542906564
 20
-4.228543501830074
 10
5.115532335961688
 20
-4.486271708774921
 10
5.115532335961688
 20
-4.980250772085867
 10
6.103490462583522
 20
-4.980250772085867
  0
LWPOLYLINE
  5
F1E
330
6F
100
AcDbEntity
  8
0
 62
     3
370
     0
100
AcDbPolyline
 90
       10
 70
     0
 43
0.0
 10
3.118138732139186
 20
-4.228543501830074
 10
3.869846002394979
 20
-4.228543501830074
 10
4.10609685876102
 20
-4.486271708774921
 10
4.10609685876102
 20
-4.743999915719768
 10
3.869846002394979
 20
-4.980250772085867
 10
3.354389588505227
 20
-4.980250772085867
 10
3.118138732139186
 20
-4.743999915719768
 10
3.118138732139186
 20
-3.992292645463976
 10
3.612117795450103
 20
-3.498313582153031
 10
3.869846002394979
 20
-3.498313582153031
  0
LWPOLYLINE
  5
F1F
330
6F
100
AcDbEntity
  8
0
 62
     3
370
     0
100
AcDbPolyline
 90
        5
 70
     0
 43
0.0
 10
0.1113096511160165
 20
-4.980250772085867
 10
0.1113096511160165
 20
-3.498313582153031
 10
0.6052887144269335
 20
-4.486271708774921
 10
1.120745128316684
 20
-3.498313582153031
 10
1.120745128316684
 20
-4.980250772085867
  0
LWPOLYLINE
  5
F20
330
6F
100
AcDbEntity
  8
AISC_STEEL
100
AcDbPolyline
 90
       46
 70
     1
 43
0.0
 10
653.7999999999999
 20
1.9
 10
653.7999999999999
 20
1.74
 10
652.3049999999999
 20
1.739999999999999
 10
652.2753670474656
 20
1.738706197351193
 10
652.2459596195932
 20
1.73483463602415
 10
652.2170015246651
 20
1.728414780938283
 10
652.1887131512691
 20
1.719495491067208
 10
652.1613097910082
 20
1.70814464759246
 10
652.1349999999999
 20
1.694448637286709
 10
652.1099840116407
 20
1.678511695058257
 10
652.0864522127066
 20
1.660455110660452
 10
652.0645836943965
 20
1.640416305603426
 10
652.0445448893395
 20
1.618547787293423
 10
652.0264883049418
 20
1.595015988359355
 10
652.0105513627132
 20
1.57
 10
651.9968553524075
 20
1.543690208991837
 10
651.9855045089327
 20
1.516286848730727
 10
651.9765852190617
 20
1.487998475334856
 10
651.9701653639758
 20
1.459040380406756
 10
651.9662938026487
 20
1.429632952534203
 10
651.965
 20
1.399999999999999
 10
651.965
 20
0.0
 10
651.9
 20
0.0
 10
651.835
 20
0.0
 10
651.835
 20
1.399999999999999
 10
651.8337061973511
 20
1.429632952534203
 10
651.8298346360242
 20
1.459040380406756
 10
651.8234147809383
 20
1.487998475334856
 10
651.8144954910673
 20
1.516286848730727
 10
651.8031446475925
 20
1.543690208991837
 10
651.7894486372868
 20
1.57
 10
651.7735116950582
 20
1.595015988359355
 10
651.7554551106605
 20
1.618547787293423
 10
651.7354163056033
 20
1.640416305603426
 10
651.7135477872934
 20
1.660455110660452
 10
651.6900159883594
 20
1.678511695058257
 10
651.6649999999999
 20
1.694448637286709
 10
651.6386902089918
 20
1.70814464759246
 10
651.6112868487307
 20
1.719495491067208
 10
651.5829984753349
 20
1.728414780938283
 10
651.5540403804067
 20
1.73483463602415
 10
651.5246329525341
 20
1.738706197351193
 10
651.4949999999999
 20
1.739999999999999
 10
650.0
 20
1.74
 10
650.0
 20
1.9
 10
651.9
 20
1.9
  0
LWPOLYLINE
  5
F21
330
6F
100
AcDbEntity
  8
AISC_STEEL
100
AcDbPolyline
 90
       52
 70
     1
 43
0.0
 10
605.0
 20
2.5
 10
605.0
 20
2.084
 10
603.0549999999999
 20
2.084
 10
603.0253321528462
 20
2.082889907480928
 10
602.9958302203279
 20
2.079565838011375
 10
602.9666591892194
 20
2.074046381136184
 10
602.9379821957588
 20
2.066362403897097
 10
602.9099596133266
 20
2.056556878211748
 10
602.8827481555701
 20
2.04468464055726
 10
602.8565
 20
2.030812085302421
 10
602.8313619369487
 20
2.015016793403449
 10
602.8074745486621
 20
1.997387098539808
 10
602.7849714231048
 20
1.97802159311644
 10
602.7639784068837
 20
1.957028576895054
 10
602.7446129014602
 20
1.934525451337917
 10
602.7269832065965
 20
1.910638063051257
 10
602.7111879146977
 20
1.8855
 10
602.6973153594427
 20
1.85925184442967
 10
602.6854431217882
 20
1.832040386673459
 10
602.6756375961029
 20
1.804017804241128
 10
602.6679536188638
 20
1.775340810780656
 10
602.6624341619886
 20
1.746169779671941
 10
602.6591100925192
 20
1.71666784715381
 10
602.658
 20
1.686999999999999
 10
602.658
 20
0.0
 10
602.5
 20
0.0
 10
602.3419999999999
 20
0.0
 10
602.3419999999999
 20
1.686999999999999
 10
602.3408899074808
 20
1.71666784715381
 10
602.3375658380114
 20
1.746169779671941
 10
602.3320463811361
 20
1.775340810780656
 10
602.3243624038971
 20
1.804017804241128
 10
602.3145568782117
 20
1.832040386673459
 10
602.3026846405572
 20
1.85925184442967
 10
602.2888120853023
 20
1.8855
 10
602.2730167934034
 20
1.910638063051257
 10
602.2553870985396
 20
1.934525451337917
 10
602.2360215931163
 20
1.957028576895054
 10
602.2150285768951
 20
1.97802159311644
 10
602.1925254513379
 20
1.997387098539808
 10
602.1686380630512
 20
2.015016793403449
 10
602.1435
 20
2.030812085302421
 10
602.1172518444298
 20
2.04468464055726
 10
602.0900403866733
 20
2.056556878211748
 10
602.0620178042411
 20
2.066362403897097
 10
602.0333408107806
 20
2.074046381136184
 10
602.0041697796719
 20
2.079565838011375
 10
601.9746678471538
 20
2.082889907480928
 10
601.945
 20
2.084
 10
600.0
 20
2.084
 10
600.0
 20
2.5
 10
602.5
 20
2.5
  0
LWPOLYLINE
  5
F22
330
6F
100
AcDbEntity
  8
AISC_STEEL
100
AcDbPolyline
 90
       34
 70
     1
 43
0.0
 10
552.0
 20
2.959999999999999
 10
552.0
 20
2.831
 10
551.233
 20
2.831
 10
551.2089831806314
 20
2.829425854492781
 10
551.1853772957011
 20
2.824730352037188
 10
551.1625862484447
 20
2.816993833982076
 10
551.1409999999999
 20
2.806348674296336
 10
551.1209878970624
 20
2.792977014613587
 10
551.1028923522616
 20
2.777107647738324
 10
551.0870229853863
 20
2.759012102937604
 10
551.0736513257036
 20
2.738999999999999
 10
551.0630061660179
 20
2.717413751555176
 10
551.0552696479628
 20
2.694622704298863
 10
551.0505741455071
 20
2.671016819368489
 10
551.0489999999999
 20
2.646999999999999
 10
551.0489999999999
 20
0.0
 10
551.0
 20
0.0
 10
550.951
 20
0.0
 10
550.951
 20
2.646999999999999
 10
550.9494258544927
 20
2.671016819368489
 10
550.9447303520371
 20
2.694622704298863
 10
550.9369938339821
 20
2.717413751555176
 10
550.9263486742963
 20
2.738999999999999
 10
550.9129770146135
 20
2.759012102937604
 10
550.8971076477384
 20
2.777107647738324
 10
550.8790121029376
 20
2.792977014613587
 10
550.859
 20
2.806348674296336
 10
550.8374137515552
 20
2.816993833982076
 10
550.8146227042987
 20
2.824730352037188
 10
550.7910168193685
 20
2.829425854492781
 10
550.7669999999999
 20
2.831
 10
550.0
 20
2.831
 10
550.0
 20
2.959999999999999
 10
551.0
 20
2.959999999999999
  0
LWPOLYLINE
  5
F23
330
6F
100
AcDbEntity
  8
AISC_STEEL
100
AcDbPolyline
 90
       34
 70
     1
 43
0.0
 10
501.8399999999999
 20
3.0
 10
501.8399999999999
 20
2.828999999999999
 10
501.1809999999999
 20
2.828999999999999
 10
501.1543726567871
 20
2.827254751720257
 10
501.1282009147991
 20
2.82204886856297
 10
501.1029325797975
 20
2.813471424632302
 10
501.079
 20
2.801669182372025
 10
501.0568126684822
 20
2.786844081419411
 10
501.0367502166379
 20
2.769249783362055
 10
501.0191559185805
 20
2.749187331517779
 10
501.004330817628
 20
2.726999999999999
 10
500.9925285753676
 20
2.703067420202478
 10
500.9839511314368
 20
2.677799085200914
 10
500.9787452482797
 20
2.65162734321289
 10
500.9769999999999
 20
2.625
 10
500.9769999999999
 20
0.0
 10
500.9199999999999
 20
0.0
 10
500.8630000000001
 20
0.0
 10
500.8630000000001
 20
2.625
 10
500.8612547517202
 20
2.65162734321289
 10
500.8560488685629
 20
2.677799085200914
 10
500.8474714246323
 20
2.703067420202478
 10
500.835669182372
 20
2.726999999999999
 10
500.8208440814193
 20
2.749187331517779
 10
500.803249783362
 20
2.769249783362055
 10
500.7831873315176
 20
2.786844081419411
 10
500.7609999999999
 20
2.801669182372025
 10
500.7370674202024
 20
2.813471424632302
 10
500.7117990852009
 20
2.82204886856297
 10
500.6856273432129
 20
2.827254751720257
 10
500.659
 20
2.828999999999999
 10
500.0
 20
2.828999999999999
 10
500.0
 20
3.0
 10
500.9199999999999
 20
3.0
  0
LWPOLYLINE
  5
F24
330
6F
100
AcDbEntity
  8
AISC_STEEL
100
AcDbPolyline
 90
       38
 70
     1
 43
0.0
 10
452.28
 20
4.0
 10
452.28
 20
3.823
 10
451.4655
 20
3.823
 10
451.4362772717369
 20
3.821358886782135
 10
451.4074220362373
 20
3.816456185079455
 10
451.3792971648297
 20
3.808353549210483
 10
451.3522563440903
 20
3.797152874522531
 10
451.3266396280294
 20
3.782995015998582
 10
451.3027691617148
 20
3.766058016924155
 10
451.2809451301103
 20
3.746554869889688
 10
451.2614419830757
 20
3.724730838285129
 10
451.2445049840013
 20
3.700860371970502
 10
451.2303471254774
 20
3.675243655909682
 10
451.2191464507896
 20
3.648202835170298
 10
451.2110438149206
 20
3.620077963762597
 10
451.2061411132178
 20
3.591222728262963
 10
451.2044999999999
 20
3.561999999999999
 10
451.2044999999999
 20
0.0
 10
451.14
 20
0.0
 10
451.0754999999999
 20
0.0
 10
451.0754999999999
 20
3.561999999999999
 10
451.0738588867821
 20
3.591222728262963
 10
451.0689561850794
 20
3.620077963762597
 10
451.0608535492105
 20
3.648202835170298
 10
451.0496528745224
 20
3.675243655909682
 10
451.0354950159985
 20
3.700860371970502
 10
451.0185580169242
 20
3.724730838285129
 10
450.9990548698897
 20
3.746554869889688
 10
450.9772308382852
 20
3.766058016924155
 10
450.9533603719705
 20
3.782995015998582
 10
450.9277436559096
 20
3.797152874522531
 10
450.9007028351702
 20
3.808353549210483
 10
450.8725779637625
 20
3.816456185079455
 10
450.8437227282629
 20
3.821358886782135
 10
450.8144999999999
 20
3.823
 10
450.0
 20
3.823
 10
450.0
 20
4.0
 10
451.14
 20
4.0
  0
LWPOLYLINE
  5
F25
330
6F
100
AcDbEntity
  8
AISC_STEEL
100
AcDbPolyline
 90
       50
 70
     1
 43
0.0
 10
402.28
 20
4.0
 10
402.28
 20
3.811
 10
401.5814999999999
 20
3.811
 10
401.5521562981978
 20
3.809847082816189
 10
401.5229935100749
 20
3.806395439382581
 10
401.4941914339178
 20
3.800666350228731
 10
401.4659276441038
 20
3.792695137094386
 10
401.4383763962953
 20
3.782530945159221
 10
401.4117075530974
 20
3.770236440046448
 10
401.3860855367962
 20
3.75588742146843
 10
401.3616683156426
 20
3.739572355896229
 10
401.3386064299244
 20
3.721391831134412
 10
401.3170420638362
 20
3.701457936163768
 10
401.2971081688656
 20
3.679893570075488
 10
401.2789276441037
 20
3.656831684357384
 10
401.2626125785316
 20
3.632414463203765
 10
401.2482635599535
 20
3.606792446902591
 10
401.2359690548407
 20
3.580123603704544
 10
401.2258048629056
 20
3.55257235589623
 10
401.2178336497712
 20
3.524308566082108
 10
401.2121045606174
 20
3.495506489925046
 10
401.2086529171837
 20
3.466343701802213
 10
401.2075
 20
3.436999999999999
 10
401.2075
 20
0.0
 10
401.14
 20
0.0
 10
401.0724999999999
 20
0.0
 10
401.0724999999999
 20
3.436999999999999
 10
401.0713470828161
 20
3.466343701802213
 10
401.0678954393826
 20
3.495506489925046
 10
401.0621663502286
 20
3.524308566082108
 10
401.0541951370943
 20
3.55257235589623
 10
401.0440309451592
 20
3.580123603704544
 10
401.0317364400465
 20
3.606792446902591
 10
401.0173874214683
 20
3.632414463203765
 10
401.0010723558962
 20
3.656831684357384
 10
400.9828918311343
 20
3.679893570075488
 10
400.9629579361638
 20
3.701457936163768
 10
400.9413935700755
 20
3.721391831134412
 10
400.9183316843573
 20
3.739572355896229
 10
400.8939144632036
 20
3.75588742146843
 10
400.8682924469026
 20
3.770236440046448
 10
400.8416236037045
 20
3.782530945159221
 10
400.8140723558962
 20
3.792695137094386
 10
400.7858085660821
 20
3.800666350228731
 10
400.757006489925
 20
3.806395439382581
 10
400.7278437018022
 20
3.809847082816189
 10
400.6985
 20
3.811
 10
400.0
 20
3.811
 10
400.0
 20
4.0
 10
401.14
 20
4.0
  0
LWPOLYLINE
  5
F26
330
6F
100
AcDbEntity
  8
AISC_STEEL
100
AcDbPolyline
 90
       38
 70
     1
 43
0.0
 10
352.69
 20
5.0
 10
352.69
 20
4.826999999999999
 10
351.675
 20
4.826999999999999
 10
351.6453294138326
 20
4.825333735621709
 10
351.6160319525016
 20
4.820355896728183
 10
351.5874760485818
 20
4.812129082531718
 10
351.5600208091338
 20
4.800756749994141
 10
351.5340114997234
 20
4.786381912795495
 10
351.5097752025074
 20
4.769185342854028
 10
351.4876167029856
 20
4.749383297014434
 10
351.467814657146
 20
4.727224797492565
 10
351.4506180872045
 20
4.702988500276565
 10
351.4362432500059
 20
4.676979190866153
 10
351.4248709174684
 20
4.64952395141812
 10
351.4166441032718
 20
4.620968047498422
 10
351.4116662643782
 20
4.591670586167376
 10
351.41
 20
4.562
 10
351.41
 20
0.0
 10
351.345
 20
0.0
 10
351.28
 20
0.0
 10
351.28
 20
4.562
 10
351.2783337356217
 20
4.591670586167376
 10
351.2733558967282
 20
4.620968047498422
 10
351.2651290825317
 20
4.64952395141812
 10
351.2537567499941
 20
4.676979190866153
 10
351.2393819127955
 20
4.702988500276565
 10
351.222185342854
 20
4.727224797492565
 10
351.2023832970144
 20
4.749383297014434
 10
351.1802247974925
 20
4.769185342854028
 10
351.1559885002766
 20
4.786381912795495
 10
351.1299791908661
 20
4.800756749994141
 10
351.1025239514182
 20
4.812129082531718
 10
351.0739680474984
 20
4.820355896728183
 10
351.0446705861674
 20
4.825333735621709
 10
351.015
 20
4.826999999999999
 10
350.0
 20
4.826999999999999
 10
350.0
 20
5.0
 10
351.345
 20
5.0
  0
LWPOLYLINE
  5
F27
330
6F
100
AcDbEntity
  8
AISC_STEEL
100
AcDbPolyline
 90
       50
 70
     1
 43
0.0
 10
302.69
 20
4.98
 10
302.69
 20
4.798
 10
301.7965
 20
4.798
 10
301.7666070845277
 20
4.796825504152322
 10
301.7368984688197
 20
4.793309257766747
 10
301.7075573163709
 20
4.787472939671514
 10
301.6787645251432
 20
4.779352532708454
 10
301.6506976122689
 20
4.7689981018868
 10
301.6235296195993
 20
4.756473485715768
 10
301.5974280468431
 20
4.741855902618908
 10
301.5725538188765
 20
4.725235474856855
 10
301.5490602935862
 20
4.706714672893612
 10
301.5270923163679
 20
4.686407683632074
 10
301.5067853271063
 20
4.664439706413799
 10
301.4882645251432
 20
4.640946181123432
 10
301.4716440973812
 20
4.616071953156776
 10
301.4570265142842
 20
4.589970380400766
 10
301.4445018981132
 20
4.562802387731098
 10
301.4341474672916
 20
4.534735474856855
 10
301.4260270603285
 20
4.5059426836291
 10
301.4201907422333
 20
4.476601531180327
 10
301.4166744958477
 20
4.446892915472308
 10
301.4155
 20
4.416999999999999
 10
301.4155
 20
0.0
 10
301.345
 20
0.0
 10
301.2745
 20
0.0
 10
301.2745
 20
4.416999999999999
 10
301.2733255041523
 20
4.446892915472308
 10
301.2698092577667
 20
4.476601531180327
 10
301.2639729396715
 20
4.5059426836291
 10
301.2558525327084
 20
4.534735474856855
 10
301.2454981018868
 20
4.562802387731098
 10
301.2329734857158
 20
4.589970380400766
 10
301.2183559026188
 20
4.616071953156776
 10
301.2017354748568
 20
4.640946181123432
 10
301.1832146728937
 20
4.664439706413799
 10
301.162907683632
 20
4.686407683632074
 10
301.1409397064138
 20
4.706714672893612
 10
301.1174461811235
 20
4.725235474856855
 10
301.0925719531568
 20
4.741855902618908
 10
301.0664703804007
 20
4.756473485715768
 10
301.0393023877311
 20
4.7689981018868
 10
301.0112354748568
 20
4.779352532708454
 10
300.9824426836291
 20
4.787472939671514
 10
300.9531015311803
 20
4.793309257766747
 10
300.9233929154724
 20
4.796825504152322
 10
300.8935
 20
4.798
 10
300.0
 20
4.798
 10
300.0
 20
4.98
 10
301.345
 20
4.98
  0
LWPOLYLINE
  5
F28
330
6F
100
AcDbEntity
  8
AISC_STEEL
100
AcDbPolyline
 90
       48
 70
     1
 43
0.0
 10
252.69
 20
5.0
 10
252.69
 20
4.793999999999999
 10
251.7805
 20
4.793999999999999
 10
251.7510191736664
 20
4.79278066400338
 10
251.7217397312698
 20
4.789130985314771
 10
251.6928616810907
 20
4.78307589494034
 10
251.6645822894939
 20
4.774656755287125
 10
251.6370947333989
 20
4.763931077615855
 10
251.6105867806857
 20
4.750972129180715
 10
251.5852395075503
 20
4.735868432739721
 10
251.5612260615697
 20
4.718723161854511
 10
251.5387104789296
 20
4.699653436110308
 10
251.5178465638897
 20
4.678789521070388
 10
251.4987768381455
 20
4.65627393843021
 10
251.4816315672603
 20
4.632260492449705
 10
251.4665278708193
 20
4.606913219314235
 10
251.4535689223841
 20
4.580405266601109
 10
251.4428432447129
 20
4.552917710506071
 10
251.4344241050597
 20
4.524638318909264
 10
251.4283690146851
 20
4.495760268730221
 10
251.4247193359966
 20
4.466480826333622
 10
251.4235
 20
4.436999999999998
 10
251.4235
 20
0.0
 10
251.345
 20
0.0
 10
251.2665
 20
0.0
 10
251.2665
 20
4.436999999999998
 10
251.2652806640033
 20
4.466480826333622
 10
251.2616309853148
 20
4.495760268730221
 10
251.2555758949404
 20
4.524638318909264
 10
251.2471567552871
 20
4.552917710506071
 10
251.2364310776159
 20
4.580405266601109
 10
251.2234721291807
 20
4.606913219314235
 10
251.2083684327397
 20
4.632260492449705
 10
251.1912231618545
 20
4.65627393843021
 10
251.1721534361103
 20
4.678789521070388
 10
251.1512895210704
 20
4.699653436110308
 10
251.1287739384302
 20
4.718723161854511
 10
251.1047604924497
 20
4.735868432739721
 10
251.0794132193142
 20
4.750972129180715
 10
251.0529052666011
 20
4.763931077615855
 10
251.0254177105061
 20
4.774656755287125
 10
250.9971383189093
 20
4.78307589494034
 10
250.9682602687302
 20
4.789130985314771
 10
250.9389808263336
 20
4.79278066400338
 10
250.9095
 20
4.793999999999999
 10
250.0
 20
4.793999999999999
 10
250.0
 20
5.0
 10
251.345
 20
5.0
  0
LWPOLYLINE
  5
F29
330
6F
100
AcDbEntity
  8
AISC_STEEL
100
AcDbPolyline
 90
       44
 70
     1
 43
0.0
 10
203.25
 20
5.99
 10
203.25
 20
5.81
 10
202.0195
 20
5.81
 10
201.9899741249717
 20
5.808634936414411
 10
201.9607001542987
 20
5.804551391898848
 10
201.9319278431769
 20
5.797784205815303
 10
201.9039026668201
 20
5.788391113409393
 10
201.8768637261515
 20
5.776452253233619
 10
201.8510417078793
 20
5.762069483433477
 10
201.8266569163587
 20
5.745365512729677
 10
201.8039173940331
 20
5.726482853510611
 10
201.7830171464894
 20
5.705582605966898
 10
201.7641344872704
 20
5.682843083641362
 10
201.7474305165665
 20
5.658458292120753
 10
201.7330477467664
 20
5.632636273848492
 10
201.7211088865906
 20
5.605597333179888
 10
201.7117157941847
 20
5.577572156823066
 10
201.7049486081011
 20
5.548799845701302
 10
201.7008650635856
 20
5.519525875028257
 10
201.6995
 20
5.49
 10
201.6995
 20
0.0
 10
201.625
 20
0.0
 10
201.5505
 20
0.0
 10
201.5505
 20
5.49
 10
201.5491349364144
 20
5.519525875028257
 10
201.5450513918989
 20
5.548799845701302
 10
201.5382842058153
 20
5.577572156823066
 10
201.5288911134094
 20
5.605597333179888
 10
201.5169522532337
 20
5.632636273848492
 10
201.5025694834335
 20
5.658458292120753
 10
201.4858655127297
 20
5.682843083641362
 10
201.4669828535106
 20
5.705582605966898
 10
201.4460826059669
 20
5.726482853510611
 10
201.4233430836414
 20
5.745365512729677
 10
201.3989582921208
 20
5.762069483433477
 10
201.3731362738485
 20
5.776452253233619
 10
201.3460973331799
 20
5.788391113409393
 10
201.318072156823
 20
5.797784205815303
 10
201.2892998457013
 20
5.804551391898848
 10
201.2600258750283
 20
5.808634936414411
 10
201.2305
 20
5.81
 10
200.0
 20
5.81
 10
200.0
 20
5.99
 10
201.625
 20
5.99
  0
LWPOLYLINE
  5
F2A
330
6F
100
AcDbEntity
  8
AISC_STEEL
100
AcDbPolyline
 90
       48
 70
     1
 43
0.0
 10
153.07
 20
5.99
 10
153.07
 20
5.78
 10
151.968
 20
5.78
 10
151.9388494910483
 20
5.778794326031356
 10
151.9098981096309
 20
5.775185540101162
 10
151.8813436230393
 20
5.769198293876583
 10
151.8533810873707
 20
5.760873486320325
 10
151.8262015150975
 20
5.750267984309235
 10
151.7999905702579
 20
5.737454234175891
 10
151.7749273001828
 20
5.722519766826672
 10
151.7511829124205
 20
5.705566599816927
 10
151.7289196052161
 20
5.686710540467616
 10
151.7082894595324
 20
5.666080394783888
 10
151.6894334001831
 20
5.643817087579451
 10
151.6724802331733
 20
5.620072699817216
 10
151.6575457658241
 20
5.595009429742087
 10
151.6447320156907
 20
5.568798484902498
 10
151.6341265136797
 20
5.541618912629253
 10
151.6258017061234
 20
5.513656376960702
 10
151.6198144598988
 20
5.485101890369099
 10
151.6162056739686
 20
5.456150508951733
 10
151.615
 20
5.427
 10
151.615
 20
0.0
 10
151.535
 20
0.0
 10
151.455
 20
0.0
 10
151.455
 20
5.427
 10
151.4537943260314
 20
5.456150508951733
 10
151.4501855401011
 20
5.485101890369099
 10
151.4441982938766
 20
5.513656376960702
 10
151.4358734863203
 20
5.541618912629253
 10
151.4252679843092
 20
5.568798484902498
 10
151.4124542341759
 20
5.595009429742087
 10
151.3975197668266
 20
5.620072699817216
 10
151.3805665998169
 20
5.643817087579451
 10
151.3617105404676
 20
5.666080394783888
 10
151.3410803947839
 20
5.686710540467616
 10
151.3188170875794
 20
5.705566599816927
 10
151.2950726998172
 20
5.722519766826672
 10
151.2700094297421
 20
5.737454234175891
 10
151.2437984849025
 20
5.750267984309235
 10
151.2166189126292
 20
5.760873486320325
 10
151.1886563769606
 20
5.769198293876583
 10
151.160101890369
 20
5.775185540101162
 10
151.1311505089517
 20
5.778794326031356
 10
151.102
 20
5.78
 10
150.0
 20
5.78
 10
150.0
 20
5.99
 10
151.535
 20
5.99
  0
LWPOLYLINE
  5
F2B
330
6F
100
AcDbEntity
  8
AISC_STEEL
100
AcDbPolyline
 90
       46
 70
     1
 43
0.0
 10
103.07
 20
6.0
 10
103.07
 20
5.775
 10
101.9615
 20
5.775
 10
101.9320413589513
 20
5.77371380795501
 10
101.9028069159485
 20
5.769865020518127
 10
101.8740191627553
 20
5.763482929285705
 10
101.8458971915559
 20
5.754616105825637
 10
101.8186550275316
 20
5.743332032018387
 10
101.7925
 20
5.729716586479141
 10
101.7676311645133
 20
5.713873390969678
 10
101.7442377879259
 20
5.695923021774214
 10
101.7224979079589
 20
5.676002092041052
 10
101.7025769782258
 20
5.65426221207405
 10
101.6846266090303
 20
5.630868835486652
 10
101.6687834135208
 20
5.606
 10
101.6551679679815
 20
5.579844972468356
 10
101.6438838941743
 20
5.552602808444075
 10
101.6350170707143
 20
5.524480837244652
 10
101.6286349794818
 20
5.495693084051422
 10
101.624786192045
 20
5.466458641048709
 10
101.6235
 20
5.437
 10
101.6235
 20
0.0
 10
101.535
 20
0.0
 10
101.4465
 20
0.0
 10
101.4465
 20
5.437
 10
101.445213807955
 20
5.466458641048709
 10
101.4413650205181
 20
5.495693084051422
 10
101.4349829292857
 20
5.524480837244652
 10
101.4261161058256
 20
5.552602808444075
 10
101.4148320320183
 20
5.579844972468356
 10
101.4012165864791
 20
5.606
 10
101.3853733909697
 20
5.630868835486652
 10
101.3674230217742
 20
5.65426221207405
 10
101.347502092041
 20
5.676002092041052
 10
101.325762212074
 20
5.695923021774214
 10
101.3023688354866
 20
5.713873390969678
 10
101.2775
 20
5.729716586479141
 10
101.2513449724683
 20
5.743332032018387
 10
101.2241028084441
 20
5.754616105825637
 10
101.1959808372446
 20
5.763482929285705
 10
101.1671930840514
 20
5.769865020518127
 10
101.1379586410487
 20
5.77371380795501
 10
101.1085
 20
5.775
 10
100.0
 20
5.775
 10
100.0
 20
6.0
 10
101.535
 20
6.0
  0
LWPOLYLINE
  5
F2C
330
6F
100
AcDbEntity
  8
AISC_STEEL
100
AcDbPolyline
 90
       48
 70
     1
 43
0.0
 10
53.5
 20
6.25
 10
53.5
 20
6.038999999999999
 10
52.1795
 20
6.038999999999999
 10
52.15043207039374
 20
6.037797741538348
 10
52.12156270422118
 20
6.034199178797758
 10
52.09308910852644
 20
6.028228893610642
 10
52.06520578683996
 20
6.019927669078621
 10
52.03810321052214
 20
6.00935221098258
 10
52.01196651765095
 20
5.996574760424683
 10
51.9869742483409
 20
5.981682600348409
 10
51.96329712513324
 20
5.964777459307529
 10
51.94109688678774
 20
5.945974816556942
 10
51.92052518344306
 20
5.92540311321226
 10
51.90172254069247
 20
5.903202874866762
 10
51.88481739965159
 20
5.879525751659093
 10
51.86992523957531
 20
5.85453348234905
 10
51.85714778901742
 20
5.828396789477844
 10
51.84657233092138
 20
5.801294213160047
 10
51.83827110638937
 20
5.773410891473561
 10
51.83230082120224
 20
5.744937295778816
 10
51.82870225846165
 20
5.71606792960626
 10
51.8275
 20
5.686999999999998
 10
51.8275
 20
0.0
 10
51.75
 20
0.0
 10
51.6725
 20
0.0
 10
51.6725
 20
5.686999999999998
 10
51.67129774153835
 20
5.71606792960626
 10
51.66769917879776
 20
5.744937295778816
 10
51.66172889361064
 20
5.773410891473561
 10
51.65342766907862
 20
5.801294213160047
 10
51.64285221098258
 20
5.828396789477844
 10
51.63007476042469
 20
5.85453348234905
 10
51.6151826003484
 20
5.879525751659093
 10
51.59827745930752
 20
5.903202874866762
 10
51.57947481655694
 20
5.92540311321226
 10
51.55890311321225
 20
5.945974816556942
 10
51.53670287486676
 20
5.964777459307529
 10
51.5130257516591
 20
5.981682600348409
 10
51.48803348234904
 20
5.996574760424683
 10
51.46189678947785
 20
6.00935221098258
 10
51.43479421316005
 20
6.019927669078621
 10
51.40691089147356
 20
6.028228893610642
 10
51.37843729577881
 20
6.034199178797758
 10
51.34956792960625
 20
6.037797741538348
 10
51.3205
 20
6.038999999999999
 10
50.0
 20
6.038999999999999
 10
50.0
 20
6.25
 10
51.75
 20
6.25
  0
LWPOLYLINE
  5
F2D
330
6F
100
AcDbEntity
  8
AISC_STEEL
100
AcDbPolyline
 90
       46
 70
     1
 43
0.0
 10
3.75
 20
6.269999999999999
 10
3.75
 20
6.042
 10
2.2875
 20
6.042
 10
2.258302826179534
 20
6.040725223860735
 10
2.229327860481578
 20
6.036910597259089
 10
2.200795619890655
 20
6.030585151806837
 10
2.1729232519859
 20
6.021797027963278
 10
2.145922882316865
 20
6.010613108657278
 10
2.12
 20
5.997118510267786
 10
2.0953518938224
 20
5.981415934836811
 10
2.072166150755009
 20
5.963624888444857
 10
2.050619228302506
 20
5.943880771697493
 10
2.030875111555142
 20
5.922333849244991
 10
2.013084065163188
 20
5.899148106177599
 10
1.997381489732213
 20
5.8745
 10
1.983886891342722
 20
5.848577117683134
 10
1.97270297203672
 20
5.821576748014098
 10
1.963914848193161
 20
5.793704380109343
 10
1.95758940274091
 20
5.76517213951842
 10
1.953774776139264
 20
5.736197173820464
 10
1.952499999999999
 20
5.707
 10
1.952499999999999
 20
0.0
 10
1.875
 20
0.0
 10
1.7975
 20
0.0
 10
1.7975
 20
5.707
 10
1.796225223860734
 20
5.736197173820464
 10
1.792410597259089
 20
5.76517213951842
 10
1.786085151806838
 20
5.793704380109343
 10
1.777297027963279
 20
5.821576748014098
 10
1.766113108657277
 20
5.848577117683134
 10
1.752618510267786
 20
5.8745
 10
1.736915934836812
 20
5.899148106177599
 10
1.719124888444857
 20
5.922333849244991
 10
1.699380771697493
 20
5.943880771697493
 10
1.67783384924499
 20
5.963624888444857
 10
1.6546481061776
 20
5.981415934836811
 10
1.629999999999999
 20
5.997118510267786
 10
1.604077117683134
 20
6.010613108657278
 10
1.577076748014099
 20
6.021797027963278
 10
1.549204380109344
 20
6.030585151806837
 10
1.520672139518421
 20
6.036910597259089
 10
1.491697173820465
 20
6.040725223860735
 10
1.462499999999999
 20
6.042
 10
0.0
 20
6.042
 10
0.0
 20
6.269999999999999
 10
1.875
 20
6.269999999999999
  0
ENDSEC
  0
SECTION
  2
OBJECTS
  0
DICTIONARY
  5
C
330
0
100
AcDbDictionary
281
     1
  3
ACAD_ASSOCPERSSUBENTMANAGER
350
312
  3
ACAD_CIP_PREVIOUS_PRODUCT_INFO
350
310
  3
ACAD_COLOR
350
62
  3
ACAD_DETAILVIEWSTYLE
350
69
  3
ACAD_GROUP
350
D
  3
ACAD_LAST_SAVED_VERSION_INFO
350
F2E
  3
ACAD_LAYOUT
350
61
  3
ACAD_MATERIAL
350
10
  3
ACAD_MLEADERSTYLE
350
65
  3
ACAD_MLINESTYLE
350
5E
  3
ACAD_PLOTSETTINGS
350
60
  3
ACAD_PLOTSTYLENAME
350
E
  3
ACAD_SCALELIST
350
42
  3
ACAD_SECTIONVIEWSTYLE
350
67
  3
ACAD_TABLESTYLE
350
63
  3
ACAD_VISUALSTYLE
350
29
  3
ACDB_RECOMPOSE_DATA
350
F4B
  3
AcDbVariableDictionary
350
F33
  0
DICTIONARY
  5
F43
330
2
100
AcDbDictionary
280
     1
281
     1
  3
ACAD_LAYERSTATES
360
F44
  0
DICTIONARY
  5
F2F
330
54
100
AcDbDictionary
280
     1
281
     1
  3
ADSK_XREC_LAYER_RECONCILED
360
F30
  0
DICTIONARY
  5
F31
330
73
100
AcDbDictionary
280
     1
281
     1
  3
ADSK_XREC_LAYER_RECONCILED
360
F32
  0
DICTIONARY
  5
A6C
330
6F
100
AcDbDictionary
280
     1
281
     1
  3
ACAD_SORTENTS
360
A6D
  0
ACDBASSOCPERSSUBENTMANAGER
  5
312
102
{ACAD_REACTORS
330
C
102
}
330
C
100
AcDbAssocPersSubentManager
 90
        2
 90
        3
 90
        0
 90
        2
 90
        0
 90
        0
 90
        0
 90
        0
 90
        0
290
     0
  0
XRECORD
  5
310
102
{ACAD_REACTORS
330
C
102
}
330
C
100
AcDbXrecord
280
     1
300
ACD
300
2026
300

  0
DICTIONARY
  5
62
102
{ACAD_REACTORS
330
C
102
}
330
C
100
AcDbDictionary
281
     1
  0
DICTIONARY
  5
69
102
{ACAD_REACTORS
330
C
102
}
330
C
100
AcDbDictionary
281
     1
  3
Imperial24
350
6A
  0
DICTIONARY
  5
D
102
{ACAD_REACTORS
330
C
102
}
330
C
100
AcDbDictionary
281
     1
  0
XRECORD
  5
F2E
102
{ACAD_REACTORS
330
C
102
}
330
C
100
AcDbXrecord
280
     1
300
{46A6350D-17ED-C245-B91F-5D8856AB517E}
301
{04B0E52F-EF01-2D45-89CA-83116713B542}
302
{46A6350D-17ED-C245-B91F-5D8856AB517E}
303
C:\Users\rpayt\Desktop\TEMP\AISC_MT_2D_v1_9_5.dxf
  0
DICTIONARY
  5
61
102
{ACAD_REACTORS
330
C
102
}
330
C
100
AcDbDictionary
281
     1
  3
Layout1
350
6E
  3
Model
350
72
  0
DICTIONARY
  5
10
102
{ACAD_REACTORS
330
C
102
}
330
C
100
AcDbDictionary
281
     1
  3
ByBlock
350
19
  3
ByLayer
350
11
  3
Global
350
21
  0
DICTIONARY
  5
65
102
{ACAD_REACTORS
330
C
102
}
330
C
100
AcDbDictionary
281
     1
  3
Standard
350
66
  0
DICTIONARY
  5
5E
102
{ACAD_REACTORS
330
C
102
}
330
C
100
AcDbDictionary
281
     1
  3
Standard
350
5F
  0
DICTIONARY
  5
60
102
{ACAD_REACTORS
330
C
102
}
330
C
100
AcDbDictionary
281
     1
  0
ACDBDICTIONARYWDFLT
  5
E
102
{ACAD_REACTORS
330
C
102
}
330
C
100
AcDbDictionary
281
     1
  3
Normal
350
F
100
AcDbDictionaryWithDefault
340
F
  0
DICTIONARY
  5
42
102
{ACAD_REACTORS
330
C
102
}
330
C
100
AcDbDictionary
281
     1
  3
A0
350
43
  3
A1
350
44
  3
A2
350
45
  3
A3
350
46
  3
A4
350
47
  3
A5
350
48
  3
A6
350
49
  3
A7
350
4A
  3
A8
350
4B
  3
A9
350
4C
  3
B0
350
4D
  3
B1
350
4E
  3
B2
350
4F
  3
B3
350
50
  3
B4
350
51
  3
B5
350
52
  3
B6
350
53
  0
DICTIONARY
  5
67
102
{ACAD_REACTORS
330
C
102
}
330
C
100
AcDbDictionary
281
     1
  3
Imperial24
350
68
  0
DICTIONARY
  5
63
102
{ACAD_REACTORS
330
C
102
}
330
C
100
AcDbDictionary
281
     1
  3
Standard
350
64
  0
DICTIONARY
  5
29
102
{ACAD_REACTORS
330
C
102
}
330
C
100
AcDbDictionary
281
     1
  3
2dWireframe
350
2F
  3
Basic
350
2E
  3
Brighten
350
35
  3
ColorChange
350
39
  3
Conceptual
350
32
  3
Dim
350
34
  3
EdgeColorOff
350
41
  3
Facepattern
350
38
  3
Flat
350
2A
  3
FlatWithEdges
350
2B
  3
Gouraud
350
2C
  3
GouraudWithEdges
350
2D
  3
Hidden
350
31
  3
JitterOff
350
3F
  3
Linepattern
350
37
  3
OverhangOff
350
40
  3
Realistic
350
33
  3
Shaded
350
3E
  3
Shaded with edges
350
3D
  3
Shades of Gray
350
3A
  3
Sketchy
350
3B
  3
Thicken
350
36
  3
Wireframe
350
30
  3
X-Ray
350
3C
  0
XRECORD
  5
F4B
102
{ACAD_REACTORS
330
C
102
}
330
C
100
AcDbXrecord
280
     1
 90
        1
330
64
  0
DICTIONARY
  5
F33
102
{ACAD_REACTORS
330
C
102
}
330
C
100
AcDbDictionary
281
     1
  3
CANNOSCALE
350
F39
  3
CMLEADERSTYLE
350
F35
  3
CTABLESTYLE
350
F34
  3
CVIEWDETAILSTYLE
350
F36
  3
CVIEWSECTIONSTYLE
350
F37
  3
LAYEREVAL
350
F3B
  3
LAYERNOTIFY
350
F3C
  3
LIGHTINGUNITS
350
F3A
  3
MSLTSCALE
350
F38
  0
DICTIONARY
  5
F44
102
{ACAD_REACTORS
330
F43
102
}
330
F43
100
AcDbDictionary
281
     1
  0
XRECORD
  5
F30
102
{ACAD_REACTORS
330
F2F
102
}
330
F2F
100
AcDbXrecord
280
     1
290
     1
  0
XRECORD
  5
F32
102
{ACAD_REACTORS
330
F31
102
}
330
F31
100
AcDbXrecord
280
     1
290
     1
  0
SORTENTSTABLE
  5
A6D
102
{ACAD_REACTORS
330
A6C
102
}
330
A6C
100
AcDbSortentsTable
330
6F
  0
ACDBDETAILVIEWSTYLE
  5
6A
102
{ACAD_REACTORS
330
69
102
}
330
69
100
AcDbModelDocViewStyle
 70
     0
  3
Imperial24
290
     0
300
Imperial24
 90
        0
100
AcDbDetailViewStyle
 70
     0
 71
     0
 90
        3
 71
     1
340
55
 62
   256
 40
0.24
340
0
 62
   256
 40
0.24
300

 40
0.36
280
     3
 71
     2
340
5C
 90
       25
 62
   256
 71
     3
340
55
 62
   256
 40
0.24
 90
        1
 40
0.75
 90
        1
300
%<\AcVar ViewType \f "%tc1">% %<\AcVar ViewDetailId>%\PSCALE %<\AcVar ViewScale \f "%sn">%
 71
     4
340
5C
 90
       25
 62
   256
340
5C
 90
       25
 62
   256
280
     0
  0
LAYOUT
  5
6E
102
{ACAD_REACTORS
330
61
102
}
330
61
100
AcDbPlotSettings
  1

  2
HP52C8C1.attlocal.net (HP OfficeJet Pro 7740 series)
  4

  6

 40
0.0
 41
0.0
 42
0.0
 43
0.0
 44
0.0
 45
0.0
 46
0.0
 47
0.0
 48
0.0
 49
0.0
140
0.0
141
0.0
142
1.0
143
1.0
 70
   688
 72
     0
 73
     0
 74
     5
  7

 75
    16
147
1.0
 76
     0
 77
     2
 78
   300
148
0.0
149
0.0
100
AcDbLayout
  1
Layout1
 70
     1
 71
     1
 10
0.0
 20
0.0
 11
12.0
 21
9.0
 12
0.0
 22
0.0
 32
0.0
 14
1.000000000000000E+20
 24
1.000000000000000E+20
 34
1.000000000000000E+20
 15
-1.000000000000000E+20
 25
-1.000000000000000E+20
 35
-1.000000000000000E+20
146
0.0
 13
0.0
 23
0.0
 33
0.0
 16
1.0
 26
0.0
 36
0.0
 17
0.0
 27
1.0
 37
0.0
 76
     0
330
6B
  0
LAYOUT
  5
72
102
{ACAD_REACTORS
330
61
102
}
330
61
100
AcDbPlotSettings
  1

  2
HP52C8C1.attlocal.net (HP OfficeJet Pro 7740 series)
  4

  6

 40
0.0
 41
0.0
 42
0.0
 43
0.0
 44
0.0
 45
0.0
 46
0.0
 47
0.0
 48
0.0
 49
0.0
140
0.0
141
0.0
142
1.0
143
1.0
 70
  1712
 72
     0
 73
     0
 74
     0
  7

 75
     0
147
1.0
 76
     0
 77
     2
 78
   300
148
0.0
149
0.0
100
AcDbLayout
  1
Model
 70
     1
 71
     0
 10
0.0
 20
0.0
 11
12.0
 21
9.0
 12
0.0
 22
0.0
 32
0.0
 14
0.0
 24
0.0
 34
0.0
 15
0.0
 25
0.0
 35
0.0
146
0.0
 13
0.0
 23
0.0
 33
0.0
 16
1.0
 26
0.0
 36
0.0
 17
0.0
 27
1.0
 37
0.0
 76
     0
330
6F
331
76
  0
MATERIAL
  5
19
102
{ACAD_XDICTIONARY
360
1A
102
}
102
{ACAD_REACTORS
330
10
102
}
330
10
100
AcDbMaterial
  1
ByBlock
 72
     0
 43
0.0208333333333333
 43
0.0
 43
0.0
 43
0.0
 43
0.0
 43
0.0208333333333333
 43
0.0
 43
0.0
 43
0.0
 43
0.0
 43
1.0
 43
0.0
 43
0.0
 43
0.0
 43
0.0
 43
1.0
 77
     0
 47
0.0208333333333333
 47
0.0
 47
0.0
 47
0.0
 47
0.0
 47
0.0208333333333333
 47
0.0
 47
0.0
 47
0.0
 47
0.0
 47
1.0
 47
0.0
 47
0.0
 47
0.0
 47
0.0
 47
1.0
171
     0
 49
0.0208333333333333
 49
0.0
 49
0.0
 49
0.0
 49
0.0
 49
0.0208333333333333
 49
0.0
 49
0.0
 49
0.0
 49
0.0
 49
1.0
 49
0.0
 49
0.0
 49
0.0
 49
0.0
 49
1.0
175
     0
142
0.0208333333333333
142
0.0
142
0.0
142
0.0
142
0.0
142
0.0208333333333333
142
0.0
142
0.0
142
0.0
142
0.0
142
1.0
142
0.0
142
0.0
142
0.0
142
0.0
142
1.0
179
     0
144
0.0208333333333333
144
0.0
144
0.0
144
0.0
144
0.0
144
0.0208333333333333
144
0.0
144
0.0
144
0.0
144
0.0
144
1.0
144
0.0
144
0.0
144
0.0
144
0.0
144
1.0
147
0.0208333333333333
147
0.0
147
0.0
147
0.0
147
0.0
147
0.0208333333333333
147
0.0
147
0.0
147
0.0
147
0.0
147
1.0
147
0.0
147
0.0
147
0.0
147
0.0
147
1.0
  0
MATERIAL
  5
11
102
{ACAD_XDICTIONARY
360
12
102
}
102
{ACAD_REACTORS
330
10
102
}
330
10
100
AcDbMaterial
  1
ByLayer
 72
     0
 43
0.0208333333333333
 43
0.0
 43
0.0
 43
0.0
 43
0.0
 43
0.0208333333333333
 43
0.0
 43
0.0
 43
0.0
 43
0.0
 43
1.0
 43
0.0
 43
0.0
 43
0.0
 43
0.0
 43
1.0
 77
     0
 47
0.0208333333333333
 47
0.0
 47
0.0
 47
0.0
 47
0.0
 47
0.0208333333333333
 47
0.0
 47
0.0
 47
0.0
 47
0.0
 47
1.0
 47
0.0
 47
0.0
 47
0.0
 47
0.0
 47
1.0
171
     0
 49
0.0208333333333333
 49
0.0
 49
0.0
 49
0.0
 49
0.0
 49
0.0208333333333333
 49
0.0
 49
0.0
 49
0.0
 49
0.0
 49
1.0
 49
0.0
 49
0.0
 49
0.0
 49
0.0
 49
1.0
175
     0
142
0.0208333333333333
142
0.0
142
0.0
142
0.0
142
0.0
142
0.0208333333333333
142
0.0
142
0.0
142
0.0
142
0.0
142
1.0
142
0.0
142
0.0
142
0.0
142
0.0
142
1.0
179
     0
144
0.0208333333333333
144
0.0
144
0.0
144
0.0
144
0.0
144
0.0208333333333333
144
0.0
144
0.0
144
0.0
144
0.0
144
1.0
144
0.0
144
0.0
144
0.0
144
0.0
144
1.0
147
0.0208333333333333
147
0.0
147
0.0
147
0.0
147
0.0
147
0.0208333333333333
147
0.0
147
0.0
147
0.0
147
0.0
147
1.0
147
0.0
147
0.0
147
0.0
147
0.0
147
1.0
  0
MATERIAL
  5
21
102
{ACAD_XDICTIONARY
360
22
102
}
102
{ACAD_REACTORS
330
10
102
}
330
10
100
AcDbMaterial
  1
Global
 72
     0
 43
0.0208333333333333
 43
0.0
 43
0.0
 43
0.0
 43
0.0
 43
0.0208333333333333
 43
0.0
 43
0.0
 43
0.0
 43
0.0
 43
1.0
 43
0.0
 43
0.0
 43
0.0
 43
0.0
 43
1.0
 77
     0
 47
0.0208333333333333
 47
0.0
 47
0.0
 47
0.0
 47
0.0
 47
0.0208333333333333
 47
0.0
 47
0.0
 47
0.0
 47
0.0
 47
1.0
 47
0.0
 47
0.0
 47
0.0
 47
0.0
 47
1.0
171
     0
 49
0.0208333333333333
 49
0.0
 49
0.0
 49
0.0
 49
0.0
 49
0.0208333333333333
 49
0.0
 49
0.0
 49
0.0
 49
0.0
 49
1.0
 49
0.0
 49
0.0
 49
0.0
 49
0.0
 49
1.0
175
     0
142
0.0208333333333333
142
0.0
142
0.0
142
0.0
142
0.0
142
0.0208333333333333
142
0.0
142
0.0
142
0.0
142
0.0
142
1.0
142
0.0
142
0.0
142
0.0
142
0.0
142
1.0
179
     0
144
0.0208333333333333
144
0.0
144
0.0
144
0.0
144
0.0
144
0.0208333333333333
144
0.0
144
0.0
144
0.0
144
0.0
144
1.0
144
0.0
144
0.0
144
0.0
144
0.0
144
1.0
147
0.0208333333333333
147
0.0
147
0.0
147
0.0
147
0.0
147
0.0208333333333333
147
0.0
147
0.0
147
0.0
147
0.0
147
1.0
147
0.0
147
0.0
147
0.0
147
0.0
147
1.0
  0
MLEADERSTYLE
  5
66
102
{ACAD_REACTORS
330
65
102
}
330
65
100
AcDbMLeaderStyle
179
     2
170
     2
171
     1
172
     0
 90
        2
 40
0.0
 41
0.0
173
     1
 91
-1056964608
340
5A
 92
       -2
290
     1
 42
0.09
291
     1
 43
0.36
  3
Standard
 44
0.18
300

342
55
174
     1
178
     6
175
     1
176
     0
 93
-1056964608
 45
0.18
292
     0
297
     0
 46
0.18
 94
-1056964608
 47
1.0
 49
1.0
140
1.0
293
     1
141
0.0
294
     1
177
     0
142
1.0
295
     0
296
     0
143
0.125
271
     0
272
     9
273
     9
298
     0
  0
MLINESTYLE
  5
5F
102
{ACAD_REACTORS
330
5E
102
}
330
5E
100
AcDbMlineStyle
  2
STANDARD
 70
     0
  3

 62
   256
 51
90.0
 52
90.0
 71
     2
 49
0.5
 62
   256
  6
BYLAYER
 49
-0.5
 62
   256
  6
BYLAYER
  0
ACDBPLACEHOLDER
  5
F
102
{ACAD_REACTORS
330
E
102
}
330
E
  0
SCALE
  5
43
102
{ACAD_REACTORS
330
42
102
}
330
42
100
AcDbScale
 70
     0
300
1:1
140
1.0
141
1.0
290
     1
  0
SCALE
  5
44
102
{ACAD_REACTORS
330
42
102
}
330
42
100
AcDbScale
 70
     0
300
1/128" = 1'-0"
140
0.0078125
141
12.0
290
     0
  0
SCALE
  5
45
102
{ACAD_REACTORS
330
42
102
}
330
42
100
AcDbScale
 70
     0
300
1/64" = 1'-0"
140
0.015625
141
12.0
290
     0
  0
SCALE
  5
46
102
{ACAD_REACTORS
330
42
102
}
330
42
100
AcDbScale
 70
     0
300
1/32" = 1'-0"
140
0.03125
141
12.0
290
     0
  0
SCALE
  5
47
102
{ACAD_REACTORS
330
42
102
}
330
42
100
AcDbScale
 70
     0
300
1/16" = 1'-0"
140
0.0625
141
12.0
290
     0
  0
SCALE
  5
48
102
{ACAD_REACTORS
330
42
102
}
330
42
100
AcDbScale
 70
     0
300
3/32" = 1'-0"
140
0.09375
141
12.0
290
     0
  0
SCALE
  5
49
102
{ACAD_REACTORS
330
42
102
}
330
42
100
AcDbScale
 70
     0
300
1/8" = 1'-0"
140
0.125
141
12.0
290
     0
  0
SCALE
  5
4A
102
{ACAD_REACTORS
330
42
102
}
330
42
100
AcDbScale
 70
     0
300
3/16" = 1'-0"
140
0.1875
141
12.0
290
     0
  0
SCALE
  5
4B
102
{ACAD_REACTORS
330
42
102
}
330
42
100
AcDbScale
 70
     0
300
1/4" = 1'-0"
140
0.25
141
12.0
290
     0
  0
SCALE
  5
4C
102
{ACAD_REACTORS
330
42
102
}
330
42
100
AcDbScale
 70
     0
300
3/8" = 1'-0"
140
0.375
141
12.0
290
     0
  0
SCALE
  5
4D
102
{ACAD_REACTORS
330
42
102
}
330
42
100
AcDbScale
 70
     0
300
1/2" = 1'-0"
140
0.5
141
12.0
290
     0
  0
SCALE
  5
4E
102
{ACAD_REACTORS
330
42
102
}
330
42
100
AcDbScale
 70
     0
300
3/4" = 1'-0"
140
0.75
141
12.0
290
     0
  0
SCALE
  5
4F
102
{ACAD_REACTORS
330
42
102
}
330
42
100
AcDbScale
 70
     0
300
1" = 1'-0"
140
1.0
141
12.0
290
     0
  0
SCALE
  5
50
102
{ACAD_REACTORS
330
42
102
}
330
42
100
AcDbScale
 70
     0
300
1-1/2" = 1'-0"
140
1.5
141
12.0
290
     0
  0
SCALE
  5
51
102
{ACAD_REACTORS
330
42
102
}
330
42
100
AcDbScale
 70
     0
300
3" = 1'-0"
140
3.0
141
12.0
290
     0
  0
SCALE
  5
52
102
{ACAD_REACTORS
330
42
102
}
330
42
100
AcDbScale
 70
     0
300
6" = 1'-0"
140
6.0
141
12.0
290
     0
  0
SCALE
  5
53
102
{ACAD_REACTORS
330
42
102
}
330
42
100
AcDbScale
 70
     0
300
1'-0" = 1'-0"
140
12.0
141
12.0
290
     0
  0
ACDBSECTIONVIEWSTYLE
  5
68
102
{ACAD_REACTORS
330
67
102
}
330
67
100
AcDbModelDocViewStyle
 70
     0
  3
Imperial24
290
     0
300
Imperial24
 90
        0
100
AcDbSectionViewStyle
 70
     0
 71
     0
 90
       78
 71
     1
340
55
 62
   256
 40
0.24
340
0
340
0
 62
   256
 40
0.24
300
I, O, Q, S, X, Z
 40
0.48
 90
        3
 40
0.18
 90
        1
 71
     2
340
5C
 90
       25
 62
   256
340
5C
 90
       50
 62
   256
 40
0.24
 40
0.0
 40
0.24
 71
     3
340
55
 62
   256
 40
0.24
 90
        1
 40
0.75
 90
        1
300
%<\AcVar ViewType \f "%tc1">% %<\AcVar ViewSectionStartId>%-%<\AcVar ViewSectionEndId>%\PSCALE %<\AcVar ViewScale \f "%sn">%
 71
     4
 62
   256
 62
   257
300
ANSI31
 40
1.0
 90
        0
290
     0
290
     0
 90
        6
 40
0.0
 40
1.570796326794896
 40
0.2617993877991494
 40
1.308996938995747
 40
-0.2617993877991494
 40
1.832595714594046
  0
TABLESTYLE
  5
64
102
{ACAD_XDICTIONARY
360
F49
102
}
102
{ACAD_REACTORS
330
63
102
}
330
63
100
AcDbTableStyle
280
     0
  3
Standard
 70
     0
 71
     0
 40
0.06
 41
0.06
280
     0
281
     0
  7
Standard
140
0.18
170
     2
 62
     0
 63
     7
283
     0
 90
      512
 91
        0
  1

274
    -2
284
     1
 64
     0
275
    -2
285
     1
 65
     0
276
    -2
286
     1
 66
     0
277
    -2
287
     1
 67
     0
278
    -2
288
     1
 68
     0
279
    -2
289
     1
 69
     0
  7
Standard
140
0.25
170
     5
 62
     0
 63
     7
283
     0
 90
      512
 91
        0
  1

274
    -2
284
     1
 64
     0
275
    -2
285
     1
 65
     0
276
    -2
286
     1
 66
     0
277
    -2
287
     1
 67
     0
278
    -2
288
     1
 68
     0
279
    -2
289
     1
 69
     0
  7
Standard
140
0.18
170
     5
 62
     0
 63
     7
283
     0
 90
      512
 91
        0
  1

274
    -2
284
     1
 64
     0
275
    -2
285
     1
 65
     0
276
    -2
286
     1
 66
     0
277
    -2
287
     1
 67
     0
278
    -2
288
     1
 68
     0
279
    -2
289
     1
 69
     0
  0
VISUALSTYLE
  5
2F
102
{ACAD_REACTORS
330
29
102
}
330
29
100
AcDbVisualStyle
  2
2dWireframe
 70
     4
177
     3
291
     0
 70
    58
 90
        0
176
     1
 90
        2
176
     1
 90
        0
176
     1
 90
        0
176
     1
 40
0.6
176
     1
 40
30.0
176
     1
 62
     7
420
 16777215
176
     1
 90
        1
176
     1
 90
        4
176
     1
 62
     7
176
     1
 62
   257
176
     1
 90
        1
176
     1
 90
        1
176
     1
 40
1.0
176
     1
 90
        0
176
     1
 62
   257
176
     1
 40
1.0
176
     1
 90
        1
176
     1
 90
        6
176
     1
 90
        2
176
     1
 62
     7
176
     1
 90
        5
176
     1
 90
        0
176
     1
 90
        0
176
     1
290
     0
176
     1
 90
        1
176
     1
 40
0.0
176
     1
 90
        0
176
     1
290
     1
176
     1
290
     1
176
     1
290
     0
176
     1
290
     0
176
     1
290
     0
176
     1
290
     0
176
     1
290
     0
176
     1
290
     0
176
     1
290
     0
176
     1
 90
       50
176
     1
 40
0.0
176
     1
 40
1.0
176
     1
 90
        0
176
     1
 62
    18
420
        0
176
     1
 90
       50
176
     1
 90
        3
176
     1
 62
     5
420
      255
176
     1
290
     0
176
     1
 90
       50
176
     1
 90
       50
176
     1
 90
       50
176
     1
290
     0
176
     1
 90
       50
176
     1
 62
   256
176
     0
 40
1.0
176
     0
 90
        2
176
     1
  1
strokes_ogs.tif
176
     1
290
     0
176
     1
 40
1.0
176
     1
 40
1.0
176
     1
  0
VISUALSTYLE
  5
2E
102
{ACAD_REACTORS
330
29
102
}
330
29
100
AcDbVisualStyle
  2
Basic
 70
     7
177
     3
291
     1
 70
    58
 90
        1
176
     1
 90
        0
176
     1
 90
        1
176
     1
 90
        0
176
     1
 40
0.6
176
     1
 40
30.0
176
     1
 62
     7
420
 16777215
176
     1
 90
        0
176
     1
 90
        4
176
     1
 62
     7
176
     1
 62
   257
176
     1
 90
        1
176
     1
 90
        1
176
     1
 40
1.0
176
     1
 90
        8
176
     1
 62
     7
176
     1
 40
1.0
176
     1
 90
        1
176
     1
 90
        6
176
     1
 90
        2
176
     1
 62
     7
176
     1
 90
        5
176
     1
 90
        0
176
     1
 90
        0
176
     1
290
     0
176
     1
 90
        1
176
     1
 40
0.0
176
     1
 90
        0
176
     1
290
     0
176
     1
290
     1
176
     1
290
     1
176
     1
290
     0
176
     1
290
     0
176
     1
290
     0
176
     1
290
     0
176
     1
290
     0
176
     1
290
     0
176
     1
 90
       50
176
     1
 40
0.0
176
     1
 40
1.0
176
     1
 90
        0
176
     1
 62
    18
420
        0
176
     1
 90
       50
176
     1
 90
        3
176
     1
 62
     5
420
      255
176
     1
290
     0
176
     1
 90
       50
176
     1
 90
       50
176
     1
 90
       50
176
     1
290
     0
176
     1
 90
       50
176
     1
 62
   256
176
     0
 40
1.0
176
     0
 90
        2
176
     1
  1
strokes_ogs.tif
176
     1
290
     0
176
     1
 40
1.0
176
     1
 40
1.0
176
     1
  0
VISUALSTYLE
  5
35
102
{ACAD_REACTORS
330
29
102
}
330
29
100
AcDbVisualStyle
  2
Brighten
 70
    12
177
     3
291
     1
 70
    58
 90
        2
176
     1
 90
        2
176
     1
 90
        0
176
     1
 90
        0
176
     1
 40
0.6
176
     1
 40
30.0
176
     1
 62
     7
420
 16777215
176
     1
 90
        1
176
     1
 90
        4
176
     1
 62
     7
176
     1
 62
   257
176
     1
 90
        1
176
     1
 90
        1
176
     1
 40
1.0
176
     1
 90
        8
176
     1
 62
     7
176
     1
 40
1.0
176
     1
 90
        1
176
     1
 90
        6
176
     1
 90
        2
176
     1
 62
     7
176
     1
 90
        5
176
     1
 90
        0
176
     1
 90
        0
176
     1
290
     0
176
     1
 90
        1
176
     1
 40
50.0
176
     1
 90
        0
176
     1
290
     0
176
     1
290
     1
176
     1
290
     1
176
     1
290
     0
176
     1
290
     0
176
     1
290
     0
176
     1
290
     0
176
     1
290
     0
176
     1
290
     0
176
     1
 90
       50
176
     1
 40
0.0
176
     1
 40
1.0
176
     1
 90
        0
176
     1
 62
    18
420
        0
176
     1
 90
       50
176
     1
 90
        3
176
     1
 62
     5
420
      255
176
     1
290
     0
176
     1
 90
       50
176
     1
 90
       50
176
     1
 90
       50
176
     1
290
     0
176
     1
 90
       50
176
     1
 62
   256
176
     0
 40
1.0
176
     0
 90
        2
176
     1
  1
strokes_ogs.tif
176
     1
290
     0
176
     1
 40
1.0
176
     1
 40
1.0
176
     1
  0
VISUALSTYLE
  5
39
102
{ACAD_REACTORS
330
29
102
}
330
29
100
AcDbVisualStyle
  2
ColorChange
 70
    16
177
     3
291
     1
 70
    58
 90
        2
176
     1
 90
        2
176
     1
 90
        3
176
     1
 90
        0
176
     1
 40
0.6
176
     1
 40
30.0
176
     1
 62
     8
420
  8421504
176
     1
 90
        1
176
     1
 90
        4
176
     1
 62
     7
176
     1
 62
   257
176
     1
 90
        1
176
     1
 90
        1
176
     1
 40
1.0
176
     1
 90
        8
176
     1
 62
     8
420
  8421504
176
     1
 40
1.0
176
     1
 90
        1
176
     1
 90
        6
176
     1
 90
        2
176
     1
 62
     7
176
     1
 90
        5
176
     1
 90
        0
176
     1
 90
        0
176
     1
290
     0
176
     1
 90
        1
176
     1
 40
0.0
176
     1
 90
        0
176
     1
290
     0
176
     1
290
     1
176
     1
290
     1
176
     1
290
     0
176
     1
290
     0
176
     1
290
     0
176
     1
290
     0
176
     1
290
     0
176
     1
290
     0
176
     1
 90
       50
176
     1
 40
0.0
176
     1
 40
1.0
176
     1
 90
        0
176
     1
 62
    18
420
        0
176
     1
 90
       50
176
     1
 90
        3
176
     1
 62
     5
420
      255
176
     1
290
     0
176
     1
 90
       50
176
     1
 90
       50
176
     1
 90
       50
176
     1
290
     0
176
     1
 90
       50
176
     1
 62
   256
176
     0
 40
1.0
176
     0
 90
        2
176
     1
  1
strokes_ogs.tif
176
     1
290
     0
176
     1
 40
1.0
176
     1
 40
1.0
176
     1
  0
VISUALSTYLE
  5
32
102
{ACAD_REACTORS
330
29
102
}
330
29
100
AcDbVisualStyle
  2
Conceptual
 70
     9
177
     3
291
     0
 70
    58
 90
        3
176
     1
 90
        2
176
     1
 90
        0
176
     1
 90
        0
176
     1
 40
0.6
176
     1
 40
30.0
176
     1
 62
     7
420
 16777215
176
     1
 90
        2
176
     1
 90
        2
176
     1
 62
     7
176
     1
 62
   257
176
     1
 90
        1
176
     1
 90
        1
176
     1
 40
179.0
176
     1
 90
        8
176
     1
 62
     7
176
     1
 40
1.0
176
     1
 90
        1
176
     1
 90
        6
176
     1
 90
        2
176
     1
 62
     7
176
     1
 90
        3
176
     1
 90
        0
176
     1
 90
        0
176
     1
290
     0
176
     1
 90
        1
176
     1
 40
0.0
176
     1
 90
        0
176
     1
290
     0
176
     1
290
     1
176
     1
290
     1
176
     1
290
     0
176
     1
290
     0
176
     1
290
     0
176
     1
290
     0
176
     1
290
     0
176
     1
290
     0
176
     1
 90
       50
176
     1
 40
0.0
176
     1
 40
1.0
176
     1
 90
        0
176
     1
 62
    18
420
        0
176
     1
 90
       50
176
     1
 90
        3
176
     1
 62
     5
420
      255
176
     1
290
     0
176
     1
 90
       50
176
     1
 90
       50
176
     1
 90
       50
176
     1
290
     0
176
     1
 90
       50
176
     1
 62
   256
176
     0
 40
1.0
176
     0
 90
        2
176
     1
  1
strokes_ogs.tif
176
     1
290
     0
176
     1
 40
1.0
176
     1
 40
1.0
176
     1
  0
VISUALSTYLE
  5
34
102
{ACAD_REACTORS
330
29
102
}
330
29
100
AcDbVisualStyle
  2
Dim
 70
    11
177
     3
291
     1
 70
    58
 90
        2
176
     1
 90
        2
176
     1
 90
        0
176
     1
 90
        0
176
     1
 40
0.6
176
     1
 40
30.0
176
     1
 62
     7
420
 16777215
176
     1
 90
        1
176
     1
 90
        4
176
     1
 62
     7
176
     1
 62
   257
176
     1
 90
        1
176
     1
 90
        1
176
     1
 40
1.0
176
     1
 90
        8
176
     1
 62
     7
176
     1
 40
1.0
176
     1
 90
        1
176
     1
 90
        6
176
     1
 90
        2
176
     1
 62
     7
176
     1
 90
        5
176
     1
 90
        0
176
     1
 90
        0
176
     1
290
     0
176
     1
 90
        1
176
     1
 40
-50.0
176
     1
 90
        0
176
     1
290
     0
176
     1
290
     1
176
     1
290
     1
176
     1
290
     0
176
     1
290
     0
176
     1
290
     0
176
     1
290
     0
176
     1
290
     0
176
     1
290
     0
176
     1
 90
       50
176
     1
 40
0.0
176
     1
 40
1.0
176
     1
 90
        0
176
     1
 62
    18
420
        0
176
     1
 90
       50
176
     1
 90
        3
176
     1
 62
     5
420
      255
176
     1
290
     0
176
     1
 90
       50
176
     1
 90
       50
176
     1
 90
       50
176
     1
290
     0
176
     1
 90
       50
176
     1
 62
   256
176
     0
 40
1.0
176
     0
 90
        2
176
     1
  1
strokes_ogs.tif
176
     1
290
     0
176
     1
 40
1.0
176
     1
 40
1.0
176
     1
  0
VISUALSTYLE
  5
41
102
{ACAD_REACTORS
330
29
102
}
330
29
100
AcDbVisualStyle
  2
EdgeColorOff
 70
    22
177
     3
291
     1
 70
    58
 90
        2
176
     0
 90
        2
176
     0
 90
        0
176
     0
 90
        0
176
     0
 40
0.6
176
     0
 40
30.0
176
     0
 62
     7
420
 16777215
176
     0
 90
        1
176
     0
 90
        4
176
     0
 62
     7
176
     0
 62
   257
176
     0
 90
        1
176
     0
 90
        1
176
     0
 40
1.0
176
     0
 90
        8
176
     2
 62
     7
176
     0
 40
1.0
176
     0
 90
        1
176
     0
 90
        6
176
     0
 90
        2
176
     0
 62
     7
176
     0
 90
        5
176
     0
 90
        0
176
     0
 90
        0
176
     0
290
     0
176
     0
 90
        1
176
     0
 40
0.0
176
     0
 90
        0
176
     0
290
     0
176
     1
290
     1
176
     1
290
     1
176
     1
290
     0
176
     1
290
     0
176
     1
290
     0
176
     1
290
     0
176
     1
290
     0
176
     1
290
     0
176
     1
 90
       50
176
     0
 40
0.0
176
     0
 40
1.0
176
     0
 90
        0
176
     0
 62
    18
420
        0
176
     0
 90
       50
176
     0
 90
        3
176
     0
 62
     5
420
      255
176
     0
290
     0
176
     1
 90
       50
176
     0
 90
       50
176
     0
 90
       50
176
     0
290
     0
176
     1
 90
       50
176
     0
 62
   256
176
     0
 40
1.0
176
     0
 90
        2
176
     0
  1
strokes_ogs.tif
176
     0
290
     0
176
     1
 40
1.0
176
     0
 40
1.0
176
     0
  0
VISUALSTYLE
  5
38
102
{ACAD_REACTORS
330
29
102
}
330
29
100
AcDbVisualStyle
  2
Facepattern
 70
    15
177
     3
291
     1
 70
    58
 90
        2
176
     1
 90
        2
176
     1
 90
        0
176
     1
 90
        0
176
     1
 40
0.6
176
     1
 40
30.0
176
     1
 62
     7
420
 16777215
176
     1
 90
        1
176
     1
 90
        4
176
     1
 62
     7
176
     1
 62
   257
176
     1
 90
        1
176
     1
 90
        1
176
     1
 40
1.0
176
     1
 90
        8
176
     1
 62
     7
176
     1
 40
1.0
176
     1
 90
        1
176
     1
 90
        6
176
     1
 90
        2
176
     1
 62
     7
176
     1
 90
        5
176
     1
 90
        0
176
     1
 90
        0
176
     1
290
     0
176
     1
 90
        1
176
     1
 40
0.0
176
     1
 90
        0
176
     1
290
     0
176
     1
290
     1
176
     1
290
     1
176
     1
290
     0
176
     1
290
     0
176
     1
290
     0
176
     1
290
     0
176
     1
290
     0
176
     1
290
     0
176
     1
 90
       50
176
     1
 40
0.0
176
     1
 40
1.0
176
     1
 90
        0
176
     1
 62
    18
420
        0
176
     1
 90
       50
176
     1
 90
        3
176
     1
 62
     5
420
      255
176
     1
290
     0
176
     1
 90
       50
176
     1
 90
       50
176
     1
 90
       50
176
     1
290
     0
176
     1
 90
       50
176
     1
 62
   256
176
     0
 40
1.0
176
     0
 90
        2
176
     1
  1
strokes_ogs.tif
176
     1
290
     0
176
     1
 40
1.0
176
     1
 40
1.0
176
     1
  0
VISUALSTYLE
  5
2A
102
{ACAD_REACTORS
330
29
102
}
330
29
100
AcDbVisualStyle
  2
Flat
 70
     0
177
     3
291
     1
 70
    58
 90
        2
176
     1
 90
        1
176
     1
 90
        1
176
     1
 90
        2
176
     1
 40
0.6
176
     1
 40
30.0
176
     1
 62
     7
420
 16777215
176
     1
 90
        0
176
     1
 90
        0
176
     1
 62
     7
176
     1
 62
   257
176
     1
 90
        1
176
     1
 90
        1
176
     1
 40
1.0
176
     1
 90
        8
176
     1
 62
     7
176
     1
 40
1.0
176
     1
 90
        1
176
     1
 90
        6
176
     1
 90
        2
176
     1
 62
     7
176
     1
 90
        5
176
     1
 90
        0
176
     1
 90
        0
176
     1
290
     0
176
     1
 90
       13
176
     1
 40
0.0
176
     1
 90
        0
176
     1
290
     0
176
     1
290
     1
176
     1
290
     1
176
     1
290
     0
176
     1
290
     0
176
     1
290
     0
176
     1
290
     0
176
     1
290
     0
176
     1
290
     0
176
     1
 90
       50
176
     1
 40
0.0
176
     1
 40
1.0
176
     1
 90
        0
176
     1
 62
    18
420
        0
176
     1
 90
       50
176
     1
 90
        3
176
     1
 62
     5
420
      255
176
     1
290
     0
176
     1
 90
       50
176
     1
 90
       50
176
     1
 90
       50
176
     1
290
     0
176
     1
 90
       50
176
     1
 62
   256
176
     0
 40
1.0
176
     0
 90
        2
176
     1
  1
strokes_ogs.tif
176
     1
290
     0
176
     1
 40
1.0
176
     1
 40
1.0
176
     1
  0
VISUALSTYLE
  5
2B
102
{ACAD_REACTORS
330
29
102
}
330
29
100
AcDbVisualStyle
  2
FlatWithEdges
 70
     1
177
     3
291
     1
 70
    58
 90
        2
176
     1
 90
        1
176
     1
 90
        1
176
     1
 90
        2
176
     1
 40
0.6
176
     1
 40
30.0
176
     1
 62
     7
420
 16777215
176
     1
 90
        1
176
     1
 90
        0
176
     1
 62
     7
176
     1
 62
   257
176
     1
 90
        1
176
     1
 90
        1
176
     1
 40
1.0
176
     1
 90
        0
176
     1
 62
   257
176
     1
 40
1.0
176
     1
 90
        1
176
     1
 90
        6
176
     1
 90
        2
176
     1
 62
     7
176
     1
 90
        5
176
     1
 90
        0
176
     1
 90
        0
176
     1
290
     0
176
     1
 90
       13
176
     1
 40
0.0
176
     1
 90
        0
176
     1
290
     0
176
     1
290
     1
176
     1
290
     1
176
     1
290
     0
176
     1
290
     0
176
     1
290
     0
176
     1
290
     0
176
     1
290
     0
176
     1
290
     0
176
     1
 90
       50
176
     1
 40
0.0
176
     1
 40
1.0
176
     1
 90
        0
176
     1
 62
    18
420
        0
176
     1
 90
       50
176
     1
 90
        3
176
     1
 62
     5
420
      255
176
     1
290
     0
176
     1
 90
       50
176
     1
 90
       50
176
     1
 90
       50
176
     1
290
     0
176
     1
 90
       50
176
     1
 62
   256
176
     0
 40
1.0
176
     0
 90
        2
176
     1
  1
strokes_ogs.tif
176
     1
290
     0
176
     1
 40
1.0
176
     1
 40
1.0
176
     1
  0
VISUALSTYLE
  5
2C
102
{ACAD_REACTORS
330
29
102
}
330
29
100
AcDbVisualStyle
  2
Gouraud
 70
     2
177
     3
291
     1
 70
    58
 90
        2
176
     1
 90
        2
176
     1
 90
        1
176
     1
 90
        2
176
     1
 40
0.6
176
     1
 40
30.0
176
     1
 62
     7
420
 16777215
176
     1
 90
        0
176
     1
 90
        0
176
     1
 62
     7
176
     1
 62
   257
176
     1
 90
        1
176
     1
 90
        1
176
     1
 40
1.0
176
     1
 90
        0
176
     1
 62
     7
176
     1
 40
1.0
176
     1
 90
        1
176
     1
 90
        6
176
     1
 90
        2
176
     1
 62
     7
176
     1
 90
        5
176
     1
 90
        0
176
     1
 90
        0
176
     1
290
     0
176
     1
 90
       13
176
     1
 40
0.0
176
     1
 90
        0
176
     1
290
     0
176
     1
290
     1
176
     1
290
     1
176
     1
290
     0
176
     1
290
     0
176
     1
290
     0
176
     1
290
     0
176
     1
290
     0
176
     1
290
     0
176
     1
 90
       50
176
     1
 40
0.0
176
     1
 40
1.0
176
     1
 90
        0
176
     1
 62
    18
420
        0
176
     1
 90
       50
176
     1
 90
        3
176
     1
 62
     5
420
      255
176
     1
290
     0
176
     1
 90
       50
176
     1
 90
       50
176
     1
 90
       50
176
     1
290
     0
176
     1
 90
       50
176
     1
 62
   256
176
     0
 40
1.0
176
     0
 90
        2
176
     1
  1
strokes_ogs.tif
176
     1
290
     0
176
     1
 40
1.0
176
     1
 40
1.0
176
     1
  0
VISUALSTYLE
  5
2D
102
{ACAD_REACTORS
330
29
102
}
330
29
100
AcDbVisualStyle
  2
GouraudWithEdges
 70
     3
177
     3
291
     1
 70
    58
 90
        2
176
     1
 90
        2
176
     1
 90
        1
176
     1
 90
        2
176
     1
 40
0.6
176
     1
 40
30.0
176
     1
 62
     7
420
 16777215
176
     1
 90
        1
176
     1
 90
        0
176
     1
 62
     7
176
     1
 62
   257
176
     1
 90
        1
176
     1
 90
        1
176
     1
 40
1.0
176
     1
 90
        0
176
     1
 62
   257
176
     1
 40
1.0
176
     1
 90
        1
176
     1
 90
        6
176
     1
 90
        2
176
     1
 62
     7
176
     1
 90
        5
176
     1
 90
        0
176
     1
 90
        0
176
     1
290
     0
176
     1
 90
       13
176
     1
 40
0.0
176
     1
 90
        0
176
     1
290
     0
176
     1
290
     1
176
     1
290
     1
176
     1
290
     0
176
     1
290
     0
176
     1
290
     0
176
     1
290
     0
176
     1
290
     0
176
     1
290
     0
176
     1
 90
       50
176
     1
 40
0.0
176
     1
 40
1.0
176
     1
 90
        0
176
     1
 62
    18
420
        0
176
     1
 90
       50
176
     1
 90
        3
176
     1
 62
     5
420
      255
176
     1
290
     0
176
     1
 90
       50
176
     1
 90
       50
176
     1
 90
       50
176
     1
290
     0
176
     1
 90
       50
176
     1
 62
   256
176
     0
 40
1.0
176
     0
 90
        2
176
     1
  1
strokes_ogs.tif
176
     1
290
     0
176
     1
 40
1.0
176
     1
 40
1.0
176
     1
  0
VISUALSTYLE
  5
31
102
{ACAD_REACTORS
330
29
102
}
330
29
100
AcDbVisualStyle
  2
Hidden
 70
     6
177
     3
291
     0
 70
    58
 90
        1
176
     1
 90
        2
176
     1
 90
        2
176
     1
 90
        0
176
     1
 40
0.6
176
     1
 40
30.0
176
     1
 62
     7
420
 16777215
176
     1
 90
        2
176
     1
 90
        2
176
     1
 62
     7
176
     1
 62
   257
176
     1
 90
        2
176
     1
 90
        1
176
     1
 40
40.0
176
     1
 90
        0
176
     1
 62
   257
176
     1
 40
1.0
176
     1
 90
        1
176
     1
 90
        6
176
     1
 90
        2
176
     1
 62
     7
176
     1
 90
        3
176
     1
 90
        0
176
     1
 90
        0
176
     1
290
     0
176
     1
 90
        1
176
     1
 40
0.0
176
     1
 90
        0
176
     1
290
     0
176
     1
290
     1
176
     1
290
     1
176
     1
290
     0
176
     1
290
     0
176
     1
290
     0
176
     1
290
     0
176
     1
290
     0
176
     1
290
     0
176
     1
 90
       50
176
     1
 40
0.0
176
     1
 40
1.0
176
     1
 90
        0
176
     1
 62
    18
420
        0
176
     1
 90
       50
176
     1
 90
        3
176
     1
 62
     5
420
      255
176
     1
290
     0
176
     1
 90
       50
176
     1
 90
       50
176
     1
 90
       50
176
     1
290
     0
176
     1
 90
       50
176
     1
 62
   256
176
     0
 40
1.0
176
     0
 90
        2
176
     1
  1
strokes_ogs.tif
176
     1
290
     0
176
     1
 40
1.0
176
     1
 40
1.0
176
     1
  0
VISUALSTYLE
  5
3F
102
{ACAD_REACTORS
330
29
102
}
330
29
100
AcDbVisualStyle
  2
JitterOff
 70
    20
177
     3
291
     1
 70
    58
 90
        2
176
     0
 90
        2
176
     0
 90
        0
176
     0
 90
        0
176
     0
 40
0.6
176
     0
 40
30.0
176
     0
 62
     7
420
 16777215
176
     0
 90
        1
176
     0
 90
        4
176
     0
 62
     7
176
     0
 62
   257
176
     0
 90
        1
176
     0
 90
        1
176
     0
 40
1.0
176
     0
 90
       10
176
     2
 62
     7
176
     0
 40
1.0
176
     0
 90
        1
176
     0
 90
        6
176
     0
 90
        2
176
     0
 62
     7
176
     0
 90
        5
176
     0
 90
        0
176
     0
 90
        0
176
     0
290
     0
176
     0
 90
        1
176
     0
 40
0.0
176
     0
 90
        0
176
     0
290
     0
176
     1
290
     1
176
     1
290
     1
176
     1
290
     0
176
     1
290
     0
176
     1
290
     0
176
     1
290
     0
176
     1
290
     0
176
     1
290
     0
176
     1
 90
       50
176
     0
 40
0.0
176
     0
 40
1.0
176
     0
 90
        0
176
     0
 62
    18
420
        0
176
     0
 90
       50
176
     0
 90
        3
176
     0
 62
     5
420
      255
176
     0
290
     0
176
     1
 90
       50
176
     0
 90
       50
176
     0
 90
       50
176
     0
290
     0
176
     1
 90
       50
176
     0
 62
   256
176
     0
 40
1.0
176
     0
 90
        2
176
     0
  1
strokes_ogs.tif
176
     0
290
     0
176
     1
 40
1.0
176
     0
 40
1.0
176
     0
  0
VISUALSTYLE
  5
37
102
{ACAD_REACTORS
330
29
102
}
330
29
100
AcDbVisualStyle
  2
Linepattern
 70
    14
177
     3
291
     1
 70
    58
 90
        2
176
     1
 90
        2
176
     1
 90
        0
176
     1
 90
        0
176
     1
 40
0.6
176
     1
 40
30.0
176
     1
 62
     7
420
 16777215
176
     1
 90
        1
176
     1
 90
        4
176
     1
 62
     7
176
     1
 62
   257
176
     1
 90
        7
176
     1
 90
        7
176
     1
 40
1.0
176
     1
 90
        8
176
     1
 62
     7
176
     1
 40
1.0
176
     1
 90
        1
176
     1
 90
        6
176
     1
 90
        2
176
     1
 62
     7
176
     1
 90
        5
176
     1
 90
        0
176
     1
 90
        0
176
     1
290
     0
176
     1
 90
        1
176
     1
 40
0.0
176
     1
 90
        0
176
     1
290
     0
176
     1
290
     1
176
     1
290
     1
176
     1
290
     0
176
     1
290
     0
176
     1
290
     0
176
     1
290
     0
176
     1
290
     0
176
     1
290
     0
176
     1
 90
       50
176
     1
 40
0.0
176
     1
 40
1.0
176
     1
 90
        0
176
     1
 62
    18
420
        0
176
     1
 90
       50
176
     1
 90
        3
176
     1
 62
     5
420
      255
176
     1
290
     0
176
     1
 90
       50
176
     1
 90
       50
176
     1
 90
       50
176
     1
290
     0
176
     1
 90
       50
176
     1
 62
   256
176
     0
 40
1.0
176
     0
 90
        2
176
     1
  1
strokes_ogs.tif
176
     1
290
     0
176
     1
 40
1.0
176
     1
 40
1.0
176
     1
  0
VISUALSTYLE
  5
40
102
{ACAD_REACTORS
330
29
102
}
330
29
100
AcDbVisualStyle
  2
OverhangOff
 70
    21
177
     3
291
     1
 70
    58
 90
        2
176
     0
 90
        2
176
     0
 90
        0
176
     0
 90
        0
176
     0
 40
0.6
176
     0
 40
30.0
176
     0
 62
     7
420
 16777215
176
     0
 90
        1
176
     0
 90
        4
176
     0
 62
     7
176
     0
 62
   257
176
     0
 90
        1
176
     0
 90
        1
176
     0
 40
1.0
176
     0
 90
        9
176
     2
 62
     7
176
     0
 40
1.0
176
     0
 90
        1
176
     0
 90
        6
176
     0
 90
        2
176
     0
 62
     7
176
     0
 90
        5
176
     0
 90
        0
176
     0
 90
        0
176
     0
290
     0
176
     0
 90
        1
176
     0
 40
0.0
176
     0
 90
        0
176
     0
290
     0
176
     1
290
     1
176
     1
290
     1
176
     1
290
     0
176
     1
290
     0
176
     1
290
     0
176
     1
290
     0
176
     1
290
     0
176
     1
290
     0
176
     1
 90
       50
176
     0
 40
0.0
176
     0
 40
1.0
176
     0
 90
        0
176
     0
 62
    18
420
        0
176
     0
 90
       50
176
     0
 90
        3
176
     0
 62
     5
420
      255
176
     0
290
     0
176
     1
 90
       50
176
     0
 90
       50
176
     0
 90
       50
176
     0
290
     0
176
     1
 90
       50
176
     0
 62
   256
176
     0
 40
1.0
176
     0
 90
        2
176
     0
  1
strokes_ogs.tif
176
     0
290
     0
176
     1
 40
1.0
176
     0
 40
1.0
176
     0
  0
VISUALSTYLE
  5
33
102
{ACAD_REACTORS
330
29
102
}
330
29
100
AcDbVisualStyle
  2
Realistic
 70
     8
177
     3
291
     0
 70
    58
 90
        2
176
     1
 90
        3
176
     1
 90
        0
176
     1
 90
        2
176
     1
 40
0.6
176
     1
 40
30.0
176
     1
 62
     7
420
 16777215
176
     1
 90
        0
176
     1
 90
        0
176
     1
 62
     7
176
     1
 62
   257
176
     1
 90
        1
176
     1
 90
        1
176
     1
 40
1.0
176
     1
 90
        8
176
     1
 62
   257
176
     1
 40
1.0
176
     1
 90
        1
176
     1
 90
        6
176
     1
 90
        2
176
     1
 62
     7
176
     1
 90
        3
176
     1
 90
        0
176
     1
 90
        0
176
     1
290
     0
176
     1
 90
       13
176
     1
 40
0.0
176
     1
 90
        0
176
     1
290
     0
176
     1
290
     1
176
     1
290
     1
176
     1
290
     0
176
     1
290
     0
176
     1
290
     0
176
     1
290
     0
176
     1
290
     0
176
     1
290
     0
176
     1
 90
       50
176
     1
 40
0.0
176
     1
 40
1.0
176
     1
 90
        0
176
     1
 62
    18
420
        0
176
     1
 90
       50
176
     1
 90
        3
176
     1
 62
     5
420
      255
176
     1
290
     0
176
     1
 90
       50
176
     1
 90
       50
176
     1
 90
       50
176
     1
290
     0
176
     1
 90
       50
176
     1
 62
   256
176
     0
 40
1.0
176
     0
 90
        2
176
     1
  1
strokes_ogs.tif
176
     1
290
     0
176
     1
 40
1.0
176
     1
 40
1.0
176
     1
  0
VISUALSTYLE
  5
3E
102
{ACAD_REACTORS
330
29
102
}
330
29
100
AcDbVisualStyle
  2
Shaded
 70
    27
177
     3
291
     0
 70
    58
 90
        2
176
     1
 90
        2
176
     1
 90
        1
176
     1
 90
        2
176
     1
 40
0.6
176
     1
 40
30.0
176
     1
 62
     7
420
 16777215
176
     1
 90
        0
176
     1
 90
        4
176
     1
 62
     7
176
     1
 62
   257
176
     1
 90
        1
176
     1
 90
        1
176
     1
 40
1.0
176
     1
 90
        8
176
     1
 62
   257
176
     1
 40
1.0
176
     1
 90
        1
176
     1
 90
        6
176
     1
 90
        2
176
     1
 62
     8
420
  7895160
176
     1
 90
        3
176
     1
 90
        0
176
     1
 90
        0
176
     1
290
     0
176
     1
 90
        5
176
     1
 40
0.0
176
     1
 90
        0
176
     1
290
     0
176
     1
290
     1
176
     1
290
     1
176
     1
290
     0
176
     1
290
     0
176
     1
290
     0
176
     1
290
     0
176
     1
290
     0
176
     1
290
     0
176
     1
 90
       50
176
     1
 40
0.0
176
     1
 40
1.0
176
     1
 90
        0
176
     1
 62
    18
420
        0
176
     1
 90
       50
176
     1
 90
        3
176
     1
 62
     5
420
      255
176
     1
290
     0
176
     1
 90
       50
176
     1
 90
       50
176
     1
 90
       50
176
     1
290
     0
176
     1
 90
       50
176
     1
 62
   256
176
     0
 40
1.0
176
     0
 90
        2
176
     1
  1
strokes_ogs.tif
176
     1
290
     0
176
     1
 40
1.0
176
     1
 40
1.0
176
     1
  0
VISUALSTYLE
  5
3D
102
{ACAD_REACTORS
330
29
102
}
330
29
100
AcDbVisualStyle
  2
Shaded with edges
 70
    26
177
     3
291
     0
 70
    58
 90
        2
176
     1
 90
        2
176
     1
 90
        1
176
     1
 90
        2
176
     1
 40
0.6
176
     1
 40
30.0
176
     1
 62
     7
420
 16777215
176
     1
 90
        1
176
     1
 90
        2
176
     1
 62
     7
176
     1
 62
   257
176
     1
 90
        2
176
     1
 90
        1
176
     1
 40
1.0
176
     1
 90
        8
176
     1
 62
   257
176
     1
 40
1.0
176
     1
 90
        1
176
     1
 90
        6
176
     1
 90
        2
176
     1
 62
     7
176
     1
 90
        3
176
     1
 90
        0
176
     1
 90
        0
176
     1
290
     0
176
     1
 90
        5
176
     1
 40
0.0
176
     1
 90
        0
176
     1
290
     0
176
     1
290
     1
176
     1
290
     1
176
     1
290
     0
176
     1
290
     0
176
     1
290
     0
176
     1
290
     0
176
     1
290
     0
176
     1
290
     0
176
     1
 90
       50
176
     1
 40
0.0
176
     1
 40
1.0
176
     1
 90
        0
176
     1
 62
    18
420
        0
176
     1
 90
       50
176
     1
 90
        3
176
     1
 62
     5
420
      255
176
     1
290
     0
176
     1
 90
       50
176
     1
 90
       50
176
     1
 90
       50
176
     1
290
     0
176
     1
 90
       50
176
     1
 62
   256
176
     0
 40
1.0
176
     0
 90
        2
176
     1
  1
strokes_ogs.tif
176
     1
290
     0
176
     1
 40
1.0
176
     1
 40
1.0
176
     1
  0
VISUALSTYLE
  5
3A
102
{ACAD_REACTORS
330
29
102
}
330
29
100
AcDbVisualStyle
  2
Shades of Gray
 70
    23
177
     3
291
     0
 70
    58
 90
        2
176
     1
 90
        2
176
     1
 90
        3
176
     1
 90
        0
176
     1
 40
0.6
176
     1
 40
30.0
176
     1
 62
     7
420
 16777215
176
     1
 90
        2
176
     1
 90
        2
176
     1
 62
     7
176
     1
 62
     7
176
     1
 90
        1
176
     1
 90
        1
176
     1
 40
40.0
176
     1
 90
        8
176
     1
 62
     7
176
     1
 40
1.0
176
     1
 90
        1
176
     1
 90
        6
176
     1
 90
        2
176
     1
 62
     7
176
     1
 90
        3
176
     1
 90
        0
176
     1
 90
        0
176
     1
290
     0
176
     1
 90
        1
176
     1
 40
0.0
176
     1
 90
        0
176
     1
290
     0
176
     1
290
     1
176
     1
290
     1
176
     1
290
     0
176
     1
290
     0
176
     1
290
     0
176
     1
290
     0
176
     1
290
     0
176
     1
290
     0
176
     1
 90
       50
176
     1
 40
0.0
176
     1
 40
1.0
176
     1
 90
        0
176
     1
 62
    18
420
        0
176
     1
 90
       50
176
     1
 90
        3
176
     1
 62
     5
420
      255
176
     1
290
     0
176
     1
 90
       50
176
     1
 90
       50
176
     1
 90
       50
176
     1
290
     0
176
     1
 90
       50
176
     1
 62
   256
176
     0
 40
1.0
176
     0
 90
        2
176
     1
  1
strokes_ogs.tif
176
     1
290
     0
176
     1
 40
1.0
176
     1
 40
1.0
176
     1
  0
VISUALSTYLE
  5
3B
102
{ACAD_REACTORS
330
29
102
}
330
29
100
AcDbVisualStyle
  2
Sketchy
 70
    24
177
     3
291
     0
 70
    58
 90
        1
176
     1
 90
        2
176
     1
 90
        2
176
     1
 90
        0
176
     1
 40
0.6
176
     1
 40
30.0
176
     1
 62
     7
420
 16777215
176
     1
 90
        2
176
     1
 90
        2
176
     1
 62
     7
176
     1
 62
     7
176
     1
 90
        1
176
     1
 90
        1
176
     1
 40
40.0
176
     1
 90
       11
176
     1
 62
     7
176
     1
 40
1.0
176
     1
 90
        1
176
     1
 90
        6
176
     1
 90
        2
176
     1
 62
     7
176
     1
 90
        6
176
     1
 90
        0
176
     1
 90
        0
176
     1
290
     0
176
     1
 90
        1
176
     1
 40
0.0
176
     1
 90
        0
176
     1
290
     0
176
     1
290
     1
176
     1
290
     1
176
     1
290
     0
176
     1
290
     0
176
     1
290
     0
176
     1
290
     0
176
     1
290
     0
176
     1
290
     0
176
     1
 90
       50
176
     1
 40
0.0
176
     1
 40
1.0
176
     1
 90
        0
176
     1
 62
    18
420
        0
176
     1
 90
       50
176
     1
 90
        3
176
     1
 62
     5
420
      255
176
     1
290
     0
176
     1
 90
       50
176
     1
 90
       50
176
     1
 90
       50
176
     1
290
     0
176
     1
 90
       50
176
     1
 62
   256
176
     0
 40
1.0
176
     0
 90
        2
176
     1
  1
strokes_ogs.tif
176
     1
290
     0
176
     1
 40
1.0
176
     1
 40
1.0
176
     1
  0
VISUALSTYLE
  5
36
102
{ACAD_REACTORS
330
29
102
}
330
29
100
AcDbVisualStyle
  2
Thicken
 70
    13
177
     3
291
     1
 70
    58
 90
        2
176
     1
 90
        2
176
     1
 90
        0
176
     1
 90
        0
176
     1
 40
0.6
176
     1
 40
30.0
176
     1
 62
     7
420
 16777215
176
     1
 90
        1
176
     1
 90
        4
176
     1
 62
     7
176
     1
 62
   257
176
     1
 90
        1
176
     1
 90
        1
176
     1
 40
1.0
176
     1
 90
       12
176
     1
 62
     7
176
     1
 40
1.0
176
     1
 90
        1
176
     1
 90
        6
176
     1
 90
        2
176
     1
 62
     7
176
     1
 90
        5
176
     1
 90
        0
176
     1
 90
        0
176
     1
290
     0
176
     1
 90
        1
176
     1
 40
0.0
176
     1
 90
        0
176
     1
290
     0
176
     1
290
     1
176
     1
290
     1
176
     1
290
     0
176
     1
290
     0
176
     1
290
     0
176
     1
290
     0
176
     1
290
     0
176
     1
290
     0
176
     1
 90
       50
176
     1
 40
0.0
176
     1
 40
1.0
176
     1
 90
        0
176
     1
 62
    18
420
        0
176
     1
 90
       50
176
     1
 90
        3
176
     1
 62
     5
420
      255
176
     1
290
     0
176
     1
 90
       50
176
     1
 90
       50
176
     1
 90
       50
176
     1
290
     0
176
     1
 90
       50
176
     1
 62
   256
176
     0
 40
1.0
176
     0
 90
        2
176
     1
  1
strokes_ogs.tif
176
     1
290
     0
176
     1
 40
1.0
176
     1
 40
1.0
176
     1
  0
VISUALSTYLE
  5
30
102
{ACAD_REACTORS
330
29
102
}
330
29
100
AcDbVisualStyle
  2
Wireframe
 70
     5
177
     3
291
     0
 70
    58
 90
        0
176
     1
 90
        2
176
     1
 90
        0
176
     1
 90
        0
176
     1
 40
0.6
176
     1
 40
30.0
176
     1
 62
     7
420
 16777215
176
     1
 90
        1
176
     1
 90
        4
176
     1
 62
     7
176
     1
 62
   257
176
     1
 90
        1
176
     1
 90
        1
176
     1
 40
1.0
176
     1
 90
        0
176
     1
 62
   257
176
     1
 40
1.0
176
     1
 90
        1
176
     1
 90
        6
176
     1
 90
        2
176
     1
 62
     7
176
     1
 90
        3
176
     1
 90
        0
176
     1
 90
        0
176
     1
290
     0
176
     1
 90
        1
176
     1
 40
0.0
176
     1
 90
        0
176
     1
290
     0
176
     1
290
     1
176
     1
290
     1
176
     1
290
     0
176
     1
290
     0
176
     1
290
     0
176
     1
290
     0
176
     1
290
     0
176
     1
290
     0
176
     1
 90
       50
176
     1
 40
0.0
176
     1
 40
1.0
176
     1
 90
        0
176
     1
 62
    18
420
        0
176
     1
 90
       50
176
     1
 90
        3
176
     1
 62
     5
420
      255
176
     1
290
     0
176
     1
 90
       50
176
     1
 90
       50
176
     1
 90
       50
176
     1
290
     0
176
     1
 90
       50
176
     1
 62
   256
176
     0
 40
1.0
176
     0
 90
        2
176
     1
  1
strokes_ogs.tif
176
     1
290
     0
176
     1
 40
1.0
176
     1
 40
1.0
176
     1
  0
VISUALSTYLE
  5
3C
102
{ACAD_REACTORS
330
29
102
}
330
29
100
AcDbVisualStyle
  2
X-Ray
 70
    25
177
     3
291
     0
 70
    58
 90
        2
176
     1
 90
        2
176
     1
 90
        1
176
     1
 90
        1
176
     1
 40
0.5
176
     1
 40
30.0
176
     1
 62
     7
420
 16777215
176
     1
 90
        1
176
     1
 90
        0
176
     1
 62
     7
176
     1
 62
   257
176
     1
 90
        1
176
     1
 90
        1
176
     1
 40
1.0
176
     1
 90
        8
176
     1
 62
     7
176
     1
 40
1.0
176
     1
 90
        1
176
     1
 90
        6
176
     1
 90
        2
176
     1
 62
     7
176
     1
 90
        3
176
     1
 90
        0
176
     1
 90
        0
176
     1
290
     0
176
     1
 90
       13
176
     1
 40
0.0
176
     1
 90
        0
176
     1
290
     0
176
     1
290
     1
176
     1
290
     1
176
     1
290
     0
176
     1
290
     0
176
     1
290
     0
176
     1
290
     0
176
     1
290
     0
176
     1
290
     0
176
     1
 90
       50
176
     1
 40
0.0
176
     1
 40
1.0
176
     1
 90
        0
176
     1
 62
    18
420
        0
176
     1
 90
       50
176
     1
 90
        3
176
     1
 62
     5
420
      255
176
     1
290
     0
176
     1
 90
       50
176
     1
 90
       50
176
     1
 90
       50
176
     1
290
     0
176
     1
 90
       50
176
     1
 62
   256
176
     0
 40
1.0
176
     0
 90
        2
176
     1
  1
strokes_ogs.tif
176
     1
290
     0
176
     1
 40
1.0
176
     1
 40
1.0
176
     1
  0
DICTIONARYVAR
  5
F39
102
{ACAD_REACTORS
330
F33
102
}
330
F33
100
DictionaryVariables
280
     0
  1
1:1
  0
DICTIONARYVAR
  5
F35
102
{ACAD_REACTORS
330
F33
102
}
330
F33
100
DictionaryVariables
280
     0
  1
STANDARD
  0
DICTIONARYVAR
  5
F34
102
{ACAD_REACTORS
330
F33
102
}
330
F33
100
DictionaryVariables
280
     0
  1
STANDARD
  0
DICTIONARYVAR
  5
F36
102
{ACAD_REACTORS
330
F33
102
}
330
F33
100
DictionaryVariables
280
     0
  1
Imperial24
  0
DICTIONARYVAR
  5
F37
102
{ACAD_REACTORS
330
F33
102
}
330
F33
100
DictionaryVariables
280
     0
  1
Imperial24
  0
DICTIONARYVAR
  5
F3B
102
{ACAD_REACTORS
330
F33
102
}
330
F33
100
DictionaryVariables
280
     0
  1
1
  0
DICTIONARYVAR
  5
F3C
102
{ACAD_REACTORS
330
F33
102
}
330
F33
100
DictionaryVariables
280
     0
  1
15
  0
DICTIONARYVAR
  5
F3A
102
{ACAD_REACTORS
330
F33
102
}
330
F33
100
DictionaryVariables
280
     0
  1
1
  0
DICTIONARYVAR
  5
F38
102
{ACAD_REACTORS
330
F33
102
}
330
F33
100
DictionaryVariables
280
     0
  1
0
  0
DICTIONARY
  5
1A
330
19
100
AcDbDictionary
280
     1
281
     1
  3
BUMPTILE
360
1C
  3
DIFFUSETILE
360
1B
  3
OPACITYTILE
360
1F
  3
REFLECTIONTILE
360
1E
  3
REFRACTIONTILE
360
20
  3
SPECULARTILE
360
1D
  0
DICTIONARY
  5
12
330
11
100
AcDbDictionary
280
     1
281
     1
  3
BUMPTILE
360
14
  3
DIFFUSETILE
360
13
  3
OPACITYTILE
360
17
  3
REFLECTIONTILE
360
16
  3
REFRACTIONTILE
360
18
  3
SPECULARTILE
360
15
  0
DICTIONARY
  5
22
330
21
100
AcDbDictionary
280
     1
281
     1
  3
BUMPTILE
360
24
  3
DIFFUSETILE
360
23
  3
OPACITYTILE
360
27
  3
REFLECTIONTILE
360
26
  3
REFRACTIONTILE
360
28
  3
SPECULARTILE
360
25
  0
DICTIONARY
  5
F49
330
64
100
AcDbDictionary
280
     1
281
     1
  3
ACAD_ROUNDTRIP_2008_TABLESTYLE_CELLSTYLEMAP
360
F4A
  0
XRECORD
  5
1C
102
{ACAD_REACTORS
330
1A
102
}
330
1A
100
AcDbXrecord
280
     1
270
     1
271
     1
  0
XRECORD
  5
1B
102
{ACAD_REACTORS
330
1A
102
}
330
1A
100
AcDbXrecord
280
     1
270
     1
271
     1
  0
XRECORD
  5
1F
102
{ACAD_REACTORS
330
1A
102
}
330
1A
100
AcDbXrecord
280
     1
270
     1
271
     1
  0
XRECORD
  5
1E
102
{ACAD_REACTORS
330
1A
102
}
330
1A
100
AcDbXrecord
280
     1
270
     1
271
     1
  0
XRECORD
  5
20
102
{ACAD_REACTORS
330
1A
102
}
330
1A
100
AcDbXrecord
280
     1
270
     1
271
     1
  0
XRECORD
  5
1D
102
{ACAD_REACTORS
330
1A
102
}
330
1A
100
AcDbXrecord
280
     1
270
     1
271
     1
  0
XRECORD
  5
14
102
{ACAD_REACTORS
330
12
102
}
330
12
100
AcDbXrecord
280
     1
270
     1
271
     1
  0
XRECORD
  5
13
102
{ACAD_REACTORS
330
12
102
}
330
12
100
AcDbXrecord
280
     1
270
     1
271
     1
  0
XRECORD
  5
17
102
{ACAD_REACTORS
330
12
102
}
330
12
100
AcDbXrecord
280
     1
270
     1
271
     1
  0
XRECORD
  5
16
102
{ACAD_REACTORS
330
12
102
}
330
12
100
AcDbXrecord
280
     1
270
     1
271
     1
  0
XRECORD
  5
18
102
{ACAD_REACTORS
330
12
102
}
330
12
100
AcDbXrecord
280
     1
270
     1
271
     1
  0
XRECORD
  5
15
102
{ACAD_REACTORS
330
12
102
}
330
12
100
AcDbXrecord
280
     1
270
     1
271
     1
  0
XRECORD
  5
24
102
{ACAD_REACTORS
330
22
102
}
330
22
100
AcDbXrecord
280
     1
270
     1
271
     1
  0
XRECORD
  5
23
102
{ACAD_REACTORS
330
22
102
}
330
22
100
AcDbXrecord
280
     1
270
     1
271
     1
  0
XRECORD
  5
27
102
{ACAD_REACTORS
330
22
102
}
330
22
100
AcDbXrecord
280
     1
270
     1
271
     1
  0
XRECORD
  5
26
102
{ACAD_REACTORS
330
22
102
}
330
22
100
AcDbXrecord
280
     1
270
     1
271
     1
  0
XRECORD
  5
28
102
{ACAD_REACTORS
330
22
102
}
330
22
100
AcDbXrecord
280
     1
270
     1
271
     1
  0
XRECORD
  5
25
102
{ACAD_REACTORS
330
22
102
}
330
22
100
AcDbXrecord
280
     1
270
     1
271
     1
  0
CELLSTYLEMAP
  5
F4A
102
{ACAD_REACTORS
330
F49
102
}
330
F49
100
AcDbCellStyleMap
 90
        3
300
CELLSTYLE
  1
TABLEFORMAT_BEGIN
 90
        5
170
     1
 91
        0
 92
    32768
 62
   257
 93
        1
300
CONTENTFORMAT
  1
CONTENTFORMAT_BEGIN
 90
        0
 91
        0
 92
      512
 93
        0
300

 40
0.0
140
1.0
 94
        5
 62
     0
340
55
144
0.25
309
CONTENTFORMAT_END
171
     0
 94
        0
309
TABLEFORMAT_END
  1
CELLSTYLE_BEGIN
 90
        1
 91
        1
300
_TITLE
309
CELLSTYLE_END
300
CELLSTYLE
  1
TABLEFORMAT_BEGIN
 90
        5
170
     1
 91
        0
 92
        0
 62
   257
 93
        1
300
CONTENTFORMAT
  1
CONTENTFORMAT_BEGIN
 90
        0
 91
        0
 92
      512
 93
        0
300

 40
0.0
140
1.0
 94
        5
 62
     0
340
55
144
0.18
309
CONTENTFORMAT_END
171
     0
 94
        0
309
TABLEFORMAT_END
  1
CELLSTYLE_BEGIN
 90
        2
 91
        1
300
_HEADER
309
CELLSTYLE_END
300
CELLSTYLE
  1
TABLEFORMAT_BEGIN
 90
        5
170
     1
 91
        0
 92
        0
 62
   257
 93
        1
300
CONTENTFORMAT
  1
CONTENTFORMAT_BEGIN
 90
        0
 91
        0
 92
      512
 93
        0
300

 40
0.0
140
1.0
 94
        2
 62
     0
340
55
144
0.18
309
CONTENTFORMAT_END
171
     0
 94
        0
309
TABLEFORMAT_END
  1
CELLSTYLE_BEGIN
 90
        3
 91
        2
300
_DATA
309
CELLSTYLE_END
  0
ENDSEC
  0
SECTION
  2
ACDSDATA
 70
     2
 71
     8
  0
ACDSSCHEMA
 90
        0
  1
AcDb_Thumbnail_Schema
  2
AcDbDs::ID
280
    10
 91
        8
  2
Thumbnail_Data
280
    15
 91
        0
101
ACDSRECORD
 95
        0
 90
        1
  2
AcDbDs::TreatedAsObjectData
280
     1
291
     1
101
ACDSRECORD
 95
        0
 90
        2
  2
AcDbDs::Legacy
280
     1
291
     1
101
ACDSRECORD
  1
AcDbDs::ID
 90
        3
  2
AcDs:Indexable
280
     1
291
     1
101
ACDSRECORD
  1
AcDbDs::ID
 90
        4
  2
AcDbDs::HandleAttribute
280
     7
282
     1
  0
ACDSSCHEMA
 90
        1
  1
AcDbDs::TreatedAsObjectDataSchema
  2
AcDbDs::TreatedAsObjectData
280
     1
 91
        0
  0
ACDSSCHEMA
 90
        2
  1
AcDbDs::LegacySchema
  2
AcDbDs::Legacy
280
     1
 91
        0
  0
ACDSSCHEMA
 90
        3
  1
AcDbDs::IndexedPropertySchema
  2
AcDs:Indexable
280
     1
 91
        0
  0
ACDSSCHEMA
 90
        4
  1
AcDbDs::HandleAttributeSchema
  2
AcDbDs::HandleAttribute
280
     7
 91
        1
284
     1
  0
ACDSRECORD
 90
        0
  2
AcDbDs::ID
280
    10
320
72
  2
Thumbnail_Data
280
    15
 94
      956
310
89504E470D0A1A0A0000000D4948445200000100000000790803000000E1F60FE900000300504C5445212830FFFFFF2128300000000000000000000000000000000000000000000000000000330000660000990000CC0000FF0033000033330033660033990033CC0033FF0066000066330066660066990066CC0066FF0099
310
000099330099660099990099CC0099FF00CC0000CC3300CC6600CC9900CCCC00CCFF00FF0000FF3300FF6600FF9900FFCC00FFFF3300003300333300663300993300CC3300FF3333003333333333663333993333CC3333FF3366003366333366663366993366CC3366FF3399003399333399663399993399CC3399FF33CC00
310
33CC3333CC6633CC9933CCCC33CCFF33FF0033FF3333FF6633FF9933FFCC33FFFF6600006600336600666600996600CC6600FF6633006633336633666633996633CC6633FF6666006666336666666666996666CC6666FF6699006699336699666699996699CC6699FF66CC0066CC3366CC6666CC9966CCCC66CCFF66FF0066
310
FF3366FF6666FF9966FFCC66FFFF9900009900339900669900999900CC9900FF9933009933339933669933999933CC9933FF9966009966339966669966999966CC9966FF9999009999339999669999999999CC9999FF99CC0099CC3399CC6699CC9999CCCC99CCFF99FF0099FF3399FF6699FF9999FFCC99FFFFCC0000CC00
310
33CC0066CC0099CC00CCCC00FFCC3300CC3333CC3366CC3399CC33CCCC33FFCC6600CC6633CC6666CC6699CC66CCCC66FFCC9900CC9933CC9966CC9999CC99CCCC99FFCCCC00CCCC33CCCC66CCCC99CCCCCCCCCCFFCCFF00CCFF33CCFF66CCFF99CCFFCCCCFFFFFF0000FF0033FF0066FF0099FF00CCFF00FFFF3300FF3333
310
FF3366FF3399FF33CCFF33FFFF6600FF6633FF6666FF6699FF66CCFF66FFFF9900FF9933FF9966FF9999FF99CCFF99FFFFCC00FFCC33FFCC66FFCC99FFCCCCFFCCFFFFFF00FFFF33FFFF66FFFF99FFFFCCFFFFFF0000000D0D0D1A1A1A2828283535354343435050505D5D5D6B6B6B787878868686939393A1A1A1AEAEAEBB
310
BBBBC9C9C9D6D6D6E4E4E4F1F1F1FFFFFF0000000000000000000000000000000000000000000000000000000000002E4550F1000000774944415478DAEDD04B0AC0200C05C01CC7FBDF2DFB42B75A0CC5967E66968F3C89890000000000000000000000000000E023327390D5A28B9B775DA01415C79636F3F4D8B07974E2
310
E71E606D33B27E935F69BB41D647319D8A3E293E16B535A21EB5F947477B0000000000000000000000000000F0561BBE213CE27C86D2DD0000000049454E44AE426082
  0
ENDSEC
  0
EOF
