  0
SECTION
  2
HEADER
  9
$ACADVER
  1
AC1032
  9
$ACADMAINTVER
 90
      378
  9
$DWGCODEPAGE
  3
ANSI_1252
  9
$LASTSAVEDBY
  1
rpayt
  9
$REQUIREDVERSIONS
160
                 0
  9
$INSBASE
 10
0.0
 20
0.0
 30
0.0
  9
$EXTMIN
 10
0.0
 20
-5.0
 30
0.0
  9
$EXTMAX
 10
757.5
 20
12.5
 30
0.0
  9
$LIMMIN
 10
0.0
 20
0.0
  9
$LIMMAX
 10
12.0
 20
9.0
  9
$ORTHOMODE
 70
     0
  9
$REGENMODE
 70
     1
  9
$FILLMODE
 70
     1
  9
$QTEXTMODE
 70
     0
  9
$MIRRTEXT
 70
     0
  9
$LTSCALE
 40
1.0
  9
$ATTMODE
 70
     1
  9
$TEXTSIZE
 40
0.2
  9
$TRACEWID
 40
0.05
  9
$TEXTSTYLE
  7
Standard
  9
$CLAYER
  8
0
  9
$CELTYPE
  6
Continuous
  9
$CECOLOR
 62
   256
  9
$CELTSCALE
 40
1.0
  9
$DISPSILH
 70
     0
  9
$DIMSCALE
 40
1.0
  9
$DIMASZ
 40
0.18
  9
$DIMEXO
 40
0.0625
  9
$DIMDLI
 40
0.38
  9
$DIMRND
 40
0.0
  9
$DIMDLE
 40
0.0
  9
$DIMEXE
 40
0.18
  9
$DIMTP
 40
0.0
  9
$DIMTM
 40
0.0
  9
$DIMTXT
 40
0.18
  9
$DIMCEN
 40
0.09
  9
$DIMTSZ
 40
0.0
  9
$DIMTOL
 70
     0
  9
$DIMLIM
 70
     0
  9
$DIMTIH
 70
     1
  9
$DIMTOH
 70
     1
  9
$DIMSE1
 70
     0
  9
$DIMSE2
 70
     0
  9
$DIMTAD
 70
     0
  9
$DIMZIN
 70
     0
  9
$DIMBLK
  1

  9
$DIMASO
 70
     1
  9
$DIMSHO
 70
     1
  9
$DIMPOST
  1

  9
$DIMAPOST
  1

  9
$DIMALT
 70
     0
  9
$DIMALTD
 70
     2
  9
$DIMALTF
 40
25.4
  9
$DIMLFAC
 40
1.0
  9
$DIMTOFL
 70
     0
  9
$DIMTVP
 40
0.0
  9
$DIMTIX
 70
     0
  9
$DIMSOXD
 70
     0
  9
$DIMSAH
 70
     0
  9
$DIMBLK1
  1

  9
$DIMBLK2
  1

  9
$DIMSTYLE
  2
Standard
  9
$DIMCLRD
 70
     0
  9
$DIMCLRE
 70
     0
  9
$DIMCLRT
 70
     0
  9
$DIMTFAC
 40
1.0
  9
$DIMGAP
 40
0.09
  9
$DIMJUST
 70
     0
  9
$DIMSD1
 70
     0
  9
$DIMSD2
 70
     0
  9
$DIMTOLJ
 70
     1
  9
$DIMTZIN
 70
     0
  9
$DIMALTZ
 70
     0
  9
$DIMALTTZ
 70
     0
  9
$DIMUPT
 70
     0
  9
$DIMDEC
 70
     4
  9
$DIMTDEC
 70
     4
  9
$DIMALTU
 70
     2
  9
$DIMALTTD
 70
     2
  9
$DIMTXSTY
  7
Standard
  9
$DIMAUNIT
 70
     0
  9
$DIMADEC
 70
     0
  9
$DIMALTRND
 40
0.0
  9
$DIMAZIN
 70
     0
  9
$DIMDSEP
 70
    46
  9
$DIMATFIT
 70
     3
  9
$DIMFRAC
 70
     0
  9
$DIMLDRBLK
  1

  9
$DIMLUNIT
 70
     2
  9
$DIMLWD
 70
    -2
  9
$DIMLWE
 70
    -2
  9
$DIMTMOVE
 70
     0
  9
$DIMFXL
 40
1.0
  9
$DIMFXLON
 70
     0
  9
$DIMJOGANG
 40
0.7853981633974483
  9
$DIMTFILL
 70
     0
  9
$DIMTFILLCLR
 70
     0
  9
$DIMARCSYM
 70
     0
  9
$DIMLTYPE
  6

  9
$DIMLTEX1
  6

  9
$DIMLTEX2
  6

  9
$DIMTXTDIRECTION
 70
     0
  9
$LUNITS
 70
     5
  9
$LUPREC
 70
     4
  9
$SKETCHINC
 40
0.1
  9
$FILLETRAD
 40
0.0
  9
$AUNITS
 70
     0
  9
$AUPREC
 70
     0
  9
$MENU
  1
.
  9
$ELEVATION
 40
0.0
  9
$PELEVATION
 40
0.0
  9
$THICKNESS
 40
0.0
  9
$LIMCHECK
 70
     0
  9
$CHAMFERA
 40
0.0
  9
$CHAMFERB
 40
0.0
  9
$CHAMFERC
 40
0.0
  9
$CHAMFERD
 40
0.0
  9
$SKPOLY
 70
     0
  9
$TDCREATE
 40
2461057.445578703
  9
$TDUCREATE
 40
2461057.695578704
  9
$TDUPDATE
 40
2461057.448229167
  9
$TDUUPDATE
 40
2461057.698229167
  9
$TDINDWG
 40
0.0026504630
  9
$TDUSRTIMER
 40
0.0026504630
  9
$USRTIMER
 70
     1
  9
$ANGBASE
 50
0.0
  9
$ANGDIR
 70
     0
  9
$PDMODE
 70
     0
  9
$PDSIZE
 40
0.0
  9
$PLINEWID
 40
0.0
  9
$SPLFRAME
 70
     0
  9
$SPLINETYPE
 70
     6
  9
$SPLINESEGS
 70
     8
  9
$HANDSEED
  5
1CFB
  9
$SURFTAB1
 70
     6
  9
$SURFTAB2
 70
     6
  9
$SURFTYPE
 70
     6
  9
$SURFU
 70
     6
  9
$SURFV
 70
     6
  9
$UCSBASE
  2

  9
$UCSNAME
  2

  9
$UCSORG
 10
0.0
 20
0.0
 30
0.0
  9
$UCSXDIR
 10
1.0
 20
0.0
 30
0.0
  9
$UCSYDIR
 10
0.0
 20
1.0
 30
0.0
  9
$UCSORTHOREF
  2

  9
$UCSORTHOVIEW
 70
     0
  9
$UCSORGTOP
 10
0.0
 20
0.0
 30
0.0
  9
$UCSORGBOTTOM
 10
0.0
 20
0.0
 30
0.0
  9
$UCSORGLEFT
 10
0.0
 20
0.0
 30
0.0
  9
$UCSORGRIGHT
 10
0.0
 20
0.0
 30
0.0
  9
$UCSORGFRONT
 10
0.0
 20
0.0
 30
0.0
  9
$UCSORGBACK
 10
0.0
 20
0.0
 30
0.0
  9
$PUCSBASE
  2

  9
$PUCSNAME
  2

  9
$PUCSORG
 10
0.0
 20
0.0
 30
0.0
  9
$PUCSXDIR
 10
1.0
 20
0.0
 30
0.0
  9
$PUCSYDIR
 10
0.0
 20
1.0
 30
0.0
  9
$PUCSORTHOREF
  2

  9
$PUCSORTHOVIEW
 70
     0
  9
$PUCSORGTOP
 10
0.0
 20
0.0
 30
0.0
  9
$PUCSORGBOTTOM
 10
0.0
 20
0.0
 30
0.0
  9
$PUCSORGLEFT
 10
0.0
 20
0.0
 30
0.0
  9
$PUCSORGRIGHT
 10
0.0
 20
0.0
 30
0.0
  9
$PUCSORGFRONT
 10
0.0
 20
0.0
 30
0.0
  9
$PUCSORGBACK
 10
0.0
 20
0.0
 30
0.0
  9
$USERI1
 70
     0
  9
$USERI2
 70
     0
  9
$USERI3
 70
     0
  9
$USERI4
 70
     0
  9
$USERI5
 70
     0
  9
$USERR1
 40
0.0
  9
$USERR2
 40
0.0
  9
$USERR3
 40
0.0
  9
$USERR4
 40
0.0
  9
$USERR5
 40
0.0
  9
$WORLDVIEW
 70
     1
  9
$SHADEDGE
 70
     3
  9
$SHADEDIF
 70
    70
  9
$TILEMODE
 70
     1
  9
$MAXACTVP
 70
    64
  9
$PINSBASE
 10
0.0
 20
0.0
 30
0.0
  9
$PLIMCHECK
 70
     0
  9
$PEXTMIN
 10
1.000000000000000E+20
 20
1.000000000000000E+20
 30
1.000000000000000E+20
  9
$PEXTMAX
 10
-1.000000000000000E+20
 20
-1.000000000000000E+20
 30
-1.000000000000000E+20
  9
$PLIMMIN
 10
0.0
 20
0.0
  9
$PLIMMAX
 10
12.0
 20
9.0
  9
$UNITMODE
 70
     0
  9
$VISRETAIN
 70
     1
  9
$PLINEGEN
 70
     0
  9
$PSLTSCALE
 70
     1
  9
$TREEDEPTH
 70
  3020
  9
$CMLSTYLE
  2
Standard
  9
$CMLJUST
 70
     0
  9
$CMLSCALE
 40
1.0
  9
$PROXYGRAPHICS
 70
     1
  9
$MEASUREMENT
 70
     0
  9
$CELWEIGHT
370
    -1
  9
$ENDCAPS
280
     0
  9
$JOINSTYLE
280
     0
  9
$LWDISPLAY
290
     0
  9
$INSUNITS
 70
     1
  9
$HYPERLINKBASE
  1

  9
$STYLESHEET
  1

  9
$XEDIT
290
     1
  9
$CEPSNTYPE
380
     0
  9
$PSTYLEMODE
290
     1
  9
$FINGERPRINTGUID
  2
{1FFCC387-766B-3F46-BE6A-FD91461BD580}
  9
$VERSIONGUID
  2
{382C78F8-54C7-534E-88FB-F8F6F36188FA}
  9
$EXTNAMES
290
     1
  9
$PSVPSCALE
 40
0.0
  9
$OLESTARTUP
290
     0
  9
$SORTENTS
280
   127
  9
$INDEXCTL
280
     0
  9
$HIDETEXT
280
     0
  9
$XCLIPFRAME
280
     2
  9
$HALOGAP
280
     0
  9
$OBSCOLOR
 70
   257
  9
$OBSLTYPE
280
     0
  9
$INTERSECTIONDISPLAY
280
     0
  9
$INTERSECTIONCOLOR
 70
   257
  9
$DIMASSOC
280
     1
  9
$PROJECTNAME
  1

  9
$CAMERADISPLAY
290
     0
  9
$LENSLENGTH
 40
50.0
  9
$CAMERAHEIGHT
 40
0.0
  9
$STEPSPERSEC
 40
2.0
  9
$STEPSIZE
 40
6.0
  9
$3DDWFPREC
 40
2.0
  9
$PSOLWIDTH
 40
0.25
  9
$PSOLHEIGHT
 40
4.0
  9
$LOFTANG1
 40
1.570796326794896
  9
$LOFTANG2
 40
1.570796326794896
  9
$LOFTMAG1
 40
0.0
  9
$LOFTMAG2
 40
0.0
  9
$LOFTPARAM
 70
     7
  9
$LOFTNORMALS
280
     1
  9
$LATITUDE
 40
37.795
  9
$LONGITUDE
 40
-122.394
  9
$NORTHDIRECTION
 40
0.0
  9
$TIMEZONE
 70
 -8000
  9
$LIGHTGLYPHDISPLAY
280
     1
  9
$TILEMODELIGHTSYNCH
280
     1
  9
$CMATERIAL
347
11
  9
$SOLIDHIST
280
     0
  9
$SHOWHIST
280
     1
  9
$DWFFRAME
280
     2
  9
$DGNFRAME
280
     0
  9
$REALWORLDSCALE
290
     1
  9
$INTERFERECOLOR
 62
     1
  9
$INTERFEREOBJVS
345
33
  9
$INTERFEREVPVS
346
30
  9
$CSHADOW
280
     0
  9
$SHADOWPLANELOCATION
 40
0.0
  0
ENDSEC
  0
SECTION
  2
CLASSES
  0
CLASS
  1
ACDBDICTIONARYWDFLT
  2
AcDbDictionaryWithDefault
  3
ObjectDBX Classes
 90
        0
 91
        1
280
     0
281
     0
  0
CLASS
  1
MATERIAL
  2
AcDbMaterial
  3
ObjectDBX Classes
 90
     1153
 91
        3
280
     0
281
     0
  0
CLASS
  1
VISUALSTYLE
  2
AcDbVisualStyle
  3
ObjectDBX Classes
 90
     4095
 91
       24
280
     0
281
     0
  0
CLASS
  1
SCALE
  2
AcDbScale
  3
ObjectDBX Classes
 90
     1153
 91
       17
280
     0
281
     0
  0
CLASS
  1
TABLESTYLE
  2
AcDbTableStyle
  3
ObjectDBX Classes
 90
     4095
 91
        1
280
     0
281
     0
  0
CLASS
  1
MLEADERSTYLE
  2
AcDbMLeaderStyle
  3
ACDB_MLEADERSTYLE_CLASS
 90
     4095
 91
        1
280
     0
281
     0
  0
CLASS
  1
ACDBSECTIONVIEWSTYLE
  2
AcDbSectionViewStyle
  3
ObjectDBX Classes
 90
     1025
 91
        1
280
     0
281
     0
  0
CLASS
  1
ACDBDETAILVIEWSTYLE
  2
AcDbDetailViewStyle
  3
ObjectDBX Classes
 90
     1025
 91
        1
280
     0
281
     0
  0
CLASS
  1
ACDBASSOCPERSSUBENTMANAGER
  2
AcDbAssocPersSubentManager
  3
ObjectDBX Classes
 90
     1024
 91
        1
280
     0
281
     0
  0
CLASS
  1
SORTENTSTABLE
  2
AcDbSortentsTable
  3
ObjectDBX Classes
 90
        0
 91
        1
280
     0
281
     0
  0
CLASS
  1
DICTIONARYVAR
  2
AcDbDictionaryVar
  3
ObjectDBX Classes
 90
        0
 91
        9
280
     0
281
     0
  0
CLASS
  1
CELLSTYLEMAP
  2
AcDbCellStyleMap
  3
ObjectDBX Classes
 90
     1152
 91
        2
280
     0
281
     0
  0
ENDSEC
  0
SECTION
  2
TABLES
  0
TABLE
  2
VPORT
  5
8
330
0
100
AcDbSymbolTable
 70
     1
  0
VPORT
  5
76
330
8
100
AcDbSymbolTableRecord
100
AcDbViewportTableRecord
  2
*Active
 70
     0
 10
0.0
 20
0.0
 11
1.0
 21
1.0
 12
378.75
 22
3.75
 13
0.0
 23
0.0
 14
1.0
 24
1.0
 15
0.0
 25
0.0
 16
0.0
 26
0.0
 36
1.0
 17
0.0
 27
0.0
 37
0.0
 40
361.1857582437066
 41
2.10054945054945
 42
50.0
 43
0.0
 44
0.0
 50
0.0
 51
0.0
 71
     0
 72
   100
 73
     1
 74
     1
 75
     0
 76
     0
 77
     0
 78
     0
281
     0
 65
     1
110
0.0
120
0.0
130
0.0
111
1.0
121
0.0
131
0.0
112
0.0
122
1.0
132
0.0
 79
     0
146
0.0
348
2F
 60
     3
 61
     5
292
     1
282
     1
141
0.0
142
0.0
 63
   250
421
  3355443
1001
ACAD_NAV_VCDISPLAY
1070
     3
  0
ENDTAB
  0
TABLE
  2
LTYPE
  5
5
330
0
100
AcDbSymbolTable
 70
     1
  0
LTYPE
  5
5A
330
5
100
AcDbSymbolTableRecord
100
AcDbLinetypeTableRecord
  2
ByBlock
 70
     0
  3

 72
    65
 73
     0
 40
0.0
  0
LTYPE
  5
5B
330
5
100
AcDbSymbolTableRecord
100
AcDbLinetypeTableRecord
  2
ByLayer
 70
     0
  3

 72
    65
 73
     0
 40
0.0
  0
LTYPE
  5
5C
330
5
100
AcDbSymbolTableRecord
100
AcDbLinetypeTableRecord
  2
Continuous
 70
     0
  3
Solid line
 72
    65
 73
     0
 40
0.0
  0
ENDTAB
  0
TABLE
  2
LAYER
  5
2
102
{ACAD_XDICTIONARY
360
1CF2
102
}
330
0
100
AcDbSymbolTable
 70
     3
  0
LAYER
  5
54
102
{ACAD_XDICTIONARY
360
1CDE
102
}
330
2
100
AcDbSymbolTableRecord
100
AcDbLayerTableRecord
  2
0
 70
     0
 62
     7
  6
Continuous
370
    -3
390
F
347
21
348
0
  0
LAYER
  5
73
102
{ACAD_XDICTIONARY
360
1CE0
102
}
330
2
100
AcDbSymbolTableRecord
100
AcDbLayerTableRecord
  2
AISC_STEEL
 70
     0
 62
     7
  6
Continuous
370
    -3
390
F
347
21
348
0
  0
ENDTAB
  0
TABLE
  2
STYLE
  5
3
330
0
100
AcDbSymbolTable
 70
     2
  0
STYLE
  5
55
330
3
100
AcDbSymbolTableRecord
100
AcDbTextStyleTableRecord
  2
Standard
 70
     0
 40
0.0
 41
1.0
 50
0.0
 71
     0
 42
0.2
  3
txt
  4

  0
ENDTAB
  0
TABLE
  2
VIEW
  5
6
330
0
100
AcDbSymbolTable
 70
     1
  0
ENDTAB
  0
TABLE
  2
UCS
  5
7
330
0
100
AcDbSymbolTable
 70
     0
  0
ENDTAB
  0
TABLE
  2
APPID
  5
9
330
0
100
AcDbSymbolTable
 70
     3
  0
APPID
  5
56
330
9
100
AcDbSymbolTableRecord
100
AcDbRegAppTableRecord
  2
ACAD
 70
     0
  0
APPID
  5
5D
330
9
100
AcDbSymbolTableRecord
100
AcDbRegAppTableRecord
  2
AcadAnnotative
 70
     0
  0
APPID
  5
5F1
330
9
100
AcDbSymbolTableRecord
100
AcDbRegAppTableRecord
  2
ACAD_NAV_VCDISPLAY
 70
     0
  0
ENDTAB
  0
TABLE
  2
DIMSTYLE
  5
A
330
0
100
AcDbSymbolTable
 70
     2
100
AcDbDimStyleTable
 71
     0
  0
DIMSTYLE
105
57
330
A
100
AcDbSymbolTableRecord
100
AcDbDimStyleTableRecord
  2
Standard
 70
     0
340
55
  0
ENDTAB
  0
TABLE
  2
BLOCK_RECORD
  5
1
330
0
100
AcDbSymbolTable
 70
     1
  0
BLOCK_RECORD
  5
6F
102
{ACAD_XDICTIONARY
360
DB8
102
}
330
1
100
AcDbSymbolTableRecord
100
AcDbBlockTableRecord
  2
*Model_Space
340
72
 70
     0
280
     1
281
     0
  0
BLOCK_RECORD
  5
6B
330
1
100
AcDbSymbolTableRecord
100
AcDbBlockTableRecord
  2
*Paper_Space
340
6E
 70
     0
280
     1
281
     0
  0
ENDTAB
  0
ENDSEC
  0
SECTION
  2
BLOCKS
  0
BLOCK
  5
70
330
6F
100
AcDbEntity
  8
0
100
AcDbBlockBegin
  2
*Model_Space
 70
     0
 10
0.0
 20
0.0
 30
0.0
  3
*Model_Space
  1

  0
ENDBLK
  5
71
330
6F
100
AcDbEntity
  8
0
100
AcDbBlockEnd
  0
BLOCK
  5
6C
330
6B
100
AcDbEntity
 67
     1
  8
0
100
AcDbBlockBegin
  2
*Paper_Space
 70
     0
 10
0.0
 20
0.0
 30
0.0
  3
*Paper_Space
  1

  0
ENDBLK
  5
6D
330
6B
100
AcDbEntity
 67
     1
  8
0
100
AcDbBlockEnd
  0
ENDSEC
  0
SECTION
  2
ENTITIES
  0
LINE
  5
1535
330
6F
100
AcDbEntity
  8
0
 62
     3
370
     0
100
AcDbLine
 10
755.9025092259243
 20
-4.977168238727671
 30
0.0
 11
755.9025092259243
 21
-4.729237322854714
 31
0.0
  0
LINE
  5
153F
330
6F
100
AcDbEntity
  8
0
 62
     3
370
     0
100
AcDbLine
 10
752.9025451438617
 20
-3.489582743489989
 30
0.0
 11
753.8942688073534
 21
-4.977168238727671
 31
0.0
  0
LINE
  5
1540
330
6F
100
AcDbEntity
  8
0
 62
     3
370
     0
100
AcDbLine
 10
752.9025451438617
 20
-4.977168238727671
 30
0.0
 11
753.8942688073534
 21
-3.489582743489989
 31
0.0
  0
LINE
  5
155F
330
6F
100
AcDbEntity
  8
0
 62
     3
370
     0
100
AcDbLine
 10
706.6634293335574
 20
-4.977168238727671
 30
0.0
 11
706.6634293335574
 21
-4.977168238727671
 31
0.0
  0
LINE
  5
1568
330
6F
100
AcDbEntity
  8
0
 62
     3
370
     0
100
AcDbLine
 10
705.9196365859386
 20
-4.977168238727671
 30
0.0
 11
705.9196365859386
 21
-4.729237322854714
 31
0.0
  0
LINE
  5
156C
330
6F
100
AcDbEntity
  8
0
 62
     3
370
     0
100
AcDbLine
 10
702.9196725038759
 20
-3.489582743489989
 30
0.0
 11
703.9113961673677
 21
-4.977168238727671
 31
0.0
  0
LINE
  5
156D
330
6F
100
AcDbEntity
  8
0
 62
     3
370
     0
100
AcDbLine
 10
702.9196725038759
 20
-4.977168238727671
 30
0.0
 11
703.9113961673677
 21
-3.489582743489989
 31
0.0
  0
LINE
  5
157E
330
6F
100
AcDbEntity
  8
0
 62
     3
370
     0
100
AcDbLine
 10
652.9367998638901
 20
-3.489582743489989
 30
0.0
 11
653.9285235273819
 21
-4.977168238727671
 31
0.0
  0
LINE
  5
157F
330
6F
100
AcDbEntity
  8
0
 62
     3
370
     0
100
AcDbLine
 10
652.9367998638901
 20
-4.977168238727671
 30
0.0
 11
653.9285235273819
 21
-3.489582743489989
 31
0.0
  0
LINE
  5
1590
330
6F
100
AcDbEntity
  8
0
 62
     3
370
     0
100
AcDbLine
 10
606.9456149694588
 20
-4.977168238727671
 30
0.0
 11
606.9456149694588
 21
-4.729237322854714
 31
0.0
  0
LINE
  5
15A0
330
6F
100
AcDbEntity
  8
0
 62
     3
370
     0
100
AcDbLine
 10
604.441512719142
 20
-4.977168238727671
 30
0.0
 11
604.9373745508879
 21
-4.977168238727671
 31
0.0
  0
LINE
  5
15A3
330
6F
100
AcDbEntity
  8
0
 62
     3
370
     0
100
AcDbLine
 10
602.9291341323171
 20
-3.489582743489989
 30
0.0
 11
603.9456508873961
 21
-4.977168238727671
 31
0.0
  0
LINE
  5
15A4
330
6F
100
AcDbEntity
  8
0
 62
     3
370
     0
100
AcDbLine
 10
602.9291341323171
 20
-4.977168238727671
 30
0.0
 11
603.9456508873961
 21
-3.489582743489989
 31
0.0
  0
LINE
  5
15B3
330
6F
100
AcDbEntity
  8
0
 62
     3
370
     0
100
AcDbLine
 10
555.946225574394
 20
-4.977168238727671
 30
0.0
 11
555.946225574394
 21
-4.729237322854714
 31
0.0
  0
LINE
  5
15BF
330
6F
100
AcDbEntity
  8
0
 62
     3
370
     0
100
AcDbLine
 10
552.9462614923313
 20
-3.489582743489989
 30
0.0
 11
553.9627782474105
 21
-4.977168238727671
 31
0.0
  0
LINE
  5
15C0
330
6F
100
AcDbEntity
  8
0
 62
     3
370
     0
100
AcDbLine
 10
552.9462614923313
 20
-4.977168238727671
 30
0.0
 11
553.9627782474105
 21
-3.489582743489989
 31
0.0
  0
LINE
  5
15D1
330
6F
100
AcDbEntity
  8
0
 62
     3
370
     0
100
AcDbLine
 10
505.9633529344082
 20
-4.977168238727671
 30
0.0
 11
505.9633529344082
 21
-4.729237322854714
 31
0.0
  0
LINE
  5
15D5
330
6F
100
AcDbEntity
  8
0
 62
     3
370
     0
100
AcDbLine
 10
502.9633888523456
 20
-3.489582743489989
 30
0.0
 11
503.9799056074246
 21
-4.977168238727671
 31
0.0
  0
LINE
  5
15D6
330
6F
100
AcDbEntity
  8
0
 62
     3
370
     0
100
AcDbLine
 10
502.9633888523456
 20
-4.977168238727671
 30
0.0
 11
503.9799056074246
 21
-3.489582743489989
 31
0.0
  0
LINE
  5
15ED
330
6F
100
AcDbEntity
  8
0
 62
     3
370
     0
100
AcDbLine
 10
455.9804802944224
 20
-4.977168238727671
 30
0.0
 11
455.9804802944224
 21
-4.729237322854714
 31
0.0
  0
LINE
  5
15F7
330
6F
100
AcDbEntity
  8
0
 62
     3
370
     0
100
AcDbLine
 10
452.9805162123598
 20
-3.489582743489989
 30
0.0
 11
453.9970329674389
 21
-4.977168238727671
 31
0.0
  0
LINE
  5
15F8
330
6F
100
AcDbEntity
  8
0
 62
     3
370
     0
100
AcDbLine
 10
452.9805162123598
 20
-4.977168238727671
 30
0.0
 11
453.9970329674389
 21
-3.489582743489989
 31
0.0
  0
LINE
  5
1614
330
6F
100
AcDbEntity
  8
0
 62
     3
370
     0
100
AcDbLine
 10
405.9976076544367
 20
-4.977168238727671
 30
0.0
 11
405.9976076544367
 21
-4.729237322854714
 31
0.0
  0
LINE
  5
161E
330
6F
100
AcDbEntity
  8
0
 62
     3
370
     0
100
AcDbLine
 10
402.9976435723741
 20
-3.489582743489989
 30
0.0
 11
404.0141603274531
 21
-4.977168238727671
 31
0.0
  0
LINE
  5
161F
330
6F
100
AcDbEntity
  8
0
 62
     3
370
     0
100
AcDbLine
 10
402.9976435723741
 20
-4.977168238727671
 30
0.0
 11
404.0141603274531
 21
-3.489582743489989
 31
0.0
  0
LINE
  5
163B
330
6F
100
AcDbEntity
  8
0
 62
     3
370
     0
100
AcDbLine
 10
356.7585277620698
 20
-4.977168238727671
 30
0.0
 11
356.7585277620698
 21
-4.729237322854714
 31
0.0
  0
LINE
  5
163E
330
6F
100
AcDbEntity
  8
0
 62
     3
370
     0
100
AcDbLine
 10
353.7585636800072
 20
-3.489582743489989
 30
0.0
 11
354.7750804350862
 21
-4.977168238727671
 31
0.0
  0
LINE
  5
163F
330
6F
100
AcDbEntity
  8
0
 62
     3
370
     0
100
AcDbLine
 10
353.7585636800072
 20
-4.977168238727671
 30
0.0
 11
354.7750804350862
 21
-3.489582743489989
 31
0.0
  0
LINE
  5
1640
330
6F
100
AcDbEntity
  8
0
 62
     3
370
     0
100
AcDbLine
 10
352.7668400165154
 20
-4.977168238727671
 30
0.0
 11
352.7668400165154
 21
-4.977168238727671
 31
0.0
  0
LINE
  5
1649
330
6F
100
AcDbEntity
  8
0
 62
     3
370
     0
100
AcDbLine
 10
351.5271854371507
 20
-4.977168238727671
 30
0.0
 11
352.0230472688965
 21
-4.977168238727671
 31
0.0
  0
LINE
  5
165F
330
6F
100
AcDbEntity
  8
0
 62
     3
370
     0
100
AcDbLine
 10
303.7756910400214
 20
-3.489582743489989
 30
0.0
 11
304.7922077951005
 21
-4.977168238727671
 31
0.0
  0
LINE
  5
1660
330
6F
100
AcDbEntity
  8
0
 62
     3
370
     0
100
AcDbLine
 10
303.7756910400214
 20
-4.977168238727671
 30
0.0
 11
304.7922077951005
 21
-3.489582743489989
 31
0.0
  0
LINE
  5
1661
330
6F
100
AcDbEntity
  8
0
 62
     3
370
     0
100
AcDbLine
 10
302.7839673765296
 20
-4.977168238727671
 30
0.0
 11
302.7839673765296
 21
-4.977168238727671
 31
0.0
  0
LINE
  5
166A
330
6F
100
AcDbEntity
  8
0
 62
     3
370
     0
100
AcDbLine
 10
301.544312797165
 20
-4.977168238727671
 30
0.0
 11
302.0401746289108
 21
-4.977168238727671
 31
0.0
  0
LINE
  5
167A
330
6F
100
AcDbEntity
  8
0
 62
     3
370
     0
100
AcDbLine
 10
253.7928184000357
 20
-3.489582743489989
 30
0.0
 11
254.8093351551147
 21
-4.977168238727671
 31
0.0
  0
LINE
  5
167B
330
6F
100
AcDbEntity
  8
0
 62
     3
370
     0
100
AcDbLine
 10
253.7928184000357
 20
-4.977168238727671
 30
0.0
 11
254.8093351551147
 21
-3.489582743489989
 31
0.0
  0
LINE
  5
167C
330
6F
100
AcDbEntity
  8
0
 62
     3
370
     0
100
AcDbLine
 10
252.8010947365439
 20
-4.977168238727671
 30
0.0
 11
252.8010947365439
 21
-4.977168238727671
 31
0.0
  0
LINE
  5
1685
330
6F
100
AcDbEntity
  8
0
 62
     3
370
     0
100
AcDbLine
 10
251.5614401571792
 20
-4.977168238727671
 30
0.0
 11
252.0573019889251
 21
-4.977168238727671
 31
0.0
  0
LINE
  5
168C
330
6F
100
AcDbEntity
  8
0
 62
     3
370
     0
100
AcDbLine
 10
206.8099098421126
 20
-4.977168238727671
 30
0.0
 11
206.8099098421126
 21
-4.977168238727671
 31
0.0
  0
LINE
  5
1695
330
6F
100
AcDbEntity
  8
0
 62
     3
370
     0
100
AcDbLine
 10
205.5702552627479
 20
-4.977168238727671
 30
0.0
 11
206.0661170944936
 21
-4.977168238727671
 31
0.0
  0
LINE
  5
1698
330
6F
100
AcDbEntity
  8
0
 62
     3
370
     0
100
AcDbLine
 10
204.0578766759229
 20
-3.489582743489989
 30
0.0
 11
205.0743934310019
 21
-4.977168238727671
 31
0.0
  0
LINE
  5
1699
330
6F
100
AcDbEntity
  8
0
 62
     3
370
     0
100
AcDbLine
 10
204.0578766759229
 20
-4.977168238727671
 30
0.0
 11
205.0743934310019
 21
-3.489582743489989
 31
0.0
  0
LINE
  5
16A3
330
6F
100
AcDbEntity
  8
0
 62
     3
370
     0
100
AcDbLine
 10
201.5785675171935
 20
-4.977168238727671
 30
0.0
 11
202.0744293489392
 21
-4.977168238727671
 31
0.0
  0
LINE
  5
16B9
330
6F
100
AcDbEntity
  8
0
 62
     3
370
     0
100
AcDbLine
 10
157.8435539572058
 20
-4.977168238727671
 30
0.0
 11
157.8435539572058
 21
-4.729237322854714
 31
0.0
  0
LINE
  5
16BA
330
6F
100
AcDbEntity
  8
0
 62
     3
370
     0
100
AcDbLine
 10
156.8270372021268
 20
-4.977168238727671
 30
0.0
 11
156.8270372021268
 21
-4.977168238727671
 31
0.0
  0
LINE
  5
16C3
330
6F
100
AcDbEntity
  8
0
 62
     3
370
     0
100
AcDbLine
 10
155.5873826227621
 20
-4.977168238727671
 30
0.0
 11
156.0832444545078
 21
-4.977168238727671
 31
0.0
  0
LINE
  5
16C6
330
6F
100
AcDbEntity
  8
0
 62
     3
370
     0
100
AcDbLine
 10
154.0750040359371
 20
-3.489582743489989
 30
0.0
 11
155.0915207910161
 21
-4.977168238727671
 31
0.0
  0
LINE
  5
16C7
330
6F
100
AcDbEntity
  8
0
 62
     3
370
     0
100
AcDbLine
 10
154.0750040359371
 20
-4.977168238727671
 30
0.0
 11
155.0915207910161
 21
-3.489582743489989
 31
0.0
  0
LINE
  5
16D1
330
6F
100
AcDbEntity
  8
0
 62
     3
370
     0
100
AcDbLine
 10
151.5956948772077
 20
-4.977168238727671
 30
0.0
 11
152.0915567089535
 21
-4.977168238727671
 31
0.0
  0
LINE
  5
16E7
330
6F
100
AcDbEntity
  8
0
 62
     3
370
     0
100
AcDbLine
 10
107.5879573097597
 20
-4.977168238727671
 30
0.0
 11
107.5879573097597
 21
-4.729237322854714
 31
0.0
  0
LINE
  5
16E8
330
6F
100
AcDbEntity
  8
0
 62
     3
370
     0
100
AcDbLine
 10
106.596233646268
 20
-4.977168238727671
 30
0.0
 11
107.092095478014
 21
-4.977168238727671
 31
0.0
  0
LINE
  5
16EB
330
6F
100
AcDbEntity
  8
0
 62
     3
370
     0
100
AcDbLine
 10
105.6045099827763
 20
-4.977168238727671
 30
0.0
 11
106.1003718145223
 21
-4.977168238727671
 31
0.0
  0
LINE
  5
16EE
330
6F
100
AcDbEntity
  8
0
 62
     3
370
     0
100
AcDbLine
 10
104.0921313959513
 20
-3.489582743489989
 30
0.0
 11
105.1086481510303
 21
-4.977168238727671
 31
0.0
  0
LINE
  5
16EF
330
6F
100
AcDbEntity
  8
0
 62
     3
370
     0
100
AcDbLine
 10
104.0921313959513
 20
-4.977168238727671
 30
0.0
 11
105.1086481510303
 21
-3.489582743489989
 31
0.0
  0
LINE
  5
16F9
330
6F
100
AcDbEntity
  8
0
 62
     3
370
     0
100
AcDbLine
 10
101.6128222372219
 20
-4.977168238727671
 30
0.0
 11
102.1086840689677
 21
-4.977168238727671
 31
0.0
  0
LINE
  5
1709
330
6F
100
AcDbEntity
  8
0
 62
     3
370
     0
100
AcDbLine
 10
59.61332508834494
 20
-4.977168238727671
 30
0.0
 11
59.61332508834494
 21
-4.729237322854714
 31
0.0
  0
LINE
  5
170A
330
6F
100
AcDbEntity
  8
0
 62
     3
370
     0
100
AcDbLine
 10
58.62160142485322
 20
-4.977168238727671
 30
0.0
 11
59.11746325659897
 21
-4.977168238727671
 31
0.0
  0
LINE
  5
170D
330
6F
100
AcDbEntity
  8
0
 62
     3
370
     0
100
AcDbLine
 10
57.60508466977421
 20
-4.977168238727671
 30
0.0
 11
58.12573959310725
 21
-4.977168238727671
 31
0.0
  0
LINE
  5
1710
330
6F
100
AcDbEntity
  8
0
 62
     3
370
     0
100
AcDbLine
 10
56.11749917453654
 20
-3.489582743489989
 30
0.0
 11
57.10922283802824
 21
-4.977168238727671
 31
0.0
  0
LINE
  5
1711
330
6F
100
AcDbEntity
  8
0
 62
     3
370
     0
100
AcDbLine
 10
56.11749917453654
 20
-4.977168238727671
 30
0.0
 11
57.10922283802824
 21
-3.489582743489989
 31
0.0
  0
LINE
  5
171A
330
6F
100
AcDbEntity
  8
0
 62
     3
370
     0
100
AcDbLine
 10
54.10925875596558
 20
-4.977168238727671
 30
0.0
 11
54.10925875596558
 21
-4.729237322854714
 31
0.0
  0
LINE
  5
1724
330
6F
100
AcDbEntity
  8
0
 62
     3
370
     0
100
AcDbLine
 10
51.60515650564889
 20
-4.977168238727671
 30
0.0
 11
52.12581142898193
 21
-4.977168238727671
 31
0.0
  0
LINE
  5
172E
330
6F
100
AcDbEntity
  8
0
 62
     3
370
     0
100
AcDbLine
 10
10.12631428010513
 20
-4.977168238727671
 30
0.0
 11
10.12631428010513
 21
-4.729237322854714
 31
0.0
  0
LINE
  5
1738
330
6F
100
AcDbEntity
  8
0
 62
     3
370
     0
100
AcDbLine
 10
7.622212029788443
 20
-4.977168238727671
 30
0.0
 11
8.142866953121483
 21
-4.977168238727671
 31
0.0
  0
LINE
  5
173B
330
6F
100
AcDbEntity
  8
0
 62
     3
370
     0
100
AcDbLine
 10
6.134626534550761
 20
-3.489582743489989
 30
0.0
 11
7.126350198042473
 21
-4.977168238727671
 31
0.0
  0
LINE
  5
173C
330
6F
100
AcDbEntity
  8
0
 62
     3
370
     0
100
AcDbLine
 10
6.134626534550761
 20
-4.977168238727671
 30
0.0
 11
7.126350198042473
 21
-3.489582743489989
 31
0.0
  0
LINE
  5
1745
330
6F
100
AcDbEntity
  8
0
 62
     3
370
     0
100
AcDbLine
 10
4.126386115979812
 20
-4.977168238727671
 30
0.0
 11
4.126386115979812
 21
-4.729237322854714
 31
0.0
  0
LINE
  5
174F
330
6F
100
AcDbEntity
  8
0
 62
     3
370
     0
100
AcDbLine
 10
1.622283865663121
 20
-4.977168238727671
 30
0.0
 11
2.142938788996161
 21
-4.977168238727671
 31
0.0
  0
LWPOLYLINE
  5
1C7E
330
6F
100
AcDbEntity
  8
AISC_STEEL
100
AcDbPolyline
 90
       84
 70
     1
 43
0.0
 10
3.75
 20
12.5
 10
3.75
 20
12.272
 10
2.2875
 20
12.272
 10
2.258302826179534
 20
12.27072522386073
 10
2.229327860481578
 20
12.26691059725909
 10
2.200795619890655
 20
12.26058515180684
 10
2.1729232519859
 20
12.25179702796328
 10
2.145922882316865
 20
12.24061310865727
 10
2.12
 20
12.22711851026778
 10
2.0953518938224
 20
12.21141593483681
 10
2.072166150755009
 20
12.19362488844486
 10
2.050619228302506
 20
12.17388077169749
 10
2.030875111555142
 20
12.15233384924499
 10
2.013084065163188
 20
12.1291481061776
 10
1.997381489732213
 20
12.1045
 10
1.983886891342722
 20
12.07857711768313
 10
1.97270297203672
 20
12.0515767480141
 10
1.963914848193161
 20
12.02370438010934
 10
1.95758940274091
 20
11.99517213951842
 10
1.953774776139264
 20
11.96619717382046
 10
1.952499999999999
 20
11.937
 10
1.952499999999999
 20
0.5629999999999998
 10
1.953774776139264
 20
0.5338028261795343
 10
1.95758940274091
 20
0.5048278604815782
 10
1.963914848193161
 20
0.4762956198906556
 10
1.97270297203672
 20
0.4484232519859006
 10
1.983886891342722
 20
0.4214228823168655
 10
1.997381489732213
 20
0.3955000000000002
 10
2.013084065163188
 20
0.3708518938223993
 10
2.030875111555142
 20
0.3476661507550087
 10
2.050619228302506
 20
0.3261192283025061
 10
2.072166150755009
 20
0.3063751115551421
 10
2.0953518938224
 20
0.2885840651631879
 10
2.12
 20
0.2728814897322129
 10
2.145922882316865
 20
0.2593868913427215
 10
2.1729232519859
 20
0.2482029720367205
 10
2.200795619890655
 20
0.2394148481931619
 10
2.229327860481578
 20
0.2330894027409105
 10
2.258302826179534
 20
0.2292747761392651
 10
2.2875
 20
0.2279999999999998
 10
3.75
 20
0.2279999999999998
 10
3.75
 20
0.0
 10
0.0
 20
0.0
 10
0.0
 20
0.2279999999999998
 10
1.462499999999999
 20
0.2279999999999998
 10
1.491697173820465
 20
0.2292747761392651
 10
1.520672139518421
 20
0.2330894027409105
 10
1.549204380109344
 20
0.2394148481931619
 10
1.577076748014099
 20
0.2482029720367205
 10
1.604077117683134
 20
0.2593868913427215
 10
1.629999999999999
 20
0.2728814897322129
 10
1.6546481061776
 20
0.2885840651631879
 10
1.67783384924499
 20
0.3063751115551421
 10
1.699380771697493
 20
0.3261192283025061
 10
1.719124888444857
 20
0.3476661507550087
 10
1.736915934836812
 20
0.3708518938223993
 10
1.752618510267786
 20
0.3955000000000002
 10
1.766113108657277
 20
0.4214228823168655
 10
1.777297027963279
 20
0.4484232519859006
 10
1.786085151806838
 20
0.4762956198906556
 10
1.792410597259089
 20
0.5048278604815782
 10
1.796225223860734
 20
0.5338028261795343
 10
1.7975
 20
0.5629999999999998
 10
1.7975
 20
11.937
 10
1.796225223860734
 20
11.96619717382046
 10
1.792410597259089
 20
11.99517213951842
 10
1.786085151806838
 20
12.02370438010934
 10
1.777297027963279
 20
12.0515767480141
 10
1.766113108657277
 20
12.07857711768313
 10
1.752618510267786
 20
12.1045
 10
1.736915934836812
 20
12.1291481061776
 10
1.719124888444857
 20
12.15233384924499
 10
1.699380771697493
 20
12.17388077169749
 10
1.67783384924499
 20
12.19362488844486
 10
1.6546481061776
 20
12.21141593483681
 10
1.629999999999999
 20
12.22711851026778
 10
1.604077117683134
 20
12.24061310865727
 10
1.577076748014099
 20
12.25179702796328
 10
1.549204380109344
 20
12.26058515180684
 10
1.520672139518421
 20
12.26691059725909
 10
1.491697173820465
 20
12.27072522386073
 10
1.462499999999999
 20
12.272
 10
0.0
 20
12.272
 10
0.0
 20
12.5
  0
LWPOLYLINE
  5
1C7F
330
6F
100
AcDbEntity
  8
AISC_STEEL
100
AcDbPolyline
 90
       88
 70
     1
 43
0.0
 10
53.5
 20
12.5
 10
53.5
 20
12.289
 10
52.1795
 20
12.289
 10
52.15043207039374
 20
12.28779774153835
 10
52.12156270422118
 20
12.28419917879776
 10
52.09308910852644
 20
12.27822889361064
 10
52.06520578683996
 20
12.26992766907862
 10
52.03810321052214
 20
12.25935221098258
 10
52.01196651765095
 20
12.24657476042468
 10
51.9869742483409
 20
12.23168260034841
 10
51.96329712513324
 20
12.21477745930753
 10
51.94109688678774
 20
12.19597481655694
 10
51.92052518344306
 20
12.17540311321226
 10
51.90172254069247
 20
12.15320287486676
 10
51.88481739965159
 20
12.12952575165909
 10
51.86992523957531
 20
12.10453348234905
 10
51.85714778901742
 20
12.07839678947784
 10
51.84657233092138
 20
12.05129421316005
 10
51.83827110638937
 20
12.02341089147356
 10
51.83230082120224
 20
11.99493729577882
 10
51.82870225846165
 20
11.96606792960626
 10
51.8275
 20
11.937
 10
51.8275
 20
0.5629999999999998
 10
51.82870225846165
 20
0.5339320703937398
 10
51.83230082120224
 20
0.5050627042211824
 10
51.83827110638937
 20
0.4765891085264391
 10
51.84657233092138
 20
0.4487057868399518
 10
51.85714778901742
 20
0.4216032105221554
 10
51.86992523957531
 20
0.3954665176509504
 10
51.88481739965159
 20
0.3704742483409067
 10
51.90172254069247
 20
0.3467971251332376
 10
51.92052518344306
 20
0.3245968867877398
 10
51.94109688678774
 20
0.3040251834430583
 10
51.96329712513324
 20
0.2852225406924704
 10
51.9869742483409
 20
0.2683173996515906
 10
52.01196651765095
 20
0.253425239575316
 10
52.03810321052214
 20
0.2406477890174203
 10
52.06520578683996
 20
0.2300723309213772
 10
52.09308910852644
 20
0.2217711063893564
 10
52.12156270422118
 20
0.215800821202242
 10
52.15043207039374
 20
0.2122022584616525
 10
52.1795
 20
0.2110000000000003
 10
53.5
 20
0.2110000000000003
 10
53.5
 20
0.0
 10
50.0
 20
0.0
 10
50.0
 20
0.2110000000000003
 10
51.3205
 20
0.2110000000000003
 10
51.34956792960625
 20
0.2122022584616525
 10
51.37843729577881
 20
0.215800821202242
 10
51.40691089147356
 20
0.2217711063893564
 10
51.43479421316005
 20
0.2300723309213772
 10
51.46189678947785
 20
0.2406477890174203
 10
51.48803348234904
 20
0.253425239575316
 10
51.5130257516591
 20
0.2683173996515906
 10
51.53670287486676
 20
0.2852225406924704
 10
51.55890311321225
 20
0.3040251834430583
 10
51.57947481655694
 20
0.3245968867877398
 10
51.59827745930752
 20
0.3467971251332376
 10
51.6151826003484
 20
0.3704742483409067
 10
51.63007476042469
 20
0.3954665176509504
 10
51.64285221098258
 20
0.4216032105221554
 10
51.65342766907862
 20
0.4487057868399518
 10
51.66172889361064
 20
0.4765891085264391
 10
51.66769917879776
 20
0.5050627042211824
 10
51.67129774153835
 20
0.5339320703937398
 10
51.6725
 20
0.5629999999999998
 10
51.6725
 20
11.937
 10
51.67129774153835
 20
11.96606792960626
 10
51.66769917879776
 20
11.99493729577882
 10
51.66172889361064
 20
12.02341089147356
 10
51.65342766907862
 20
12.05129421316005
 10
51.64285221098258
 20
12.07839678947784
 10
51.63007476042469
 20
12.10453348234905
 10
51.6151826003484
 20
12.12952575165909
 10
51.59827745930752
 20
12.15320287486676
 10
51.57947481655694
 20
12.17540311321226
 10
51.55890311321225
 20
12.19597481655694
 10
51.53670287486676
 20
12.21477745930753
 10
51.5130257516591
 20
12.23168260034841
 10
51.48803348234904
 20
12.24657476042468
 10
51.46189678947785
 20
12.25935221098258
 10
51.43479421316005
 20
12.26992766907862
 10
51.40691089147356
 20
12.27822889361064
 10
51.37843729577881
 20
12.28419917879776
 10
51.34956792960625
 20
12.28779774153835
 10
51.3205
 20
12.289
 10
50.0
 20
12.289
 10
50.0
 20
12.5
  0
LWPOLYLINE
  5
1C80
330
6F
100
AcDbEntity
  8
AISC_STEEL
100
AcDbPolyline
 90
       84
 70
     1
 43
0.0
 10
103.07
 20
12.0
 10
103.07
 20
11.775
 10
101.9615
 20
11.775
 10
101.9320413589513
 20
11.77371380795501
 10
101.9028069159485
 20
11.76986502051812
 10
101.8740191627553
 20
11.7634829292857
 10
101.8458971915559
 20
11.75461610582563
 10
101.8186550275316
 20
11.74333203201838
 10
101.7925
 20
11.72971658647914
 10
101.7676311645133
 20
11.71387339096968
 10
101.7442377879259
 20
11.69592302177421
 10
101.7224979079589
 20
11.67600209204105
 10
101.7025769782258
 20
11.65426221207405
 10
101.6846266090303
 20
11.63086883548665
 10
101.6687834135208
 20
11.606
 10
101.6551679679815
 20
11.57984497246836
 10
101.6438838941743
 20
11.55260280844407
 10
101.6350170707143
 20
11.52448083724465
 10
101.6286349794818
 20
11.49569308405142
 10
101.624786192045
 20
11.46645864104871
 10
101.6235
 20
11.437
 10
101.6235
 20
0.5629999999999998
 10
101.624786192045
 20
0.5335413589512914
 10
101.6286349794818
 20
0.5043069159485772
 10
101.6350170707143
 20
0.4755191627553482
 10
101.6438838941743
 20
0.4473971915559237
 10
101.6551679679815
 20
0.420155027531643
 10
101.6687834135208
 20
0.3940000000000001
 10
101.6846266090303
 20
0.3691311645133464
 10
101.7025769782258
 20
0.3457377879259491
 10
101.7224979079589
 20
0.3239979079589466
 10
101.7442377879259
 20
0.304076978225785
 10
101.7676311645133
 20
0.2861266090303207
 10
101.7925
 20
0.2702834135208594
 10
101.8186550275316
 20
0.2566679679816124
 10
101.8458971915559
 20
0.2453838941743625
 10
101.8740191627553
 20
0.2365170707142949
 10
101.9028069159485
 20
0.230134979481873
 10
101.9320413589513
 20
0.2262861920449897
 10
101.9615
 20
0.2249999999999996
 10
103.07
 20
0.2249999999999996
 10
103.07
 20
0.0
 10
100.0
 20
0.0
 10
100.0
 20
0.2249999999999996
 10
101.1085
 20
0.2249999999999996
 10
101.1379586410487
 20
0.2262861920449897
 10
101.1671930840514
 20
0.230134979481873
 10
101.1959808372446
 20
0.2365170707142949
 10
101.2241028084441
 20
0.2453838941743625
 10
101.2513449724683
 20
0.2566679679816124
 10
101.2775
 20
0.2702834135208594
 10
101.3023688354866
 20
0.2861266090303207
 10
101.325762212074
 20
0.304076978225785
 10
101.347502092041
 20
0.3239979079589466
 10
101.3674230217742
 20
0.3457377879259491
 10
101.3853733909697
 20
0.3691311645133464
 10
101.4012165864791
 20
0.3940000000000001
 10
101.4148320320183
 20
0.420155027531643
 10
101.4261161058256
 20
0.4473971915559237
 10
101.4349829292857
 20
0.4755191627553482
 10
101.4413650205181
 20
0.5043069159485772
 10
101.445213807955
 20
0.5335413589512914
 10
101.4465
 20
0.5629999999999998
 10
101.4465
 20
11.437
 10
101.445213807955
 20
11.46645864104871
 10
101.4413650205181
 20
11.49569308405142
 10
101.4349829292857
 20
11.52448083724465
 10
101.4261161058256
 20
11.55260280844407
 10
101.4148320320183
 20
11.57984497246836
 10
101.4012165864791
 20
11.606
 10
101.3853733909697
 20
11.63086883548665
 10
101.3674230217742
 20
11.65426221207405
 10
101.347502092041
 20
11.67600209204105
 10
101.325762212074
 20
11.69592302177421
 10
101.3023688354866
 20
11.71387339096968
 10
101.2775
 20
11.72971658647914
 10
101.2513449724683
 20
11.74333203201838
 10
101.2241028084441
 20
11.75461610582563
 10
101.1959808372446
 20
11.7634829292857
 10
101.1671930840514
 20
11.76986502051812
 10
101.1379586410487
 20
11.77371380795501
 10
101.1085
 20
11.775
 10
100.0
 20
11.775
 10
100.0
 20
12.0
  0
LWPOLYLINE
  5
1C81
330
6F
100
AcDbEntity
  8
AISC_STEEL
100
AcDbPolyline
 90
       88
 70
     1
 43
0.0
 10
153.07
 20
12.0
 10
153.07
 20
11.79
 10
151.968
 20
11.79
 10
151.9388494910483
 20
11.78879432603135
 10
151.9098981096309
 20
11.78518554010116
 10
151.8813436230393
 20
11.77919829387658
 10
151.8533810873707
 20
11.77087348632032
 10
151.8262015150975
 20
11.76026798430923
 10
151.7999905702579
 20
11.74745423417589
 10
151.7749273001828
 20
11.73251976682667
 10
151.7511829124205
 20
11.71556659981693
 10
151.7289196052161
 20
11.69671054046761
 10
151.7082894595324
 20
11.67608039478388
 10
151.6894334001831
 20
11.65381708757945
 10
151.6724802331733
 20
11.63007269981721
 10
151.6575457658241
 20
11.60500942974208
 10
151.6447320156907
 20
11.5787984849025
 10
151.6341265136797
 20
11.55161891262925
 10
151.6258017061234
 20
11.5236563769607
 10
151.6198144598988
 20
11.4951018903691
 10
151.6162056739686
 20
11.46615050895173
 10
151.615
 20
11.437
 10
151.615
 20
0.5629999999999998
 10
151.6162056739686
 20
0.5338494910482671
 10
151.6198144598988
 20
0.5048981096309007
 10
151.6258017061234
 20
0.4763436230392976
 10
151.6341265136797
 20
0.4483810873707466
 10
151.6447320156907
 20
0.4212015150975015
 10
151.6575457658241
 20
0.3949905702579128
 10
151.6724802331733
 20
0.3699273001827832
 10
151.6894334001831
 20
0.3461829124205469
 10
151.7082894595324
 20
0.3239196052161128
 10
151.7289196052161
 20
0.3032894595323841
 10
151.7511829124205
 20
0.2844334001830724
 10
151.7749273001828
 20
0.2674802331733268
 10
151.7999905702579
 20
0.2525457658241095
 10
151.8262015150975
 20
0.2397320156907643
 10
151.8533810873707
 20
0.2291265136796757
 10
151.8813436230393
 20
0.2208017061234165
 10
151.9098981096309
 20
0.2148144598988387
 10
151.9388494910483
 20
0.2112056739686449
 10
151.968
 20
0.21
 10
153.07
 20
0.21
 10
153.07
 20
0.0
 10
150.0
 20
0.0
 10
150.0
 20
0.21
 10
151.102
 20
0.21
 10
151.1311505089517
 20
0.2112056739686449
 10
151.160101890369
 20
0.2148144598988387
 10
151.1886563769606
 20
0.2208017061234165
 10
151.2166189126292
 20
0.2291265136796757
 10
151.2437984849025
 20
0.2397320156907643
 10
151.2700094297421
 20
0.2525457658241095
 10
151.2950726998172
 20
0.2674802331733268
 10
151.3188170875794
 20
0.2844334001830724
 10
151.3410803947839
 20
0.3032894595323841
 10
151.3617105404676
 20
0.3239196052161128
 10
151.3805665998169
 20
0.3461829124205469
 10
151.3975197668266
 20
0.3699273001827832
 10
151.4124542341759
 20
0.3949905702579128
 10
151.4252679843092
 20
0.4212015150975015
 10
151.4358734863203
 20
0.4483810873707466
 10
151.4441982938766
 20
0.4763436230392976
 10
151.4501855401011
 20
0.5048981096309007
 10
151.4537943260314
 20
0.5338494910482671
 10
151.455
 20
0.5629999999999998
 10
151.455
 20
11.437
 10
151.4537943260314
 20
11.46615050895173
 10
151.4501855401011
 20
11.4951018903691
 10
151.4441982938766
 20
11.5236563769607
 10
151.4358734863203
 20
11.55161891262925
 10
151.4252679843092
 20
11.5787984849025
 10
151.4124542341759
 20
11.60500942974208
 10
151.3975197668266
 20
11.63007269981721
 10
151.3805665998169
 20
11.65381708757945
 10
151.3617105404676
 20
11.67608039478388
 10
151.3410803947839
 20
11.69671054046761
 10
151.3188170875794
 20
11.71556659981693
 10
151.2950726998172
 20
11.73251976682667
 10
151.2700094297421
 20
11.74745423417589
 10
151.2437984849025
 20
11.76026798430923
 10
151.2166189126292
 20
11.77087348632032
 10
151.1886563769606
 20
11.77919829387658
 10
151.160101890369
 20
11.78518554010116
 10
151.1311505089517
 20
11.78879432603135
 10
151.102
 20
11.79
 10
150.0
 20
11.79
 10
150.0
 20
12.0
  0
LWPOLYLINE
  5
1C82
330
6F
100
AcDbEntity
  8
AISC_STEEL
100
AcDbPolyline
 90
       80
 70
     1
 43
0.0
 10
203.25
 20
12.0
 10
203.25
 20
11.82
 10
202.0195
 20
11.82
 10
201.9899741249717
 20
11.81863493641441
 10
201.9607001542987
 20
11.81455139189885
 10
201.9319278431769
 20
11.8077842058153
 10
201.9039026668201
 20
11.79839111340939
 10
201.8768637261515
 20
11.78645225323362
 10
201.8510417078793
 20
11.77206948343347
 10
201.8266569163587
 20
11.75536551272967
 10
201.8039173940331
 20
11.73648285351061
 10
201.7830171464894
 20
11.71558260596689
 10
201.7641344872704
 20
11.69284308364136
 10
201.7474305165665
 20
11.66845829212075
 10
201.7330477467664
 20
11.64263627384849
 10
201.7211088865906
 20
11.61559733317989
 10
201.7117157941847
 20
11.58757215682306
 10
201.7049486081011
 20
11.5587998457013
 10
201.7008650635856
 20
11.52952587502825
 10
201.6995
 20
11.5
 10
201.6995
 20
0.5
 10
201.7008650635856
 20
0.4704741249717434
 10
201.7049486081011
 20
0.4412001542986976
 10
201.7117157941847
 20
0.4124278431769337
 10
201.7211088865906
 20
0.3844026668201108
 10
201.7330477467664
 20
0.3573637261515081
 10
201.7474305165665
 20
0.3315417078792464
 10
201.7641344872704
 20
0.3071569163586378
 10
201.7830171464894
 20
0.2844173940331016
 10
201.8039173940331
 20
0.2635171464893888
 10
201.8266569163587
 20
0.2446344872703232
 10
201.8510417078793
 20
0.2279305165665235
 10
201.8768637261515
 20
0.2135477467663804
 10
201.9039026668201
 20
0.2016088865906065
 10
201.9319278431769
 20
0.1922157941846976
 10
201.9607001542987
 20
0.1854486081011517
 10
201.9899741249717
 20
0.1813650635855888
 10
202.0195
 20
0.1799999999999997
 10
203.25
 20
0.1799999999999997
 10
203.25
 20
0.0
 10
200.0
 20
0.0
 10
200.0
 20
0.1799999999999997
 10
201.2305
 20
0.1799999999999997
 10
201.2600258750283
 20
0.1813650635855888
 10
201.2892998457013
 20
0.1854486081011517
 10
201.318072156823
 20
0.1922157941846976
 10
201.3460973331799
 20
0.2016088865906065
 10
201.3731362738485
 20
0.2135477467663804
 10
201.3989582921208
 20
0.2279305165665235
 10
201.4233430836414
 20
0.2446344872703232
 10
201.4460826059669
 20
0.2635171464893888
 10
201.4669828535106
 20
0.2844173940331016
 10
201.4858655127297
 20
0.3071569163586378
 10
201.5025694834335
 20
0.3315417078792464
 10
201.5169522532337
 20
0.3573637261515081
 10
201.5288911134094
 20
0.3844026668201108
 10
201.5382842058153
 20
0.4124278431769337
 10
201.5450513918989
 20
0.4412001542986976
 10
201.5491349364144
 20
0.4704741249717434
 10
201.5505
 20
0.5
 10
201.5505
 20
11.5
 10
201.5491349364144
 20
11.52952587502825
 10
201.5450513918989
 20
11.5587998457013
 10
201.5382842058153
 20
11.58757215682306
 10
201.5288911134094
 20
11.61559733317989
 10
201.5169522532337
 20
11.64263627384849
 10
201.5025694834335
 20
11.66845829212075
 10
201.4858655127297
 20
11.69284308364136
 10
201.4669828535106
 20
11.71558260596689
 10
201.4460826059669
 20
11.73648285351061
 10
201.4233430836414
 20
11.75536551272967
 10
201.3989582921208
 20
11.77206948343347
 10
201.3731362738485
 20
11.78645225323362
 10
201.3460973331799
 20
11.79839111340939
 10
201.318072156823
 20
11.8077842058153
 10
201.2892998457013
 20
11.81455139189885
 10
201.2600258750283
 20
11.81863493641441
 10
201.2305
 20
11.82
 10
200.0
 20
11.82
 10
200.0
 20
12.0
  0
LWPOLYLINE
  5
1C83
330
6F
100
AcDbEntity
  8
AISC_STEEL
100
AcDbPolyline
 90
       88
 70
     1
 43
0.0
 10
252.69
 20
10.0
 10
252.69
 20
9.794
 10
251.7805
 20
9.794
 10
251.7510191736664
 20
9.79278066400338
 10
251.7217397312698
 20
9.78913098531477
 10
251.6928616810907
 20
9.783075894940338
 10
251.6645822894939
 20
9.774656755287127
 10
251.6370947333989
 20
9.763931077615856
 10
251.6105867806857
 20
9.750972129180716
 10
251.5852395075503
 20
9.735868432739719
 10
251.5612260615697
 20
9.71872316185451
 10
251.5387104789296
 20
9.699653436110306
 10
251.5178465638897
 20
9.678789521070386
 10
251.4987768381455
 20
9.65627393843021
 10
251.4816315672603
 20
9.632260492449706
 10
251.4665278708193
 20
9.606913219314236
 10
251.4535689223841
 20
9.580405266601109
 10
251.4428432447129
 20
9.552917710506072
 10
251.4344241050597
 20
9.524638318909262
 10
251.4283690146851
 20
9.495760268730224
 10
251.4247193359966
 20
9.466480826333622
 10
251.4235
 20
9.437000000000001
 10
251.4235
 20
0.5629999999999998
 10
251.4247193359966
 20
0.5335191736663783
 10
251.4283690146851
 20
0.5042397312697791
 10
251.4344241050597
 20
0.4753616810907353
 10
251.4428432447129
 20
0.4470822894939285
 10
251.4535689223841
 20
0.4195947333988911
 10
251.4665278708193
 20
0.3930867806857652
 10
251.4816315672603
 20
0.3677395075502945
 10
251.4987768381455
 20
0.3437260615697895
 10
251.5178465638897
 20
0.3212104789296113
 10
251.5387104789296
 20
0.3003465638896925
 10
251.5612260615697
 20
0.2812768381454882
 10
251.5852395075503
 20
0.2641315672602777
 10
251.6105867806857
 20
0.2490278708192841
 10
251.6370947333989
 20
0.2360689223841454
 10
251.6645822894939
 20
0.2253432447128745
 10
251.6928616810907
 20
0.2169241050596593
 10
251.7217397312698
 20
0.2108690146852288
 10
251.7510191736664
 20
0.2072193359966193
 10
251.7805
 20
0.2060000000000004
 10
252.69
 20
0.2060000000000004
 10
252.69
 20
0.0
 10
250.0
 20
0.0
 10
250.0
 20
0.2060000000000004
 10
250.9095
 20
0.2060000000000004
 10
250.9389808263336
 20
0.2072193359966193
 10
250.9682602687302
 20
0.2108690146852288
 10
250.9971383189093
 20
0.2169241050596593
 10
251.0254177105061
 20
0.2253432447128745
 10
251.0529052666011
 20
0.2360689223841454
 10
251.0794132193142
 20
0.2490278708192841
 10
251.1047604924497
 20
0.2641315672602777
 10
251.1287739384302
 20
0.2812768381454882
 10
251.1512895210704
 20
0.3003465638896925
 10
251.1721534361103
 20
0.3212104789296113
 10
251.1912231618545
 20
0.3437260615697895
 10
251.2083684327397
 20
0.3677395075502945
 10
251.2234721291807
 20
0.3930867806857652
 10
251.2364310776159
 20
0.4195947333988911
 10
251.2471567552871
 20
0.4470822894939285
 10
251.2555758949404
 20
0.4753616810907353
 10
251.2616309853148
 20
0.5042397312697791
 10
251.2652806640033
 20
0.5335191736663783
 10
251.2665
 20
0.5629999999999998
 10
251.2665
 20
9.437000000000001
 10
251.2652806640033
 20
9.466480826333622
 10
251.2616309853148
 20
9.495760268730224
 10
251.2555758949404
 20
9.524638318909262
 10
251.2471567552871
 20
9.552917710506072
 10
251.2364310776159
 20
9.580405266601109
 10
251.2234721291807
 20
9.606913219314236
 10
251.2083684327397
 20
9.632260492449706
 10
251.1912231618545
 20
9.65627393843021
 10
251.1721534361103
 20
9.678789521070386
 10
251.1512895210704
 20
9.699653436110306
 10
251.1287739384302
 20
9.71872316185451
 10
251.1047604924497
 20
9.735868432739719
 10
251.0794132193142
 20
9.750972129180716
 10
251.0529052666011
 20
9.763931077615856
 10
251.0254177105061
 20
9.774656755287127
 10
250.9971383189093
 20
9.783075894940338
 10
250.9682602687302
 20
9.78913098531477
 10
250.9389808263336
 20
9.79278066400338
 10
250.9095
 20
9.794
 10
250.0
 20
9.794
 10
250.0
 20
10.0
  0
LWPOLYLINE
  5
1C84
330
6F
100
AcDbEntity
  8
AISC_STEEL
100
AcDbPolyline
 90
       92
 70
     1
 43
0.0
 10
302.69
 20
9.949999999999999
 10
302.69
 20
9.768
 10
301.7965
 20
9.768
 10
301.7666070845277
 20
9.76682550415232
 10
301.7368984688197
 20
9.763309257766746
 10
301.7075573163709
 20
9.757472939671513
 10
301.6787645251432
 20
9.749352532708453
 10
301.6506976122689
 20
9.738998101886799
 10
301.6235296195993
 20
9.726473485715766
 10
301.5974280468431
 20
9.711855902618907
 10
301.5725538188765
 20
9.695235474856856
 10
301.5490602935862
 20
9.676714672893607
 10
301.5270923163679
 20
9.656407683632071
 10
301.5067853271063
 20
9.6344397064138
 10
301.4882645251432
 20
9.610946181123431
 10
301.4716440973812
 20
9.586071953156775
 10
301.4570265142842
 20
9.559970380400766
 10
301.4445018981132
 20
9.532802387731099
 10
301.4341474672916
 20
9.504735474856852
 10
301.4260270603285
 20
9.475942683629099
 10
301.4201907422333
 20
9.446601531180327
 10
301.4166744958477
 20
9.416892915472306
 10
301.4155
 20
9.387
 10
301.4155
 20
0.5629999999999998
 10
301.4166744958477
 20
0.5331070845276918
 10
301.4201907422333
 20
0.5033984688196727
 10
301.4260270603285
 20
0.4740573163709004
 10
301.4341474672916
 20
0.4452645251431458
 10
301.4445018981132
 20
0.4171976122689012
 10
301.4570265142842
 20
0.3900296195992334
 10
301.4716440973812
 20
0.363928046843224
 10
301.4882645251432
 20
0.3390538188765682
 10
301.5067853271063
 20
0.3155602935862003
 10
301.5270923163679
 20
0.2935923163679259
 10
301.5490602935862
 20
0.2732853271063886
 10
301.5725538188765
 20
0.2547645251431456
 10
301.5974280468431
 20
0.2381440973810917
 10
301.6235296195993
 20
0.2235265142842326
 10
301.6506976122689
 20
0.2110018981132002
 10
301.6787645251432
 20
0.2006474672915468
 10
301.7075573163709
 20
0.1925270603284855
 10
301.7368984688197
 20
0.1866907422332531
 10
301.7666070845277
 20
0.1831744958476786
 10
301.7965
 20
0.1820000000000004
 10
302.69
 20
0.1820000000000004
 10
302.69
 20
0.0
 10
300.0
 20
0.0
 10
300.0
 20
0.1820000000000004
 10
300.8935
 20
0.1820000000000004
 10
300.9233929154724
 20
0.1831744958476786
 10
300.9531015311803
 20
0.1866907422332531
 10
300.9824426836291
 20
0.1925270603284855
 10
301.0112354748568
 20
0.2006474672915468
 10
301.0393023877311
 20
0.2110018981132002
 10
301.0664703804007
 20
0.2235265142842326
 10
301.0925719531568
 20
0.2381440973810917
 10
301.1174461811235
 20
0.2547645251431456
 10
301.1409397064138
 20
0.2732853271063886
 10
301.162907683632
 20
0.2935923163679259
 10
301.1832146728937
 20
0.3155602935862003
 10
301.2017354748568
 20
0.3390538188765682
 10
301.2183559026188
 20
0.363928046843224
 10
301.2329734857158
 20
0.3900296195992334
 10
301.2454981018868
 20
0.4171976122689012
 10
301.2558525327084
 20
0.4452645251431458
 10
301.2639729396715
 20
0.4740573163709004
 10
301.2698092577667
 20
0.5033984688196727
 10
301.2733255041523
 20
0.5331070845276918
 10
301.2745
 20
0.5629999999999998
 10
301.2745
 20
9.387
 10
301.2733255041523
 20
9.416892915472306
 10
301.2698092577667
 20
9.446601531180327
 10
301.2639729396715
 20
9.475942683629099
 10
301.2558525327084
 20
9.504735474856852
 10
301.2454981018868
 20
9.532802387731099
 10
301.2329734857158
 20
9.559970380400766
 10
301.2183559026188
 20
9.586071953156775
 10
301.2017354748568
 20
9.610946181123431
 10
301.1832146728937
 20
9.6344397064138
 10
301.162907683632
 20
9.656407683632071
 10
301.1409397064138
 20
9.676714672893607
 10
301.1174461811235
 20
9.695235474856856
 10
301.0925719531568
 20
9.711855902618907
 10
301.0664703804007
 20
9.726473485715766
 10
301.0393023877311
 20
9.738998101886799
 10
301.0112354748568
 20
9.749352532708453
 10
300.9824426836291
 20
9.757472939671513
 10
300.9531015311803
 20
9.763309257766746
 10
300.9233929154724
 20
9.76682550415232
 10
300.8935
 20
9.768
 10
300.0
 20
9.768
 10
300.0
 20
9.949999999999999
  0
LWPOLYLINE
  5
1C85
330
6F
100
AcDbEntity
  8
AISC_STEEL
100
AcDbPolyline
 90
       68
 70
     1
 43
0.0
 10
352.69
 20
9.99
 10
352.69
 20
9.817
 10
351.675
 20
9.817
 10
351.6453294138326
 20
9.815333735621711
 10
351.6160319525016
 20
9.810355896728182
 10
351.5874760485818
 20
9.802129082531717
 10
351.5600208091338
 20
9.790756749994141
 10
351.5340114997234
 20
9.776381912795496
 10
351.5097752025074
 20
9.759185342854028
 10
351.4876167029856
 20
9.739383297014436
 10
351.467814657146
 20
9.717224797492566
 10
351.4506180872045
 20
9.692988500276564
 10
351.4362432500059
 20
9.666979190866154
 10
351.4248709174684
 20
9.639523951418119
 10
351.4166441032718
 20
9.610968047498424
 10
351.4116662643782
 20
9.581670586167376
 10
351.41
 20
9.551999999999999
 10
351.41
 20
0.4379999999999998
 10
351.4116662643782
 20
0.4083294138326234
 10
351.4166441032718
 20
0.3790319525015766
 10
351.4248709174684
 20
0.3504760485818803
 10
351.4362432500059
 20
0.3230208091338467
 10
351.4506180872045
 20
0.2970114997234354
 10
351.467814657146
 20
0.272775202507435
 10
351.4876167029856
 20
0.2506167029855648
 10
351.5097752025074
 20
0.230814657145972
 10
351.5340114997234
 20
0.2136180872045044
 10
351.5600208091338
 20
0.1992432500058587
 10
351.5874760485818
 20
0.187870917468282
 10
351.6160319525016
 20
0.1796441032718165
 10
351.6453294138326
 20
0.1746662643782901
 10
351.675
 20
0.173
 10
352.69
 20
0.173
 10
352.69
 20
0.0
 10
350.0
 20
0.0
 10
350.0
 20
0.173
 10
351.015
 20
0.173
 10
351.0446705861674
 20
0.1746662643782901
 10
351.0739680474984
 20
0.1796441032718165
 10
351.1025239514182
 20
0.187870917468282
 10
351.1299791908661
 20
0.1992432500058587
 10
351.1559885002766
 20
0.2136180872045044
 10
351.1802247974925
 20
0.230814657145972
 10
351.2023832970144
 20
0.2506167029855648
 10
351.222185342854
 20
0.272775202507435
 10
351.2393819127955
 20
0.2970114997234354
 10
351.2537567499941
 20
0.3230208091338467
 10
351.2651290825317
 20
0.3504760485818803
 10
351.2733558967282
 20
0.3790319525015766
 10
351.2783337356217
 20
0.4083294138326234
 10
351.28
 20
0.4379999999999998
 10
351.28
 20
9.551999999999999
 10
351.2783337356217
 20
9.581670586167376
 10
351.2733558967282
 20
9.610968047498424
 10
351.2651290825317
 20
9.639523951418119
 10
351.2537567499941
 20
9.666979190866154
 10
351.2393819127955
 20
9.692988500276564
 10
351.222185342854
 20
9.717224797492566
 10
351.2023832970144
 20
9.739383297014436
 10
351.1802247974925
 20
9.759185342854028
 10
351.1559885002766
 20
9.776381912795496
 10
351.1299791908661
 20
9.790756749994141
 10
351.1025239514182
 20
9.802129082531717
 10
351.0739680474984
 20
9.810355896728182
 10
351.0446705861674
 20
9.815333735621711
 10
351.015
 20
9.817
 10
350.0
 20
9.817
 10
350.0
 20
9.99
  0
LWPOLYLINE
  5
1C86
330
6F
100
AcDbEntity
  8
AISC_STEEL
100
AcDbPolyline
 90
       92
 70
     1
 43
0.0
 10
402.28
 20
8.0
 10
402.28
 20
7.810999999999999
 10
401.5814999999999
 20
7.810999999999999
 10
401.5521562981978
 20
7.809847082816188
 10
401.5229935100749
 20
7.80639543938258
 10
401.4941914339178
 20
7.800666350228731
 10
401.4659276441038
 20
7.792695137094387
 10
401.4383763962953
 20
7.78253094515922
 10
401.4117075530974
 20
7.770236440046449
 10
401.3860855367962
 20
7.755887421468429
 10
401.3616683156426
 20
7.73957235589623
 10
401.3386064299244
 20
7.721391831134412
 10
401.3170420638362
 20
7.701457936163767
 10
401.2971081688656
 20
7.679893570075488
 10
401.2789276441037
 20
7.656831684357384
 10
401.2626125785316
 20
7.632414463203764
 10
401.2482635599535
 20
7.60679244690259
 10
401.2359690548407
 20
7.580123603704544
 10
401.2258048629056
 20
7.552572355896231
 10
401.2178336497712
 20
7.524308566082107
 10
401.2121045606174
 20
7.495506489925046
 10
401.2086529171837
 20
7.466343701802214
 10
401.2075
 20
7.436999999999998
 10
401.2075
 20
0.5629999999999998
 10
401.2086529171837
 20
0.5336562981977862
 10
401.2121045606174
 20
0.5044935100749539
 10
401.2178336497712
 20
0.4756914339178917
 10
401.2258048629056
 20
0.4474276441037697
 10
401.2359690548407
 20
0.4198763962954568
 10
401.2482635599535
 20
0.39320755309741
 10
401.2626125785316
 20
0.3675855367962355
 10
401.2789276441037
 20
0.3431683156426155
 10
401.2971081688656
 20
0.3201064299245115
 10
401.3170420638362
 20
0.2985420638362313
 10
401.3386064299244
 20
0.2786081688655884
 10
401.3616683156426
 20
0.2604276441037698
 10
401.3860855367962
 20
0.2441125785315696
 10
401.4117075530974
 20
0.2297635599535508
 10
401.4383763962953
 20
0.2174690548407789
 10
401.4659276441038
 20
0.2073048629056129
 10
401.4941914339178
 20
0.199333649771269
 10
401.5229935100749
 20
0.1936045606174188
 10
401.5521562981978
 20
0.1901529171838105
 10
401.5814999999999
 20
0.1890000000000001
 10
402.28
 20
0.1890000000000001
 10
402.28
 20
0.0
 10
400.0
 20
0.0
 10
400.0
 20
0.1890000000000001
 10
400.6985
 20
0.1890000000000001
 10
400.7278437018022
 20
0.1901529171838105
 10
400.757006489925
 20
0.1936045606174188
 10
400.7858085660821
 20
0.199333649771269
 10
400.8140723558962
 20
0.2073048629056129
 10
400.8416236037045
 20
0.2174690548407789
 10
400.8682924469026
 20
0.2297635599535508
 10
400.8939144632036
 20
0.2441125785315696
 10
400.9183316843573
 20
0.2604276441037698
 10
400.9413935700755
 20
0.2786081688655884
 10
400.9629579361638
 20
0.2985420638362313
 10
400.9828918311343
 20
0.3201064299245115
 10
401.0010723558962
 20
0.3431683156426155
 10
401.0173874214683
 20
0.3675855367962355
 10
401.0317364400465
 20
0.39320755309741
 10
401.0440309451592
 20
0.4198763962954568
 10
401.0541951370943
 20
0.4474276441037697
 10
401.0621663502286
 20
0.4756914339178917
 10
401.0678954393826
 20
0.5044935100749539
 10
401.0713470828161
 20
0.5336562981977862
 10
401.0724999999999
 20
0.5629999999999998
 10
401.0724999999999
 20
7.436999999999998
 10
401.0713470828161
 20
7.466343701802214
 10
401.0678954393826
 20
7.495506489925046
 10
401.0621663502286
 20
7.524308566082107
 10
401.0541951370943
 20
7.552572355896231
 10
401.0440309451592
 20
7.580123603704544
 10
401.0317364400465
 20
7.60679244690259
 10
401.0173874214683
 20
7.632414463203764
 10
401.0010723558962
 20
7.656831684357384
 10
400.9828918311343
 20
7.679893570075488
 10
400.9629579361638
 20
7.701457936163767
 10
400.9413935700755
 20
7.721391831134412
 10
400.9183316843573
 20
7.73957235589623
 10
400.8939144632036
 20
7.755887421468429
 10
400.8682924469026
 20
7.770236440046449
 10
400.8416236037045
 20
7.78253094515922
 10
400.8140723558962
 20
7.792695137094387
 10
400.7858085660821
 20
7.800666350228731
 10
400.757006489925
 20
7.80639543938258
 10
400.7278437018022
 20
7.809847082816188
 10
400.6985
 20
7.810999999999999
 10
400.0
 20
7.810999999999999
 10
400.0
 20
8.0
  0
LWPOLYLINE
  5
1C87
330
6F
100
AcDbEntity
  8
AISC_STEEL
100
AcDbPolyline
 90
       68
 70
     1
 43
0.0
 10
452.28
 20
8.0
 10
452.28
 20
7.822999999999999
 10
451.4655
 20
7.822999999999999
 10
451.4362772717369
 20
7.821358886782137
 10
451.4074220362373
 20
7.816456185079456
 10
451.3792971648297
 20
7.808353549210482
 10
451.3522563440903
 20
7.797152874522531
 10
451.3266396280294
 20
7.782995015998581
 10
451.3027691617148
 20
7.766058016924155
 10
451.2809451301103
 20
7.746554869889688
 10
451.2614419830757
 20
7.724730838285129
 10
451.2445049840013
 20
7.700860371970503
 10
451.2303471254774
 20
7.675243655909682
 10
451.2191464507896
 20
7.648202835170298
 10
451.2110438149206
 20
7.620077963762597
 10
451.2061411132178
 20
7.591222728262962
 10
451.2044999999999
 20
7.561999999999998
 10
451.2044999999999
 20
0.4380000000000002
 10
451.2061411132178
 20
0.408777271737037
 10
451.2110438149206
 20
0.3799220362374021
 10
451.2191464507896
 20
0.3517971648297018
 10
451.2303471254774
 20
0.3247563440903174
 10
451.2445049840013
 20
0.2991396280294971
 10
451.2614419830757
 20
0.2752691617148706
 10
451.2809451301103
 20
0.2534451301103111
 10
451.3027691617148
 20
0.2339419830758445
 10
451.3266396280294
 20
0.2170049840014179
 10
451.3522563440903
 20
0.2028471254774686
 10
451.3792971648297
 20
0.1916464507895164
 10
451.4074220362373
 20
0.1835438149205441
 10
451.4362772717369
 20
0.1786411132178638
 10
451.4655
 20
0.177
 10
452.28
 20
0.177
 10
452.28
 20
0.0
 10
450.0
 20
0.0
 10
450.0
 20
0.177
 10
450.8144999999999
 20
0.177
 10
450.8437227282629
 20
0.1786411132178638
 10
450.8725779637625
 20
0.1835438149205441
 10
450.9007028351702
 20
0.1916464507895164
 10
450.9277436559096
 20
0.2028471254774686
 10
450.9533603719705
 20
0.2170049840014179
 10
450.9772308382852
 20
0.2339419830758445
 10
450.9990548698897
 20
0.2534451301103111
 10
451.0185580169242
 20
0.2752691617148706
 10
451.0354950159985
 20
0.2991396280294971
 10
451.0496528745224
 20
0.3247563440903174
 10
451.0608535492105
 20
0.3517971648297018
 10
451.0689561850794
 20
0.3799220362374021
 10
451.0738588867821
 20
0.408777271737037
 10
451.0754999999999
 20
0.4380000000000002
 10
451.0754999999999
 20
7.561999999999998
 10
451.0738588867821
 20
7.591222728262962
 10
451.0689561850794
 20
7.620077963762597
 10
451.0608535492105
 20
7.648202835170298
 10
451.0496528745224
 20
7.675243655909682
 10
451.0354950159985
 20
7.700860371970503
 10
451.0185580169242
 20
7.724730838285129
 10
450.9990548698897
 20
7.746554869889688
 10
450.9772308382852
 20
7.766058016924155
 10
450.9533603719705
 20
7.782995015998581
 10
450.9277436559096
 20
7.797152874522531
 10
450.9007028351702
 20
7.808353549210482
 10
450.8725779637625
 20
7.816456185079456
 10
450.8437227282629
 20
7.821358886782137
 10
450.8144999999999
 20
7.822999999999999
 10
450.0
 20
7.822999999999999
 10
450.0
 20
8.0
  0
LWPOLYLINE
  5
1C88
330
6F
100
AcDbEntity
  8
AISC_STEEL
100
AcDbPolyline
 90
       60
 70
     1
 43
0.0
 10
501.8399999999999
 20
6.0
 10
501.8399999999999
 20
5.829000000000001
 10
501.1809999999999
 20
5.829000000000001
 10
501.1543726567871
 20
5.827254751720257
 10
501.1282009147991
 20
5.82204886856297
 10
501.1029325797975
 20
5.813471424632303
 10
501.079
 20
5.801669182372025
 10
501.0568126684822
 20
5.786844081419411
 10
501.0367502166379
 20
5.769249783362056
 10
501.0191559185805
 20
5.74918733151778
 10
501.004330817628
 20
5.727
 10
500.9925285753676
 20
5.703067420202477
 10
500.9839511314368
 20
5.677799085200914
 10
500.9787452482797
 20
5.65162734321289
 10
500.9769999999999
 20
5.625
 10
500.9769999999999
 20
0.375
 10
500.9787452482797
 20
0.3483726567871095
 10
500.9839511314368
 20
0.3222009147990859
 10
500.9925285753676
 20
0.2969325797975215
 10
501.004330817628
 20
0.2730000000000001
 10
501.0191559185805
 20
0.2508126684822209
 10
501.0367502166379
 20
0.2307502166379445
 10
501.0568126684822
 20
0.213155918580588
 10
501.079
 20
0.1983308176279745
 10
501.1029325797975
 20
0.1865285753676975
 10
501.1282009147991
 20
0.1779511314370299
 10
501.1543726567871
 20
0.1727452482797425
 10
501.1809999999999
 20
0.1709999999999998
 10
501.8399999999999
 20
0.1709999999999998
 10
501.8399999999999
 20
0.0
 10
500.0
 20
0.0
 10
500.0
 20
0.1709999999999998
 10
500.659
 20
0.1709999999999998
 10
500.6856273432129
 20
0.1727452482797425
 10
500.7117990852009
 20
0.1779511314370299
 10
500.7370674202024
 20
0.1865285753676975
 10
500.7609999999999
 20
0.1983308176279745
 10
500.7831873315176
 20
0.213155918580588
 10
500.803249783362
 20
0.2307502166379445
 10
500.8208440814193
 20
0.2508126684822209
 10
500.835669182372
 20
0.2730000000000001
 10
500.8474714246323
 20
0.2969325797975215
 10
500.8560488685629
 20
0.3222009147990859
 10
500.8612547517202
 20
0.3483726567871095
 10
500.8630000000001
 20
0.375
 10
500.8630000000001
 20
5.625
 10
500.8612547517202
 20
5.65162734321289
 10
500.8560488685629
 20
5.677799085200914
 10
500.8474714246323
 20
5.703067420202477
 10
500.835669182372
 20
5.727
 10
500.8208440814193
 20
5.74918733151778
 10
500.803249783362
 20
5.769249783362056
 10
500.7831873315176
 20
5.786844081419411
 10
500.7609999999999
 20
5.801669182372025
 10
500.7370674202024
 20
5.813471424632303
 10
500.7117990852009
 20
5.82204886856297
 10
500.6856273432129
 20
5.827254751720257
 10
500.659
 20
5.829000000000001
 10
500.0
 20
5.829000000000001
 10
500.0
 20
6.0
  0
LWPOLYLINE
  5
1C89
330
6F
100
AcDbEntity
  8
AISC_STEEL
100
AcDbPolyline
 90
       60
 70
     1
 43
0.0
 10
552.0
 20
5.919999999999999
 10
552.0
 20
5.791
 10
551.233
 20
5.791
 10
551.2089831806314
 20
5.789425854492781
 10
551.1853772957011
 20
5.784730352037187
 10
551.1625862484447
 20
5.776993833982076
 10
551.1409999999999
 20
5.766348674296337
 10
551.1209878970624
 20
5.752977014613588
 10
551.1028923522616
 20
5.737107647738325
 10
551.0870229853863
 20
5.719012102937602
 10
551.0736513257036
 20
5.698999999999999
 10
551.0630061660179
 20
5.677413751555178
 10
551.0552696479628
 20
5.654622704298864
 10
551.0505741455071
 20
5.631016819368488
 10
551.0489999999999
 20
5.606999999999998
 10
551.0489999999999
 20
0.3130000000000002
 10
551.0505741455071
 20
0.2889831806315106
 10
551.0552696479628
 20
0.2653772957011364
 10
551.0630061660179
 20
0.2425862484448236
 10
551.0736513257036
 20
0.2210000000000001
 10
551.0870229853863
 20
0.2009878970623955
 10
551.1028923522616
 20
0.1828923522616756
 10
551.1209878970624
 20
0.1670229853864131
 10
551.1409999999999
 20
0.1536513257036636
 10
551.1625862484447
 20
0.1430061660179236
 10
551.1853772957011
 20
0.1352696479628115
 10
551.2089831806314
 20
0.1305741455072189
 10
551.233
 20
0.129
 10
552.0
 20
0.129
 10
552.0
 20
0.0
 10
550.0
 20
0.0
 10
550.0
 20
0.129
 10
550.7669999999999
 20
0.129
 10
550.7910168193685
 20
0.1305741455072189
 10
550.8146227042987
 20
0.1352696479628115
 10
550.8374137515552
 20
0.1430061660179236
 10
550.859
 20
0.1536513257036636
 10
550.8790121029376
 20
0.1670229853864131
 10
550.8971076477384
 20
0.1828923522616756
 10
550.9129770146135
 20
0.2009878970623955
 10
550.9263486742963
 20
0.2210000000000001
 10
550.9369938339821
 20
0.2425862484448236
 10
550.9447303520371
 20
0.2653772957011364
 10
550.9494258544927
 20
0.2889831806315106
 10
550.951
 20
0.3130000000000002
 10
550.951
 20
5.606999999999998
 10
550.9494258544927
 20
5.631016819368488
 10
550.9447303520371
 20
5.654622704298864
 10
550.9369938339821
 20
5.677413751555178
 10
550.9263486742963
 20
5.698999999999999
 10
550.9129770146135
 20
5.719012102937602
 10
550.8971076477384
 20
5.737107647738325
 10
550.8790121029376
 20
5.752977014613588
 10
550.859
 20
5.766348674296337
 10
550.8374137515552
 20
5.776993833982076
 10
550.8146227042987
 20
5.784730352037187
 10
550.7910168193685
 20
5.789425854492781
 10
550.7669999999999
 20
5.791
 10
550.0
 20
5.791
 10
550.0
 20
5.919999999999999
  0
LWPOLYLINE
  5
1C8A
330
6F
100
AcDbEntity
  8
AISC_STEEL
100
AcDbPolyline
 90
       96
 70
     1
 43
0.0
 10
605.0
 20
5.0
 10
605.0
 20
4.583999999999999
 10
603.0549999999999
 20
4.583999999999999
 10
603.0253321528462
 20
4.582889907480927
 10
602.9958302203279
 20
4.579565838011376
 10
602.9666591892194
 20
4.574046381136184
 10
602.9379821957588
 20
4.566362403897097
 10
602.9099596133266
 20
4.556556878211749
 10
602.8827481555701
 20
4.544684640557261
 10
602.8565
 20
4.530812085302422
 10
602.8313619369487
 20
4.515016793403451
 10
602.8074745486621
 20
4.497387098539808
 10
602.7849714231048
 20
4.478021593116441
 10
602.7639784068837
 20
4.457028576895056
 10
602.7446129014602
 20
4.434525451337917
 10
602.7269832065965
 20
4.410638063051258
 10
602.7111879146977
 20
4.3855
 10
602.6973153594427
 20
4.359251844429671
 10
602.6854431217882
 20
4.332040386673458
 10
602.6756375961029
 20
4.304017804241128
 10
602.6679536188638
 20
4.275340810780656
 10
602.6624341619886
 20
4.246169779671941
 10
602.6591100925192
 20
4.21666784715381
 10
602.658
 20
4.187
 10
602.658
 20
0.8129999999999999
 10
602.6591100925192
 20
0.7833321528461897
 10
602.6624341619886
 20
0.7538302203280587
 10
602.6679536188638
 20
0.7246591892193433
 10
602.6756375961029
 20
0.6959821957588711
 10
602.6854431217882
 20
0.6679596133265412
 10
602.6973153594427
 20
0.6407481555703294
 10
602.7111879146977
 20
0.6145000000000001
 10
602.7269832065965
 20
0.5893619369487422
 10
602.7446129014602
 20
0.5654745486620829
 10
602.7639784068837
 20
0.542971423104945
 10
602.7849714231048
 20
0.5219784068835589
 10
602.8074745486621
 20
0.5026129014601921
 10
602.8313619369487
 20
0.4849832065965498
 10
602.8565
 20
0.469187914697578
 10
602.8827481555701
 20
0.4553153594427397
 10
602.9099596133266
 20
0.443443121788251
 10
602.9379821957588
 20
0.4336375961029022
 10
602.9666591892194
 20
0.4259536188638161
 10
602.9958302203279
 20
0.420434161988624
 10
603.0253321528462
 20
0.4171100925190716
 10
603.0549999999999
 20
0.416
 10
605.0
 20
0.416
 10
605.0
 20
0.0
 10
600.0
 20
0.0
 10
600.0
 20
0.416
 10
601.945
 20
0.416
 10
601.9746678471538
 20
0.4171100925190716
 10
602.0041697796719
 20
0.420434161988624
 10
602.0333408107806
 20
0.4259536188638161
 10
602.0620178042411
 20
0.4336375961029022
 10
602.0900403866733
 20
0.443443121788251
 10
602.1172518444298
 20
0.4553153594427397
 10
602.1435
 20
0.469187914697578
 10
602.1686380630512
 20
0.4849832065965498
 10
602.1925254513379
 20
0.5026129014601921
 10
602.2150285768951
 20
0.5219784068835589
 10
602.2360215931163
 20
0.542971423104945
 10
602.2553870985396
 20
0.5654745486620829
 10
602.2730167934034
 20
0.5893619369487422
 10
602.2888120853023
 20
0.6145000000000001
 10
602.3026846405572
 20
0.6407481555703294
 10
602.3145568782117
 20
0.6679596133265412
 10
602.3243624038971
 20
0.6959821957588711
 10
602.3320463811361
 20
0.7246591892193433
 10
602.3375658380114
 20
0.7538302203280587
 10
602.3408899074808
 20
0.7833321528461897
 10
602.3419999999999
 20
0.8129999999999999
 10
602.3419999999999
 20
4.187
 10
602.3408899074808
 20
4.21666784715381
 10
602.3375658380114
 20
4.246169779671941
 10
602.3320463811361
 20
4.275340810780656
 10
602.3243624038971
 20
4.304017804241128
 10
602.3145568782117
 20
4.332040386673458
 10
602.3026846405572
 20
4.359251844429671
 10
602.2888120853023
 20
4.3855
 10
602.2730167934034
 20
4.410638063051258
 10
602.2553870985396
 20
4.434525451337917
 10
602.2360215931163
 20
4.457028576895056
 10
602.2150285768951
 20
4.478021593116441
 10
602.1925254513379
 20
4.497387098539808
 10
602.1686380630512
 20
4.515016793403451
 10
602.1435
 20
4.530812085302422
 10
602.1172518444298
 20
4.544684640557261
 10
602.0900403866733
 20
4.556556878211749
 10
602.0620178042411
 20
4.566362403897097
 10
602.0333408107806
 20
4.574046381136184
 10
602.0041697796719
 20
4.579565838011376
 10
601.9746678471538
 20
4.582889907480927
 10
601.945
 20
4.583999999999999
 10
600.0
 20
4.583999999999999
 10
600.0
 20
5.0
  0
LWPOLYLINE
  5
1C8B
330
6F
100
AcDbEntity
  8
AISC_STEEL
100
AcDbPolyline
 90
       84
 70
     1
 43
0.0
 10
653.7999999999999
 20
3.799999999999999
 10
653.7999999999999
 20
3.64
 10
652.3049999999999
 20
3.64
 10
652.2753670474656
 20
3.638706197351193
 10
652.2459596195932
 20
3.63483463602415
 10
652.2170015246651
 20
3.628414780938283
 10
652.1887131512691
 20
3.619495491067209
 10
652.1613097910082
 20
3.608144647592461
 10
652.1349999999999
 20
3.594448637286709
 10
652.1099840116407
 20
3.578511695058256
 10
652.0864522127066
 20
3.560455110660452
 10
652.0645836943965
 20
3.540416305603425
 10
652.0445448893395
 20
3.518547787293423
 10
652.0264883049418
 20
3.495015988359356
 10
652.0105513627132
 20
3.47
 10
651.9968553524075
 20
3.443690208991837
 10
651.9855045089327
 20
3.416286848730726
 10
651.9765852190617
 20
3.387998475334857
 10
651.9701653639758
 20
3.359040380406756
 10
651.9662938026487
 20
3.329632952534204
 10
651.965
 20
3.299999999999999
 10
651.965
 20
0.5
 10
651.9662938026487
 20
0.4703670474657964
 10
651.9701653639758
 20
0.4409596195932437
 10
651.9765852190617
 20
0.412001524665143
 10
651.9855045089327
 20
0.3837131512692726
 10
651.9968553524075
 20
0.3563097910081623
 10
652.0105513627132
 20
0.3300000000000001
 10
652.0264883049418
 20
0.3049840116406444
 10
652.0445448893395
 20
0.2814522127065766
 10
652.0645836943965
 20
0.2595836943965739
 10
652.0864522127066
 20
0.2395448893395475
 10
652.1099840116407
 20
0.2214883049417429
 10
652.1349999999999
 20
0.205551362713291
 10
652.1613097910082
 20
0.191855352407539
 10
652.1887131512691
 20
0.1805045089327912
 10
652.2170015246651
 20
0.1715852190617168
 10
652.2459596195932
 20
0.1651653639758492
 10
652.2753670474656
 20
0.1612938026488067
 10
652.3049999999999
 20
0.1600000000000001
 10
653.7999999999999
 20
0.1599999999999999
 10
653.7999999999999
 20
0.0
 10
650.0
 20
0.0
 10
650.0
 20
0.1599999999999999
 10
651.4949999999999
 20
0.1600000000000001
 10
651.5246329525341
 20
0.1612938026488067
 10
651.5540403804067
 20
0.1651653639758492
 10
651.5829984753349
 20
0.1715852190617168
 10
651.6112868487307
 20
0.1805045089327912
 10
651.6386902089918
 20
0.191855352407539
 10
651.6649999999999
 20
0.205551362713291
 10
651.6900159883594
 20
0.2214883049417429
 10
651.7135477872934
 20
0.2395448893395475
 10
651.7354163056033
 20
0.2595836943965739
 10
651.7554551106605
 20
0.2814522127065766
 10
651.7735116950582
 20
0.3049840116406444
 10
651.7894486372868
 20
0.3300000000000001
 10
651.8031446475925
 20
0.3563097910081623
 10
651.8144954910673
 20
0.3837131512692726
 10
651.8234147809383
 20
0.412001524665143
 10
651.8298346360242
 20
0.4409596195932437
 10
651.8337061973511
 20
0.4703670474657964
 10
651.835
 20
0.5
 10
651.835
 20
3.299999999999999
 10
651.8337061973511
 20
3.329632952534204
 10
651.8298346360242
 20
3.359040380406756
 10
651.8234147809383
 20
3.387998475334857
 10
651.8144954910673
 20
3.416286848730726
 10
651.8031446475925
 20
3.443690208991837
 10
651.7894486372868
 20
3.47
 10
651.7735116950582
 20
3.495015988359356
 10
651.7554551106605
 20
3.518547787293423
 10
651.7354163056033
 20
3.540416305603425
 10
651.7135477872934
 20
3.560455110660452
 10
651.6900159883594
 20
3.578511695058256
 10
651.6649999999999
 20
3.594448637286709
 10
651.6386902089918
 20
3.608144647592461
 10
651.6112868487307
 20
3.619495491067209
 10
651.5829984753349
 20
3.628414780938283
 10
651.5540403804067
 20
3.63483463602415
 10
651.5246329525341
 20
3.638706197351193
 10
651.4949999999999
 20
3.64
 10
650.0
 20
3.64
 10
650.0
 20
3.799999999999999
  0
LWPOLYLINE
  5
1C8C
330
6F
100
AcDbEntity
  8
AISC_STEEL
100
AcDbPolyline
 90
       96
 70
     1
 43
0.0
 10
702.2499999999999
 20
4.0
 10
702.2499999999999
 20
3.83
 10
701.5755
 20
3.83
 10
701.5461310732205
 20
3.828901092292203
 10
701.5169263893926
 20
3.825610514706476
 10
701.4880492729552
 20
3.820146669487457
 10
701.4596612164564
 20
3.812540112673953
 10
701.4319209774241
 20
3.802833383217171
 10
701.4049836905266
 20
3.791080765085651
 10
701.3789999999999
 20
3.777347983687283
 10
701.3541152171809
 20
3.761711838306185
 10
701.3304685078695
 20
3.744259772609936
 10
701.3081921140559
 20
3.725089385629122
 10
701.2874106143708
 20
3.704307885943971
 10
701.26824022739
 20
3.682031492130481
 10
701.2507881616937
 20
3.658384782819004
 10
701.2351520163126
 20
3.6335
 10
701.2214192349143
 20
3.607516309473199
 10
701.2096666167827
 20
3.580579022575993
 10
701.199959887326
 20
3.552838783543485
 10
701.1923533305126
 20
3.524450727044832
 10
701.1868894852934
 20
3.495573610607236
 10
701.1835989077078
 20
3.466368926779465
 10
701.1824999999999
 20
3.437
 10
701.1824999999999
 20
0.5629999999999999
 10
701.1835989077078
 20
0.5336310732205352
 10
701.1868894852934
 20
0.5044263893927632
 10
701.1923533305126
 20
0.4755492729551682
 10
701.199959887326
 20
0.4471612164565144
 10
701.2096666167827
 20
0.4194209774240065
 10
701.2214192349143
 20
0.3924836905267993
 10
701.2351520163126
 20
0.3664999999999998
 10
701.2507881616937
 20
0.3416152171809965
 10
701.26824022739
 20
0.3179685078695176
 10
701.2874106143708
 20
0.2956921140560285
 10
701.3081921140559
 20
0.2749106143708779
 10
701.3304685078695
 20
0.2557402273900642
 10
701.3541152171809
 20
0.2382881616938137
 10
701.3789999999999
 20
0.2226520163127155
 10
701.4049836905266
 20
0.2089192349143492
 10
701.4319209774241
 20
0.1971666167828276
 10
701.4596612164564
 20
0.1874598873260465
 10
701.4880492729552
 20
0.1798533305125431
 10
701.5169263893926
 20
0.1743894852935244
 10
701.5461310732205
 20
0.171098907707796
 10
701.5755
 20
0.1699999999999999
 10
702.2499999999999
 20
0.1699999999999999
 10
702.2499999999999
 20
0.0
 10
700.0
 20
0.0
 10
700.0
 20
0.1699999999999999
 10
700.6744999999999
 20
0.1699999999999999
 10
700.7038689267794
 20
0.171098907707796
 10
700.7330736106073
 20
0.1743894852935244
 10
700.7619507270447
 20
0.1798533305125431
 10
700.7903387835435
 20
0.1874598873260465
 10
700.8180790225759
 20
0.1971666167828276
 10
700.8450163094733
 20
0.2089192349143492
 10
700.871
 20
0.2226520163127155
 10
700.895884782819
 20
0.2382881616938137
 10
700.9195314921304
 20
0.2557402273900642
 10
700.941807885944
 20
0.2749106143708779
 10
700.9625893856291
 20
0.2956921140560285
 10
700.9817597726099
 20
0.3179685078695176
 10
700.9992118383062
 20
0.3416152171809965
 10
701.0148479836873
 20
0.3664999999999998
 10
701.0285807650856
 20
0.3924836905267993
 10
701.0403333832173
 20
0.4194209774240065
 10
701.050040112674
 20
0.4471612164565144
 10
701.0576466694873
 20
0.4755492729551682
 10
701.0631105147065
 20
0.5044263893927632
 10
701.0664010922921
 20
0.5336310732205352
 10
701.0674999999999
 20
0.5629999999999999
 10
701.0674999999999
 20
3.437
 10
701.0664010922921
 20
3.466368926779465
 10
701.0631105147065
 20
3.495573610607236
 10
701.0576466694873
 20
3.524450727044832
 10
701.050040112674
 20
3.552838783543485
 10
701.0403333832173
 20
3.580579022575993
 10
701.0285807650856
 20
3.607516309473199
 10
701.0148479836873
 20
3.6335
 10
700.9992118383062
 20
3.658384782819004
 10
700.9817597726099
 20
3.682031492130481
 10
700.9625893856291
 20
3.704307885943971
 10
700.941807885944
 20
3.725089385629122
 10
700.9195314921304
 20
3.744259772609936
 10
700.895884782819
 20
3.761711838306185
 10
700.871
 20
3.777347983687283
 10
700.8450163094733
 20
3.791080765085651
 10
700.8180790225759
 20
3.802833383217171
 10
700.7903387835435
 20
3.812540112673953
 10
700.7619507270447
 20
3.820146669487457
 10
700.7330736106073
 20
3.825610514706476
 10
700.7038689267794
 20
3.828901092292203
 10
700.6744999999999
 20
3.83
 10
700.0
 20
3.83
 10
700.0
 20
4.0
  0
LWPOLYLINE
  5
1C8D
330
6F
100
AcDbEntity
  8
AISC_STEEL
100
AcDbPolyline
 90
       92
 70
     1
 43
0.0
 10
752.2499999999999
 20
3.0
 10
752.2499999999999
 20
2.87
 10
751.5399999999999
 20
2.87
 10
751.5109701345807
 20
2.868859413481257
 10
751.4821192479351
 20
2.8654446860202
 10
751.4536252153732
 20
2.859776870547139
 10
751.4256637120812
 20
2.851890911029206
 10
751.3984071300249
 20
2.841835427029176
 10
751.3720235150962
 20
2.829672413949696
 10
751.3466755310551
 20
2.815476860811013
 10
751.3225194566517
 20
2.79933628791873
 10
751.2997042221177
 20
2.781350207272012
 10
751.2783704909608
 20
2.761629509039022
 10
751.2586497927279
 20
2.740295777882167
 10
751.2406637120813
 20
2.717480543348214
 10
751.2245231391887
 20
2.6933244689449
 10
751.2103275860503
 20
2.667976484903632
 10
751.1981645729707
 20
2.641592869975083
 10
751.1881090889708
 20
2.61433628791873
 10
751.1802231294527
 20
2.586374784626685
 10
751.1745553139798
 20
2.557880752064885
 10
751.1711405865187
 20
2.529029865419303
 10
751.1699999999999
 20
2.5
 10
751.1699999999999
 20
0.5
 10
751.1711405865187
 20
0.4709701345806974
 10
751.1745553139798
 20
0.4421192479351146
 10
751.1802231294527
 20
0.4136252153733152
 10
751.1881090889708
 20
0.3856637120812696
 10
751.1981645729707
 20
0.3584071300249167
 10
751.2103275860503
 20
0.3320235150963677
 10
751.2245231391887
 20
0.306675531055099
 10
751.2406637120813
 20
0.282519456651785
 10
751.2586497927279
 20
0.2597042221178321
 10
751.2783704909608
 20
0.2383704909609774
 10
751.2997042221177
 20
0.2186497927279885
 10
751.3225194566517
 20
0.2006637120812695
 10
751.3466755310551
 20
0.1845231391889859
 10
751.3720235150962
 20
0.170327586050304
 10
751.3984071300249
 20
0.1581645729708239
 10
751.4256637120812
 20
0.1481090889707932
 10
751.4536252153732
 20
0.1402231294528597
 10
751.4821192479351
 20
0.134555313979799
 10
751.5109701345807
 20
0.1311405865187427
 10
751.5399999999999
 20
0.1299999999999999
 10
752.2499999999999
 20
0.1299999999999999
 10
752.2499999999999
 20
0.0
 10
750.0
 20
0.0
 10
750.0
 20
0.1299999999999999
 10
750.71
 20
0.1299999999999999
 10
750.7390298654192
 20
0.1311405865187427
 10
750.7678807520647
 20
0.134555313979799
 10
750.7963747846267
 20
0.1402231294528597
 10
750.8243362879187
 20
0.1481090889707932
 10
750.851592869975
 20
0.1581645729708239
 10
750.8779764849037
 20
0.170327586050304
 10
750.9033244689448
 20
0.1845231391889859
 10
750.9274805433482
 20
0.2006637120812695
 10
750.9502957778822
 20
0.2186497927279885
 10
750.9716295090392
 20
0.2383704909609774
 10
750.991350207272
 20
0.2597042221178321
 10
751.0093362879187
 20
0.282519456651785
 10
751.0254768608112
 20
0.306675531055099
 10
751.0396724139496
 20
0.3320235150963677
 10
751.0518354270292
 20
0.3584071300249167
 10
751.0618909110291
 20
0.3856637120812696
 10
751.0697768705472
 20
0.4136252153733152
 10
751.0754446860202
 20
0.4421192479351146
 10
751.0788594134813
 20
0.4709701345806974
 10
751.08
 20
0.5
 10
751.08
 20
2.5
 10
751.0788594134813
 20
2.529029865419303
 10
751.0754446860202
 20
2.557880752064885
 10
751.0697768705472
 20
2.586374784626685
 10
751.0618909110291
 20
2.61433628791873
 10
751.0518354270292
 20
2.641592869975083
 10
751.0396724139496
 20
2.667976484903632
 10
751.0254768608112
 20
2.6933244689449
 10
751.0093362879187
 20
2.717480543348214
 10
750.991350207272
 20
2.740295777882167
 10
750.9716295090392
 20
2.761629509039022
 10
750.9502957778822
 20
2.781350207272012
 10
750.9274805433482
 20
2.79933628791873
 10
750.9033244689448
 20
2.815476860811013
 10
750.8779764849037
 20
2.829672413949696
 10
750.851592869975
 20
2.841835427029176
 10
750.8243362879187
 20
2.851890911029206
 10
750.7963747846267
 20
2.859776870547139
 10
750.7678807520647
 20
2.8654446860202
 10
750.7390298654192
 20
2.868859413481257
 10
750.71
 20
2.87
 10
750.0
 20
2.87
 10
750.0
 20
3.0
  0
LWPOLYLINE
  5
1C8E
330
6F
100
AcDbEntity
  8
0
 62
     3
370
     0
100
AcDbPolyline
 90
        5
 70
     0
 43
0.0
 10
0.1346983704254399
 20
-4.977168238727671
 10
0.1346983704254399
 20
-3.489582743489989
 10
0.6305602021714094
 20
-4.481306406981758
 10
1.126422033917151
 20
-3.489582743489989
 10
1.126422033917151
 20
-4.977168238727671
  0
LWPOLYLINE
  5
1C8F
330
6F
100
AcDbEntity
  8
0
 62
     3
370
     0
100
AcDbPolyline
 90
        3
 70
     0
 43
0.0
 10
1.622283865663121
 20
-3.737513659362946
 10
1.895007873123404
 20
-3.489582743489989
 10
1.895007873123404
 20
-4.977168238727671
  0
LWPOLYLINE
  5
1C90
330
6F
100
AcDbEntity
  8
0
 62
     3
370
     0
100
AcDbPolyline
 90
       10
 70
     0
 43
0.0
 10
2.638800620742131
 20
-3.737513659362946
 10
2.886731536615116
 20
-3.489582743489989
 10
3.382593368361085
 20
-3.489582743489989
 10
3.630524284233842
 20
-3.737513659362946
 10
3.630524284233842
 20
-3.985444575235874
 10
3.382593368361085
 20
-4.23337549110883
 10
2.886731536615116
 20
-4.23337549110883
 10
2.638800620742131
 20
-4.481306406981758
 10
2.638800620742131
 20
-4.977168238727671
 10
3.630524284233842
 20
-4.977168238727671
  0
LWPOLYLINE
  5
1C91
330
6F
100
AcDbEntity
  8
0
 62
     3
370
     0
100
AcDbPolyline
 90
        9
 70
     0
 43
0.0
 10
4.622247947725782
 20
-4.729237322854714
 10
4.870178863598766
 20
-4.977168238727671
 10
5.390833786931807
 20
-4.977168238727671
 10
5.638764702804792
 20
-4.729237322854714
 10
5.638764702804792
 20
-4.23337549110883
 10
5.390833786931807
 20
-3.985444575235874
 10
4.622247947725782
 20
-3.985444575235874
 10
4.622247947725782
 20
-3.489582743489989
 10
5.638764702804792
 20
-3.489582743489989
  0
LWPOLYLINE
  5
1C92
330
6F
100
AcDbEntity
  8
0
 62
     3
370
     0
100
AcDbPolyline
 90
        3
 70
     0
 43
0.0
 10
7.622212029788443
 20
-3.737513659362946
 10
7.8701429456612
 20
-3.489582743489989
 10
7.8701429456612
 20
-4.977168238727671
  0
LWPOLYLINE
  5
1C93
330
6F
100
AcDbEntity
  8
0
 62
     3
370
     0
100
AcDbPolyline
 90
       10
 70
     0
 43
0.0
 10
8.638728784867453
 20
-3.737513659362946
 10
8.886659700740437
 20
-3.489582743489989
 10
9.38252153248618
 20
-3.489582743489989
 10
9.630452448359164
 20
-3.737513659362946
 10
9.630452448359164
 20
-3.985444575235874
 10
9.38252153248618
 20
-4.23337549110883
 10
8.886659700740437
 20
-4.23337549110883
 10
8.638728784867453
 20
-4.481306406981758
 10
8.638728784867453
 20
-4.977168238727671
 10
9.630452448359164
 20
-4.977168238727671
  0
LWPOLYLINE
  5
1C94
330
6F
100
AcDbEntity
  8
0
 62
     3
370
     0
100
AcDbPolyline
 90
        4
 70
     0
 43
0.0
 10
11.63869286693011
 20
-4.481306406981758
 10
10.6221761118511
 20
-4.481306406981758
 10
11.39076195105713
 20
-3.489582743489989
 10
11.39076195105713
 20
-4.977168238727671
  0
LWPOLYLINE
  5
1C95
330
6F
100
AcDbEntity
  8
0
 62
     3
370
     0
100
AcDbPolyline
 90
        5
 70
     0
 43
0.0
 10
50.11757101041121
 20
-4.977168238727671
 10
50.11757101041121
 20
-3.489582743489989
 10
50.61343284215695
 20
-4.481306406981758
 10
51.10929467390292
 20
-3.489582743489989
 10
51.10929467390292
 20
-4.977168238727671
  0
LWPOLYLINE
  5
1C96
330
6F
100
AcDbEntity
  8
0
 62
     3
370
     0
100
AcDbPolyline
 90
        3
 70
     0
 43
0.0
 10
51.60515650564889
 20
-3.737513659362946
 10
51.87788051310917
 20
-3.489582743489989
 10
51.87788051310917
 20
-4.977168238727671
  0
LWPOLYLINE
  5
1C97
330
6F
100
AcDbEntity
  8
0
 62
     3
370
     0
100
AcDbPolyline
 90
       10
 70
     0
 43
0.0
 10
52.6216732607279
 20
-3.737513659362946
 10
52.86960417660089
 20
-3.489582743489989
 10
53.36546600834686
 20
-3.489582743489989
 10
53.61339692421961
 20
-3.737513659362946
 10
53.61339692421961
 20
-3.985444575235874
 10
53.36546600834686
 20
-4.23337549110883
 10
52.86960417660089
 20
-4.23337549110883
 10
52.6216732607279
 20
-4.481306406981758
 10
52.6216732607279
 20
-4.977168238727671
 10
53.61339692421961
 20
-4.977168238727671
  0
LWPOLYLINE
  5
1C98
330
6F
100
AcDbEntity
  8
0
 62
     3
370
     0
100
AcDbPolyline
 90
        9
 70
     0
 43
0.0
 10
54.60512058771155
 20
-4.729237322854714
 10
54.87784459517161
 20
-4.977168238727671
 10
55.37370642691758
 20
-4.977168238727671
 10
55.62163734279057
 20
-4.729237322854714
 10
55.62163734279057
 20
-4.23337549110883
 10
55.37370642691758
 20
-3.985444575235874
 10
54.60512058771155
 20
-3.985444575235874
 10
54.60512058771155
 20
-3.489582743489989
 10
55.62163734279057
 20
-3.489582743489989
  0
LWPOLYLINE
  5
1C99
330
6F
100
AcDbEntity
  8
0
 62
     3
370
     0
100
AcDbPolyline
 90
        3
 70
     0
 43
0.0
 10
57.60508466977421
 20
-3.737513659362946
 10
57.85301558564697
 20
-3.489582743489989
 10
57.85301558564697
 20
-4.977168238727671
  0
LWPOLYLINE
  5
1C9A
330
6F
100
AcDbEntity
  8
0
 62
     3
370
     0
100
AcDbPolyline
 90
        3
 70
     0
 43
0.0
 10
58.62160142485322
 20
-3.737513659362946
 10
58.8695323407262
 20
-3.489582743489989
 10
58.8695323407262
 20
-4.977168238727671
  0
LWPOLYLINE
  5
1C9B
330
6F
100
AcDbEntity
  8
0
 62
     3
370
     0
100
AcDbPolyline
 90
       10
 70
     0
 43
0.0
 10
60.10918692009091
 20
-4.23337549110883
 10
60.85297966770963
 20
-4.23337549110883
 10
61.12570367516991
 20
-4.481306406981758
 10
61.12570367516991
 20
-4.729237322854714
 10
60.85297966770963
 20
-4.977168238727671
 10
60.35711783596389
 20
-4.977168238727671
 10
60.10918692009091
 20
-4.729237322854714
 10
60.10918692009091
 20
-3.985444575235874
 10
60.60504875183664
 20
-3.489582743489989
 10
60.85297966770963
 20
-3.489582743489989
  0
LWPOLYLINE
  5
1C9C
330
6F
100
AcDbEntity
  8
0
 62
     3
370
     0
100
AcDbPolyline
 90
        5
 70
     0
 43
0.0
 10
100.100443650397
 20
-4.977168238727671
 10
100.100443650397
 20
-3.489582743489989
 10
100.5963054821427
 20
-4.481306406981758
 10
101.0921673138887
 20
-3.489582743489989
 10
101.0921673138887
 20
-4.977168238727671
  0
LWPOLYLINE
  5
1C9D
330
6F
100
AcDbEntity
  8
0
 62
     3
370
     0
100
AcDbPolyline
 90
        3
 70
     0
 43
0.0
 10
101.6128222372219
 20
-3.737513659362946
 10
101.8607531530949
 20
-3.489582743489989
 10
101.8607531530949
 20
-4.977168238727671
  0
LWPOLYLINE
  5
1C9E
330
6F
100
AcDbEntity
  8
0
 62
     3
370
     0
100
AcDbPolyline
 90
       10
 70
     0
 43
0.0
 10
102.6045459007137
 20
-3.737513659362946
 10
102.8524768165866
 20
-3.489582743489989
 10
103.3483386483324
 20
-3.489582743489989
 10
103.5962695642054
 20
-3.737513659362946
 10
103.5962695642054
 20
-3.985444575235874
 10
103.3483386483324
 20
-4.23337549110883
 10
102.8524768165866
 20
-4.23337549110883
 10
102.6045459007137
 20
-4.481306406981758
 10
102.6045459007137
 20
-4.977168238727671
 10
103.5962695642054
 20
-4.977168238727671
  0
LWPOLYLINE
  5
1C9F
330
6F
100
AcDbEntity
  8
0
 62
     3
370
     0
100
AcDbPolyline
 90
        3
 70
     0
 43
0.0
 10
105.6045099827763
 20
-3.737513659362946
 10
105.8524408986493
 20
-3.489582743489989
 10
105.8524408986493
 20
-4.977168238727671
  0
LWPOLYLINE
  5
1CA0
330
6F
100
AcDbEntity
  8
0
 62
     3
370
     0
100
AcDbPolyline
 90
        3
 70
     0
 43
0.0
 10
106.596233646268
 20
-3.737513659362946
 10
106.844164562141
 20
-3.489582743489989
 10
106.844164562141
 20
-4.977168238727671
  0
LWPOLYLINE
  5
1CA1
330
6F
100
AcDbEntity
  8
0
 62
     3
370
     0
100
AcDbPolyline
 90
       16
 70
     0
 43
0.0
 10
108.852404980712
 20
-4.23337549110883
 10
109.1003358965847
 20
-4.481306406981758
 10
109.1003358965847
 20
-4.729237322854714
 10
108.852404980712
 20
-4.977168238727671
 10
108.356543148966
 20
-4.977168238727671
 10
108.108612233093
 20
-4.729237322854714
 10
108.108612233093
 20
-4.481306406981758
 10
108.356543148966
 20
-4.23337549110883
 10
108.852404980712
 20
-4.23337549110883
 10
109.1003358965847
 20
-3.985444575235874
 10
109.1003358965847
 20
-3.737513659362946
 10
108.852404980712
 20
-3.489582743489989
 10
108.356543148966
 20
-3.489582743489989
 10
108.108612233093
 20
-3.737513659362946
 10
108.108612233093
 20
-3.985444575235874
 10
108.356543148966
 20
-4.23337549110883
  0
LWPOLYLINE
  5
1CA2
330
6F
100
AcDbEntity
  8
0
 62
     3
370
     0
100
AcDbPolyline
 90
        5
 70
     0
 43
0.0
 10
150.0833162903827
 20
-4.977168238727671
 10
150.0833162903827
 20
-3.489582743489989
 10
150.5791781221285
 20
-4.481306406981758
 10
151.0750399538745
 20
-3.489582743489989
 10
151.0750399538745
 20
-4.977168238727671
  0
LWPOLYLINE
  5
1CA3
330
6F
100
AcDbEntity
  8
0
 62
     3
370
     0
100
AcDbPolyline
 90
        3
 70
     0
 43
0.0
 10
151.5956948772077
 20
-3.737513659362946
 10
151.8436257930805
 20
-3.489582743489989
 10
151.8436257930805
 20
-4.977168238727671
  0
LWPOLYLINE
  5
1CA4
330
6F
100
AcDbEntity
  8
0
 62
     3
370
     0
100
AcDbPolyline
 90
       10
 70
     0
 43
0.0
 10
152.5874185406994
 20
-3.737513659362946
 10
152.8353494565724
 20
-3.489582743489989
 10
153.3312112883181
 20
-3.489582743489989
 10
153.5791422041911
 20
-3.737513659362946
 10
153.5791422041911
 20
-3.985444575235874
 10
153.3312112883181
 20
-4.23337549110883
 10
152.8353494565724
 20
-4.23337549110883
 10
152.5874185406994
 20
-4.481306406981758
 10
152.5874185406994
 20
-4.977168238727671
 10
153.5791422041911
 20
-4.977168238727671
  0
LWPOLYLINE
  5
1CA5
330
6F
100
AcDbEntity
  8
0
 62
     3
370
     0
100
AcDbPolyline
 90
        3
 70
     0
 43
0.0
 10
155.5873826227621
 20
-3.737513659362946
 10
155.8353135386351
 20
-3.489582743489989
 10
155.8353135386351
 20
-4.977168238727671
  0
LWPOLYLINE
  5
1CA6
330
6F
100
AcDbEntity
  8
0
 62
     3
370
     0
100
AcDbPolyline
 90
        8
 70
     1
 43
0.0
 10
156.8270372021268
 20
-4.977168238727671
 10
156.5791062862538
 20
-4.729237322854714
 10
156.5791062862538
 20
-3.737513659362946
 10
156.8270372021268
 20
-3.489582743489989
 10
157.0749681179998
 20
-3.489582743489989
 10
157.3228990338727
 20
-3.737513659362946
 10
157.3228990338727
 20
-4.729237322854714
 10
157.0749681179998
 20
-4.977168238727671
  0
LWPOLYLINE
  5
1CA7
330
6F
100
AcDbEntity
  8
0
 62
     3
370
     0
100
AcDbPolyline
 90
       16
 70
     0
 43
0.0
 10
159.0832085365705
 20
-4.23337549110883
 10
159.3311394524435
 20
-4.481306406981758
 10
159.3311394524435
 20
-4.729237322854714
 10
159.0832085365705
 20
-4.977168238727671
 10
158.5873467048247
 20
-4.977168238727671
 10
158.3394157889518
 20
-4.729237322854714
 10
158.3394157889518
 20
-4.481306406981758
 10
158.5873467048247
 20
-4.23337549110883
 10
159.0832085365705
 20
-4.23337549110883
 10
159.3311394524435
 20
-3.985444575235874
 10
159.3311394524435
 20
-3.737513659362946
 10
159.0832085365705
 20
-3.489582743489989
 10
158.5873467048247
 20
-3.489582743489989
 10
158.3394157889518
 20
-3.737513659362946
 10
158.3394157889518
 20
-3.985444575235874
 10
158.5873467048247
 20
-4.23337549110883
  0
LWPOLYLINE
  5
1CA8
330
6F
100
AcDbEntity
  8
0
 62
     3
370
     0
100
AcDbPolyline
 90
        5
 70
     0
 43
0.0
 10
200.0661889303685
 20
-4.977168238727671
 10
200.0661889303685
 20
-3.489582743489989
 10
200.5620507621143
 20
-4.481306406981758
 10
201.0579125938602
 20
-3.489582743489989
 10
201.0579125938602
 20
-4.977168238727671
  0
LWPOLYLINE
  5
1CA9
330
6F
100
AcDbEntity
  8
0
 62
     3
370
     0
100
AcDbPolyline
 90
        3
 70
     0
 43
0.0
 10
201.5785675171935
 20
-3.737513659362946
 10
201.8264984330663
 20
-3.489582743489989
 10
201.8264984330663
 20
-4.977168238727671
  0
LWPOLYLINE
  5
1CAA
330
6F
100
AcDbEntity
  8
0
 62
     3
370
     0
100
AcDbPolyline
 90
       10
 70
     0
 43
0.0
 10
202.5702911806852
 20
-3.737513659362946
 10
202.8182220965582
 20
-3.489582743489989
 10
203.3140839283039
 20
-3.489582743489989
 10
203.5620148441769
 20
-3.737513659362946
 10
203.5620148441769
 20
-3.985444575235874
 10
203.3140839283039
 20
-4.23337549110883
 10
202.8182220965582
 20
-4.23337549110883
 10
202.5702911806852
 20
-4.481306406981758
 10
202.5702911806852
 20
-4.977168238727671
 10
203.5620148441769
 20
-4.977168238727671
  0
LWPOLYLINE
  5
1CAB
330
6F
100
AcDbEntity
  8
0
 62
     3
370
     0
100
AcDbPolyline
 90
        3
 70
     0
 43
0.0
 10
205.5702552627479
 20
-3.737513659362946
 10
205.8181861786209
 20
-3.489582743489989
 10
205.8181861786209
 20
-4.977168238727671
  0
LWPOLYLINE
  5
1CAC
330
6F
100
AcDbEntity
  8
0
 62
     3
370
     0
100
AcDbPolyline
 90
        8
 70
     1
 43
0.0
 10
206.8099098421126
 20
-4.977168238727671
 10
206.5619789262396
 20
-4.729237322854714
 10
206.5619789262396
 20
-3.737513659362946
 10
206.8099098421126
 20
-3.489582743489989
 10
207.0578407579855
 20
-3.489582743489989
 10
207.3057716738585
 20
-3.737513659362946
 10
207.3057716738585
 20
-4.729237322854714
 10
207.0578407579855
 20
-4.977168238727671
  0
LWPOLYLINE
  5
1CAD
330
6F
100
AcDbEntity
  8
0
 62
     3
370
     0
100
AcDbPolyline
 90
        5
 70
     0
 43
0.0
 10
250.0490615703542
 20
-4.977168238727671
 10
250.0490615703542
 20
-3.489582743489989
 10
250.5449234021001
 20
-4.481306406981758
 10
251.0655783254332
 20
-3.489582743489989
 10
251.0655783254332
 20
-4.977168238727671
  0
LWPOLYLINE
  5
1CAE
330
6F
100
AcDbEntity
  8
0
 62
     3
370
     0
100
AcDbPolyline
 90
        3
 70
     0
 43
0.0
 10
251.5614401571792
 20
-3.737513659362946
 10
251.8093710730521
 20
-3.489582743489989
 10
251.8093710730521
 20
-4.977168238727671
  0
LWPOLYLINE
  5
1CAF
330
6F
100
AcDbEntity
  8
0
 62
     3
370
     0
100
AcDbPolyline
 90
        8
 70
     1
 43
0.0
 10
252.8010947365439
 20
-4.977168238727671
 10
252.5531638206709
 20
-4.729237322854714
 10
252.5531638206709
 20
-3.737513659362946
 10
252.8010947365439
 20
-3.489582743489989
 10
253.0490256524168
 20
-3.489582743489989
 10
253.2969565682898
 20
-3.737513659362946
 10
253.2969565682898
 20
-4.729237322854714
 10
253.0490256524168
 20
-4.977168238727671
  0
LWPOLYLINE
  5
1CB0
330
6F
100
AcDbEntity
  8
0
 62
     3
370
     0
100
AcDbPolyline
 90
       10
 70
     0
 43
0.0
 10
255.5531279027336
 20
-4.977168238727671
 10
255.8010588186065
 20
-4.977168238727671
 10
256.2969206503524
 20
-4.481306406981758
 10
256.2969206503524
 20
-3.737513659362946
 10
256.0489897344794
 20
-3.489582743489989
 10
255.5531279027336
 20
-3.489582743489989
 10
255.3051969868606
 20
-3.737513659362946
 10
255.3051969868606
 20
-3.985444575235874
 10
255.5531279027336
 20
-4.23337549110883
 10
256.2969206503524
 20
-4.23337549110883
  0
LWPOLYLINE
  5
1CB1
330
6F
100
AcDbEntity
  8
0
 62
     3
370
     0
100
AcDbPolyline
 90
        5
 70
     0
 43
0.0
 10
300.03193421034
 20
-4.977168238727671
 10
300.03193421034
 20
-3.489582743489989
 10
300.5277960420859
 20
-4.481306406981758
 10
301.048450965419
 20
-3.489582743489989
 10
301.048450965419
 20
-4.977168238727671
  0
LWPOLYLINE
  5
1CB2
330
6F
100
AcDbEntity
  8
0
 62
     3
370
     0
100
AcDbPolyline
 90
        3
 70
     0
 43
0.0
 10
301.544312797165
 20
-3.737513659362946
 10
301.7922437130378
 20
-3.489582743489989
 10
301.7922437130378
 20
-4.977168238727671
  0
LWPOLYLINE
  5
1CB3
330
6F
100
AcDbEntity
  8
0
 62
     3
370
     0
100
AcDbPolyline
 90
        8
 70
     1
 43
0.0
 10
302.7839673765296
 20
-4.977168238727671
 10
302.5360364606567
 20
-4.729237322854714
 10
302.5360364606567
 20
-3.737513659362946
 10
302.7839673765296
 20
-3.489582743489989
 10
303.0318982924026
 20
-3.489582743489989
 10
303.2798292082755
 20
-3.737513659362946
 10
303.2798292082755
 20
-4.729237322854714
 10
303.0318982924026
 20
-4.977168238727671
  0
LWPOLYLINE
  5
1CB4
330
6F
100
AcDbEntity
  8
0
 62
     3
370
     0
100
AcDbPolyline
 90
       16
 70
     0
 43
0.0
 10
306.0318623744652
 20
-4.23337549110883
 10
306.2797932903381
 20
-4.481306406981758
 10
306.2797932903381
 20
-4.729237322854714
 10
306.0318623744652
 20
-4.977168238727671
 10
305.5360005427194
 20
-4.977168238727671
 10
305.2880696268464
 20
-4.729237322854714
 10
305.2880696268464
 20
-4.481306406981758
 10
305.5360005427194
 20
-4.23337549110883
 10
306.0318623744652
 20
-4.23337549110883
 10
306.2797932903381
 20
-3.985444575235874
 10
306.2797932903381
 20
-3.737513659362946
 10
306.0318623744652
 20
-3.489582743489989
 10
305.5360005427194
 20
-3.489582743489989
 10
305.2880696268464
 20
-3.737513659362946
 10
305.2880696268464
 20
-3.985444575235874
 10
305.5360005427194
 20
-4.23337549110883
  0
LWPOLYLINE
  5
1CB5
330
6F
100
AcDbEntity
  8
0
 62
     3
370
     0
100
AcDbPolyline
 90
        5
 70
     0
 43
0.0
 10
350.0148068503257
 20
-4.977168238727671
 10
350.0148068503257
 20
-3.489582743489989
 10
350.5106686820716
 20
-4.481306406981758
 10
351.0313236054048
 20
-3.489582743489989
 10
351.0313236054048
 20
-4.977168238727671
  0
LWPOLYLINE
  5
1CB6
330
6F
100
AcDbEntity
  8
0
 62
     3
370
     0
100
AcDbPolyline
 90
        3
 70
     0
 43
0.0
 10
351.5271854371507
 20
-3.737513659362946
 10
351.7751163530236
 20
-3.489582743489989
 10
351.7751163530236
 20
-4.977168238727671
  0
LWPOLYLINE
  5
1CB7
330
6F
100
AcDbEntity
  8
0
 62
     3
370
     0
100
AcDbPolyline
 90
        8
 70
     1
 43
0.0
 10
352.7668400165154
 20
-4.977168238727671
 10
352.5189091006425
 20
-4.729237322854714
 10
352.5189091006425
 20
-3.737513659362946
 10
352.7668400165154
 20
-3.489582743489989
 10
353.0147709323883
 20
-3.489582743489989
 10
353.2627018482613
 20
-3.737513659362946
 10
353.2627018482613
 20
-4.729237322854714
 10
353.0147709323883
 20
-4.977168238727671
  0
LWPOLYLINE
  5
1CB8
330
6F
100
AcDbEntity
  8
0
 62
     3
370
     0
100
AcDbPolyline
 90
        3
 70
     0
 43
0.0
 10
355.2709422668322
 20
-3.489582743489989
 10
356.2626659303239
 20
-3.489582743489989
 10
355.5188731827051
 20
-4.977168238727671
  0
LWPOLYLINE
  5
1CB9
330
6F
100
AcDbEntity
  8
0
 62
     3
370
     0
100
AcDbPolyline
 90
        9
 70
     0
 43
0.0
 10
357.279182685403
 20
-4.729237322854714
 10
357.527113601276
 20
-4.977168238727671
 10
358.0229754330218
 20
-4.977168238727671
 10
358.2709063488948
 20
-4.729237322854714
 10
358.2709063488948
 20
-4.23337549110883
 10
358.0229754330218
 20
-3.985444575235874
 10
357.279182685403
 20
-3.985444575235874
 10
357.279182685403
 20
-3.489582743489989
 10
358.2709063488948
 20
-3.489582743489989
  0
LWPOLYLINE
  5
1CBA
330
6F
100
AcDbEntity
  8
0
 62
     3
370
     0
100
AcDbPolyline
 90
        5
 70
     0
 43
0.0
 10
399.9976794903115
 20
-4.977168238727671
 10
399.9976794903115
 20
-3.489582743489989
 10
400.4935413220573
 20
-4.481306406981758
 10
401.0141962453905
 20
-3.489582743489989
 10
401.0141962453905
 20
-4.977168238727671
  0
LWPOLYLINE
  5
1CBB
330
6F
100
AcDbEntity
  8
0
 62
     3
370
     0
100
AcDbPolyline
 90
       16
 70
     0
 43
0.0
 10
402.2538508247552
 20
-4.23337549110883
 10
402.5017817406282
 20
-4.481306406981758
 10
402.5017817406282
 20
-4.729237322854714
 10
402.2538508247552
 20
-4.977168238727671
 10
401.7579889930094
 20
-4.977168238727671
 10
401.5100580771364
 20
-4.729237322854714
 10
401.5100580771364
 20
-4.481306406981758
 10
401.7579889930094
 20
-4.23337549110883
 10
402.2538508247552
 20
-4.23337549110883
 10
402.5017817406282
 20
-3.985444575235874
 10
402.5017817406282
 20
-3.737513659362946
 10
402.2538508247552
 20
-3.489582743489989
 10
401.7579889930094
 20
-3.489582743489989
 10
401.5100580771364
 20
-3.737513659362946
 10
401.5100580771364
 20
-3.985444575235874
 10
401.7579889930094
 20
-4.23337549110883
  0
LWPOLYLINE
  5
1CBC
330
6F
100
AcDbEntity
  8
0
 62
     3
370
     0
100
AcDbPolyline
 90
       10
 70
     0
 43
0.0
 10
404.510022159199
 20
-4.23337549110883
 10
405.2538149068179
 20
-4.23337549110883
 10
405.5017458226908
 20
-4.481306406981758
 10
405.5017458226908
 20
-4.729237322854714
 10
405.2538149068179
 20
-4.977168238727671
 10
404.757953075072
 20
-4.977168238727671
 10
404.510022159199
 20
-4.729237322854714
 10
404.510022159199
 20
-3.985444575235874
 10
405.0058839909449
 20
-3.489582743489989
 10
405.2538149068179
 20
-3.489582743489989
  0
LWPOLYLINE
  5
1CBD
330
6F
100
AcDbEntity
  8
0
 62
     3
370
     0
100
AcDbPolyline
 90
        9
 70
     0
 43
0.0
 10
406.4934694861825
 20
-4.729237322854714
 10
406.7414004020555
 20
-4.977168238727671
 10
407.2620553253887
 20
-4.977168238727671
 10
407.5099862412616
 20
-4.729237322854714
 10
407.5099862412616
 20
-4.23337549110883
 10
407.2620553253887
 20
-3.985444575235874
 10
406.4934694861825
 20
-3.985444575235874
 10
406.4934694861825
 20
-3.489582743489989
 10
407.5099862412616
 20
-3.489582743489989
  0
LWPOLYLINE
  5
1CBE
330
6F
100
AcDbEntity
  8
0
 62
     3
370
     0
100
AcDbPolyline
 90
        5
 70
     0
 43
0.0
 10
449.9805521302972
 20
-4.977168238727671
 10
449.9805521302972
 20
-3.489582743489989
 10
450.5012070536304
 20
-4.481306406981758
 10
450.9970688853762
 20
-3.489582743489989
 10
450.9970688853762
 20
-4.977168238727671
  0
LWPOLYLINE
  5
1CBF
330
6F
100
AcDbEntity
  8
0
 62
     3
370
     0
100
AcDbPolyline
 90
       16
 70
     0
 43
0.0
 10
452.236723464741
 20
-4.23337549110883
 10
452.4846543806139
 20
-4.481306406981758
 10
452.4846543806139
 20
-4.729237322854714
 10
452.236723464741
 20
-4.977168238727671
 10
451.7408616329951
 20
-4.977168238727671
 10
451.4929307171222
 20
-4.729237322854714
 10
451.4929307171222
 20
-4.481306406981758
 10
451.7408616329951
 20
-4.23337549110883
 10
452.236723464741
 20
-4.23337549110883
 10
452.4846543806139
 20
-3.985444575235874
 10
452.4846543806139
 20
-3.737513659362946
 10
452.236723464741
 20
-3.489582743489989
 10
451.7408616329951
 20
-3.489582743489989
 10
451.4929307171222
 20
-3.737513659362946
 10
451.4929307171222
 20
-3.985444575235874
 10
451.7408616329951
 20
-4.23337549110883
  0
LWPOLYLINE
  5
1CC0
330
6F
100
AcDbEntity
  8
0
 62
     3
370
     0
100
AcDbPolyline
 90
       10
 70
     0
 43
0.0
 10
454.4928947991848
 20
-4.23337549110883
 10
455.2366875468036
 20
-4.23337549110883
 10
455.4846184626766
 20
-4.481306406981758
 10
455.4846184626766
 20
-4.729237322854714
 10
455.2366875468036
 20
-4.977168238727671
 10
454.7408257150578
 20
-4.977168238727671
 10
454.4928947991848
 20
-4.729237322854714
 10
454.4928947991848
 20
-3.985444575235874
 10
454.9887566309307
 20
-3.489582743489989
 10
455.2366875468036
 20
-3.489582743489989
  0
LWPOLYLINE
  5
1CC1
330
6F
100
AcDbEntity
  8
0
 62
     3
370
     0
100
AcDbPolyline
 90
       10
 70
     0
 43
0.0
 10
456.4763421261684
 20
-3.737513659362946
 10
456.7490661336286
 20
-3.489582743489989
 10
457.2449279653745
 20
-3.489582743489989
 10
457.4928588812475
 20
-3.737513659362946
 10
457.4928588812475
 20
-3.985444575235874
 10
457.2449279653745
 20
-4.23337549110883
 10
456.7490661336286
 20
-4.23337549110883
 10
456.4763421261684
 20
-4.481306406981758
 10
456.4763421261684
 20
-4.977168238727671
 10
457.4928588812475
 20
-4.977168238727671
  0
LWPOLYLINE
  5
1CC2
330
6F
100
AcDbEntity
  8
0
 62
     3
370
     0
100
AcDbPolyline
 90
        5
 70
     0
 43
0.0
 10
499.963424770283
 20
-4.977168238727671
 10
499.963424770283
 20
-3.489582743489989
 10
500.4840796936162
 20
-4.481306406981758
 10
500.979941525362
 20
-3.489582743489989
 10
500.979941525362
 20
-4.977168238727671
  0
LWPOLYLINE
  5
1CC3
330
6F
100
AcDbEntity
  8
0
 62
     3
370
     0
100
AcDbPolyline
 90
       10
 70
     0
 43
0.0
 10
501.4758033571079
 20
-4.23337549110883
 10
502.2195961047267
 20
-4.23337549110883
 10
502.4675270205997
 20
-4.481306406981758
 10
502.4675270205997
 20
-4.729237322854714
 10
502.2195961047267
 20
-4.977168238727671
 10
501.7237342729808
 20
-4.977168238727671
 10
501.4758033571079
 20
-4.729237322854714
 10
501.4758033571079
 20
-3.985444575235874
 10
501.9716651888538
 20
-3.489582743489989
 10
502.2195961047267
 20
-3.489582743489989
  0
LWPOLYLINE
  5
1CC4
330
6F
100
AcDbEntity
  8
0
 62
     3
370
     0
100
AcDbPolyline
 90
        4
 70
     0
 43
0.0
 10
505.4674911026624
 20
-4.481306406981758
 10
504.4757674391705
 20
-4.481306406981758
 10
505.2195601867894
 20
-3.489582743489989
 10
505.2195601867894
 20
-4.977168238727671
  0
LWPOLYLINE
  5
1CC5
330
6F
100
AcDbEntity
  8
0
 62
     3
370
     0
100
AcDbPolyline
 90
        4
 70
     0
 43
0.0
 10
507.4757315212332
 20
-4.481306406981758
 10
506.4592147661541
 20
-4.481306406981758
 10
507.2278006053602
 20
-3.489582743489989
 10
507.2278006053602
 20
-4.977168238727671
  0
LWPOLYLINE
  5
1CC6
330
6F
100
AcDbEntity
  8
0
 62
     3
370
     0
100
AcDbPolyline
 90
        5
 70
     0
 43
0.0
 10
549.9462974102686
 20
-4.977168238727671
 10
549.9462974102686
 20
-3.489582743489989
 10
550.4669523336019
 20
-4.481306406981758
 10
550.9628141653478
 20
-3.489582743489989
 10
550.9628141653478
 20
-4.977168238727671
  0
LWPOLYLINE
  5
1CC7
330
6F
100
AcDbEntity
  8
0
 62
     3
370
     0
100
AcDbPolyline
 90
       10
 70
     0
 43
0.0
 10
551.4586759970937
 20
-4.23337549110883
 10
552.2024687447125
 20
-4.23337549110883
 10
552.4503996605854
 20
-4.481306406981758
 10
552.4503996605854
 20
-4.729237322854714
 10
552.2024687447125
 20
-4.977168238727671
 10
551.7066069129667
 20
-4.977168238727671
 10
551.4586759970937
 20
-4.729237322854714
 10
551.4586759970937
 20
-3.985444575235874
 10
551.9545378288396
 20
-3.489582743489989
 10
552.2024687447125
 20
-3.489582743489989
  0
LWPOLYLINE
  5
1CC8
330
6F
100
AcDbEntity
  8
0
 62
     3
370
     0
100
AcDbPolyline
 90
        7
 70
     0
 43
0.0
 10
554.4586400791563
 20
-3.737513659362946
 10
554.7065709950293
 20
-3.489582743489989
 10
555.2024328267751
 20
-3.489582743489989
 10
555.4503637426481
 20
-3.737513659362946
 10
555.4503637426481
 20
-3.985444575235874
 10
555.2024328267751
 20
-4.23337549110883
 10
554.9545019109022
 20
-4.23337549110883
  0
LWPOLYLINE
  5
1CC9
330
6F
100
AcDbEntity
  8
0
 62
     3
370
     0
100
AcDbPolyline
 90
        6
 70
     0
 43
0.0
 10
555.2024328267751
 20
-4.23337549110883
 10
555.4503637426481
 20
-4.481306406981758
 10
555.4503637426481
 20
-4.729237322854714
 10
555.2024328267751
 20
-4.977168238727671
 10
554.7065709950293
 20
-4.977168238727671
 10
554.4586400791563
 20
-4.729237322854714
  0
LWPOLYLINE
  5
1CCA
330
6F
100
AcDbEntity
  8
0
 62
     3
370
     0
100
AcDbPolyline
 90
        3
 70
     0
 43
0.0
 10
556.4668804977271
 20
-3.489582743489989
 10
557.458604161219
 20
-3.489582743489989
 10
556.7148114136001
 20
-4.977168238727671
  0
LWPOLYLINE
  5
1CCB
330
6F
100
AcDbEntity
  8
0
 62
     3
370
     0
100
AcDbPolyline
 90
        5
 70
     0
 43
0.0
 10
599.9291700502545
 20
-4.977168238727671
 10
599.9291700502545
 20
-3.489582743489989
 10
600.4498249735877
 20
-4.481306406981758
 10
600.9456868053336
 20
-3.489582743489989
 10
600.9456868053336
 20
-4.977168238727671
  0
LWPOLYLINE
  5
1CCC
330
6F
100
AcDbEntity
  8
0
 62
     3
370
     0
100
AcDbPolyline
 90
        9
 70
     0
 43
0.0
 10
601.4415486370794
 20
-4.729237322854714
 10
601.6894795529524
 20
-4.977168238727671
 10
602.1853413846983
 20
-4.977168238727671
 10
602.4332723005713
 20
-4.729237322854714
 10
602.4332723005713
 20
-4.23337549110883
 10
602.1853413846983
 20
-3.985444575235874
 10
601.4415486370794
 20
-3.985444575235874
 10
601.4415486370794
 20
-3.489582743489989
 10
602.4332723005713
 20
-3.489582743489989
  0
LWPOLYLINE
  5
1CCD
330
6F
100
AcDbEntity
  8
0
 62
     3
370
     0
100
AcDbPolyline
 90
        3
 70
     0
 43
0.0
 10
604.441512719142
 20
-3.737513659362946
 10
604.689443635015
 20
-3.489582743489989
 10
604.689443635015
 20
-4.977168238727671
  0
LWPOLYLINE
  5
1CCE
330
6F
100
AcDbEntity
  8
0
 62
     3
370
     0
100
AcDbPolyline
 90
       16
 70
     0
 43
0.0
 10
606.2018222218401
 20
-4.23337549110883
 10
606.4497531377129
 20
-4.481306406981758
 10
606.4497531377129
 20
-4.729237322854714
 10
606.2018222218401
 20
-4.977168238727671
 10
605.6811672985068
 20
-4.977168238727671
 10
605.4332363826338
 20
-4.729237322854714
 10
605.4332363826338
 20
-4.481306406981758
 10
605.6811672985068
 20
-4.23337549110883
 10
606.2018222218401
 20
-4.23337549110883
 10
606.4497531377129
 20
-3.985444575235874
 10
606.4497531377129
 20
-3.737513659362946
 10
606.2018222218401
 20
-3.489582743489989
 10
605.6811672985068
 20
-3.489582743489989
 10
605.4332363826338
 20
-3.737513659362946
 10
605.4332363826338
 20
-3.985444575235874
 10
605.6811672985068
 20
-4.23337549110883
  0
LWPOLYLINE
  5
1CCF
330
6F
100
AcDbEntity
  8
0
 62
     3
370
     0
100
AcDbPolyline
 90
       10
 70
     0
 43
0.0
 10
607.6894077170776
 20
-4.977168238727671
 10
607.9373386329506
 20
-4.977168238727671
 10
608.4332004646965
 20
-4.481306406981758
 10
608.4332004646965
 20
-3.737513659362946
 10
608.1852695488236
 20
-3.489582743489989
 10
607.6894077170776
 20
-3.489582743489989
 10
607.4414768012047
 20
-3.737513659362946
 10
607.4414768012047
 20
-3.985444575235874
 10
607.6894077170776
 20
-4.23337549110883
 10
608.4332004646965
 20
-4.23337549110883
  0
LWPOLYLINE
  5
1CD0
330
6F
100
AcDbEntity
  8
0
 62
     3
370
     0
100
AcDbPolyline
 90
        5
 70
     0
 43
0.0
 10
649.9368357818275
 20
-4.977168238727671
 10
649.9368357818275
 20
-3.489582743489989
 10
650.4326976135733
 20
-4.481306406981758
 10
650.9285594453193
 20
-3.489582743489989
 10
650.9285594453193
 20
-4.977168238727671
  0
LWPOLYLINE
  5
1CD1
330
6F
100
AcDbEntity
  8
0
 62
     3
370
     0
100
AcDbPolyline
 90
        4
 70
     0
 43
0.0
 10
652.416144940557
 20
-4.481306406981758
 10
651.4244212770652
 20
-4.481306406981758
 10
652.1682140246841
 20
-3.489582743489989
 10
652.1682140246841
 20
-4.977168238727671
  0
LWPOLYLINE
  5
1CD2
330
6F
100
AcDbEntity
  8
0
 62
     3
370
     0
100
AcDbPolyline
 90
       10
 70
     0
 43
0.0
 10
654.4243853591279
 20
-4.23337549110883
 10
655.1681781067467
 20
-4.23337549110883
 10
655.4161090226195
 20
-4.481306406981758
 10
655.4161090226195
 20
-4.729237322854714
 10
655.1681781067467
 20
-4.977168238727671
 10
654.6723162750009
 20
-4.977168238727671
 10
654.4243853591279
 20
-4.729237322854714
 10
654.4243853591279
 20
-3.985444575235874
 10
654.9202471908737
 20
-3.489582743489989
 10
655.1681781067467
 20
-3.489582743489989
  0
LWPOLYLINE
  5
1CD3
330
6F
100
AcDbEntity
  8
0
 62
     3
370
     0
100
AcDbPolyline
 90
        5
 70
     0
 43
0.0
 10
699.9197084218133
 20
-4.977168238727671
 10
699.9197084218133
 20
-3.489582743489989
 10
700.4155702535591
 20
-4.481306406981758
 10
700.9114320853051
 20
-3.489582743489989
 10
700.9114320853051
 20
-4.977168238727671
  0
LWPOLYLINE
  5
1CD4
330
6F
100
AcDbEntity
  8
0
 62
     3
370
     0
100
AcDbPolyline
 90
        4
 70
     0
 43
0.0
 10
702.3990175805427
 20
-4.481306406981758
 10
701.4072939170509
 20
-4.481306406981758
 10
702.1510866646698
 20
-3.489582743489989
 10
702.1510866646698
 20
-4.977168238727671
  0
LWPOLYLINE
  5
1CD5
330
6F
100
AcDbEntity
  8
0
 62
     3
370
     0
100
AcDbPolyline
 90
        4
 70
     0
 43
0.0
 10
705.3989816626053
 20
-4.481306406981758
 10
704.4072579991136
 20
-4.481306406981758
 10
705.1510507467325
 20
-3.489582743489989
 10
705.1510507467325
 20
-4.977168238727671
  0
LWPOLYLINE
  5
1CD6
330
6F
100
AcDbEntity
  8
0
 62
     3
370
     0
100
AcDbPolyline
 90
        8
 70
     1
 43
0.0
 10
706.6634293335574
 20
-4.977168238727671
 10
706.4154984176845
 20
-4.729237322854714
 10
706.4154984176845
 20
-3.737513659362946
 10
706.6634293335574
 20
-3.489582743489989
 10
706.9113602494303
 20
-3.489582743489989
 10
707.1592911653033
 20
-3.737513659362946
 10
707.1592911653033
 20
-4.729237322854714
 10
706.9113602494303
 20
-4.977168238727671
  0
LWPOLYLINE
  5
1CD7
330
6F
100
AcDbEntity
  8
0
 62
     3
370
     0
100
AcDbPolyline
 90
       16
 70
     0
 43
0.0
 10
708.398945744668
 20
-4.23337549110883
 10
708.646876660541
 20
-4.481306406981758
 10
708.646876660541
 20
-4.729237322854714
 10
708.398945744668
 20
-4.977168238727671
 10
707.9030839129221
 20
-4.977168238727671
 10
707.6551529970491
 20
-4.729237322854714
 10
707.6551529970491
 20
-4.481306406981758
 10
707.9030839129221
 20
-4.23337549110883
 10
708.398945744668
 20
-4.23337549110883
 10
708.646876660541
 20
-3.985444575235874
 10
708.646876660541
 20
-3.737513659362946
 10
708.398945744668
 20
-3.489582743489989
 10
707.9030839129221
 20
-3.489582743489989
 10
707.6551529970491
 20
-3.737513659362946
 10
707.6551529970491
 20
-3.985444575235874
 10
707.9030839129221
 20
-4.23337549110883
  0
LWPOLYLINE
  5
1CD8
330
6F
100
AcDbEntity
  8
0
 62
     3
370
     0
100
AcDbPolyline
 90
        5
 70
     0
 43
0.0
 10
749.9025810617991
 20
-4.977168238727671
 10
749.9025810617991
 20
-3.489582743489989
 10
750.3984428935449
 20
-4.481306406981758
 10
750.8943047252907
 20
-3.489582743489989
 10
750.8943047252907
 20
-4.977168238727671
  0
LWPOLYLINE
  5
1CD9
330
6F
100
AcDbEntity
  8
0
 62
     3
370
     0
100
AcDbPolyline
 90
        7
 70
     0
 43
0.0
 10
751.3901665570367
 20
-3.737513659362946
 10
751.6380974729096
 20
-3.489582743489989
 10
752.1339593046556
 20
-3.489582743489989
 10
752.3818902205285
 20
-3.737513659362946
 10
752.3818902205285
 20
-3.985444575235874
 10
752.1339593046556
 20
-4.23337549110883
 10
751.8860283887826
 20
-4.23337549110883
  0
LWPOLYLINE
  5
1CDA
330
6F
100
AcDbEntity
  8
0
 62
     3
370
     0
100
AcDbPolyline
 90
        6
 70
     0
 43
0.0
 10
752.1339593046556
 20
-4.23337549110883
 10
752.3818902205285
 20
-4.481306406981758
 10
752.3818902205285
 20
-4.729237322854714
 10
752.1339593046556
 20
-4.977168238727671
 10
751.6380974729096
 20
-4.977168238727671
 10
751.3901665570367
 20
-4.729237322854714
  0
LWPOLYLINE
  5
1CDB
330
6F
100
AcDbEntity
  8
0
 62
     3
370
     0
100
AcDbPolyline
 90
       10
 70
     0
 43
0.0
 10
754.3901306390994
 20
-3.737513659362946
 10
754.6380615549723
 20
-3.489582743489989
 10
755.1339233867182
 20
-3.489582743489989
 10
755.3818543025911
 20
-3.737513659362946
 10
755.3818543025911
 20
-3.985444575235874
 10
755.1339233867182
 20
-4.23337549110883
 10
754.6380615549723
 20
-4.23337549110883
 10
754.3901306390994
 20
-4.481306406981758
 10
754.3901306390994
 20
-4.977168238727671
 10
755.3818543025911
 20
-4.977168238727671
  0
LWPOLYLINE
  5
1CDC
330
6F
100
AcDbEntity
  8
0
 62
     3
370
     0
100
AcDbPolyline
 90
       10
 70
     0
 43
0.0
 10
756.6463019735431
 20
-4.977168238727671
 10
756.8942328894161
 20
-4.977168238727671
 10
757.3900947211619
 20
-4.481306406981758
 10
757.3900947211619
 20
-3.737513659362946
 10
757.1421638052891
 20
-3.489582743489989
 10
756.6463019735431
 20
-3.489582743489989
 10
756.3983710576702
 20
-3.737513659362946
 10
756.3983710576702
 20
-3.985444575235874
 10
756.6463019735431
 20
-4.23337549110883
 10
757.3900947211619
 20
-4.23337549110883
  0
ENDSEC
  0
SECTION
  2
OBJECTS
  0
DICTIONARY
  5
C
330
0
100
AcDbDictionary
281
     1
  3
ACAD_ASSOCPERSSUBENTMANAGER
350
5F2
  3
ACAD_CIP_PREVIOUS_PRODUCT_INFO
350
5F0
  3
ACAD_COLOR
350
62
  3
ACAD_DETAILVIEWSTYLE
350
69
  3
ACAD_GROUP
350
D
  3
ACAD_LAST_SAVED_VERSION_INFO
350
1CDD
  3
ACAD_LAYOUT
350
61
  3
ACAD_MATERIAL
350
10
  3
ACAD_MLEADERSTYLE
350
65
  3
ACAD_MLINESTYLE
350
5E
  3
ACAD_PLOTSETTINGS
350
60
  3
ACAD_PLOTSTYLENAME
350
E
  3
ACAD_SCALELIST
350
42
  3
ACAD_SECTIONVIEWSTYLE
350
67
  3
ACAD_TABLESTYLE
350
63
  3
ACAD_VISUALSTYLE
350
29
  3
ACDB_RECOMPOSE_DATA
350
1CFA
  3
AcDbVariableDictionary
350
1CE2
  0
DICTIONARY
  5
1CF2
330
2
100
AcDbDictionary
280
     1
281
     1
  3
ACAD_LAYERSTATES
360
1CF3
  0
DICTIONARY
  5
1CDE
330
54
100
AcDbDictionary
280
     1
281
     1
  3
ADSK_XREC_LAYER_RECONCILED
360
1CDF
  0
DICTIONARY
  5
1CE0
330
73
100
AcDbDictionary
280
     1
281
     1
  3
ADSK_XREC_LAYER_RECONCILED
360
1CE1
  0
DICTIONARY
  5
DB8
330
6F
100
AcDbDictionary
280
     1
281
     1
  3
ACAD_SORTENTS
360
DB9
  0
ACDBASSOCPERSSUBENTMANAGER
  5
5F2
102
{ACAD_REACTORS
330
C
102
}
330
C
100
AcDbAssocPersSubentManager
 90
        2
 90
        3
 90
        0
 90
        2
 90
        0
 90
        0
 90
        0
 90
        0
 90
        0
290
     0
  0
XRECORD
  5
5F0
102
{ACAD_REACTORS
330
C
102
}
330
C
100
AcDbXrecord
280
     1
300
ACD
300
2026
300

  0
DICTIONARY
  5
62
102
{ACAD_REACTORS
330
C
102
}
330
C
100
AcDbDictionary
281
     1
  0
DICTIONARY
  5
69
102
{ACAD_REACTORS
330
C
102
}
330
C
100
AcDbDictionary
281
     1
  3
Imperial24
350
6A
  0
DICTIONARY
  5
D
102
{ACAD_REACTORS
330
C
102
}
330
C
100
AcDbDictionary
281
     1
  0
XRECORD
  5
1CDD
102
{ACAD_REACTORS
330
C
102
}
330
C
100
AcDbXrecord
280
     1
300
{382C78F8-54C7-534E-88FB-F8F6F36188FA}
301
{04B0E52F-EF01-2D45-89CA-83116713B542}
302
{382C78F8-54C7-534E-88FB-F8F6F36188FA}
303
C:\Users\rpayt\Desktop\TEMP\AISC_M_2D_v1_9_5.dxf
  0
DICTIONARY
  5
61
102
{ACAD_REACTORS
330
C
102
}
330
C
100
AcDbDictionary
281
     1
  3
Layout1
350
6E
  3
Model
350
72
  0
DICTIONARY
  5
10
102
{ACAD_REACTORS
330
C
102
}
330
C
100
AcDbDictionary
281
     1
  3
ByBlock
350
19
  3
ByLayer
350
11
  3
Global
350
21
  0
DICTIONARY
  5
65
102
{ACAD_REACTORS
330
C
102
}
330
C
100
AcDbDictionary
281
     1
  3
Standard
350
66
  0
DICTIONARY
  5
5E
102
{ACAD_REACTORS
330
C
102
}
330
C
100
AcDbDictionary
281
     1
  3
Standard
350
5F
  0
DICTIONARY
  5
60
102
{ACAD_REACTORS
330
C
102
}
330
C
100
AcDbDictionary
281
     1
  0
ACDBDICTIONARYWDFLT
  5
E
102
{ACAD_REACTORS
330
C
102
}
330
C
100
AcDbDictionary
281
     1
  3
Normal
350
F
100
AcDbDictionaryWithDefault
340
F
  0
DICTIONARY
  5
42
102
{ACAD_REACTORS
330
C
102
}
330
C
100
AcDbDictionary
281
     1
  3
A0
350
43
  3
A1
350
44
  3
A2
350
45
  3
A3
350
46
  3
A4
350
47
  3
A5
350
48
  3
A6
350
49
  3
A7
350
4A
  3
A8
350
4B
  3
A9
350
4C
  3
B0
350
4D
  3
B1
350
4E
  3
B2
350
4F
  3
B3
350
50
  3
B4
350
51
  3
B5
350
52
  3
B6
350
53
  0
DICTIONARY
  5
67
102
{ACAD_REACTORS
330
C
102
}
330
C
100
AcDbDictionary
281
     1
  3
Imperial24
350
68
  0
DICTIONARY
  5
63
102
{ACAD_REACTORS
330
C
102
}
330
C
100
AcDbDictionary
281
     1
  3
Standard
350
64
  0
DICTIONARY
  5
29
102
{ACAD_REACTORS
330
C
102
}
330
C
100
AcDbDictionary
281
     1
  3
2dWireframe
350
2F
  3
Basic
350
2E
  3
Brighten
350
35
  3
ColorChange
350
39
  3
Conceptual
350
32
  3
Dim
350
34
  3
EdgeColorOff
350
41
  3
Facepattern
350
38
  3
Flat
350
2A
  3
FlatWithEdges
350
2B
  3
Gouraud
350
2C
  3
GouraudWithEdges
350
2D
  3
Hidden
350
31
  3
JitterOff
350
3F
  3
Linepattern
350
37
  3
OverhangOff
350
40
  3
Realistic
350
33
  3
Shaded
350
3E
  3
Shaded with edges
350
3D
  3
Shades of Gray
350
3A
  3
Sketchy
350
3B
  3
Thicken
350
36
  3
Wireframe
350
30
  3
X-Ray
350
3C
  0
XRECORD
  5
1CFA
102
{ACAD_REACTORS
330
C
102
}
330
C
100
AcDbXrecord
280
     1
 90
        1
330
64
  0
DICTIONARY
  5
1CE2
102
{ACAD_REACTORS
330
C
102
}
330
C
100
AcDbDictionary
281
     1
  3
CANNOSCALE
350
1CE8
  3
CMLEADERSTYLE
350
1CE4
  3
CTABLESTYLE
350
1CE3
  3
CVIEWDETAILSTYLE
350
1CE5
  3
CVIEWSECTIONSTYLE
350
1CE6
  3
LAYEREVAL
350
1CEA
  3
LAYERNOTIFY
350
1CEB
  3
LIGHTINGUNITS
350
1CE9
  3
MSLTSCALE
350
1CE7
  0
DICTIONARY
  5
1CF3
102
{ACAD_REACTORS
330
1CF2
102
}
330
1CF2
100
AcDbDictionary
281
     1
  0
XRECORD
  5
1CDF
102
{ACAD_REACTORS
330
1CDE
102
}
330
1CDE
100
AcDbXrecord
280
     1
290
     1
  0
XRECORD
  5
1CE1
102
{ACAD_REACTORS
330
1CE0
102
}
330
1CE0
100
AcDbXrecord
280
     1
290
     1
  0
SORTENTSTABLE
  5
DB9
102
{ACAD_REACTORS
330
DB8
102
}
330
DB8
100
AcDbSortentsTable
330
6F
  0
ACDBDETAILVIEWSTYLE
  5
6A
102
{ACAD_REACTORS
330
69
102
}
330
69
100
AcDbModelDocViewStyle
 70
     0
  3
Imperial24
290
     0
300
Imperial24
 90
        0
100
AcDbDetailViewStyle
 70
     0
 71
     0
 90
        3
 71
     1
340
55
 62
   256
 40
0.24
340
0
 62
   256
 40
0.24
300

 40
0.36
280
     3
 71
     2
340
5C
 90
       25
 62
   256
 71
     3
340
55
 62
   256
 40
0.24
 90
        1
 40
0.75
 90
        1
300
%<\AcVar ViewType \f "%tc1">% %<\AcVar ViewDetailId>%\PSCALE %<\AcVar ViewScale \f "%sn">%
 71
     4
340
5C
 90
       25
 62
   256
340
5C
 90
       25
 62
   256
280
     0
  0
LAYOUT
  5
6E
102
{ACAD_REACTORS
330
61
102
}
330
61
100
AcDbPlotSettings
  1

  2
HP52C8C1.attlocal.net (HP OfficeJet Pro 7740 series)
  4

  6

 40
0.0
 41
0.0
 42
0.0
 43
0.0
 44
0.0
 45
0.0
 46
0.0
 47
0.0
 48
0.0
 49
0.0
140
0.0
141
0.0
142
1.0
143
1.0
 70
   688
 72
     0
 73
     0
 74
     5
  7

 75
    16
147
1.0
 76
     0
 77
     2
 78
   300
148
0.0
149
0.0
100
AcDbLayout
  1
Layout1
 70
     1
 71
     1
 10
0.0
 20
0.0
 11
12.0
 21
9.0
 12
0.0
 22
0.0
 32
0.0
 14
1.000000000000000E+20
 24
1.000000000000000E+20
 34
1.000000000000000E+20
 15
-1.000000000000000E+20
 25
-1.000000000000000E+20
 35
-1.000000000000000E+20
146
0.0
 13
0.0
 23
0.0
 33
0.0
 16
1.0
 26
0.0
 36
0.0
 17
0.0
 27
1.0
 37
0.0
 76
     0
330
6B
  0
LAYOUT
  5
72
102
{ACAD_REACTORS
330
61
102
}
330
61
100
AcDbPlotSettings
  1

  2
HP52C8C1.attlocal.net (HP OfficeJet Pro 7740 series)
  4

  6

 40
0.0
 41
0.0
 42
0.0
 43
0.0
 44
0.0
 45
0.0
 46
0.0
 47
0.0
 48
0.0
 49
0.0
140
0.0
141
0.0
142
1.0
143
1.0
 70
  1712
 72
     0
 73
     0
 74
     0
  7

 75
     0
147
1.0
 76
     0
 77
     2
 78
   300
148
0.0
149
0.0
100
AcDbLayout
  1
Model
 70
     1
 71
     0
 10
0.0
 20
0.0
 11
12.0
 21
9.0
 12
0.0
 22
0.0
 32
0.0
 14
0.0
 24
0.0
 34
0.0
 15
0.0
 25
0.0
 35
0.0
146
0.0
 13
0.0
 23
0.0
 33
0.0
 16
1.0
 26
0.0
 36
0.0
 17
0.0
 27
1.0
 37
0.0
 76
     0
330
6F
331
76
  0
MATERIAL
  5
19
102
{ACAD_XDICTIONARY
360
1A
102
}
102
{ACAD_REACTORS
330
10
102
}
330
10
100
AcDbMaterial
  1
ByBlock
 72
     0
 43
0.0208333333333333
 43
0.0
 43
0.0
 43
0.0
 43
0.0
 43
0.0208333333333333
 43
0.0
 43
0.0
 43
0.0
 43
0.0
 43
1.0
 43
0.0
 43
0.0
 43
0.0
 43
0.0
 43
1.0
 77
     0
 47
0.0208333333333333
 47
0.0
 47
0.0
 47
0.0
 47
0.0
 47
0.0208333333333333
 47
0.0
 47
0.0
 47
0.0
 47
0.0
 47
1.0
 47
0.0
 47
0.0
 47
0.0
 47
0.0
 47
1.0
171
     0
 49
0.0208333333333333
 49
0.0
 49
0.0
 49
0.0
 49
0.0
 49
0.0208333333333333
 49
0.0
 49
0.0
 49
0.0
 49
0.0
 49
1.0
 49
0.0
 49
0.0
 49
0.0
 49
0.0
 49
1.0
175
     0
142
0.0208333333333333
142
0.0
142
0.0
142
0.0
142
0.0
142
0.0208333333333333
142
0.0
142
0.0
142
0.0
142
0.0
142
1.0
142
0.0
142
0.0
142
0.0
142
0.0
142
1.0
179
     0
144
0.0208333333333333
144
0.0
144
0.0
144
0.0
144
0.0
144
0.0208333333333333
144
0.0
144
0.0
144
0.0
144
0.0
144
1.0
144
0.0
144
0.0
144
0.0
144
0.0
144
1.0
147
0.0208333333333333
147
0.0
147
0.0
147
0.0
147
0.0
147
0.0208333333333333
147
0.0
147
0.0
147
0.0
147
0.0
147
1.0
147
0.0
147
0.0
147
0.0
147
0.0
147
1.0
  0
MATERIAL
  5
11
102
{ACAD_XDICTIONARY
360
12
102
}
102
{ACAD_REACTORS
330
10
102
}
330
10
100
AcDbMaterial
  1
ByLayer
 72
     0
 43
0.0208333333333333
 43
0.0
 43
0.0
 43
0.0
 43
0.0
 43
0.0208333333333333
 43
0.0
 43
0.0
 43
0.0
 43
0.0
 43
1.0
 43
0.0
 43
0.0
 43
0.0
 43
0.0
 43
1.0
 77
     0
 47
0.0208333333333333
 47
0.0
 47
0.0
 47
0.0
 47
0.0
 47
0.0208333333333333
 47
0.0
 47
0.0
 47
0.0
 47
0.0
 47
1.0
 47
0.0
 47
0.0
 47
0.0
 47
0.0
 47
1.0
171
     0
 49
0.0208333333333333
 49
0.0
 49
0.0
 49
0.0
 49
0.0
 49
0.0208333333333333
 49
0.0
 49
0.0
 49
0.0
 49
0.0
 49
1.0
 49
0.0
 49
0.0
 49
0.0
 49
0.0
 49
1.0
175
     0
142
0.0208333333333333
142
0.0
142
0.0
142
0.0
142
0.0
142
0.0208333333333333
142
0.0
142
0.0
142
0.0
142
0.0
142
1.0
142
0.0
142
0.0
142
0.0
142
0.0
142
1.0
179
     0
144
0.0208333333333333
144
0.0
144
0.0
144
0.0
144
0.0
144
0.0208333333333333
144
0.0
144
0.0
144
0.0
144
0.0
144
1.0
144
0.0
144
0.0
144
0.0
144
0.0
144
1.0
147
0.0208333333333333
147
0.0
147
0.0
147
0.0
147
0.0
147
0.0208333333333333
147
0.0
147
0.0
147
0.0
147
0.0
147
1.0
147
0.0
147
0.0
147
0.0
147
0.0
147
1.0
  0
MATERIAL
  5
21
102
{ACAD_XDICTIONARY
360
22
102
}
102
{ACAD_REACTORS
330
10
102
}
330
10
100
AcDbMaterial
  1
Global
 72
     0
 43
0.0208333333333333
 43
0.0
 43
0.0
 43
0.0
 43
0.0
 43
0.0208333333333333
 43
0.0
 43
0.0
 43
0.0
 43
0.0
 43
1.0
 43
0.0
 43
0.0
 43
0.0
 43
0.0
 43
1.0
 77
     0
 47
0.0208333333333333
 47
0.0
 47
0.0
 47
0.0
 47
0.0
 47
0.0208333333333333
 47
0.0
 47
0.0
 47
0.0
 47
0.0
 47
1.0
 47
0.0
 47
0.0
 47
0.0
 47
0.0
 47
1.0
171
     0
 49
0.0208333333333333
 49
0.0
 49
0.0
 49
0.0
 49
0.0
 49
0.0208333333333333
 49
0.0
 49
0.0
 49
0.0
 49
0.0
 49
1.0
 49
0.0
 49
0.0
 49
0.0
 49
0.0
 49
1.0
175
     0
142
0.0208333333333333
142
0.0
142
0.0
142
0.0
142
0.0
142
0.0208333333333333
142
0.0
142
0.0
142
0.0
142
0.0
142
1.0
142
0.0
142
0.0
142
0.0
142
0.0
142
1.0
179
     0
144
0.0208333333333333
144
0.0
144
0.0
144
0.0
144
0.0
144
0.0208333333333333
144
0.0
144
0.0
144
0.0
144
0.0
144
1.0
144
0.0
144
0.0
144
0.0
144
0.0
144
1.0
147
0.0208333333333333
147
0.0
147
0.0
147
0.0
147
0.0
147
0.0208333333333333
147
0.0
147
0.0
147
0.0
147
0.0
147
1.0
147
0.0
147
0.0
147
0.0
147
0.0
147
1.0
  0
MLEADERSTYLE
  5
66
102
{ACAD_REACTORS
330
65
102
}
330
65
100
AcDbMLeaderStyle
179
     2
170
     2
171
     1
172
     0
 90
        2
 40
0.0
 41
0.0
173
     1
 91
-1056964608
340
5A
 92
       -2
290
     1
 42
0.09
291
     1
 43
0.36
  3
Standard
 44
0.18
300

342
55
174
     1
178
     6
175
     1
176
     0
 93
-1056964608
 45
0.18
292
     0
297
     0
 46
0.18
 94
-1056964608
 47
1.0
 49
1.0
140
1.0
293
     1
141
0.0
294
     1
177
     0
142
1.0
295
     0
296
     0
143
0.125
271
     0
272
     9
273
     9
298
     0
  0
MLINESTYLE
  5
5F
102
{ACAD_REACTORS
330
5E
102
}
330
5E
100
AcDbMlineStyle
  2
STANDARD
 70
     0
  3

 62
   256
 51
90.0
 52
90.0
 71
     2
 49
0.5
 62
   256
  6
BYLAYER
 49
-0.5
 62
   256
  6
BYLAYER
  0
ACDBPLACEHOLDER
  5
F
102
{ACAD_REACTORS
330
E
102
}
330
E
  0
SCALE
  5
43
102
{ACAD_REACTORS
330
42
102
}
330
42
100
AcDbScale
 70
     0
300
1:1
140
1.0
141
1.0
290
     1
  0
SCALE
  5
44
102
{ACAD_REACTORS
330
42
102
}
330
42
100
AcDbScale
 70
     0
300
1/128" = 1'-0"
140
0.0078125
141
12.0
290
     0
  0
SCALE
  5
45
102
{ACAD_REACTORS
330
42
102
}
330
42
100
AcDbScale
 70
     0
300
1/64" = 1'-0"
140
0.015625
141
12.0
290
     0
  0
SCALE
  5
46
102
{ACAD_REACTORS
330
42
102
}
330
42
100
AcDbScale
 70
     0
300
1/32" = 1'-0"
140
0.03125
141
12.0
290
     0
  0
SCALE
  5
47
102
{ACAD_REACTORS
330
42
102
}
330
42
100
AcDbScale
 70
     0
300
1/16" = 1'-0"
140
0.0625
141
12.0
290
     0
  0
SCALE
  5
48
102
{ACAD_REACTORS
330
42
102
}
330
42
100
AcDbScale
 70
     0
300
3/32" = 1'-0"
140
0.09375
141
12.0
290
     0
  0
SCALE
  5
49
102
{ACAD_REACTORS
330
42
102
}
330
42
100
AcDbScale
 70
     0
300
1/8" = 1'-0"
140
0.125
141
12.0
290
     0
  0
SCALE
  5
4A
102
{ACAD_REACTORS
330
42
102
}
330
42
100
AcDbScale
 70
     0
300
3/16" = 1'-0"
140
0.1875
141
12.0
290
     0
  0
SCALE
  5
4B
102
{ACAD_REACTORS
330
42
102
}
330
42
100
AcDbScale
 70
     0
300
1/4" = 1'-0"
140
0.25
141
12.0
290
     0
  0
SCALE
  5
4C
102
{ACAD_REACTORS
330
42
102
}
330
42
100
AcDbScale
 70
     0
300
3/8" = 1'-0"
140
0.375
141
12.0
290
     0
  0
SCALE
  5
4D
102
{ACAD_REACTORS
330
42
102
}
330
42
100
AcDbScale
 70
     0
300
1/2" = 1'-0"
140
0.5
141
12.0
290
     0
  0
SCALE
  5
4E
102
{ACAD_REACTORS
330
42
102
}
330
42
100
AcDbScale
 70
     0
300
3/4" = 1'-0"
140
0.75
141
12.0
290
     0
  0
SCALE
  5
4F
102
{ACAD_REACTORS
330
42
102
}
330
42
100
AcDbScale
 70
     0
300
1" = 1'-0"
140
1.0
141
12.0
290
     0
  0
SCALE
  5
50
102
{ACAD_REACTORS
330
42
102
}
330
42
100
AcDbScale
 70
     0
300
1-1/2" = 1'-0"
140
1.5
141
12.0
290
     0
  0
SCALE
  5
51
102
{ACAD_REACTORS
330
42
102
}
330
42
100
AcDbScale
 70
     0
300
3" = 1'-0"
140
3.0
141
12.0
290
     0
  0
SCALE
  5
52
102
{ACAD_REACTORS
330
42
102
}
330
42
100
AcDbScale
 70
     0
300
6" = 1'-0"
140
6.0
141
12.0
290
     0
  0
SCALE
  5
53
102
{ACAD_REACTORS
330
42
102
}
330
42
100
AcDbScale
 70
     0
300
1'-0" = 1'-0"
140
12.0
141
12.0
290
     0
  0
ACDBSECTIONVIEWSTYLE
  5
68
102
{ACAD_REACTORS
330
67
102
}
330
67
100
AcDbModelDocViewStyle
 70
     0
  3
Imperial24
290
     0
300
Imperial24
 90
        0
100
AcDbSectionViewStyle
 70
     0
 71
     0
 90
       78
 71
     1
340
55
 62
   256
 40
0.24
340
0
340
0
 62
   256
 40
0.24
300
I, O, Q, S, X, Z
 40
0.48
 90
        3
 40
0.18
 90
        1
 71
     2
340
5C
 90
       25
 62
   256
340
5C
 90
       50
 62
   256
 40
0.24
 40
0.0
 40
0.24
 71
     3
340
55
 62
   256
 40
0.24
 90
        1
 40
0.75
 90
        1
300
%<\AcVar ViewType \f "%tc1">% %<\AcVar ViewSectionStartId>%-%<\AcVar ViewSectionEndId>%\PSCALE %<\AcVar ViewScale \f "%sn">%
 71
     4
 62
   256
 62
   257
300
ANSI31
 40
1.0
 90
        0
290
     0
290
     0
 90
        6
 40
0.0
 40
1.570796326794896
 40
0.2617993877991494
 40
1.308996938995747
 40
-0.2617993877991494
 40
1.832595714594046
  0
TABLESTYLE
  5
64
102
{ACAD_XDICTIONARY
360
1CF8
102
}
102
{ACAD_REACTORS
330
63
102
}
330
63
100
AcDbTableStyle
280
     0
  3
Standard
 70
     0
 71
     0
 40
0.06
 41
0.06
280
     0
281
     0
  7
Standard
140
0.18
170
     2
 62
     0
 63
     7
283
     0
 90
      512
 91
        0
  1

274
    -2
284
     1
 64
     0
275
    -2
285
     1
 65
     0
276
    -2
286
     1
 66
     0
277
    -2
287
     1
 67
     0
278
    -2
288
     1
 68
     0
279
    -2
289
     1
 69
     0
  7
Standard
140
0.25
170
     5
 62
     0
 63
     7
283
     0
 90
      512
 91
        0
  1

274
    -2
284
     1
 64
     0
275
    -2
285
     1
 65
     0
276
    -2
286
     1
 66
     0
277
    -2
287
     1
 67
     0
278
    -2
288
     1
 68
     0
279
    -2
289
     1
 69
     0
  7
Standard
140
0.18
170
     5
 62
     0
 63
     7
283
     0
 90
      512
 91
        0
  1

274
    -2
284
     1
 64
     0
275
    -2
285
     1
 65
     0
276
    -2
286
     1
 66
     0
277
    -2
287
     1
 67
     0
278
    -2
288
     1
 68
     0
279
    -2
289
     1
 69
     0
  0
VISUALSTYLE
  5
2F
102
{ACAD_REACTORS
330
29
102
}
330
29
100
AcDbVisualStyle
  2
2dWireframe
 70
     4
177
     3
291
     0
 70
    58
 90
        0
176
     1
 90
        2
176
     1
 90
        0
176
     1
 90
        0
176
     1
 40
0.6
176
     1
 40
30.0
176
     1
 62
     7
420
 16777215
176
     1
 90
        1
176
     1
 90
        4
176
     1
 62
     7
176
     1
 62
   257
176
     1
 90
        1
176
     1
 90
        1
176
     1
 40
1.0
176
     1
 90
        0
176
     1
 62
   257
176
     1
 40
1.0
176
     1
 90
        1
176
     1
 90
        6
176
     1
 90
        2
176
     1
 62
     7
176
     1
 90
        5
176
     1
 90
        0
176
     1
 90
        0
176
     1
290
     0
176
     1
 90
        1
176
     1
 40
0.0
176
     1
 90
        0
176
     1
290
     1
176
     1
290
     1
176
     1
290
     0
176
     1
290
     0
176
     1
290
     0
176
     1
290
     0
176
     1
290
     0
176
     1
290
     0
176
     1
290
     0
176
     1
 90
       50
176
     1
 40
0.0
176
     1
 40
1.0
176
     1
 90
        0
176
     1
 62
    18
420
        0
176
     1
 90
       50
176
     1
 90
        3
176
     1
 62
     5
420
      255
176
     1
290
     0
176
     1
 90
       50
176
     1
 90
       50
176
     1
 90
       50
176
     1
290
     0
176
     1
 90
       50
176
     1
 62
   256
176
     0
 40
1.0
176
     0
 90
        2
176
     1
  1
strokes_ogs.tif
176
     1
290
     0
176
     1
 40
1.0
176
     1
 40
1.0
176
     1
  0
VISUALSTYLE
  5
2E
102
{ACAD_REACTORS
330
29
102
}
330
29
100
AcDbVisualStyle
  2
Basic
 70
     7
177
     3
291
     1
 70
    58
 90
        1
176
     1
 90
        0
176
     1
 90
        1
176
     1
 90
        0
176
     1
 40
0.6
176
     1
 40
30.0
176
     1
 62
     7
420
 16777215
176
     1
 90
        0
176
     1
 90
        4
176
     1
 62
     7
176
     1
 62
   257
176
     1
 90
        1
176
     1
 90
        1
176
     1
 40
1.0
176
     1
 90
        8
176
     1
 62
     7
176
     1
 40
1.0
176
     1
 90
        1
176
     1
 90
        6
176
     1
 90
        2
176
     1
 62
     7
176
     1
 90
        5
176
     1
 90
        0
176
     1
 90
        0
176
     1
290
     0
176
     1
 90
        1
176
     1
 40
0.0
176
     1
 90
        0
176
     1
290
     0
176
     1
290
     1
176
     1
290
     1
176
     1
290
     0
176
     1
290
     0
176
     1
290
     0
176
     1
290
     0
176
     1
290
     0
176
     1
290
     0
176
     1
 90
       50
176
     1
 40
0.0
176
     1
 40
1.0
176
     1
 90
        0
176
     1
 62
    18
420
        0
176
     1
 90
       50
176
     1
 90
        3
176
     1
 62
     5
420
      255
176
     1
290
     0
176
     1
 90
       50
176
     1
 90
       50
176
     1
 90
       50
176
     1
290
     0
176
     1
 90
       50
176
     1
 62
   256
176
     0
 40
1.0
176
     0
 90
        2
176
     1
  1
strokes_ogs.tif
176
     1
290
     0
176
     1
 40
1.0
176
     1
 40
1.0
176
     1
  0
VISUALSTYLE
  5
35
102
{ACAD_REACTORS
330
29
102
}
330
29
100
AcDbVisualStyle
  2
Brighten
 70
    12
177
     3
291
     1
 70
    58
 90
        2
176
     1
 90
        2
176
     1
 90
        0
176
     1
 90
        0
176
     1
 40
0.6
176
     1
 40
30.0
176
     1
 62
     7
420
 16777215
176
     1
 90
        1
176
     1
 90
        4
176
     1
 62
     7
176
     1
 62
   257
176
     1
 90
        1
176
     1
 90
        1
176
     1
 40
1.0
176
     1
 90
        8
176
     1
 62
     7
176
     1
 40
1.0
176
     1
 90
        1
176
     1
 90
        6
176
     1
 90
        2
176
     1
 62
     7
176
     1
 90
        5
176
     1
 90
        0
176
     1
 90
        0
176
     1
290
     0
176
     1
 90
        1
176
     1
 40
50.0
176
     1
 90
        0
176
     1
290
     0
176
     1
290
     1
176
     1
290
     1
176
     1
290
     0
176
     1
290
     0
176
     1
290
     0
176
     1
290
     0
176
     1
290
     0
176
     1
290
     0
176
     1
 90
       50
176
     1
 40
0.0
176
     1
 40
1.0
176
     1
 90
        0
176
     1
 62
    18
420
        0
176
     1
 90
       50
176
     1
 90
        3
176
     1
 62
     5
420
      255
176
     1
290
     0
176
     1
 90
       50
176
     1
 90
       50
176
     1
 90
       50
176
     1
290
     0
176
     1
 90
       50
176
     1
 62
   256
176
     0
 40
1.0
176
     0
 90
        2
176
     1
  1
strokes_ogs.tif
176
     1
290
     0
176
     1
 40
1.0
176
     1
 40
1.0
176
     1
  0
VISUALSTYLE
  5
39
102
{ACAD_REACTORS
330
29
102
}
330
29
100
AcDbVisualStyle
  2
ColorChange
 70
    16
177
     3
291
     1
 70
    58
 90
        2
176
     1
 90
        2
176
     1
 90
        3
176
     1
 90
        0
176
     1
 40
0.6
176
     1
 40
30.0
176
     1
 62
     8
420
  8421504
176
     1
 90
        1
176
     1
 90
        4
176
     1
 62
     7
176
     1
 62
   257
176
     1
 90
        1
176
     1
 90
        1
176
     1
 40
1.0
176
     1
 90
        8
176
     1
 62
     8
420
  8421504
176
     1
 40
1.0
176
     1
 90
        1
176
     1
 90
        6
176
     1
 90
        2
176
     1
 62
     7
176
     1
 90
        5
176
     1
 90
        0
176
     1
 90
        0
176
     1
290
     0
176
     1
 90
        1
176
     1
 40
0.0
176
     1
 90
        0
176
     1
290
     0
176
     1
290
     1
176
     1
290
     1
176
     1
290
     0
176
     1
290
     0
176
     1
290
     0
176
     1
290
     0
176
     1
290
     0
176
     1
290
     0
176
     1
 90
       50
176
     1
 40
0.0
176
     1
 40
1.0
176
     1
 90
        0
176
     1
 62
    18
420
        0
176
     1
 90
       50
176
     1
 90
        3
176
     1
 62
     5
420
      255
176
     1
290
     0
176
     1
 90
       50
176
     1
 90
       50
176
     1
 90
       50
176
     1
290
     0
176
     1
 90
       50
176
     1
 62
   256
176
     0
 40
1.0
176
     0
 90
        2
176
     1
  1
strokes_ogs.tif
176
     1
290
     0
176
     1
 40
1.0
176
     1
 40
1.0
176
     1
  0
VISUALSTYLE
  5
32
102
{ACAD_REACTORS
330
29
102
}
330
29
100
AcDbVisualStyle
  2
Conceptual
 70
     9
177
     3
291
     0
 70
    58
 90
        3
176
     1
 90
        2
176
     1
 90
        0
176
     1
 90
        0
176
     1
 40
0.6
176
     1
 40
30.0
176
     1
 62
     7
420
 16777215
176
     1
 90
        2
176
     1
 90
        2
176
     1
 62
     7
176
     1
 62
   257
176
     1
 90
        1
176
     1
 90
        1
176
     1
 40
179.0
176
     1
 90
        8
176
     1
 62
     7
176
     1
 40
1.0
176
     1
 90
        1
176
     1
 90
        6
176
     1
 90
        2
176
     1
 62
     7
176
     1
 90
        3
176
     1
 90
        0
176
     1
 90
        0
176
     1
290
     0
176
     1
 90
        1
176
     1
 40
0.0
176
     1
 90
        0
176
     1
290
     0
176
     1
290
     1
176
     1
290
     1
176
     1
290
     0
176
     1
290
     0
176
     1
290
     0
176
     1
290
     0
176
     1
290
     0
176
     1
290
     0
176
     1
 90
       50
176
     1
 40
0.0
176
     1
 40
1.0
176
     1
 90
        0
176
     1
 62
    18
420
        0
176
     1
 90
       50
176
     1
 90
        3
176
     1
 62
     5
420
      255
176
     1
290
     0
176
     1
 90
       50
176
     1
 90
       50
176
     1
 90
       50
176
     1
290
     0
176
     1
 90
       50
176
     1
 62
   256
176
     0
 40
1.0
176
     0
 90
        2
176
     1
  1
strokes_ogs.tif
176
     1
290
     0
176
     1
 40
1.0
176
     1
 40
1.0
176
     1
  0
VISUALSTYLE
  5
34
102
{ACAD_REACTORS
330
29
102
}
330
29
100
AcDbVisualStyle
  2
Dim
 70
    11
177
     3
291
     1
 70
    58
 90
        2
176
     1
 90
        2
176
     1
 90
        0
176
     1
 90
        0
176
     1
 40
0.6
176
     1
 40
30.0
176
     1
 62
     7
420
 16777215
176
     1
 90
        1
176
     1
 90
        4
176
     1
 62
     7
176
     1
 62
   257
176
     1
 90
        1
176
     1
 90
        1
176
     1
 40
1.0
176
     1
 90
        8
176
     1
 62
     7
176
     1
 40
1.0
176
     1
 90
        1
176
     1
 90
        6
176
     1
 90
        2
176
     1
 62
     7
176
     1
 90
        5
176
     1
 90
        0
176
     1
 90
        0
176
     1
290
     0
176
     1
 90
        1
176
     1
 40
-50.0
176
     1
 90
        0
176
     1
290
     0
176
     1
290
     1
176
     1
290
     1
176
     1
290
     0
176
     1
290
     0
176
     1
290
     0
176
     1
290
     0
176
     1
290
     0
176
     1
290
     0
176
     1
 90
       50
176
     1
 40
0.0
176
     1
 40
1.0
176
     1
 90
        0
176
     1
 62
    18
420
        0
176
     1
 90
       50
176
     1
 90
        3
176
     1
 62
     5
420
      255
176
     1
290
     0
176
     1
 90
       50
176
     1
 90
       50
176
     1
 90
       50
176
     1
290
     0
176
     1
 90
       50
176
     1
 62
   256
176
     0
 40
1.0
176
     0
 90
        2
176
     1
  1
strokes_ogs.tif
176
     1
290
     0
176
     1
 40
1.0
176
     1
 40
1.0
176
     1
  0
VISUALSTYLE
  5
41
102
{ACAD_REACTORS
330
29
102
}
330
29
100
AcDbVisualStyle
  2
EdgeColorOff
 70
    22
177
     3
291
     1
 70
    58
 90
        2
176
     0
 90
        2
176
     0
 90
        0
176
     0
 90
        0
176
     0
 40
0.6
176
     0
 40
30.0
176
     0
 62
     7
420
 16777215
176
     0
 90
        1
176
     0
 90
        4
176
     0
 62
     7
176
     0
 62
   257
176
     0
 90
        1
176
     0
 90
        1
176
     0
 40
1.0
176
     0
 90
        8
176
     2
 62
     7
176
     0
 40
1.0
176
     0
 90
        1
176
     0
 90
        6
176
     0
 90
        2
176
     0
 62
     7
176
     0
 90
        5
176
     0
 90
        0
176
     0
 90
        0
176
     0
290
     0
176
     0
 90
        1
176
     0
 40
0.0
176
     0
 90
        0
176
     0
290
     0
176
     1
290
     1
176
     1
290
     1
176
     1
290
     0
176
     1
290
     0
176
     1
290
     0
176
     1
290
     0
176
     1
290
     0
176
     1
290
     0
176
     1
 90
       50
176
     0
 40
0.0
176
     0
 40
1.0
176
     0
 90
        0
176
     0
 62
    18
420
        0
176
     0
 90
       50
176
     0
 90
        3
176
     0
 62
     5
420
      255
176
     0
290
     0
176
     1
 90
       50
176
     0
 90
       50
176
     0
 90
       50
176
     0
290
     0
176
     1
 90
       50
176
     0
 62
   256
176
     0
 40
1.0
176
     0
 90
        2
176
     0
  1
strokes_ogs.tif
176
     0
290
     0
176
     1
 40
1.0
176
     0
 40
1.0
176
     0
  0
VISUALSTYLE
  5
38
102
{ACAD_REACTORS
330
29
102
}
330
29
100
AcDbVisualStyle
  2
Facepattern
 70
    15
177
     3
291
     1
 70
    58
 90
        2
176
     1
 90
        2
176
     1
 90
        0
176
     1
 90
        0
176
     1
 40
0.6
176
     1
 40
30.0
176
     1
 62
     7
420
 16777215
176
     1
 90
        1
176
     1
 90
        4
176
     1
 62
     7
176
     1
 62
   257
176
     1
 90
        1
176
     1
 90
        1
176
     1
 40
1.0
176
     1
 90
        8
176
     1
 62
     7
176
     1
 40
1.0
176
     1
 90
        1
176
     1
 90
        6
176
     1
 90
        2
176
     1
 62
     7
176
     1
 90
        5
176
     1
 90
        0
176
     1
 90
        0
176
     1
290
     0
176
     1
 90
        1
176
     1
 40
0.0
176
     1
 90
        0
176
     1
290
     0
176
     1
290
     1
176
     1
290
     1
176
     1
290
     0
176
     1
290
     0
176
     1
290
     0
176
     1
290
     0
176
     1
290
     0
176
     1
290
     0
176
     1
 90
       50
176
     1
 40
0.0
176
     1
 40
1.0
176
     1
 90
        0
176
     1
 62
    18
420
        0
176
     1
 90
       50
176
     1
 90
        3
176
     1
 62
     5
420
      255
176
     1
290
     0
176
     1
 90
       50
176
     1
 90
       50
176
     1
 90
       50
176
     1
290
     0
176
     1
 90
       50
176
     1
 62
   256
176
     0
 40
1.0
176
     0
 90
        2
176
     1
  1
strokes_ogs.tif
176
     1
290
     0
176
     1
 40
1.0
176
     1
 40
1.0
176
     1
  0
VISUALSTYLE
  5
2A
102
{ACAD_REACTORS
330
29
102
}
330
29
100
AcDbVisualStyle
  2
Flat
 70
     0
177
     3
291
     1
 70
    58
 90
        2
176
     1
 90
        1
176
     1
 90
        1
176
     1
 90
        2
176
     1
 40
0.6
176
     1
 40
30.0
176
     1
 62
     7
420
 16777215
176
     1
 90
        0
176
     1
 90
        0
176
     1
 62
     7
176
     1
 62
   257
176
     1
 90
        1
176
     1
 90
        1
176
     1
 40
1.0
176
     1
 90
        8
176
     1
 62
     7
176
     1
 40
1.0
176
     1
 90
        1
176
     1
 90
        6
176
     1
 90
        2
176
     1
 62
     7
176
     1
 90
        5
176
     1
 90
        0
176
     1
 90
        0
176
     1
290
     0
176
     1
 90
       13
176
     1
 40
0.0
176
     1
 90
        0
176
     1
290
     0
176
     1
290
     1
176
     1
290
     1
176
     1
290
     0
176
     1
290
     0
176
     1
290
     0
176
     1
290
     0
176
     1
290
     0
176
     1
290
     0
176
     1
 90
       50
176
     1
 40
0.0
176
     1
 40
1.0
176
     1
 90
        0
176
     1
 62
    18
420
        0
176
     1
 90
       50
176
     1
 90
        3
176
     1
 62
     5
420
      255
176
     1
290
     0
176
     1
 90
       50
176
     1
 90
       50
176
     1
 90
       50
176
     1
290
     0
176
     1
 90
       50
176
     1
 62
   256
176
     0
 40
1.0
176
     0
 90
        2
176
     1
  1
strokes_ogs.tif
176
     1
290
     0
176
     1
 40
1.0
176
     1
 40
1.0
176
     1
  0
VISUALSTYLE
  5
2B
102
{ACAD_REACTORS
330
29
102
}
330
29
100
AcDbVisualStyle
  2
FlatWithEdges
 70
     1
177
     3
291
     1
 70
    58
 90
        2
176
     1
 90
        1
176
     1
 90
        1
176
     1
 90
        2
176
     1
 40
0.6
176
     1
 40
30.0
176
     1
 62
     7
420
 16777215
176
     1
 90
        1
176
     1
 90
        0
176
     1
 62
     7
176
     1
 62
   257
176
     1
 90
        1
176
     1
 90
        1
176
     1
 40
1.0
176
     1
 90
        0
176
     1
 62
   257
176
     1
 40
1.0
176
     1
 90
        1
176
     1
 90
        6
176
     1
 90
        2
176
     1
 62
     7
176
     1
 90
        5
176
     1
 90
        0
176
     1
 90
        0
176
     1
290
     0
176
     1
 90
       13
176
     1
 40
0.0
176
     1
 90
        0
176
     1
290
     0
176
     1
290
     1
176
     1
290
     1
176
     1
290
     0
176
     1
290
     0
176
     1
290
     0
176
     1
290
     0
176
     1
290
     0
176
     1
290
     0
176
     1
 90
       50
176
     1
 40
0.0
176
     1
 40
1.0
176
     1
 90
        0
176
     1
 62
    18
420
        0
176
     1
 90
       50
176
     1
 90
        3
176
     1
 62
     5
420
      255
176
     1
290
     0
176
     1
 90
       50
176
     1
 90
       50
176
     1
 90
       50
176
     1
290
     0
176
     1
 90
       50
176
     1
 62
   256
176
     0
 40
1.0
176
     0
 90
        2
176
     1
  1
strokes_ogs.tif
176
     1
290
     0
176
     1
 40
1.0
176
     1
 40
1.0
176
     1
  0
VISUALSTYLE
  5
2C
102
{ACAD_REACTORS
330
29
102
}
330
29
100
AcDbVisualStyle
  2
Gouraud
 70
     2
177
     3
291
     1
 70
    58
 90
        2
176
     1
 90
        2
176
     1
 90
        1
176
     1
 90
        2
176
     1
 40
0.6
176
     1
 40
30.0
176
     1
 62
     7
420
 16777215
176
     1
 90
        0
176
     1
 90
        0
176
     1
 62
     7
176
     1
 62
   257
176
     1
 90
        1
176
     1
 90
        1
176
     1
 40
1.0
176
     1
 90
        0
176
     1
 62
     7
176
     1
 40
1.0
176
     1
 90
        1
176
     1
 90
        6
176
     1
 90
        2
176
     1
 62
     7
176
     1
 90
        5
176
     1
 90
        0
176
     1
 90
        0
176
     1
290
     0
176
     1
 90
       13
176
     1
 40
0.0
176
     1
 90
        0
176
     1
290
     0
176
     1
290
     1
176
     1
290
     1
176
     1
290
     0
176
     1
290
     0
176
     1
290
     0
176
     1
290
     0
176
     1
290
     0
176
     1
290
     0
176
     1
 90
       50
176
     1
 40
0.0
176
     1
 40
1.0
176
     1
 90
        0
176
     1
 62
    18
420
        0
176
     1
 90
       50
176
     1
 90
        3
176
     1
 62
     5
420
      255
176
     1
290
     0
176
     1
 90
       50
176
     1
 90
       50
176
     1
 90
       50
176
     1
290
     0
176
     1
 90
       50
176
     1
 62
   256
176
     0
 40
1.0
176
     0
 90
        2
176
     1
  1
strokes_ogs.tif
176
     1
290
     0
176
     1
 40
1.0
176
     1
 40
1.0
176
     1
  0
VISUALSTYLE
  5
2D
102
{ACAD_REACTORS
330
29
102
}
330
29
100
AcDbVisualStyle
  2
GouraudWithEdges
 70
     3
177
     3
291
     1
 70
    58
 90
        2
176
     1
 90
        2
176
     1
 90
        1
176
     1
 90
        2
176
     1
 40
0.6
176
     1
 40
30.0
176
     1
 62
     7
420
 16777215
176
     1
 90
        1
176
     1
 90
        0
176
     1
 62
     7
176
     1
 62
   257
176
     1
 90
        1
176
     1
 90
        1
176
     1
 40
1.0
176
     1
 90
        0
176
     1
 62
   257
176
     1
 40
1.0
176
     1
 90
        1
176
     1
 90
        6
176
     1
 90
        2
176
     1
 62
     7
176
     1
 90
        5
176
     1
 90
        0
176
     1
 90
        0
176
     1
290
     0
176
     1
 90
       13
176
     1
 40
0.0
176
     1
 90
        0
176
     1
290
     0
176
     1
290
     1
176
     1
290
     1
176
     1
290
     0
176
     1
290
     0
176
     1
290
     0
176
     1
290
     0
176
     1
290
     0
176
     1
290
     0
176
     1
 90
       50
176
     1
 40
0.0
176
     1
 40
1.0
176
     1
 90
        0
176
     1
 62
    18
420
        0
176
     1
 90
       50
176
     1
 90
        3
176
     1
 62
     5
420
      255
176
     1
290
     0
176
     1
 90
       50
176
     1
 90
       50
176
     1
 90
       50
176
     1
290
     0
176
     1
 90
       50
176
     1
 62
   256
176
     0
 40
1.0
176
     0
 90
        2
176
     1
  1
strokes_ogs.tif
176
     1
290
     0
176
     1
 40
1.0
176
     1
 40
1.0
176
     1
  0
VISUALSTYLE
  5
31
102
{ACAD_REACTORS
330
29
102
}
330
29
100
AcDbVisualStyle
  2
Hidden
 70
     6
177
     3
291
     0
 70
    58
 90
        1
176
     1
 90
        2
176
     1
 90
        2
176
     1
 90
        0
176
     1
 40
0.6
176
     1
 40
30.0
176
     1
 62
     7
420
 16777215
176
     1
 90
        2
176
     1
 90
        2
176
     1
 62
     7
176
     1
 62
   257
176
     1
 90
        2
176
     1
 90
        1
176
     1
 40
40.0
176
     1
 90
        0
176
     1
 62
   257
176
     1
 40
1.0
176
     1
 90
        1
176
     1
 90
        6
176
     1
 90
        2
176
     1
 62
     7
176
     1
 90
        3
176
     1
 90
        0
176
     1
 90
        0
176
     1
290
     0
176
     1
 90
        1
176
     1
 40
0.0
176
     1
 90
        0
176
     1
290
     0
176
     1
290
     1
176
     1
290
     1
176
     1
290
     0
176
     1
290
     0
176
     1
290
     0
176
     1
290
     0
176
     1
290
     0
176
     1
290
     0
176
     1
 90
       50
176
     1
 40
0.0
176
     1
 40
1.0
176
     1
 90
        0
176
     1
 62
    18
420
        0
176
     1
 90
       50
176
     1
 90
        3
176
     1
 62
     5
420
      255
176
     1
290
     0
176
     1
 90
       50
176
     1
 90
       50
176
     1
 90
       50
176
     1
290
     0
176
     1
 90
       50
176
     1
 62
   256
176
     0
 40
1.0
176
     0
 90
        2
176
     1
  1
strokes_ogs.tif
176
     1
290
     0
176
     1
 40
1.0
176
     1
 40
1.0
176
     1
  0
VISUALSTYLE
  5
3F
102
{ACAD_REACTORS
330
29
102
}
330
29
100
AcDbVisualStyle
  2
JitterOff
 70
    20
177
     3
291
     1
 70
    58
 90
        2
176
     0
 90
        2
176
     0
 90
        0
176
     0
 90
        0
176
     0
 40
0.6
176
     0
 40
30.0
176
     0
 62
     7
420
 16777215
176
     0
 90
        1
176
     0
 90
        4
176
     0
 62
     7
176
     0
 62
   257
176
     0
 90
        1
176
     0
 90
        1
176
     0
 40
1.0
176
     0
 90
       10
176
     2
 62
     7
176
     0
 40
1.0
176
     0
 90
        1
176
     0
 90
        6
176
     0
 90
        2
176
     0
 62
     7
176
     0
 90
        5
176
     0
 90
        0
176
     0
 90
        0
176
     0
290
     0
176
     0
 90
        1
176
     0
 40
0.0
176
     0
 90
        0
176
     0
290
     0
176
     1
290
     1
176
     1
290
     1
176
     1
290
     0
176
     1
290
     0
176
     1
290
     0
176
     1
290
     0
176
     1
290
     0
176
     1
290
     0
176
     1
 90
       50
176
     0
 40
0.0
176
     0
 40
1.0
176
     0
 90
        0
176
     0
 62
    18
420
        0
176
     0
 90
       50
176
     0
 90
        3
176
     0
 62
     5
420
      255
176
     0
290
     0
176
     1
 90
       50
176
     0
 90
       50
176
     0
 90
       50
176
     0
290
     0
176
     1
 90
       50
176
     0
 62
   256
176
     0
 40
1.0
176
     0
 90
        2
176
     0
  1
strokes_ogs.tif
176
     0
290
     0
176
     1
 40
1.0
176
     0
 40
1.0
176
     0
  0
VISUALSTYLE
  5
37
102
{ACAD_REACTORS
330
29
102
}
330
29
100
AcDbVisualStyle
  2
Linepattern
 70
    14
177
     3
291
     1
 70
    58
 90
        2
176
     1
 90
        2
176
     1
 90
        0
176
     1
 90
        0
176
     1
 40
0.6
176
     1
 40
30.0
176
     1
 62
     7
420
 16777215
176
     1
 90
        1
176
     1
 90
        4
176
     1
 62
     7
176
     1
 62
   257
176
     1
 90
        7
176
     1
 90
        7
176
     1
 40
1.0
176
     1
 90
        8
176
     1
 62
     7
176
     1
 40
1.0
176
     1
 90
        1
176
     1
 90
        6
176
     1
 90
        2
176
     1
 62
     7
176
     1
 90
        5
176
     1
 90
        0
176
     1
 90
        0
176
     1
290
     0
176
     1
 90
        1
176
     1
 40
0.0
176
     1
 90
        0
176
     1
290
     0
176
     1
290
     1
176
     1
290
     1
176
     1
290
     0
176
     1
290
     0
176
     1
290
     0
176
     1
290
     0
176
     1
290
     0
176
     1
290
     0
176
     1
 90
       50
176
     1
 40
0.0
176
     1
 40
1.0
176
     1
 90
        0
176
     1
 62
    18
420
        0
176
     1
 90
       50
176
     1
 90
        3
176
     1
 62
     5
420
      255
176
     1
290
     0
176
     1
 90
       50
176
     1
 90
       50
176
     1
 90
       50
176
     1
290
     0
176
     1
 90
       50
176
     1
 62
   256
176
     0
 40
1.0
176
     0
 90
        2
176
     1
  1
strokes_ogs.tif
176
     1
290
     0
176
     1
 40
1.0
176
     1
 40
1.0
176
     1
  0
VISUALSTYLE
  5
40
102
{ACAD_REACTORS
330
29
102
}
330
29
100
AcDbVisualStyle
  2
OverhangOff
 70
    21
177
     3
291
     1
 70
    58
 90
        2
176
     0
 90
        2
176
     0
 90
        0
176
     0
 90
        0
176
     0
 40
0.6
176
     0
 40
30.0
176
     0
 62
     7
420
 16777215
176
     0
 90
        1
176
     0
 90
        4
176
     0
 62
     7
176
     0
 62
   257
176
     0
 90
        1
176
     0
 90
        1
176
     0
 40
1.0
176
     0
 90
        9
176
     2
 62
     7
176
     0
 40
1.0
176
     0
 90
        1
176
     0
 90
        6
176
     0
 90
        2
176
     0
 62
     7
176
     0
 90
        5
176
     0
 90
        0
176
     0
 90
        0
176
     0
290
     0
176
     0
 90
        1
176
     0
 40
0.0
176
     0
 90
        0
176
     0
290
     0
176
     1
290
     1
176
     1
290
     1
176
     1
290
     0
176
     1
290
     0
176
     1
290
     0
176
     1
290
     0
176
     1
290
     0
176
     1
290
     0
176
     1
 90
       50
176
     0
 40
0.0
176
     0
 40
1.0
176
     0
 90
        0
176
     0
 62
    18
420
        0
176
     0
 90
       50
176
     0
 90
        3
176
     0
 62
     5
420
      255
176
     0
290
     0
176
     1
 90
       50
176
     0
 90
       50
176
     0
 90
       50
176
     0
290
     0
176
     1
 90
       50
176
     0
 62
   256
176
     0
 40
1.0
176
     0
 90
        2
176
     0
  1
strokes_ogs.tif
176
     0
290
     0
176
     1
 40
1.0
176
     0
 40
1.0
176
     0
  0
VISUALSTYLE
  5
33
102
{ACAD_REACTORS
330
29
102
}
330
29
100
AcDbVisualStyle
  2
Realistic
 70
     8
177
     3
291
     0
 70
    58
 90
        2
176
     1
 90
        3
176
     1
 90
        0
176
     1
 90
        2
176
     1
 40
0.6
176
     1
 40
30.0
176
     1
 62
     7
420
 16777215
176
     1
 90
        0
176
     1
 90
        0
176
     1
 62
     7
176
     1
 62
   257
176
     1
 90
        1
176
     1
 90
        1
176
     1
 40
1.0
176
     1
 90
        8
176
     1
 62
   257
176
     1
 40
1.0
176
     1
 90
        1
176
     1
 90
        6
176
     1
 90
        2
176
     1
 62
     7
176
     1
 90
        3
176
     1
 90
        0
176
     1
 90
        0
176
     1
290
     0
176
     1
 90
       13
176
     1
 40
0.0
176
     1
 90
        0
176
     1
290
     0
176
     1
290
     1
176
     1
290
     1
176
     1
290
     0
176
     1
290
     0
176
     1
290
     0
176
     1
290
     0
176
     1
290
     0
176
     1
290
     0
176
     1
 90
       50
176
     1
 40
0.0
176
     1
 40
1.0
176
     1
 90
        0
176
     1
 62
    18
420
        0
176
     1
 90
       50
176
     1
 90
        3
176
     1
 62
     5
420
      255
176
     1
290
     0
176
     1
 90
       50
176
     1
 90
       50
176
     1
 90
       50
176
     1
290
     0
176
     1
 90
       50
176
     1
 62
   256
176
     0
 40
1.0
176
     0
 90
        2
176
     1
  1
strokes_ogs.tif
176
     1
290
     0
176
     1
 40
1.0
176
     1
 40
1.0
176
     1
  0
VISUALSTYLE
  5
3E
102
{ACAD_REACTORS
330
29
102
}
330
29
100
AcDbVisualStyle
  2
Shaded
 70
    27
177
     3
291
     0
 70
    58
 90
        2
176
     1
 90
        2
176
     1
 90
        1
176
     1
 90
        2
176
     1
 40
0.6
176
     1
 40
30.0
176
     1
 62
     7
420
 16777215
176
     1
 90
        0
176
     1
 90
        4
176
     1
 62
     7
176
     1
 62
   257
176
     1
 90
        1
176
     1
 90
        1
176
     1
 40
1.0
176
     1
 90
        8
176
     1
 62
   257
176
     1
 40
1.0
176
     1
 90
        1
176
     1
 90
        6
176
     1
 90
        2
176
     1
 62
     8
420
  7895160
176
     1
 90
        3
176
     1
 90
        0
176
     1
 90
        0
176
     1
290
     0
176
     1
 90
        5
176
     1
 40
0.0
176
     1
 90
        0
176
     1
290
     0
176
     1
290
     1
176
     1
290
     1
176
     1
290
     0
176
     1
290
     0
176
     1
290
     0
176
     1
290
     0
176
     1
290
     0
176
     1
290
     0
176
     1
 90
       50
176
     1
 40
0.0
176
     1
 40
1.0
176
     1
 90
        0
176
     1
 62
    18
420
        0
176
     1
 90
       50
176
     1
 90
        3
176
     1
 62
     5
420
      255
176
     1
290
     0
176
     1
 90
       50
176
     1
 90
       50
176
     1
 90
       50
176
     1
290
     0
176
     1
 90
       50
176
     1
 62
   256
176
     0
 40
1.0
176
     0
 90
        2
176
     1
  1
strokes_ogs.tif
176
     1
290
     0
176
     1
 40
1.0
176
     1
 40
1.0
176
     1
  0
VISUALSTYLE
  5
3D
102
{ACAD_REACTORS
330
29
102
}
330
29
100
AcDbVisualStyle
  2
Shaded with edges
 70
    26
177
     3
291
     0
 70
    58
 90
        2
176
     1
 90
        2
176
     1
 90
        1
176
     1
 90
        2
176
     1
 40
0.6
176
     1
 40
30.0
176
     1
 62
     7
420
 16777215
176
     1
 90
        1
176
     1
 90
        2
176
     1
 62
     7
176
     1
 62
   257
176
     1
 90
        2
176
     1
 90
        1
176
     1
 40
1.0
176
     1
 90
        8
176
     1
 62
   257
176
     1
 40
1.0
176
     1
 90
        1
176
     1
 90
        6
176
     1
 90
        2
176
     1
 62
     7
176
     1
 90
        3
176
     1
 90
        0
176
     1
 90
        0
176
     1
290
     0
176
     1
 90
        5
176
     1
 40
0.0
176
     1
 90
        0
176
     1
290
     0
176
     1
290
     1
176
     1
290
     1
176
     1
290
     0
176
     1
290
     0
176
     1
290
     0
176
     1
290
     0
176
     1
290
     0
176
     1
290
     0
176
     1
 90
       50
176
     1
 40
0.0
176
     1
 40
1.0
176
     1
 90
        0
176
     1
 62
    18
420
        0
176
     1
 90
       50
176
     1
 90
        3
176
     1
 62
     5
420
      255
176
     1
290
     0
176
     1
 90
       50
176
     1
 90
       50
176
     1
 90
       50
176
     1
290
     0
176
     1
 90
       50
176
     1
 62
   256
176
     0
 40
1.0
176
     0
 90
        2
176
     1
  1
strokes_ogs.tif
176
     1
290
     0
176
     1
 40
1.0
176
     1
 40
1.0
176
     1
  0
VISUALSTYLE
  5
3A
102
{ACAD_REACTORS
330
29
102
}
330
29
100
AcDbVisualStyle
  2
Shades of Gray
 70
    23
177
     3
291
     0
 70
    58
 90
        2
176
     1
 90
        2
176
     1
 90
        3
176
     1
 90
        0
176
     1
 40
0.6
176
     1
 40
30.0
176
     1
 62
     7
420
 16777215
176
     1
 90
        2
176
     1
 90
        2
176
     1
 62
     7
176
     1
 62
     7
176
     1
 90
        1
176
     1
 90
        1
176
     1
 40
40.0
176
     1
 90
        8
176
     1
 62
     7
176
     1
 40
1.0
176
     1
 90
        1
176
     1
 90
        6
176
     1
 90
        2
176
     1
 62
     7
176
     1
 90
        3
176
     1
 90
        0
176
     1
 90
        0
176
     1
290
     0
176
     1
 90
        1
176
     1
 40
0.0
176
     1
 90
        0
176
     1
290
     0
176
     1
290
     1
176
     1
290
     1
176
     1
290
     0
176
     1
290
     0
176
     1
290
     0
176
     1
290
     0
176
     1
290
     0
176
     1
290
     0
176
     1
 90
       50
176
     1
 40
0.0
176
     1
 40
1.0
176
     1
 90
        0
176
     1
 62
    18
420
        0
176
     1
 90
       50
176
     1
 90
        3
176
     1
 62
     5
420
      255
176
     1
290
     0
176
     1
 90
       50
176
     1
 90
       50
176
     1
 90
       50
176
     1
290
     0
176
     1
 90
       50
176
     1
 62
   256
176
     0
 40
1.0
176
     0
 90
        2
176
     1
  1
strokes_ogs.tif
176
     1
290
     0
176
     1
 40
1.0
176
     1
 40
1.0
176
     1
  0
VISUALSTYLE
  5
3B
102
{ACAD_REACTORS
330
29
102
}
330
29
100
AcDbVisualStyle
  2
Sketchy
 70
    24
177
     3
291
     0
 70
    58
 90
        1
176
     1
 90
        2
176
     1
 90
        2
176
     1
 90
        0
176
     1
 40
0.6
176
     1
 40
30.0
176
     1
 62
     7
420
 16777215
176
     1
 90
        2
176
     1
 90
        2
176
     1
 62
     7
176
     1
 62
     7
176
     1
 90
        1
176
     1
 90
        1
176
     1
 40
40.0
176
     1
 90
       11
176
     1
 62
     7
176
     1
 40
1.0
176
     1
 90
        1
176
     1
 90
        6
176
     1
 90
        2
176
     1
 62
     7
176
     1
 90
        6
176
     1
 90
        0
176
     1
 90
        0
176
     1
290
     0
176
     1
 90
        1
176
     1
 40
0.0
176
     1
 90
        0
176
     1
290
     0
176
     1
290
     1
176
     1
290
     1
176
     1
290
     0
176
     1
290
     0
176
     1
290
     0
176
     1
290
     0
176
     1
290
     0
176
     1
290
     0
176
     1
 90
       50
176
     1
 40
0.0
176
     1
 40
1.0
176
     1
 90
        0
176
     1
 62
    18
420
        0
176
     1
 90
       50
176
     1
 90
        3
176
     1
 62
     5
420
      255
176
     1
290
     0
176
     1
 90
       50
176
     1
 90
       50
176
     1
 90
       50
176
     1
290
     0
176
     1
 90
       50
176
     1
 62
   256
176
     0
 40
1.0
176
     0
 90
        2
176
     1
  1
strokes_ogs.tif
176
     1
290
     0
176
     1
 40
1.0
176
     1
 40
1.0
176
     1
  0
VISUALSTYLE
  5
36
102
{ACAD_REACTORS
330
29
102
}
330
29
100
AcDbVisualStyle
  2
Thicken
 70
    13
177
     3
291
     1
 70
    58
 90
        2
176
     1
 90
        2
176
     1
 90
        0
176
     1
 90
        0
176
     1
 40
0.6
176
     1
 40
30.0
176
     1
 62
     7
420
 16777215
176
     1
 90
        1
176
     1
 90
        4
176
     1
 62
     7
176
     1
 62
   257
176
     1
 90
        1
176
     1
 90
        1
176
     1
 40
1.0
176
     1
 90
       12
176
     1
 62
     7
176
     1
 40
1.0
176
     1
 90
        1
176
     1
 90
        6
176
     1
 90
        2
176
     1
 62
     7
176
     1
 90
        5
176
     1
 90
        0
176
     1
 90
        0
176
     1
290
     0
176
     1
 90
        1
176
     1
 40
0.0
176
     1
 90
        0
176
     1
290
     0
176
     1
290
     1
176
     1
290
     1
176
     1
290
     0
176
     1
290
     0
176
     1
290
     0
176
     1
290
     0
176
     1
290
     0
176
     1
290
     0
176
     1
 90
       50
176
     1
 40
0.0
176
     1
 40
1.0
176
     1
 90
        0
176
     1
 62
    18
420
        0
176
     1
 90
       50
176
     1
 90
        3
176
     1
 62
     5
420
      255
176
     1
290
     0
176
     1
 90
       50
176
     1
 90
       50
176
     1
 90
       50
176
     1
290
     0
176
     1
 90
       50
176
     1
 62
   256
176
     0
 40
1.0
176
     0
 90
        2
176
     1
  1
strokes_ogs.tif
176
     1
290
     0
176
     1
 40
1.0
176
     1
 40
1.0
176
     1
  0
VISUALSTYLE
  5
30
102
{ACAD_REACTORS
330
29
102
}
330
29
100
AcDbVisualStyle
  2
Wireframe
 70
     5
177
     3
291
     0
 70
    58
 90
        0
176
     1
 90
        2
176
     1
 90
        0
176
     1
 90
        0
176
     1
 40
0.6
176
     1
 40
30.0
176
     1
 62
     7
420
 16777215
176
     1
 90
        1
176
     1
 90
        4
176
     1
 62
     7
176
     1
 62
   257
176
     1
 90
        1
176
     1
 90
        1
176
     1
 40
1.0
176
     1
 90
        0
176
     1
 62
   257
176
     1
 40
1.0
176
     1
 90
        1
176
     1
 90
        6
176
     1
 90
        2
176
     1
 62
     7
176
     1
 90
        3
176
     1
 90
        0
176
     1
 90
        0
176
     1
290
     0
176
     1
 90
        1
176
     1
 40
0.0
176
     1
 90
        0
176
     1
290
     0
176
     1
290
     1
176
     1
290
     1
176
     1
290
     0
176
     1
290
     0
176
     1
290
     0
176
     1
290
     0
176
     1
290
     0
176
     1
290
     0
176
     1
 90
       50
176
     1
 40
0.0
176
     1
 40
1.0
176
     1
 90
        0
176
     1
 62
    18
420
        0
176
     1
 90
       50
176
     1
 90
        3
176
     1
 62
     5
420
      255
176
     1
290
     0
176
     1
 90
       50
176
     1
 90
       50
176
     1
 90
       50
176
     1
290
     0
176
     1
 90
       50
176
     1
 62
   256
176
     0
 40
1.0
176
     0
 90
        2
176
     1
  1
strokes_ogs.tif
176
     1
290
     0
176
     1
 40
1.0
176
     1
 40
1.0
176
     1
  0
VISUALSTYLE
  5
3C
102
{ACAD_REACTORS
330
29
102
}
330
29
100
AcDbVisualStyle
  2
X-Ray
 70
    25
177
     3
291
     0
 70
    58
 90
        2
176
     1
 90
        2
176
     1
 90
        1
176
     1
 90
        1
176
     1
 40
0.5
176
     1
 40
30.0
176
     1
 62
     7
420
 16777215
176
     1
 90
        1
176
     1
 90
        0
176
     1
 62
     7
176
     1
 62
   257
176
     1
 90
        1
176
     1
 90
        1
176
     1
 40
1.0
176
     1
 90
        8
176
     1
 62
     7
176
     1
 40
1.0
176
     1
 90
        1
176
     1
 90
        6
176
     1
 90
        2
176
     1
 62
     7
176
     1
 90
        3
176
     1
 90
        0
176
     1
 90
        0
176
     1
290
     0
176
     1
 90
       13
176
     1
 40
0.0
176
     1
 90
        0
176
     1
290
     0
176
     1
290
     1
176
     1
290
     1
176
     1
290
     0
176
     1
290
     0
176
     1
290
     0
176
     1
290
     0
176
     1
290
     0
176
     1
290
     0
176
     1
 90
       50
176
     1
 40
0.0
176
     1
 40
1.0
176
     1
 90
        0
176
     1
 62
    18
420
        0
176
     1
 90
       50
176
     1
 90
        3
176
     1
 62
     5
420
      255
176
     1
290
     0
176
     1
 90
       50
176
     1
 90
       50
176
     1
 90
       50
176
     1
290
     0
176
     1
 90
       50
176
     1
 62
   256
176
     0
 40
1.0
176
     0
 90
        2
176
     1
  1
strokes_ogs.tif
176
     1
290
     0
176
     1
 40
1.0
176
     1
 40
1.0
176
     1
  0
DICTIONARYVAR
  5
1CE8
102
{ACAD_REACTORS
330
1CE2
102
}
330
1CE2
100
DictionaryVariables
280
     0
  1
1:1
  0
DICTIONARYVAR
  5
1CE4
102
{ACAD_REACTORS
330
1CE2
102
}
330
1CE2
100
DictionaryVariables
280
     0
  1
STANDARD
  0
DICTIONARYVAR
  5
1CE3
102
{ACAD_REACTORS
330
1CE2
102
}
330
1CE2
100
DictionaryVariables
280
     0
  1
STANDARD
  0
DICTIONARYVAR
  5
1CE5
102
{ACAD_REACTORS
330
1CE2
102
}
330
1CE2
100
DictionaryVariables
280
     0
  1
Imperial24
  0
DICTIONARYVAR
  5
1CE6
102
{ACAD_REACTORS
330
1CE2
102
}
330
1CE2
100
DictionaryVariables
280
     0
  1
Imperial24
  0
DICTIONARYVAR
  5
1CEA
102
{ACAD_REACTORS
330
1CE2
102
}
330
1CE2
100
DictionaryVariables
280
     0
  1
1
  0
DICTIONARYVAR
  5
1CEB
102
{ACAD_REACTORS
330
1CE2
102
}
330
1CE2
100
DictionaryVariables
280
     0
  1
15
  0
DICTIONARYVAR
  5
1CE9
102
{ACAD_REACTORS
330
1CE2
102
}
330
1CE2
100
DictionaryVariables
280
     0
  1
1
  0
DICTIONARYVAR
  5
1CE7
102
{ACAD_REACTORS
330
1CE2
102
}
330
1CE2
100
DictionaryVariables
280
     0
  1
0
  0
DICTIONARY
  5
1A
330
19
100
AcDbDictionary
280
     1
281
     1
  3
BUMPTILE
360
1C
  3
DIFFUSETILE
360
1B
  3
OPACITYTILE
360
1F
  3
REFLECTIONTILE
360
1E
  3
REFRACTIONTILE
360
20
  3
SPECULARTILE
360
1D
  0
DICTIONARY
  5
12
330
11
100
AcDbDictionary
280
     1
281
     1
  3
BUMPTILE
360
14
  3
DIFFUSETILE
360
13
  3
OPACITYTILE
360
17
  3
REFLECTIONTILE
360
16
  3
REFRACTIONTILE
360
18
  3
SPECULARTILE
360
15
  0
DICTIONARY
  5
22
330
21
100
AcDbDictionary
280
     1
281
     1
  3
BUMPTILE
360
24
  3
DIFFUSETILE
360
23
  3
OPACITYTILE
360
27
  3
REFLECTIONTILE
360
26
  3
REFRACTIONTILE
360
28
  3
SPECULARTILE
360
25
  0
DICTIONARY
  5
1CF8
330
64
100
AcDbDictionary
280
     1
281
     1
  3
ACAD_ROUNDTRIP_2008_TABLESTYLE_CELLSTYLEMAP
360
1CF9
  0
XRECORD
  5
1C
102
{ACAD_REACTORS
330
1A
102
}
330
1A
100
AcDbXrecord
280
     1
270
     1
271
     1
  0
XRECORD
  5
1B
102
{ACAD_REACTORS
330
1A
102
}
330
1A
100
AcDbXrecord
280
     1
270
     1
271
     1
  0
XRECORD
  5
1F
102
{ACAD_REACTORS
330
1A
102
}
330
1A
100
AcDbXrecord
280
     1
270
     1
271
     1
  0
XRECORD
  5
1E
102
{ACAD_REACTORS
330
1A
102
}
330
1A
100
AcDbXrecord
280
     1
270
     1
271
     1
  0
XRECORD
  5
20
102
{ACAD_REACTORS
330
1A
102
}
330
1A
100
AcDbXrecord
280
     1
270
     1
271
     1
  0
XRECORD
  5
1D
102
{ACAD_REACTORS
330
1A
102
}
330
1A
100
AcDbXrecord
280
     1
270
     1
271
     1
  0
XRECORD
  5
14
102
{ACAD_REACTORS
330
12
102
}
330
12
100
AcDbXrecord
280
     1
270
     1
271
     1
  0
XRECORD
  5
13
102
{ACAD_REACTORS
330
12
102
}
330
12
100
AcDbXrecord
280
     1
270
     1
271
     1
  0
XRECORD
  5
17
102
{ACAD_REACTORS
330
12
102
}
330
12
100
AcDbXrecord
280
     1
270
     1
271
     1
  0
XRECORD
  5
16
102
{ACAD_REACTORS
330
12
102
}
330
12
100
AcDbXrecord
280
     1
270
     1
271
     1
  0
XRECORD
  5
18
102
{ACAD_REACTORS
330
12
102
}
330
12
100
AcDbXrecord
280
     1
270
     1
271
     1
  0
XRECORD
  5
15
102
{ACAD_REACTORS
330
12
102
}
330
12
100
AcDbXrecord
280
     1
270
     1
271
     1
  0
XRECORD
  5
24
102
{ACAD_REACTORS
330
22
102
}
330
22
100
AcDbXrecord
280
     1
270
     1
271
     1
  0
XRECORD
  5
23
102
{ACAD_REACTORS
330
22
102
}
330
22
100
AcDbXrecord
280
     1
270
     1
271
     1
  0
XRECORD
  5
27
102
{ACAD_REACTORS
330
22
102
}
330
22
100
AcDbXrecord
280
     1
270
     1
271
     1
  0
XRECORD
  5
26
102
{ACAD_REACTORS
330
22
102
}
330
22
100
AcDbXrecord
280
     1
270
     1
271
     1
  0
XRECORD
  5
28
102
{ACAD_REACTORS
330
22
102
}
330
22
100
AcDbXrecord
280
     1
270
     1
271
     1
  0
XRECORD
  5
25
102
{ACAD_REACTORS
330
22
102
}
330
22
100
AcDbXrecord
280
     1
270
     1
271
     1
  0
CELLSTYLEMAP
  5
1CF9
102
{ACAD_REACTORS
330
1CF8
102
}
330
1CF8
100
AcDbCellStyleMap
 90
        3
300
CELLSTYLE
  1
TABLEFORMAT_BEGIN
 90
        5
170
     1
 91
        0
 92
    32768
 62
   257
 93
        1
300
CONTENTFORMAT
  1
CONTENTFORMAT_BEGIN
 90
        0
 91
        0
 92
      512
 93
        0
300

 40
0.0
140
1.0
 94
        5
 62
     0
340
55
144
0.25
309
CONTENTFORMAT_END
171
     0
 94
        0
309
TABLEFORMAT_END
  1
CELLSTYLE_BEGIN
 90
        1
 91
        1
300
_TITLE
309
CELLSTYLE_END
300
CELLSTYLE
  1
TABLEFORMAT_BEGIN
 90
        5
170
     1
 91
        0
 92
        0
 62
   257
 93
        1
300
CONTENTFORMAT
  1
CONTENTFORMAT_BEGIN
 90
        0
 91
        0
 92
      512
 93
        0
300

 40
0.0
140
1.0
 94
        5
 62
     0
340
55
144
0.18
309
CONTENTFORMAT_END
171
     0
 94
        0
309
TABLEFORMAT_END
  1
CELLSTYLE_BEGIN
 90
        2
 91
        1
300
_HEADER
309
CELLSTYLE_END
300
CELLSTYLE
  1
TABLEFORMAT_BEGIN
 90
        5
170
     1
 91
        0
 92
        0
 62
   257
 93
        1
300
CONTENTFORMAT
  1
CONTENTFORMAT_BEGIN
 90
        0
 91
        0
 92
      512
 93
        0
300

 40
0.0
140
1.0
 94
        2
 62
     0
340
55
144
0.18
309
CONTENTFORMAT_END
171
     0
 94
        0
309
TABLEFORMAT_END
  1
CELLSTYLE_BEGIN
 90
        3
 91
        2
300
_DATA
309
CELLSTYLE_END
  0
ENDSEC
  0
SECTION
  2
ACDSDATA
 70
     2
 71
     8
  0
ACDSSCHEMA
 90
        0
  1
AcDb_Thumbnail_Schema
  2
AcDbDs::ID
280
    10
 91
        8
  2
Thumbnail_Data
280
    15
 91
        0
101
ACDSRECORD
 95
        0
 90
        1
  2
AcDbDs::TreatedAsObjectData
280
     1
291
     1
101
ACDSRECORD
 95
        0
 90
        2
  2
AcDbDs::Legacy
280
     1
291
     1
101
ACDSRECORD
  1
AcDbDs::ID
 90
        3
  2
AcDs:Indexable
280
     1
291
     1
101
ACDSRECORD
  1
AcDbDs::ID
 90
        4
  2
AcDbDs::HandleAttribute
280
     7
282
     1
  0
ACDSSCHEMA
 90
        1
  1
AcDbDs::TreatedAsObjectDataSchema
  2
AcDbDs::TreatedAsObjectData
280
     1
 91
        0
  0
ACDSSCHEMA
 90
        2
  1
AcDbDs::LegacySchema
  2
AcDbDs::Legacy
280
     1
 91
        0
  0
ACDSSCHEMA
 90
        3
  1
AcDbDs::IndexedPropertySchema
  2
AcDs:Indexable
280
     1
 91
        0
  0
ACDSSCHEMA
 90
        4
  1
AcDbDs::HandleAttributeSchema
  2
AcDbDs::HandleAttribute
280
     7
 91
        1
284
     1
  0
ACDSRECORD
 90
        0
  2
AcDbDs::ID
280
    10
320
72
  2
Thumbnail_Data
280
    15
 94
      969
310
89504E470D0A1A0A0000000D4948445200000100000000790803000000E1F60FE900000300504C5445212830FFFFFF2128300000000000000000000000000000000000000000000000000000330000660000990000CC0000FF0033000033330033660033990033CC0033FF0066000066330066660066990066CC0066FF0099
310
000099330099660099990099CC0099FF00CC0000CC3300CC6600CC9900CCCC00CCFF00FF0000FF3300FF6600FF9900FFCC00FFFF3300003300333300663300993300CC3300FF3333003333333333663333993333CC3333FF3366003366333366663366993366CC3366FF3399003399333399663399993399CC3399FF33CC00
310
33CC3333CC6633CC9933CCCC33CCFF33FF0033FF3333FF6633FF9933FFCC33FFFF6600006600336600666600996600CC6600FF6633006633336633666633996633CC6633FF6666006666336666666666996666CC6666FF6699006699336699666699996699CC6699FF66CC0066CC3366CC6666CC9966CCCC66CCFF66FF0066
310
FF3366FF6666FF9966FFCC66FFFF9900009900339900669900999900CC9900FF9933009933339933669933999933CC9933FF9966009966339966669966999966CC9966FF9999009999339999669999999999CC9999FF99CC0099CC3399CC6699CC9999CCCC99CCFF99FF0099FF3399FF6699FF9999FFCC99FFFFCC0000CC00
310
33CC0066CC0099CC00CCCC00FFCC3300CC3333CC3366CC3399CC33CCCC33FFCC6600CC6633CC6666CC6699CC66CCCC66FFCC9900CC9933CC9966CC9999CC99CCCC99FFCCCC00CCCC33CCCC66CCCC99CCCCCCCCCCFFCCFF00CCFF33CCFF66CCFF99CCFFCCCCFFFFFF0000FF0033FF0066FF0099FF00CCFF00FFFF3300FF3333
310
FF3366FF3399FF33CCFF33FFFF6600FF6633FF6666FF6699FF66CCFF66FFFF9900FF9933FF9966FF9999FF99CCFF99FFFFCC00FFCC33FFCC66FFCC99FFCCCCFFCCFFFFFF00FFFF33FFFF66FFFF99FFFFCCFFFFFF0000000D0D0D1A1A1A2828283535354343435050505D5D5D6B6B6B787878868686939393A1A1A1AEAEAEBB
310
BBBBC9C9C9D6D6D6E4E4E4F1F1F1FFFFFF0000000000000000000000000000000000000000000000000000000000002E4550F1000000844944415478DAEDD4410A80201005D0394EF7BFDBECA35D50989981CA7BCB8F23F2C18900000000000000000000000000005845E6E7202F27E66AE029C8F713EF83B50AA86864A00E
310
C72CA0E559D7AF59D3E11F3BA0E5CE1EABA9A980ED704E6F8328057707E231288F6C5D82A89898B980E8510000000000000000000000000000C02A7646F16BEA040090F30000000049454E44AE426082
  0
ENDSEC
  0
EOF
